<svg width="24" height="24" viewBox="0 0 24 24" fill="none" xmlns="http://www.w3.org/2000/svg">
<path d="M6.65017 4.04687C6.47517 4.1125 6.27204 4.25937 6.17829 4.39687C5.98767 4.675 6.00017 4.1 6.00017 12.0031C6.00017 19.2125 6.00017 19.2156 6.06579 19.3875C6.14392 19.5969 6.33454 19.8031 6.54704 19.9062L6.70329 19.9844L11.9595 19.9937L17.2158 20L17.3908 19.9344C17.622 19.8469 17.847 19.625 17.9345 19.3906C18.0002 19.2156 18.0002 19.2094 18.0002 14.1094V9.00312L15.9158 8.99062C14.3689 8.98437 13.797 8.97187 13.7127 8.94375C13.4345 8.85 13.1502 8.56562 13.0564 8.2875C13.0283 8.20312 13.0158 7.63125 13.0095 6.08437L12.997 4L9.88142 4.00312C7.32204 4.00312 6.74392 4.0125 6.65017 4.04687ZM16.0002 14.5V18H15.0002H14.0002V14.5V11H15.0002H16.0002V14.5ZM13.0002 15.5V18H12.0002H11.0002V15.5V13H12.0002H13.0002V15.5ZM10.0002 16.5V18H9.00017H8.00017V16.5V15H9.00017H10.0002V16.5Z" fill="#9C95BA"/>
<path d="M14 6V8H16.0063H18.0156L16.0156 6C14.9156 4.9 14.0125 4 14.0094 4C14.0031 4 14 4.9 14 6Z" fill="#9C95BA"/>
</svg>
