<svg width="153" height="180" viewBox="0 0 153 180" fill="none" xmlns="http://www.w3.org/2000/svg">
<g clip-path="url(#clip0_169_1033)">
<path d="M133.29 0H19.72C8.83 0 0 8.82 0 19.71V160.28C0 171.17 8.83 180 19.72 180H133.29C144.18 180 153 171.17 153 160.28V19.71C153 8.82 144.18 0 133.29 0ZM81.58 139.18C80.5 140.26 79 140.93 77.34 140.93H30.91C27.6 140.93 24.91 138.25 24.91 134.93C24.91 133.28 25.58 131.78 26.67 130.69C27.76 129.6 29.26 128.93 30.91 128.93H77.34C80.66 128.93 83.34 131.62 83.34 134.93C83.34 136.59 82.67 138.09 81.58 139.18ZM126.34 115.6C125.25 116.69 123.75 117.36 122.09 117.36H31.45C28.13 117.36 25.45 114.67 25.45 111.36C25.45 109.7 26.12 108.2 27.2 107.12C28.29 106.03 29.79 105.36 31.45 105.36H122.09C125.41 105.36 128.09 108.05 128.09 111.36C128.09 113.02 127.42 114.52 126.34 115.6ZM126.34 93.6C125.25 94.69 123.75 95.36 122.09 95.36H31.45C28.13 95.36 25.45 92.67 25.45 89.36C25.45 87.7 26.12 86.2 27.2 85.12C28.29 84.03 29.79 83.36 31.45 83.36H122.09C125.41 83.36 128.09 86.05 128.09 89.36C128.09 91.02 127.42 92.52 126.34 93.6ZM126.34 71.6C125.25 72.69 123.75 73.36 122.09 73.36H31.45C28.13 73.36 25.45 70.67 25.45 67.36C25.45 65.7 26.12 64.2 27.2 63.12C28.29 62.03 29.79 61.36 31.45 61.36H122.09C125.41 61.36 128.09 64.05 128.09 67.36C128.09 69.02 127.42 70.52 126.34 71.6ZM126.58 47.86C125.66 48.78 124.37 49.36 122.95 49.36H30.59C27.75 49.36 25.45 47.06 25.45 44.22C25.45 42.8 26.02 41.51 26.96 40.58C27.88 39.65 29.17 39.07 30.59 39.07H122.95C125.79 39.07 128.09 41.38 128.09 44.22C128.09 45.64 127.52 46.92 126.58 47.86Z" fill="#9C95BA"/>
</g>
<defs>
<clipPath id="clip0_169_1033">
<rect width="153" height="180" fill="white"/>
</clipPath>
</defs>
</svg>
