<svg width="24" height="24" viewBox="0 0 24 24" fill="none" xmlns="http://www.w3.org/2000/svg">
<path d="M6.27031 4.0875C5.94844 4.19687 5.74219 4.32812 5.50781 4.57812C5.28906 4.8125 5.11719 5.14375 5.05156 5.45312C4.98281 5.78125 4.98281 18.2188 5.05156 18.5469C5.18594 19.1844 5.67656 19.7281 6.28906 19.9219L6.53906 20H11.6922H16.8453L17.0922 19.9219C17.7109 19.725 18.1984 19.1875 18.3328 18.5469C18.4016 18.2188 18.4016 5.78125 18.3328 5.45312C18.1984 4.8125 17.7109 4.275 17.0922 4.07812L16.8453 4H11.6828H6.52031L6.27031 4.0875Z" fill="#9C95BA"/>
<rect x="7" y="7" width="9" height="1" rx="0.5" fill="#1C1A24"/>
<rect x="7" y="9" width="9" height="1" rx="0.5" fill="#1C1A24"/>
<rect x="7" y="11" width="9" height="1" rx="0.5" fill="#1C1A24"/>
<rect x="7" y="13" width="9" height="1" rx="0.5" fill="#1C1A24"/>
<rect x="7" y="15" width="5" height="1" rx="0.5" fill="#1C1A24"/>
</svg>
