<svg width="24" height="24" viewBox="0 0 24 24" fill="none" xmlns="http://www.w3.org/2000/svg">
<path d="M11.5186 4.06689C11.1405 4.19813 10.8061 4.48873 10.6468 4.82933L10.5624 5.0012H9.94681C9.25623 5.0012 9.19061 5.01995 9.0625 5.22618C9.00312 5.32305 9 5.38554 9 6.50109C9 7.61663 9.00312 7.67913 9.0625 7.77599C9.09687 7.83224 9.16874 7.90411 9.22498 7.93848C9.32498 7.99785 9.38747 8.00098 11.9998 8.00098C14.6121 8.00098 14.6746 7.99785 14.7746 7.93848C14.8308 7.90411 14.9027 7.83224 14.9371 7.77599C14.9964 7.67913 14.9996 7.61663 14.9996 6.50109C14.9996 5.38554 14.9964 5.32305 14.9371 5.22618C14.8089 5.01995 14.7433 5.0012 14.0528 5.0012H13.4372L13.3528 4.82933C13.1903 4.48561 12.856 4.19501 12.4747 4.06689C12.2123 3.97627 11.7748 3.9794 11.5186 4.06689Z" fill="#9C95BA"/>
<path d="M6.64699 6.0479C6.48137 6.1104 6.29389 6.25414 6.18452 6.401C5.98766 6.66973 6.00016 6.18852 6.00016 13.0036V19.2157L6.06578 19.3907C6.15327 19.6219 6.37826 19.8469 6.60949 19.9344C6.78448 20 6.7876 20 11.9997 20C17.2118 20 17.215 20 17.3899 19.9344C17.6212 19.8469 17.8462 19.6219 17.9337 19.3907L17.9993 19.2157V13.0005V6.78535L17.9337 6.61036C17.8462 6.37913 17.6212 6.15414 17.3899 6.06665C17.2368 6.00728 17.1462 6.00103 16.6119 6.00103H16.0057L15.99 6.86659C15.9807 7.57279 15.9651 7.76652 15.9213 7.90714C15.7713 8.38835 15.3776 8.77895 14.8901 8.92894C14.7151 8.98206 14.537 8.98518 11.9997 8.98518C9.46553 8.98518 9.28429 8.98206 9.1093 8.92894C8.74683 8.81645 8.4281 8.56959 8.23437 8.25086C8.04063 7.93214 8.02501 7.82902 8.00939 6.86659L7.99376 6.00103L7.37818 6.00415C6.93446 6.00415 6.73135 6.01665 6.64699 6.0479ZM11.7435 10.0945C11.9372 10.2132 12.031 10.5069 11.9341 10.6976C11.8841 10.7944 9.8155 12.8693 9.71239 12.9255C9.61239 12.9786 9.39678 12.9818 9.30304 12.9349C9.20617 12.8849 8.12813 11.8131 8.07501 11.7131C7.96876 11.51 8.05313 11.2194 8.25624 11.0944C8.37186 11.0257 8.58747 11.01 8.69684 11.0663C8.73433 11.085 8.93119 11.2663 9.1343 11.4631L9.4999 11.8287L10.3686 10.9663C10.8436 10.4913 11.2623 10.0851 11.2966 10.0664C11.3998 10.0132 11.631 10.0257 11.7435 10.0945ZM15.7182 11.0819C16.0525 11.2788 16.0525 11.7225 15.7182 11.9193C15.612 11.9818 15.562 11.985 14.4995 11.985C13.4371 11.985 13.3871 11.9818 13.2809 11.9193C12.8872 11.6912 12.9715 11.1382 13.4152 11.0288C13.4684 11.0163 13.9871 11.0069 14.562 11.01C15.5557 11.0163 15.6151 11.0194 15.7182 11.0819ZM11.7435 14.0942C11.9372 14.2129 12.031 14.5067 11.9341 14.6973C11.8841 14.7941 9.8155 16.869 9.71239 16.9252C9.61239 16.9783 9.39678 16.9815 9.30304 16.9346C9.20617 16.8846 8.12813 15.8128 8.07501 15.7128C7.96876 15.5097 8.05313 15.2191 8.25624 15.0941C8.37186 15.0254 8.58747 15.0097 8.69684 15.066C8.73433 15.0847 8.93119 15.266 9.1343 15.4628L9.4999 15.8284L10.3686 14.966C10.8436 14.491 11.2623 14.0848 11.2966 14.0661C11.3998 14.0129 11.631 14.0254 11.7435 14.0942ZM15.7182 15.0816C16.0525 15.2785 16.0525 15.7222 15.7182 15.9191C15.612 15.9815 15.562 15.9847 14.4995 15.9847C13.4371 15.9847 13.3871 15.9815 13.2809 15.9191C12.8872 15.6909 12.9715 15.1379 13.4152 15.0285C13.4684 15.016 13.9871 15.0066 14.562 15.0097C15.5557 15.016 15.6151 15.0191 15.7182 15.0816Z" fill="#9C95BA"/>
</svg>
