<svg width="24" height="24" viewBox="0 0 24 24" fill="none" xmlns="http://www.w3.org/2000/svg">
<path d="M9.64 4.3078C9.26722 4.42861 9.01871 4.65297 8.83577 5.0361L8.72877 5.26046V7.29693V9.33341L8.80815 9.50599C8.99454 9.90984 9.27068 10.1584 9.67107 10.2826C9.86781 10.3447 9.99207 10.3516 10.8205 10.3516H11.749V11.2491V12.1431L9.89543 12.1534C8.05569 12.1638 8.03498 12.1638 7.84514 12.2432C7.38607 12.4261 7.01329 12.8127 6.88213 13.2372C6.82345 13.4374 6.8131 13.5582 6.8131 14.221V14.9769H6.01922C5.56705 14.9769 5.1494 14.9941 5.04585 15.0148C4.6282 15.1046 4.29684 15.3704 4.11045 15.7638L4 15.9951V18.0143V20.0335L4.09665 20.2337C4.22436 20.4926 4.48668 20.748 4.77317 20.8895L5.00098 21H7.71053H10.4201L10.6513 20.8895C11.031 20.7101 11.2795 20.4063 11.3865 19.9921C11.4349 19.8057 11.4418 19.5192 11.4314 17.8693C11.4211 15.964 11.4211 15.9606 11.3417 15.7638C11.2485 15.5326 10.9861 15.2288 10.7687 15.1011C10.4753 14.9285 10.2993 14.9078 9.23961 14.9078H8.26279V14.2589C8.26279 13.7998 8.2766 13.5962 8.30421 13.5686C8.36289 13.5099 16.5157 13.5099 16.5744 13.5686C16.602 13.5962 16.6158 13.7998 16.6158 14.2555V14.9044L15.5561 14.9147C14.3273 14.9285 14.2514 14.9423 13.9097 15.2564C13.6853 15.4601 13.5645 15.6603 13.4921 15.9295C13.4161 16.2264 13.4161 19.6987 13.4921 19.9921C13.6025 20.4201 13.8372 20.7066 14.2273 20.8895L14.4585 21H17.1853H19.9121L20.1192 20.8999C20.385 20.7687 20.6473 20.5064 20.7785 20.2406L20.8786 20.0335L20.8889 18.0523C20.8993 15.8398 20.8993 15.8501 20.6611 15.5015C20.5127 15.2772 20.2987 15.108 20.0398 15.0045C19.8569 14.932 19.781 14.9251 18.956 14.9147L18.0689 14.9044L18.0586 14.0863C18.0482 13.3373 18.0413 13.251 17.9688 13.0785C17.8135 12.6919 17.458 12.3433 17.0369 12.1741C16.8402 12.0947 16.8333 12.0947 14.9866 12.0844L13.1296 12.074V11.18V10.2861L14.0892 10.2757C15.0004 10.2654 15.0556 10.2585 15.2524 10.1825C15.5389 10.0686 15.884 9.72345 15.998 9.43696L16.0808 9.22986V7.24516V5.26046L15.9703 5.0292C15.8323 4.73581 15.6045 4.508 15.3111 4.36993L15.0798 4.25948L12.4566 4.25257C10.0128 4.24567 9.81949 4.24912 9.64 4.3078Z" fill="#F9F6FF"/>
</svg>
