<svg width="24" height="24" viewBox="0 0 24 24" fill="none" xmlns="http://www.w3.org/2000/svg">
<path d="M4.78081 3.57424C4.58493 3.6464 4.35469 3.81822 4.22411 3.99004C3.98356 4.30619 3.99387 4.02784 4.00418 8.52265L4.01449 12.5776L4.1004 12.7494C4.20693 12.9694 4.44748 13.2099 4.66741 13.3164L4.83923 13.4023H7.84608H10.8529L11.0247 13.3164C11.121 13.2718 11.2653 13.1618 11.3512 13.0759C11.4371 12.99 11.5471 12.8422 11.5918 12.7494L11.6777 12.5776L11.688 10.3474L11.6948 8.12059L11.6192 8.14121C11.3546 8.22025 11.0144 8.234 9.89761 8.22369C8.74985 8.20994 8.67425 8.2065 8.44745 8.1309C7.76017 7.90754 7.2344 7.40582 6.99041 6.7426L6.90107 6.49518L6.89076 5.17904C6.88045 4.10688 6.89076 3.82853 6.92856 3.69107L6.9801 3.52269L5.94231 3.52613C5.15537 3.52613 4.87703 3.53987 4.78081 3.57424Z" fill="#F9F6FF"/>
<path d="M8.18535 3.60551C7.95168 3.76358 7.94824 3.79107 7.94824 5.10034C7.94824 6.18625 7.95168 6.28246 8.01697 6.45428C8.11663 6.71545 8.28845 6.90102 8.55992 7.03504L8.79016 7.14844H10.0444C11.2472 7.14844 11.3022 7.145 11.419 7.07627C11.608 6.96631 11.6939 6.81167 11.6939 6.58143C11.6939 6.43367 11.6733 6.35807 11.6183 6.27559C11.5187 6.13814 8.92762 3.67424 8.79016 3.58833C8.63552 3.49211 8.33999 3.49898 8.18535 3.60551Z" fill="#F9F6FF"/>
<path d="M13.0419 5.24046C12.8769 5.34355 12.7944 5.49819 12.7944 5.72155C12.7944 5.94492 12.8769 6.09956 13.0419 6.20265C13.1484 6.26794 13.2205 6.27138 14.3236 6.27138C15.5229 6.27138 15.6982 6.28856 15.8494 6.40196C16.0384 6.54285 16.0728 6.65969 16.0865 7.18202L16.1003 7.66312L15.9834 7.55659C15.8219 7.40539 15.7291 7.36415 15.5436 7.36415C15.2102 7.36415 14.9869 7.58752 14.9869 7.92085C14.9869 8.0102 15.004 8.12016 15.0281 8.16483C15.0865 8.27823 16.2583 9.46036 16.3752 9.52221C16.4954 9.58407 16.791 9.58407 16.9112 9.52221C16.9628 9.49472 17.2858 9.18888 17.6295 8.8418C18.1518 8.3126 18.2583 8.18889 18.2892 8.06518C18.3992 7.65281 18.0109 7.26106 17.602 7.37102C17.5264 7.39164 17.4026 7.46381 17.327 7.53254L17.193 7.65281V7.0858C17.193 6.62533 17.1793 6.47756 17.1277 6.30918C16.9697 5.80403 16.5367 5.37448 16.0281 5.22671C15.87 5.18204 15.6226 5.17173 14.4989 5.17173C13.2171 5.17173 13.1484 5.17516 13.0419 5.24046Z" fill="#F9F6FF"/>
<path d="M13.5782 10.1719C13.3823 10.2441 13.1521 10.4159 13.0215 10.5877C12.7809 10.9038 12.7912 10.6255 12.8015 15.1203L12.8119 19.1753L12.8978 19.3471C13.0043 19.567 13.2448 19.8076 13.4648 19.9141L13.6366 20H16.6434H19.6503L19.8221 19.9141C20.042 19.8076 20.2826 19.567 20.3891 19.3471L20.475 19.1753L20.4853 15.0791C20.4922 10.9932 20.4922 10.9829 20.42 10.7904C20.3238 10.5361 20.0798 10.2887 19.8221 10.1925C19.6331 10.1203 19.5919 10.1203 16.6675 10.1238C14.2448 10.1238 13.6813 10.1341 13.5782 10.1719ZM18.5335 12.409C18.9012 12.6255 18.9012 13.1135 18.5335 13.3299C18.4166 13.3987 18.3685 13.4021 16.6434 13.4021C14.9184 13.4021 14.8703 13.3987 14.7534 13.3299C14.3204 13.0791 14.4132 12.4708 14.9012 12.3506C14.9596 12.3368 15.7775 12.3265 16.7122 12.33C18.3616 12.3368 18.4166 12.3403 18.5335 12.409ZM18.5335 14.0585C18.9012 14.275 18.9012 14.7629 18.5335 14.9794C18.4166 15.0481 18.3685 15.0516 16.6434 15.0516C14.9184 15.0516 14.8703 15.0481 14.7534 14.9794C14.3204 14.7286 14.4132 14.1203 14.9012 14C14.9596 13.9863 15.7775 13.976 16.7122 13.9794C18.3616 13.9863 18.4166 13.9897 18.5335 14.0585Z" fill="#F9F6FF"/>
<path d="M7.58856 14.0054C7.47516 14.0673 6.29991 15.246 6.24149 15.3559C6.17276 15.4831 6.17276 15.7477 6.24149 15.8783C6.34114 16.0741 6.51296 16.1738 6.74664 16.1738C6.9322 16.1738 7.02842 16.1326 7.1865 15.9848L7.29646 15.8783V16.4521C7.29646 16.9435 7.30677 17.0604 7.36863 17.2425C7.45797 17.514 7.59887 17.7339 7.80505 17.9264C8.01467 18.1188 8.159 18.2047 8.42017 18.294C8.62291 18.3628 8.70882 18.3662 9.98373 18.3662C11.2724 18.3662 11.3411 18.3628 11.4476 18.2975C11.6126 18.1944 11.6951 18.0398 11.6951 17.8164C11.6951 17.593 11.6126 17.4384 11.4476 17.3353C11.3411 17.27 11.2689 17.2666 10.1659 17.2666C8.96655 17.2666 8.7913 17.2494 8.6401 17.136C8.45109 16.9951 8.41673 16.8782 8.39955 16.3559L8.38924 15.8783L8.52669 16.002C8.60573 16.0707 8.72944 16.1463 8.80504 16.1669C9.21398 16.2769 9.60229 15.8851 9.49232 15.4693C9.4614 15.3491 9.35487 15.2253 8.83253 14.6961C8.48889 14.3491 8.16587 14.0432 8.11433 14.0157C8.00436 13.9607 7.68821 13.9539 7.58856 14.0054Z" fill="#F9F6FF"/>
</svg>
