<svg width="48" height="48" viewBox="0 0 48 48" fill="none" xmlns="http://www.w3.org/2000/svg">
<circle cx="24" cy="24" r="24" fill="url(#paint0_linear_1044_4759)"/>
<path d="M16.7572 12.1018C15.9804 12.3536 15.3161 13.0339 15.0857 13.8161C15.0107 14.0786 15 15.1286 15 24.0054C15 33.5679 15.0054 33.9107 15.1018 34.2268C15.3482 35.0143 16.0232 35.6839 16.8161 35.9143C17.0786 35.9893 17.9036 36 24.4288 36C30.954 36 31.779 35.9893 32.0415 35.9143C32.8344 35.6839 33.5094 35.0143 33.7558 34.2268C33.8522 33.9107 33.8576 33.6 33.8576 25.8V17.6946L33.6969 17.4589C33.2094 16.7357 29.7271 12.225 29.5718 12.1179L29.395 12L23.2288 12.0054C17.4001 12.0054 17.0465 12.0107 16.7572 12.1018ZM27.8575 15.6161C27.8575 17.8232 27.8735 17.9036 28.3396 18.375C28.795 18.825 28.945 18.8571 30.67 18.8571H32.1433V26.1C32.1433 30.2571 32.1218 33.4393 32.0897 33.5571C32.0308 33.8196 31.8915 34.0125 31.6558 34.1518C31.4736 34.2589 31.3772 34.2589 24.4288 34.2589C17.4161 34.2589 17.384 34.2589 17.1965 34.1464C16.9393 33.9964 16.7786 33.7446 16.7411 33.4125C16.725 33.2571 16.7143 28.9125 16.725 23.7589C16.7411 14.4964 16.7411 14.3839 16.8483 14.2018C16.9822 13.9768 17.1804 13.8214 17.4161 13.7679C17.5179 13.7464 19.9073 13.725 22.7305 13.7196L27.8575 13.7143V15.6161ZM30.4022 16.0446C30.8093 16.575 31.1629 17.0411 31.1897 17.0732C31.2325 17.1268 31.0718 17.1429 30.4075 17.1429H29.5718V16.0607C29.5718 15.4018 29.5932 15 29.62 15.0268C29.6468 15.0589 30.0004 15.5143 30.4022 16.0446Z" fill="white"/>
<path d="M24.1413 24.0741C24.0211 24.1094 23.9467 24.189 23.9108 24.314C23.8829 24.4064 23.9391 24.8022 24.3768 27.6559C24.9338 31.2757 24.8848 31.0512 25.1168 31.1151C25.182 31.1311 25.265 31.1429 25.3044 31.1399C25.3485 31.1377 25.5944 30.9781 25.9947 30.6968L26.6185 30.2593L27.4669 31.4633C27.9346 32.1238 28.3436 32.6868 28.3758 32.7118C28.4512 32.7684 28.6305 32.799 28.7204 32.7707C28.8056 32.7415 30.6082 31.461 30.6585 31.3943C30.7088 31.3276 30.7355 31.1427 30.7083 31.0603C30.6955 31.0217 30.3003 30.4489 29.8326 29.7884L28.9786 28.5882L29.5985 28.1452C29.9968 27.861 30.229 27.6821 30.2457 27.6412C30.2616 27.6051 30.2781 27.5229 30.2847 27.456C30.301 27.2183 30.4946 27.3364 27.2742 25.6127C25.6693 24.7555 24.3562 24.0671 24.3114 24.0594C24.2666 24.0518 24.1902 24.0581 24.1413 24.0741ZM26.9573 26.2873C28.1678 26.9363 29.1667 27.4738 29.1749 27.4825C29.1855 27.4916 28.9833 27.6514 28.7259 27.8357C28.1613 28.2396 28.164 28.2376 28.1211 28.3469C28.0388 28.5442 28.0274 28.5252 28.9702 29.8596L29.8386 31.089L29.2638 31.496L28.6917 31.901L27.8409 30.6965C27.3733 30.036 26.9623 29.4703 26.9254 29.4445C26.8504 29.3856 26.6695 29.3498 26.582 29.3785C26.5485 29.3898 26.2939 29.5576 26.0179 29.7509C25.6816 29.985 25.5127 30.0921 25.5073 30.0669C25.4857 29.9515 24.7448 25.1051 24.7495 25.1059C24.7542 25.1067 25.7468 25.6383 26.9573 26.2873Z" fill="white"/>
<defs>
<linearGradient id="paint0_linear_1044_4759" x1="3.57628e-07" y1="48" x2="52.628" y2="42.2328" gradientUnits="userSpaceOnUse">
<stop stop-color="#7260ED"/>
<stop offset="1" stop-color="#AA7CEE"/>
</linearGradient>
</defs>
</svg>
