<svg width="40" height="40" viewBox="0 0 40 40" fill="none" xmlns="http://www.w3.org/2000/svg">
<path d="M14.2466 0L5.84473 8.47926L19.9087 22.8571L33.9726 8.47926L25.5708 0L17.3516 8.47926L19.9087 11.2442L25.7534 5.34562L28.8584 8.47926L19.9087 17.5115L11.1415 8.47926L16.8036 2.58065L14.2466 0Z" fill="black"/>
<path d="M13.8813 23.2254L2.55708 11.7969L0 14.3775L8.76712 23.2254L0.365297 31.7047L8.58448 39.9996L19.9087 28.5711L31.2329 39.9996L39.4521 31.7047L31.2329 23.4098L40 14.5619L37.2603 11.7969L25.9361 23.2254L34.3379 31.7047L31.2329 34.8384L19.9087 23.4098L8.58448 34.8384L5.47945 31.7047L13.8813 23.2254Z" fill="black"/>
</svg>
