<svg width="24" height="24" viewBox="0 0 24 24" fill="none" xmlns="http://www.w3.org/2000/svg">
<path d="M9.4517 5.06475C8.486 5.18976 7.61405 5.72418 7.04213 6.54299C6.78274 6.91802 6.58272 7.40868 6.50459 7.86184C6.49209 7.93684 6.48584 8.23374 6.48584 8.52751C6.48897 8.99942 6.49834 9.08693 6.57022 9.32445C6.73273 9.85886 6.85462 10.112 7.14214 10.4995C7.31403 10.7308 7.74531 11.1527 7.86407 11.209C7.9047 11.2277 7.93595 11.2527 7.93595 11.2683C7.93595 11.2808 7.94845 11.2933 7.96721 11.2933C7.98283 11.2933 8.07034 11.3402 8.16097 11.3996C8.36099 11.5246 8.81415 11.709 9.10792 11.784C9.42357 11.8621 10.3018 11.859 10.608 11.7809C10.9237 11.6996 11.0612 11.6527 11.3018 11.5402C12.1769 11.1308 12.877 10.2839 13.1457 9.30882C13.2239 9.0213 13.2332 8.95254 13.2301 8.44938C13.2301 7.95872 13.2207 7.87121 13.1489 7.59932C12.9864 6.99927 12.6801 6.47736 12.2269 6.02108C11.7581 5.55229 11.2331 5.26477 10.5768 5.11788C10.3705 5.071 9.65796 5.03663 9.4517 5.06475Z" fill="#F9F6FF"/>
<path d="M7.43624 12.9396C6.32365 13.0678 5.36732 13.6178 4.70165 14.5179C4.40787 14.9116 4.14848 15.5336 4.04847 16.0774C3.98597 16.418 3.98284 16.9462 4.04535 17.1524C4.22036 17.7431 4.70165 18.1744 5.28294 18.265C5.41108 18.2838 7.12059 18.2931 9.96769 18.2869C14.2149 18.2775 14.4618 18.2744 14.6243 18.2213C15.1587 18.0431 15.5275 17.6587 15.6744 17.1212C15.7588 16.8149 15.7119 16.1524 15.5713 15.6711C15.2275 14.4804 14.2649 13.499 13.0773 13.124C12.5023 12.9396 12.4991 12.9396 9.92081 12.9334C8.61445 12.9302 7.49562 12.9302 7.43624 12.9396Z" fill="#F9F6FF"/>
<path d="M14.1634 5.03802C13.7013 5.12706 13.2845 5.29593 12.907 5.55078L12.6714 5.71044L12.8087 6.00024C13.3675 6.58977 13.6665 7.22842 13.7541 8.02673C13.8356 8.76056 13.7706 9.608 13.3478 10.2466C13.2783 10.3541 13.2255 10.5525 13.0775 10.706L12.8087 10.9854L13.0232 11.1298C13.3161 11.3293 13.6967 11.5074 14.044 11.6026C14.3038 11.6732 14.251 11.6671 14.707 11.6671C15.293 11.6701 15.5165 11.6302 15.9755 11.4429C16.4014 11.2679 16.6883 11.0714 17.0507 10.706C17.5098 10.2393 17.7575 9.80026 17.9296 9.16775C17.99 8.93746 17.9991 8.83614 17.9991 8.33873C17.9991 7.81369 17.9931 7.74921 17.9145 7.4698C17.5944 6.2969 16.7004 5.40033 15.5467 5.09636C15.1691 4.99503 14.5319 4.97047 14.1634 5.03802Z" fill="#F9F6FF"/>
<path d="M13.5874 12.9978C13.934 13.0492 14.1137 13.1926 14.3841 13.3263C15.097 13.687 15.6705 14.4415 15.9874 15.2531C16.2059 15.819 16.3234 16.584 16.2578 17.0225C16.1677 17.6413 15.7579 18.1513 15.2389 18.2943C15.1215 18.3254 15.4138 18.3316 16.968 18.3347C18.6506 18.3347 18.8582 18.3285 19.0194 18.2819C19.2516 18.2103 19.481 18.0517 19.6504 17.8434C19.9017 17.5293 20 17.2184 20 16.7177C20 15.1971 19.1095 13.7636 17.8394 13.235C17.2849 13.0017 17.457 13.0091 15.239 12.9998C13.9306 12.9966 13.4618 12.9791 13.5874 12.9978Z" fill="#F9F6FF"/>
</svg>
