<svg width="40" height="40" viewBox="0 0 40 40" fill="none" xmlns="http://www.w3.org/2000/svg">
<g id="Group 15">
<path id="Vector 1" d="M14.2466 0L5.84473 8.47926L19.9087 22.8571L33.9726 8.47926L25.5708 0L17.3516 8.47926L19.9087 11.2442L25.7534 5.34562L28.8584 8.47926L19.9087 17.5115L11.1415 8.47926L16.8036 2.58065L14.2466 0Z" fill="#1C1A24"/>
<path id="Vector 2" d="M13.8813 23.2259L2.55708 11.7974L0 14.378L8.76712 23.2259L0.365297 31.7052L8.58448 40.0001L19.9087 28.5716L31.2329 40.0001L39.4521 31.7052L31.2329 23.4103L40 14.5623L37.2603 11.7974L25.9361 23.2259L34.3379 31.7052L31.2329 34.8388L19.9087 23.4103L8.58448 34.8388L5.47945 31.7052L13.8813 23.2259Z" fill="#1C1A24"/>
</g>
</svg>
