<svg width="388" height="400" viewBox="0 0 388 400" fill="none" xmlns="http://www.w3.org/2000/svg">
<g clip-path="url(#clip0_972_35567)">
<path opacity="0.08" d="M194.178 399.741C301.26 399.741 388.067 394.246 388.067 387.467C388.067 380.688 301.26 375.192 194.178 375.192C87.0961 375.192 0.289062 380.688 0.289062 387.467C0.289062 394.246 87.0961 399.741 194.178 399.741Z" fill="white"/>
<path d="M202.297 124.847L191.797 139.693H149.003L159.508 124.847H189.47H196.898H202.297Z" fill="url(#paint0_linear_972_35567)"/>
<g opacity="0.4">
<path d="M202.297 124.847L191.797 139.693H149.003L159.508 124.847H189.47H196.898H202.297Z" fill="white"/>
</g>
<path d="M149.148 139.691H191.941L182.504 111.585H139.711L149.148 139.691Z" fill="url(#paint1_linear_972_35567)"/>
<g opacity="0.6">
<path d="M149.148 139.691H191.941L182.504 111.585H139.711L149.148 139.691Z" fill="white"/>
</g>
<path d="M165.32 112.554H176.74L173.449 109.16H166.332L165.32 112.554Z" fill="url(#paint2_linear_972_35567)"/>
<path opacity="0.6" d="M165.32 112.554H176.74L173.449 109.16H166.332L165.32 112.554Z" fill="white"/>
<path d="M223.319 380.742V294.811H265.377V380.742C265.377 384.722 261.476 387.96 256.68 387.96H232.018C227.22 387.96 223.319 384.722 223.319 380.742Z" fill="url(#paint3_linear_972_35567)"/>
<g opacity="0.5">
<g opacity="0.3">
<path d="M223.319 294.807V380.745C223.319 383.63 225.372 386.137 228.34 387.285C229.454 387.719 230.702 387.964 232.018 387.964H256.675C261.48 387.964 265.373 384.722 265.373 380.745V294.807H223.319Z" fill="white"/>
</g>
</g>
<path d="M323.768 387.852C318.225 387.852 313.731 384.122 313.731 379.521V301.674H323.768V387.852Z" fill="url(#paint4_linear_972_35567)"/>
<path opacity="0.8" d="M323.768 387.852C318.225 387.852 313.731 384.122 313.731 379.521V301.674H323.768V387.852Z" fill="white"/>
<path d="M228.338 301.669V387.285C225.372 386.137 223.318 383.63 223.318 380.745V301.669H228.338Z" fill="url(#paint5_linear_972_35567)"/>
<path opacity="0.8" d="M228.338 301.669V387.285C225.372 386.137 223.318 383.63 223.318 380.745V301.669H228.338Z" fill="white"/>
<path d="M319.008 380.742V294.811H361.065V380.742C361.065 384.722 357.164 387.96 352.368 387.96H327.706C322.91 387.96 319.008 384.722 319.008 380.742Z" fill="url(#paint6_linear_972_35567)"/>
<path d="M223.205 301.673H325.712V269.713H223.205V301.673Z" fill="url(#paint7_linear_972_35567)"/>
<path opacity="0.8" d="M223.205 301.673H325.712V269.713H223.205V301.673Z" fill="white"/>
<path d="M319.029 301.673H361.045V269.713H319.029V301.673Z" fill="url(#paint8_linear_972_35567)"/>
<path opacity="0.3" d="M361.061 294.807V380.745C361.061 384.722 357.169 387.964 352.363 387.964H327.706C322.914 387.964 319.008 384.722 319.008 380.745V294.807H319.021V269.718H361.047V294.807H361.061Z" fill="white"/>
<path d="M218 271.709H318.122V262.391H218V271.709Z" fill="url(#paint9_linear_972_35567)"/>
<path opacity="0.9" d="M218 271.709H318.122V262.391H218V271.709Z" fill="white"/>
<path d="M316.57 271.709H366.25V262.391H316.57V271.709Z" fill="url(#paint10_linear_972_35567)"/>
<path opacity="0.8" d="M316.57 271.709H366.25V262.391H316.57V271.709Z" fill="white"/>
<path d="M231.446 295.418H310.804V277.036H231.446V295.418Z" fill="url(#paint11_linear_972_35567)"/>
<path opacity="0.3" d="M231.446 295.418H310.804V277.036H231.446V295.418Z" fill="white"/>
<path d="M265.756 286.541C264.065 286.541 262.692 285.403 262.692 283.998C262.692 282.593 264.063 281.455 265.756 281.455H269.782C271.474 281.455 272.846 282.593 272.846 283.998C272.846 285.403 271.475 286.541 269.782 286.541H265.756Z" fill="url(#paint12_linear_972_35567)"/>
<path opacity="0.3" d="M265.756 286.541C264.065 286.541 262.692 285.403 262.692 283.998C262.692 282.593 264.063 281.455 265.756 281.455H269.782C271.474 281.455 272.846 282.593 272.846 283.998C272.846 285.403 271.475 286.541 269.782 286.541H265.756Z" fill="#7E75A3"/>
<path d="M262.692 283.998C262.692 285.403 264.063 286.541 265.756 286.541C267.449 286.541 268.82 285.403 268.82 283.998C268.82 282.593 267.449 281.455 265.756 281.455C264.063 281.456 262.692 282.594 262.692 283.998Z" fill="url(#paint13_linear_972_35567)"/>
<path opacity="0.9" d="M262.692 283.998C262.692 285.403 264.063 286.541 265.756 286.541C267.449 286.541 268.82 285.403 268.82 283.998C268.82 282.593 267.449 281.455 265.756 281.455C264.063 281.456 262.692 282.594 262.692 283.998Z" fill="white"/>
<path d="M272.998 69.2343L269.279 116.277C269.231 116.883 268.739 117.375 268.18 117.376L228.046 117.454C227.487 117.455 227.073 116.965 227.121 116.36L231.958 55.1704C232.006 54.5644 232.498 54.0723 233.057 54.0712L260.099 54.0181L272.998 69.2343Z" fill="#F9F6FF"/>
<path opacity="0.2" d="M264.805 81.564L236.471 81.7114C236.03 81.7136 235.643 82.1027 235.606 82.5808L235.585 82.8615C235.549 83.3396 235.876 83.7255 236.318 83.7233L264.652 83.5759C265.093 83.5737 265.48 83.1846 265.517 82.7065L265.539 82.4258C265.574 81.9466 265.246 81.5618 264.805 81.564Z" fill="#1C1A24"/>
<path opacity="0.2" d="M264.178 89.7798L235.844 89.9272C235.403 89.9294 235.016 90.3186 234.979 90.7966L234.958 91.0774C234.922 91.5554 235.25 91.9413 235.691 91.9391L264.025 91.7917C264.466 91.7896 264.853 91.4004 264.89 90.9223L264.911 90.6416C264.947 90.1624 264.619 89.7776 264.178 89.7798Z" fill="#1C1A24"/>
<path opacity="0.2" d="M263.551 97.9946L235.217 98.1421C234.776 98.1442 234.389 98.5334 234.352 99.0114L234.331 99.2922C234.295 99.7702 234.623 100.156 235.064 100.153L263.398 100.005C263.839 100.003 264.226 99.6142 264.263 99.1361L264.284 98.8553C264.321 98.3784 263.993 97.9925 263.551 97.9946Z" fill="#1C1A24"/>
<path d="M260.124 53.9858L259.002 68.1755C258.954 68.7815 259.368 69.2715 259.927 69.2704L272.979 69.2455L260.124 53.9858Z" fill="url(#paint14_linear_972_35567)"/>
<path opacity="0.8" d="M260.124 53.9858L259.002 68.1755C258.954 68.7815 259.368 69.2715 259.927 69.2704L272.979 69.2455L260.124 53.9858Z" fill="white"/>
<path d="M253.41 120.429H223.81L225.026 105.365H254.625L253.41 120.429Z" fill="url(#paint15_linear_972_35567)"/>
<path d="M230.056 110.262H232.128C233.58 110.262 234.502 111.178 234.384 112.637C234.266 114.096 233.197 115.012 231.745 115.012H229.673L230.056 110.262ZM231.78 113.941C232.525 113.941 233.065 113.459 233.131 112.638C233.197 111.817 232.735 111.335 231.991 111.335H231.208L230.998 113.941H231.78Z" fill="white"/>
<path d="M234.814 112.638C234.929 111.213 236.046 110.168 237.448 110.168C238.85 110.168 239.799 111.213 239.684 112.638C239.569 114.064 238.452 115.109 237.05 115.109C235.647 115.109 234.699 114.064 234.814 112.638ZM238.431 112.638C238.497 111.817 238.022 111.28 237.358 111.28C236.694 111.28 236.132 111.817 236.065 112.638C235.999 113.459 236.475 113.996 237.138 113.996C237.803 113.996 238.365 113.459 238.431 112.638Z" fill="white"/>
<path d="M240.115 112.638C240.232 111.192 241.334 110.168 242.724 110.168C243.531 110.168 244.157 110.487 244.536 111.063L243.685 111.837C243.438 111.477 243.116 111.28 242.697 111.28C241.977 111.28 241.433 111.823 241.367 112.638C241.301 113.453 241.758 113.996 242.478 113.996C242.897 113.996 243.251 113.799 243.556 113.44L244.282 114.213C243.81 114.79 243.133 115.109 242.326 115.109C240.936 115.109 239.998 114.084 240.115 112.638Z" fill="white"/>
<path d="M247.464 115.013L246.675 113.54L245.661 115.013H244.246L246.036 112.61L244.698 110.262H246.094L246.86 111.632L247.835 110.262H249.174L247.462 112.556L248.891 115.013H247.464Z" fill="white"/>
<path d="M200.208 23.645L196.49 70.6878C196.442 71.2938 195.95 71.7859 195.391 71.787L155.257 71.865C154.698 71.8661 154.284 71.3761 154.332 70.7702L159.169 9.58101C159.217 8.97505 159.709 8.48291 160.268 8.48183L187.31 8.42871L200.208 23.645Z" fill="#F9F6FF"/>
<path opacity="0.2" d="M192.015 35.9736L163.681 36.1211C163.24 36.1232 162.853 36.5124 162.816 36.9904L162.795 37.2712C162.759 37.7493 163.087 38.1352 163.528 38.133L191.862 37.9856C192.303 37.9834 192.69 37.5942 192.727 37.1162L192.748 36.8354C192.784 36.3574 192.456 35.9715 192.015 35.9736Z" fill="#1C1A24"/>
<path opacity="0.2" d="M191.388 44.1895L163.054 44.3369C162.613 44.3391 162.226 44.7282 162.189 45.2063L162.168 45.487C162.132 45.9651 162.46 46.351 162.901 46.3477L191.235 46.2003C191.676 46.1981 192.063 45.809 192.1 45.3309L192.121 45.0502C192.157 44.5721 191.829 44.1873 191.388 44.1895Z" fill="#1C1A24"/>
<path opacity="0.2" d="M190.761 52.4053L162.427 52.5527C161.986 52.5549 161.599 52.944 161.562 53.4221L161.541 53.7028C161.505 54.1809 161.832 54.5657 162.274 54.5635L190.608 54.4161C191.049 54.414 191.436 54.0248 191.473 53.5467L191.494 53.266C191.53 52.7879 191.202 52.4031 190.761 52.4053Z" fill="#1C1A24"/>
<path d="M187.334 8.39648L186.212 22.5862C186.164 23.1921 186.579 23.6821 187.137 23.681L200.189 23.655L187.334 8.39648Z" fill="url(#paint16_linear_972_35567)"/>
<path opacity="0.8" d="M187.334 8.39648L186.212 22.5862C186.164 23.1921 186.579 23.6821 187.137 23.681L200.189 23.655L187.334 8.39648Z" fill="white"/>
<path d="M180.619 73.9042H151.02L152.235 58.8408H181.835L180.619 73.9042Z" fill="url(#paint17_linear_972_35567)"/>
<path d="M158.989 63.7383H161.061C162.513 63.7383 163.435 64.6543 163.317 66.1144C163.199 67.5735 162.13 68.4895 160.678 68.4895H158.606L158.989 63.7383ZM160.714 67.4163C161.459 67.4163 161.999 66.9339 162.065 66.1134C162.131 65.2917 161.669 64.8104 160.925 64.8104H160.142L159.932 67.4174L160.714 67.4163Z" fill="white"/>
<path d="M163.748 66.1135C163.863 64.6881 164.98 63.6431 166.382 63.6431C167.784 63.6431 168.733 64.6881 168.618 66.1135C168.503 67.539 167.386 68.584 165.984 68.584C164.581 68.584 163.632 67.539 163.748 66.1135ZM167.365 66.1135C167.431 65.2919 166.955 64.7553 166.292 64.7553C165.628 64.7553 165.066 65.2919 164.999 66.1135C164.933 66.9341 165.409 67.4707 166.072 67.4707C166.736 67.4707 167.299 66.9352 167.365 66.1135Z" fill="white"/>
<path d="M169.049 66.1135C169.166 64.6675 170.268 63.6431 171.658 63.6431C172.465 63.6431 173.091 63.9618 173.47 64.5385L172.619 65.3124C172.372 64.9526 172.051 64.7553 171.631 64.7553C170.911 64.7553 170.367 65.2984 170.301 66.1135C170.236 66.9276 170.692 67.4707 171.412 67.4707C171.831 67.4707 172.185 67.2745 172.49 66.9146L173.216 67.6886C172.744 68.2653 172.067 68.584 171.26 68.584C169.869 68.584 168.932 67.5596 169.049 66.1135Z" fill="white"/>
<path d="M117.964 60.5312L114.246 107.574C114.198 108.18 113.706 108.672 113.147 108.673L73.013 108.751C72.454 108.752 72.04 108.262 72.088 107.656L76.925 46.4672C76.973 45.8613 77.465 45.3691 78.024 45.3681L105.066 45.3149L117.964 60.5312Z" fill="#F9F6FF"/>
<path opacity="0.2" d="M109.915 74.7129L81.581 74.8603C81.14 74.8625 80.753 75.2517 80.716 75.7297L80.695 76.0105C80.659 76.4885 80.987 76.8744 81.428 76.8712L109.762 76.7237C110.203 76.7216 110.59 76.3324 110.627 75.8544L110.648 75.5736C110.684 75.0966 110.357 74.7107 109.915 74.7129Z" fill="#1C1A24"/>
<path opacity="0.2" d="M109.289 82.9287L80.955 83.0761C80.514 83.0783 80.127 83.4675 80.09 83.9455L80.069 84.2263C80.032 84.7043 80.361 85.0902 80.802 85.0881L109.136 84.9406C109.577 84.9385 109.964 84.5493 110.001 84.0713L110.022 83.7905C110.058 83.3125 109.73 82.9266 109.289 82.9287Z" fill="#1C1A24"/>
<path opacity="0.2" d="M108.662 91.1445L80.328 91.292C79.887 91.2941 79.5 91.6833 79.463 92.1613L79.442 92.4421C79.406 92.9201 79.733 93.3061 80.175 93.3039L108.509 93.1565C108.95 93.1543 109.337 92.7651 109.374 92.2871L109.395 92.0063C109.431 91.5283 109.103 91.1424 108.662 91.1445Z" fill="#1C1A24"/>
<path d="M105.089 45.2822L103.967 59.4719C103.919 60.0779 104.333 60.5679 104.892 60.5668L117.944 60.5408L105.089 45.2822Z" fill="url(#paint18_linear_972_35567)"/>
<path opacity="0.8" d="M105.089 45.2822L103.967 59.4719C103.919 60.0779 104.333 60.5679 104.892 60.5668L117.944 60.5408L105.089 45.2822Z" fill="white"/>
<path d="M98.236 111.435H68.636L69.852 96.3716H99.452L98.236 111.435Z" fill="url(#paint19_linear_972_35567)"/>
<path d="M79.176 102.334H77.83L77.916 101.268H81.84L81.754 102.334H80.415L80.117 106.019H78.878L79.176 102.334Z" fill="white"/>
<path d="M84.503 106.019L83.714 104.546L82.7 106.019H81.285L83.075 103.616L81.737 101.268H83.133L83.899 102.638L84.874 101.268H86.213L84.501 103.562L85.93 106.019H84.503Z" fill="white"/>
<path d="M87.397 102.334H86.051L86.137 101.268H90.061L89.975 102.334H88.636L88.338 106.019H87.099L87.397 102.334Z" fill="white"/>
<path d="M85.91 156.569L82.191 203.612C82.143 204.218 81.651 204.71 81.092 204.711L40.958 204.789C40.399 204.79 39.985 204.3 40.033 203.694L44.87 142.505C44.918 141.899 45.41 141.407 45.969 141.406L73.011 141.353L85.91 156.569Z" fill="#F9F6FF"/>
<path opacity="0.2" d="M77.862 170.75L49.528 170.898C49.087 170.9 48.7 171.289 48.663 171.767L48.642 172.048C48.606 172.526 48.934 172.912 49.375 172.91L77.709 172.762C78.15 172.76 78.537 172.371 78.574 171.893L78.596 171.612C78.631 171.134 78.303 170.748 77.862 170.75Z" fill="#1C1A24"/>
<path opacity="0.2" d="M77.235 178.966L48.901 179.114C48.46 179.116 48.073 179.505 48.036 179.983L48.015 180.264C47.978 180.742 48.307 181.128 48.748 181.125L77.082 180.977C77.523 180.975 77.91 180.586 77.947 180.108L77.968 179.827C78.004 179.35 77.676 178.964 77.235 178.966Z" fill="#1C1A24"/>
<path opacity="0.2" d="M76.608 187.182L48.274 187.33C47.833 187.332 47.446 187.721 47.409 188.199L47.388 188.48C47.351 188.958 47.679 189.343 48.121 189.34L76.455 189.193C76.896 189.191 77.283 188.802 77.32 188.324L77.341 188.043C77.378 187.565 77.049 187.18 76.608 187.182Z" fill="#1C1A24"/>
<path d="M73.036 141.32L71.914 155.51C71.866 156.115 72.28 156.605 72.839 156.604L85.891 156.579L73.036 141.32Z" fill="url(#paint20_linear_972_35567)"/>
<path opacity="0.8" d="M73.036 141.32L71.914 155.51C71.866 156.115 72.28 156.605 72.839 156.604L85.891 156.579L73.036 141.32Z" fill="white"/>
<path d="M66.183 207.473H36.583L37.799 192.408H67.398L66.183 207.473Z" fill="url(#paint21_linear_972_35567)"/>
<path d="M49.535 199.019C49.45 200.082 48.662 200.741 47.489 200.741H46.605L46.499 202.052H45.483L45.867 197.292H47.768C48.941 197.293 49.622 197.953 49.535 199.019ZM48.507 199.019C48.55 198.496 48.26 198.19 47.639 198.19H46.811L46.678 199.843H47.506C48.127 199.843 48.465 199.538 48.507 199.019Z" fill="white"/>
<path d="M54.068 199.019C53.982 200.082 53.195 200.741 52.023 200.741H51.138L51.032 202.052H50.016L50.401 197.292H52.301C53.474 197.293 54.155 197.953 54.068 199.019ZM53.04 199.019C53.082 198.496 52.793 198.19 52.172 198.19H51.344L51.211 199.843H52.039C52.66 199.843 52.998 199.538 53.04 199.019Z" fill="white"/>
<path d="M55.652 198.19H54.247L54.32 197.292H58.146L58.073 198.19H56.668L56.356 202.052H55.34L55.652 198.19Z" fill="white"/>
<path d="M184.849 195.633C185.778 195.633 186.65 194.934 186.797 194.071L192.177 162.528C192.324 161.665 191.691 160.967 190.762 160.967C189.833 160.967 188.961 161.666 188.814 162.528L183.434 194.071C183.287 194.934 183.921 195.633 184.849 195.633Z" fill="#524587"/>
<path opacity="0.5" d="M184.849 195.633C185.778 195.633 186.65 194.934 186.797 194.071L192.177 162.528C192.324 161.665 191.691 160.967 190.762 160.967C189.833 160.967 188.961 161.666 188.814 162.528L183.434 194.071C183.287 194.934 183.921 195.633 184.849 195.633Z" fill="white"/>
<path d="M142.479 195.63H141.855C141.098 195.63 140.582 195.061 140.702 194.359L146.181 162.236C146.301 161.534 147.011 160.965 147.768 160.965H148.392H191.356L185.443 195.63H142.479Z" fill="#524587"/>
<path opacity="0.8" d="M142.479 195.63H141.855C141.098 195.63 140.582 195.061 140.702 194.359L146.181 162.236C146.301 161.534 147.011 160.965 147.768 160.965H148.392H191.356L185.443 195.63H142.479Z" fill="white"/>
<path d="M116.504 199.226H160.478V195.63H113.188C113.187 197.616 114.672 199.226 116.504 199.226Z" fill="#524587"/>
<path opacity="0.7" d="M116.504 199.226H160.478V195.63H113.188C113.187 197.616 114.672 199.226 116.504 199.226Z" fill="white"/>
<path d="M155.529 199.226H181.933C183.765 199.226 185.25 197.616 185.25 195.63H152.213C152.212 197.616 153.697 199.226 155.529 199.226Z" fill="#524587"/>
<path opacity="0.5" d="M155.529 199.226H181.933C183.765 199.226 185.25 197.616 185.25 195.63H152.213C152.212 197.616 153.697 199.226 155.529 199.226Z" fill="white"/>
<path opacity="0.2" d="M131.291 195.63C131.274 196.253 130.729 196.752 130.055 196.752H124.943C124.269 196.752 123.724 196.253 123.707 195.63H131.291Z" fill="#1C1A24"/>
<path d="M144.057 192.903H183.07L188.087 163.492H149.074L144.057 192.903Z" fill="#524587"/>
<path d="M176.033 192.903H151.748L155.766 170.497H180.051L176.033 192.903Z" fill="white"/>
<path d="M175.14 191.679H153.041L156.644 171.587H178.743L175.14 191.679Z" fill="url(#paint22_linear_972_35567)"/>
<path opacity="0.9" d="M175.14 191.679H153.041L156.644 171.587H178.743L175.14 191.679Z" fill="white"/>
<path d="M171.754 191.679H156.472L159.572 174.389H174.854L171.754 191.679Z" fill="white"/>
<path d="M178.509 172.891H156.41L156.644 171.587H178.743L178.509 172.891Z" fill="url(#paint23_linear_972_35567)"/>
<path opacity="0.8" d="M178.509 172.891H156.41L156.644 171.587H178.743L178.509 172.891Z" fill="white"/>
<path d="M175.155 191.598H153.056L153.173 190.945H175.272L175.155 191.598Z" fill="url(#paint24_linear_972_35567)"/>
<path opacity="0.8" d="M175.155 191.598H153.056L153.173 190.945H175.272L175.155 191.598Z" fill="white"/>
<path d="M172.561 177.074H164.572L164.669 176.532H172.658L172.561 177.074Z" fill="url(#paint25_linear_972_35567)"/>
<path d="M172.01 180.149H160.818L160.915 179.607H172.107L172.01 180.149Z" fill="url(#paint26_linear_972_35567)"/>
<path d="M171.458 183.225H160.267L160.364 182.683H171.555L171.458 183.225Z" fill="url(#paint27_linear_972_35567)"/>
<path d="M170.907 186.299H159.716L159.813 185.757H171.004L170.907 186.299Z" fill="url(#paint28_linear_972_35567)"/>
<path d="M167.949 189.375H159.164L159.261 188.833H168.047L167.949 189.375Z" fill="url(#paint29_linear_972_35567)"/>
<path d="M162.215 177.94L161.963 178.647H161.629L162.881 175.135H163.404L163.396 178.647H163.034L163.036 177.94H162.215ZM162.323 177.604H163.047L163.044 175.576L162.323 177.604Z" fill="white"/>
<path d="M167.238 161.993C167.238 162.275 167.484 162.503 167.787 162.503C168.09 162.503 168.336 162.275 168.336 161.993C168.336 161.712 168.09 161.484 167.787 161.484C167.484 161.484 167.238 161.713 167.238 161.993Z" fill="#524587"/>
<path d="M137.756 145.194C138.177 145.286 138.403 145.905 138.257 146.559C138.111 147.213 137.741 147.673 137.32 147.571C136.899 147.47 136.698 146.859 136.819 146.198C136.907 145.539 137.335 145.102 137.756 145.194Z" fill="url(#paint30_linear_972_35567)"/>
<path d="M139.164 145.325L137.657 144.933C137.932 146.027 139.164 145.325 139.164 145.325Z" fill="url(#paint31_linear_972_35567)"/>
<path d="M136.262 151.646C136.976 152.005 137.8 152.006 138.515 151.649C137.802 150.177 137.276 148.607 136.951 146.982L136.262 151.646Z" fill="#FFBE9D"/>
<path d="M138.793 141.814C138.884 141.624 138.816 141.39 138.641 141.292C137.633 140.613 136.385 140.498 135.286 140.984C135.145 141.082 135.083 141.272 135.137 141.444C135.201 141.651 135.408 141.763 135.599 141.693C136.483 141.329 137.473 141.432 138.277 141.972C138.327 142.005 138.384 142.023 138.443 142.022C138.588 142.036 138.726 141.953 138.793 141.814Z" fill="url(#paint32_linear_972_35567)"/>
<path d="M125.685 157.628C124.361 161.28 123.76 165.301 128.67 167.452C128.67 167.452 132.929 173.213 123.655 171.658C115.195 170.246 112.655 164.904 112.655 164.904C116.209 162.172 117.914 153.969 117.597 148.93L125.685 157.628Z" fill="#FFBE9D"/>
<path d="M118.665 134.231C121.979 129.304 128.351 128.221 132.896 131.815C139.614 136.838 138.43 149.06 135.485 155.9C132.221 163.505 122.726 163.598 118.18 155.998C115.169 150.929 115.768 147.525 116.791 139.346C117.007 137.496 117.652 135.737 118.665 134.231Z" fill="#FFBE9D"/>
<path d="M135.873 131.745C134.43 131.67 133.506 130.195 132.103 129.82C124.718 127.845 119.964 130.162 118.226 131.181C115.732 132.643 113.9 133.732 112.086 136.096C110.548 138.099 109.655 140.877 110.169 143.364C110.352 144.251 110.155 145.176 109.705 145.944C109.431 146.41 109.178 146.89 108.989 147.257C108.602 148.006 108.404 148.91 108.628 149.734C108.798 150.358 109.19 150.877 109.47 151.454C109.75 152.029 109.911 152.755 109.605 153.315C108.341 153.788 107.359 155.573 107.441 157.019C107.483 157.767 107.755 158.478 107.863 159.219C107.971 159.959 107.869 160.818 107.327 161.283C109.464 162.502 118.172 163.487 120.575 162.086C121.09 161.786 121.686 161.655 122.235 161.873C123.018 162.184 123.566 162.884 124.24 163.382C125.465 164.287 127.121 164.462 128.485 163.83C129.291 164.053 130.224 163.502 130.707 162.768C129.646 162.075 128.895 160.606 129.009 159.27C129.124 157.933 129.99 156.706 131.15 156.238C132.676 155.622 132.72 152.71 132.206 151.035C132.024 150.44 131.735 149.885 131.632 149.263C131.549 148.761 131.754 148.021 132.059 147.633C132.827 146.653 133.918 146.008 134.47 144.841C134.947 143.834 134.795 142.558 134.059 141.756C133.103 140.715 132.979 138.464 135.389 139.367C136.291 139.705 137.469 140.213 136.974 141.894C136.09 144.893 139.085 143.823 136.115 147.44C138.111 147.174 138.901 146.274 138.832 144.094C138.81 143.403 138.018 142.928 138.832 141.894C139.704 140.787 139.491 139.414 138.832 138.589C137.832 137.337 138.214 136.69 138.494 136.487C139.113 136.038 139.409 135.064 139.303 134.265C139.197 133.466 138.68 132.776 138.038 132.366C137.396 131.955 136.643 131.795 135.899 131.75L135.873 131.745Z" fill="url(#paint33_linear_972_35567)"/>
<path d="M132.102 144.166C133.55 145.837 133.336 148.819 132.735 150.344C132.076 152.045 130.444 152.261 129.454 150.079C128.732 148.523 128.471 146.761 128.706 145.038C129.039 143.133 130.654 142.496 132.102 144.166Z" fill="#FFBE9D"/>
<path d="M101.386 166.913L100.439 168.374C99.9561 168.865 95.5601 196.86 95.4911 197.556C95.4651 197.788 95.4721 198.81 95.5031 199.086C95.5501 199.41 95.6141 199.732 95.6951 200.047C95.9111 200.766 96.2521 201.432 96.6991 202.012C97.3191 202.769 98.1081 203.34 98.9901 203.671C99.6571 203.949 100.362 204.107 101.076 204.139C101.961 204.173 120.078 204.329 124.163 201.483L123.357 196.664C119.551 196.385 105.516 194.817 105.516 194.817C104.547 195.092 103.561 195.291 102.565 195.413C102.275 195.462 101.979 195.458 101.689 195.403C101.645 195.4 101.727 195.358 102.044 195.483C102.282 195.584 102.505 195.724 102.705 195.896C103.023 196.168 103.284 196.509 103.473 196.896C103.571 197.08 103.649 197.276 103.703 197.481C103.754 197.644 103.789 197.812 103.807 197.982C103.814 198.099 103.807 198.217 103.788 198.332C103.781 198.455 103.78 198.474 103.776 198.55C103.762 198.806 103.762 198.796 103.767 198.72L104.453 197.093C104.891 195.992 107.398 176.236 107.77 175.852L108.327 175.281L108.799 174.818C108.799 174.818 101.663 166.656 101.386 166.913Z" fill="#FFBE9D"/>
<path d="M121.389 196.44L127.122 194.228C128.036 193.876 129.048 193.982 129.881 194.52L132.617 196.283C133.652 196.95 134.263 198.181 134.206 199.484C134.132 201.213 132.912 202.629 131.326 202.829L126.977 203.375L122.067 201.032L121.389 196.44Z" fill="#FFBE9D"/>
<path d="M100.516 167.908C97.4911 171.195 96.2771 185.363 96.2771 185.363L110.151 187.795C112.222 183.624 114.413 173.398 112.6 167.031C111.893 164.634 105.114 162.91 100.516 167.908Z" fill="#E7E6F0"/>
<path d="M139.164 187.795C139.196 189.519 136.152 196.147 134.209 203.376C132.475 209.828 131.232 219.387 130.115 223.117L97.9131 221.064C97.9131 221.064 99.2931 218.947 99.7021 215.814C101.039 205.566 102.015 189.771 100.054 172.161C100.038 172.02 100.026 171.879 100.018 171.738C99.7651 167.548 102.692 163.93 106.556 163.656C116.255 163.181 122.698 163.651 131.723 167.532C134.508 168.743 138.963 177.07 139.164 187.795Z" fill="#F9F6FF"/>
<path d="M66.8341 349.791L73.8451 353.674L63.1391 368.94L56.1291 365.056L66.8341 349.791Z" fill="#FFBE9D"/>
<path d="M63.7241 369.935C63.6811 372.767 62.6801 374.483 65.5381 380.359C66.1701 381.667 63.5561 383.67 61.4781 380.988C59.4001 378.307 57.6081 375.584 56.1051 373.644C53.6571 370.485 52.5851 369.403 50.6061 366.931C50.5661 366.882 50.5301 366.827 50.4981 366.771C50.1511 366.164 50.3231 365.367 50.8831 364.99L56.9101 361.236C57.1791 361.065 57.5231 361.132 57.7211 361.393L63.2811 368.567C63.5691 368.956 63.7261 369.439 63.7241 369.935Z" fill="url(#paint34_linear_972_35567)"/>
<path opacity="0.2" d="M66.8271 349.787L61.3011 357.666L67.8931 362.162L73.8371 353.671L66.8271 349.787Z" fill="#1C1A24"/>
<path d="M60.3761 355.77L70.4221 360.408C70.4221 360.408 93.0821 334.58 105.953 310.764C109.353 304.488 111.551 294.511 112.957 283.638C112.957 283.631 112.957 283.631 112.958 283.622C114.476 271.917 115.082 259.171 115.294 248.879C115.538 237.05 115.264 228.465 115.264 228.465C115.264 228.465 107.429 224.446 99.7431 221.062C74.6681 250.64 103.83 276.429 91.2491 302.397C79.7231 326.22 60.3761 355.77 60.3761 355.77Z" fill="#7E75A3"/>
<path d="M74.4141 356.925L60.9121 352.02L59.3261 355.724L71.2251 361.59L74.4141 356.925Z" fill="url(#paint35_linear_972_35567)"/>
<path opacity="0.2" d="M109.956 299.86C110.858 293.886 111.92 288.501 112.957 283.638C112.957 283.631 112.957 283.631 112.958 283.622C114.476 271.917 115.082 259.171 115.294 248.879C115.279 248.871 115.273 248.854 115.266 248.846L115.024 248.769C113.922 248.129 112.629 248.609 111.139 250.489C100.191 256.09 107.152 284.547 109.956 299.86Z" fill="#1C1A24"/>
<path d="M64.7111 373.535C64.2021 372.843 63.7531 372.103 63.3701 371.323C63.3321 371.25 63.3421 371.159 63.3951 371.097C63.4461 371.033 63.5291 371.012 63.6001 371.045C63.9621 371.211 67.1781 372.721 67.3511 373.832C67.3881 374.046 67.3201 374.265 67.1721 374.41C66.9321 374.668 66.5941 374.787 66.2611 374.731C65.6381 374.526 65.0941 374.105 64.7111 373.535ZM63.9661 371.66C64.8361 373.269 65.7031 374.27 66.3311 374.377C66.5531 374.418 66.7791 374.337 66.9341 374.159C66.9961 374.104 67.0261 374.017 67.0131 373.932C66.8901 373.323 65.2421 372.315 63.9521 371.667L63.9661 371.66Z" fill="url(#paint36_linear_972_35567)"/>
<path d="M63.3791 371.377C63.3511 371.348 63.3321 371.311 63.3241 371.268C63.3181 371.2 63.3501 371.134 63.4051 371.099C63.5261 371.028 66.1691 369.135 67.2801 370.563L67.3501 370.701C67.6351 371.155 67.5321 371.446 67.3961 371.616C66.8291 372.325 64.3341 371.931 63.4131 371.445L63.3791 371.377ZM67.0171 370.81C66.3021 369.891 64.6121 370.795 63.9261 371.212C64.9711 371.595 66.8001 371.771 67.1401 371.309C67.1401 371.309 67.2441 371.167 67.0591 370.875L67.0171 370.81Z" fill="url(#paint37_linear_972_35567)"/>
<path d="M130.908 358.774L138.463 358.361L135.742 378.194L128.187 378.598L130.908 358.774Z" fill="#FFBE9D"/>
<path opacity="0.2" d="M130.908 358.879L129.508 369.106L136.959 369.483L138.463 358.467L130.908 358.879Z" fill="#1C1A24"/>
<path d="M102.192 226.982C96.0061 265.967 136.4 278.221 134.374 306.368C132.515 332.19 128.796 366.624 128.796 366.624L139.984 366.986C139.984 366.986 147.043 333.315 150.387 307.25C153.603 282.169 125.129 229.017 125.129 229.017C125.129 229.017 110.749 227.567 102.192 226.982Z" fill="#7E75A3"/>
<path d="M130.866 220.041L129.573 225.342C128.431 230.025 128.617 234.973 130.107 239.54L106.283 247.971L103.35 244.748C96.8471 237.601 95.1451 226.815 99.0881 217.731L130.866 220.041Z" fill="#7E75A3"/>
<path d="M99.915 220.743L126.604 222.503C126.914 222.525 127.194 222.707 127.207 222.908L127.39 225.814C127.402 225.998 127.196 226.092 126.913 226.113L99.0891 224.278C98.7291 224.252 98.429 224 98.497 223.783L99.4091 220.956C99.5181 220.776 99.722 220.691 99.915 220.743Z" fill="url(#paint38_linear_972_35567)"/>
<path d="M142.395 361.913L127.238 362.74L127.519 366.778L141.613 367.466L142.395 361.913Z" fill="url(#paint39_linear_972_35567)"/>
<path opacity="0.2" d="M133.247 187.394C133.834 188.605 137.605 186.435 137.724 187.795C137.848 189.218 137.438 190.626 137.032 191.985C136.776 192.842 133.273 197.213 132.514 197.579C131.429 198.103 125.899 197.598 124.726 184.137C124.616 182.869 125.875 176.428 128.033 177.048C128.976 177.319 130.129 180.964 130.584 181.901C131.471 183.732 132.359 185.563 133.247 187.394Z" fill="white"/>
<path d="M131.835 171.476L154.244 204.247C152.282 206.768 147.942 208.387 145.835 206.009C139.54 198.901 128.085 185.858 125.876 179.469C122.835 170.667 131.835 171.476 131.835 171.476Z" fill="#FFBE9D"/>
<path d="M148.494 196.245C151.979 197.706 156.282 195.382 157.313 199.87C158.262 203.998 153.967 205.826 149.405 207.467C147.756 208.06 145.026 206.252 144.542 203.545C144.058 200.837 145.536 196.631 148.494 196.245Z" fill="#FFBE9D"/>
<path d="M155.361 197.306L161.041 194.94C161.947 194.563 162.96 194.643 163.806 195.158L166.581 196.848C167.63 197.486 168.269 198.7 168.243 200.005C168.208 201.735 167.022 203.184 165.441 203.426L162.173 203.926L156.392 203.325L155.361 197.306Z" fill="#FFBE9D"/>
<path d="M137.315 171.907L142.795 181.878C143.639 189.434 130.909 189.518 130.909 189.518C130.909 189.518 124.119 183.198 124.164 174.055C124.182 170.342 125.994 168.631 128.138 167.909C131.646 166.728 135.436 168.487 137.315 171.907Z" fill="#E7E6F0"/>
<path d="M139.404 377.591C138.593 377.564 137.787 377.458 136.993 377.274C136.914 377.262 136.854 377.191 136.848 377.105C136.838 377.022 136.877 376.943 136.945 376.906C137.302 376.712 140.43 375.029 141.349 375.606C141.526 375.715 141.636 375.918 141.64 376.138C141.671 376.499 141.538 376.854 141.283 377.089C140.727 377.482 140.064 377.658 139.404 377.591ZM137.598 376.996C139.294 377.315 140.558 377.241 141.043 376.821C141.213 376.663 141.3 376.424 141.275 376.183C141.277 376.099 141.237 376.019 141.169 375.977C140.659 375.634 138.887 376.349 137.598 376.996Z" fill="url(#paint40_linear_972_35567)"/>
<path d="M137.026 377.281C136.988 377.278 136.951 377.265 136.919 377.242C136.868 377.199 136.841 377.131 136.846 377.061C136.839 376.912 137.236 373.519 138.959 373.519L139.113 373.511C139.603 373.565 139.745 373.84 139.779 374.059C139.909 375.003 138.037 376.79 137.098 377.243L137.026 377.281ZM138.967 373.914C137.853 373.901 137.427 375.878 137.261 376.723C138.226 376.111 139.497 374.707 139.416 374.138C139.416 374.138 139.408 373.954 139.073 373.918L138.967 373.914Z" fill="url(#paint41_linear_972_35567)"/>
<path d="M138.107 376.926C140.174 378.679 142.576 380.493 148.629 381.594C149.98 381.842 149.879 385.309 146.653 385.473C143.427 385.638 138.591 385.621 136.248 385.741C132.454 385.935 131.003 386.203 127.998 386.409C127.934 386.413 127.87 386.412 127.807 386.406C127.151 386.337 126.671 385.705 126.734 384.994L127.571 377.526C127.608 377.194 127.862 376.939 128.17 376.924L136.812 376.483C137.278 376.463 137.736 376.62 138.107 376.926Z" fill="url(#paint42_linear_972_35567)"/>
<path d="M345.118 183.198H247.673C245.33 183.198 243.431 185.257 243.431 187.796V254.535C243.431 257.075 245.33 259.134 247.673 259.134H345.118C347.461 259.134 349.36 257.075 349.36 254.535V187.796C349.36 185.257 347.461 183.198 345.118 183.198Z" fill="#524587"/>
<path d="M239 253.519H353.769V254.544C353.769 257.644 351.448 260.162 348.586 260.162H244.182C241.323 260.162 239 257.647 239 254.544V253.519Z" fill="#524587"/>
<path d="M346.219 186.215H246.273V250.341H346.219V186.215Z" fill="#7E75A3"/>
<path d="M285.954 253.519L287.378 255.974H307.418L308.739 253.519H285.954Z" fill="#7E75A3"/>
<path d="M249.286 188.386H343.415C343.942 188.386 344.367 188.85 344.367 189.418V249.103C344.367 249.675 343.939 250.135 343.415 250.135H249.286C248.759 250.135 248.334 249.671 248.334 249.103V189.418C248.334 188.847 248.762 188.386 249.286 188.386Z" fill="white"/>
<path d="M344.367 192.912H248.331V250.139H344.367V192.912Z" fill="#F9F6FF"/>
<path d="M256.21 190.772C256.21 191.233 255.866 191.602 255.444 191.602C255.022 191.602 254.678 191.23 254.678 190.772C254.678 190.315 255.022 189.942 255.444 189.942C255.866 189.942 256.21 190.315 256.21 190.772Z" fill="#524587"/>
<path d="M251.56 190.772C251.56 191.233 251.217 191.602 250.794 191.602C250.372 191.602 250.029 191.23 250.029 190.772C250.029 190.315 250.372 189.942 250.794 189.942C251.217 189.942 251.56 190.315 251.56 190.772Z" fill="#524587"/>
<path d="M253.793 190.772C253.793 191.233 253.45 191.602 253.028 191.602C252.606 191.602 252.262 191.23 252.262 190.772C252.262 190.315 252.606 189.942 253.028 189.942C253.45 189.942 253.793 190.315 253.793 190.772Z" fill="#524587"/>
<path d="M348.452 253.519C348.452 253.56 324.942 253.595 295.946 253.595C266.951 253.595 243.434 253.56 243.434 253.519C243.434 253.478 266.942 253.443 295.946 253.443C324.951 253.443 348.452 253.478 348.452 253.519Z" fill="#7E75A3"/>
<path d="M276.902 221.741H254.987V223.331H276.902V221.741Z" fill="#E7E6F0"/>
<path d="M305.21 199.675H283.296V201.266H305.21V199.675Z" fill="#E7E6F0"/>
<path d="M337.805 205.593C337.805 205.634 325.603 205.669 310.55 205.669C295.498 205.669 283.296 205.634 283.296 205.593C283.296 205.552 295.495 205.518 310.55 205.518C325.606 205.518 337.805 205.552 337.805 205.593Z" fill="#E7E6F0"/>
<path d="M337.805 209.065C337.805 209.106 325.603 209.141 310.55 209.141C295.498 209.141 283.296 209.106 283.296 209.065C283.296 209.024 295.495 208.989 310.55 208.989C325.606 208.989 337.805 209.024 337.805 209.065Z" fill="#E7E6F0"/>
<path d="M337.805 212.534C337.805 212.575 325.603 212.609 310.55 212.609C295.498 212.609 283.296 212.575 283.296 212.534C283.296 212.493 295.495 212.458 310.55 212.458C325.606 212.458 337.805 212.493 337.805 212.534Z" fill="#E7E6F0"/>
<path d="M337.805 216.002C337.805 216.043 325.603 216.078 310.55 216.078C295.498 216.078 283.296 216.043 283.296 216.002C283.296 215.961 295.495 215.926 310.55 215.926C325.606 215.926 337.805 215.961 337.805 216.002Z" fill="#E7E6F0"/>
<path d="M337.805 219.474C337.805 219.515 325.603 219.55 310.55 219.55C295.498 219.55 283.296 219.515 283.296 219.474C283.296 219.433 295.495 219.398 310.55 219.398C325.606 219.398 337.805 219.433 337.805 219.474Z" fill="#E7E6F0"/>
<path d="M304.573 222.942C304.573 222.983 299.81 223.018 293.934 223.018C288.059 223.018 283.296 222.983 283.296 222.942C283.296 222.901 288.059 222.867 293.934 222.867C299.81 222.867 304.573 222.901 304.573 222.942Z" fill="#E7E6F0"/>
<path d="M337.406 229.677C337.406 229.718 329.385 229.753 319.495 229.753C309.604 229.753 301.58 229.718 301.58 229.677C301.58 229.636 309.598 229.602 319.495 229.602C329.391 229.602 337.406 229.636 337.406 229.677Z" fill="#E7E6F0"/>
<path d="M337.406 233.36C337.406 233.401 329.385 233.436 319.495 233.436C309.604 233.436 301.58 233.401 301.58 233.36C301.58 233.319 309.598 233.285 319.495 233.285C329.391 233.285 337.406 233.319 337.406 233.36Z" fill="#E7E6F0"/>
<path d="M337.406 237.047C337.406 237.088 329.385 237.123 319.495 237.123C309.604 237.123 301.58 237.088 301.58 237.047C301.58 237.006 309.598 236.971 319.495 236.971C329.391 236.971 337.406 237.006 337.406 237.047Z" fill="#E7E6F0"/>
<path d="M337.406 240.73C337.406 240.771 329.385 240.806 319.495 240.806C309.604 240.806 301.58 240.771 301.58 240.73C301.58 240.689 309.598 240.654 319.495 240.654C329.391 240.654 337.406 240.689 337.406 240.73Z" fill="#E7E6F0"/>
<path d="M276.957 229.327C276.957 229.368 272.177 229.403 266.278 229.403C260.379 229.403 255.599 229.368 255.599 229.327C255.599 229.286 260.379 229.251 266.278 229.251C272.177 229.251 276.957 229.286 276.957 229.327Z" fill="#E7E6F0"/>
<path d="M276.957 232.218C276.957 232.259 272.177 232.294 266.278 232.294C260.379 232.294 255.599 232.259 255.599 232.218C255.599 232.177 260.379 232.142 266.278 232.142C272.177 232.142 276.957 232.177 276.957 232.218Z" fill="#E7E6F0"/>
<path d="M276.957 235.112C276.957 235.153 272.177 235.188 266.278 235.188C260.379 235.188 255.599 235.153 255.599 235.112C255.599 235.071 260.379 235.037 266.278 235.037C272.177 235.037 276.957 235.071 276.957 235.112Z" fill="#E7E6F0"/>
<path d="M276.957 238.003C276.957 238.045 272.177 238.079 266.278 238.079C260.379 238.079 255.599 238.045 255.599 238.003C255.599 237.962 260.379 237.928 266.278 237.928C272.177 237.928 276.957 237.962 276.957 238.003Z" fill="#E7E6F0"/>
<path d="M276.957 240.898C276.957 240.939 272.177 240.973 266.278 240.973C260.379 240.973 255.599 240.939 255.599 240.898C255.599 240.856 260.379 240.822 266.278 240.822C272.177 240.822 276.957 240.856 276.957 240.898Z" fill="#E7E6F0"/>
<path d="M298.828 227.92H283.281V244.228H298.828V227.92Z" fill="white"/>
<path d="M284.487 242.832L288.787 234.44L292.307 239.805L294.444 236.955L297.623 242.832H284.487Z" fill="white"/>
<path d="M293.803 232.81C293.803 233.479 293.302 234.022 292.685 234.022C292.068 234.022 291.567 233.479 291.567 232.81C291.567 232.141 292.068 231.598 292.685 231.598C293.302 231.598 293.803 232.141 293.803 232.81Z" fill="white"/>
<path d="M297.623 242.876C297.623 242.876 297.623 242.851 297.62 242.81C297.62 242.763 297.62 242.7 297.617 242.621C297.617 242.447 297.614 242.201 297.609 241.885C297.606 241.238 297.6 240.304 297.591 239.117C297.582 236.735 297.571 233.345 297.559 229.27L297.623 229.34C293.818 229.343 289.308 229.346 284.486 229.352C284.469 229.368 284.626 229.201 284.559 229.273V230.198C284.559 230.508 284.559 230.814 284.559 231.12C284.559 231.732 284.559 232.335 284.559 232.935C284.559 234.134 284.559 235.305 284.559 236.447C284.559 238.732 284.553 240.891 284.553 242.876L284.489 242.807C288.411 242.823 291.687 242.835 293.99 242.842C295.137 242.848 296.042 242.854 296.668 242.861C296.974 242.864 297.21 242.867 297.379 242.87C297.454 242.87 297.515 242.87 297.562 242.873C297.603 242.873 297.626 242.873 297.626 242.876C297.626 242.876 297.609 242.876 297.568 242.879C297.521 242.879 297.466 242.879 297.39 242.883C297.224 242.883 296.991 242.886 296.692 242.892C296.068 242.895 295.169 242.902 294.027 242.911C291.716 242.92 288.426 242.933 284.486 242.946H284.422V242.876C284.422 240.891 284.417 238.732 284.417 236.447C284.417 235.305 284.417 234.131 284.417 232.935C284.417 232.335 284.417 231.729 284.417 231.12C284.417 230.814 284.417 230.508 284.417 230.198V229.504V229.387V229.277C284.35 229.343 284.507 229.172 284.492 229.191C289.314 229.195 293.824 229.201 297.629 229.204H297.693V229.273C297.678 233.364 297.67 236.769 297.661 239.165C297.655 240.345 297.649 241.276 297.644 241.92C297.641 242.229 297.638 242.469 297.635 242.64C297.635 242.715 297.635 242.775 297.632 242.823C297.632 242.864 297.632 242.883 297.629 242.883L297.623 242.876Z" fill="white"/>
<path d="M276.489 196.961H255.401V219.079H276.489V196.961Z" fill="white"/>
<path d="M257.037 217.186L262.872 205.805L267.641 213.08L270.541 209.216L274.855 217.186H257.037Z" fill="#E7E6F0"/>
<path d="M269.676 203.592C269.676 204.501 268.997 205.236 268.159 205.236C267.32 205.236 266.642 204.501 266.642 203.592C266.642 202.683 267.32 201.948 268.159 201.948C268.997 201.948 269.676 202.683 269.676 203.592Z" fill="#E7E6F0"/>
<path d="M274.855 217.248C274.855 217.248 274.852 217.217 274.849 217.157C274.849 217.091 274.849 217.005 274.844 216.898C274.844 216.661 274.838 216.33 274.835 215.904C274.829 215.026 274.823 213.758 274.812 212.148C274.8 208.916 274.785 204.318 274.768 198.795L274.855 198.889C269.696 198.892 263.576 198.899 257.04 198.905C257.016 198.927 257.229 198.7 257.139 198.798V200.051C257.139 200.467 257.139 200.884 257.139 201.301C257.139 202.131 257.139 202.951 257.139 203.762C257.139 205.388 257.139 206.978 257.139 208.528C257.136 211.624 257.133 214.553 257.13 217.248L257.043 217.154C262.362 217.173 266.802 217.192 269.926 217.201C271.484 217.21 272.712 217.22 273.56 217.226C273.973 217.229 274.296 217.236 274.523 217.239C274.628 217.239 274.71 217.242 274.774 217.245C274.829 217.245 274.861 217.248 274.861 217.251C274.861 217.251 274.838 217.255 274.782 217.258C274.721 217.258 274.643 217.258 274.541 217.264C274.317 217.264 274.002 217.27 273.595 217.274C272.75 217.28 271.53 217.286 269.981 217.299C266.846 217.311 262.382 217.327 257.043 217.346H256.955V217.251C256.952 214.556 256.949 211.63 256.947 208.531C256.947 206.982 256.947 205.391 256.947 203.765C256.947 202.954 256.947 202.131 256.947 201.304C256.947 200.89 256.947 200.474 256.947 200.054V199.11V198.952V198.801C256.856 198.896 257.069 198.665 257.048 198.69C263.588 198.697 269.705 198.7 274.864 198.706H274.951V198.801C274.934 204.349 274.919 208.97 274.908 212.214C274.899 213.814 274.89 215.077 274.884 215.948C274.879 216.368 274.876 216.693 274.876 216.926C274.876 217.031 274.873 217.109 274.87 217.176C274.87 217.229 274.867 217.258 274.864 217.255L274.855 217.248Z" fill="#E7E6F0"/>
<path d="M279.316 205.367L280.358 207.655L282.687 208.021L281.001 209.804L281.4 212.32L279.316 211.13L277.234 212.32L277.63 209.804L275.944 208.021L278.276 207.655L279.316 205.367Z" fill="url(#paint43_linear_972_35567)"/>
<path d="M286.653 197.413L287.695 199.701L290.024 200.067L288.339 201.85L288.737 204.362L286.653 203.176L284.571 204.362L284.97 201.85L283.284 200.067L285.613 199.701L286.653 197.413Z" fill="url(#paint44_linear_972_35567)"/>
<path d="M296.462 194.292L297.501 196.58L299.83 196.946L298.148 198.726L298.543 201.241L296.462 200.055L294.377 201.241L294.776 198.726L293.09 196.946L295.419 196.58L296.462 194.292Z" fill="url(#paint45_linear_972_35567)"/>
<path d="M306.608 197.486L307.651 199.774L309.98 200.143L308.294 201.923L308.693 204.439L306.608 203.252L304.527 204.439L304.923 201.923L303.24 200.143L305.569 199.774L306.608 197.486Z" fill="url(#paint46_linear_972_35567)"/>
<path d="M313.604 205.069L314.647 207.358L316.976 207.724L315.29 209.504L315.686 212.019L313.604 210.832L311.52 212.019L311.918 209.504L310.233 207.724L312.562 207.358L313.604 205.069Z" fill="url(#paint47_linear_972_35567)"/>
<path d="M316.14 216.072L317.183 218.36L319.512 218.726L317.826 220.506L318.225 223.022L316.14 221.835L314.059 223.022L314.455 220.506L312.769 218.726L315.098 218.36L316.14 216.072Z" fill="url(#paint48_linear_972_35567)"/>
<path d="M313.672 226.998L314.714 229.286L317.043 229.652L315.357 231.436L315.756 233.948L313.672 232.761L311.59 233.948L311.986 231.436L310.3 229.652L312.632 229.286L313.672 226.998Z" fill="url(#paint49_linear_972_35567)"/>
<path d="M306.244 234.579L307.287 236.867L309.616 237.237L307.93 239.017L308.329 241.532L306.244 240.345L304.16 241.532L304.558 239.017L302.873 237.237L305.202 236.867L306.244 234.579Z" fill="url(#paint50_linear_972_35567)"/>
<path d="M296.264 237.707L297.306 239.995L299.635 240.361L297.949 242.141L298.345 244.657L296.264 243.47L294.179 244.657L294.578 242.141L292.892 240.361L295.221 239.995L296.264 237.707Z" fill="url(#paint51_linear_972_35567)"/>
<path d="M286.732 234.585L287.774 236.873L290.103 237.239L288.417 239.019L288.816 241.535L286.732 240.348L284.647 241.535L285.046 239.019L283.36 237.239L285.689 236.873L286.732 234.585Z" fill="url(#paint52_linear_972_35567)"/>
<path d="M279.187 226.799L280.23 229.087L282.559 229.457L280.873 231.237L281.272 233.752L279.187 232.566L277.103 233.752L277.502 231.237L275.816 229.457L278.145 229.087L279.187 226.799Z" fill="url(#paint53_linear_972_35567)"/>
<path d="M276.652 216.085L277.691 218.373L280.023 218.739L278.337 220.519L278.733 223.035L276.652 221.848L274.567 223.035L274.966 220.519L273.28 218.739L275.609 218.373L276.652 216.085Z" fill="url(#paint54_linear_972_35567)"/>
<path d="M303.65 223.934H301.612V211.909C301.612 209.078 299.487 206.777 296.878 206.777C294.269 206.777 292.144 209.081 292.144 211.909V223.934H290.106V211.909C290.106 207.86 293.145 204.568 296.878 204.568C300.61 204.568 303.65 207.863 303.65 211.909V223.934Z" fill="#524587"/>
<path d="M304.311 218.584H289.439C288.505 218.584 287.747 219.405 287.747 220.418V229.447C287.747 230.46 288.505 231.281 289.439 231.281H304.311C305.245 231.281 306.003 230.46 306.003 229.447V220.418C306.003 219.405 305.245 218.584 304.311 218.584Z" fill="url(#paint55_linear_972_35567)"/>
<path d="M298.404 223.277C298.404 224.189 297.72 224.931 296.878 224.931C296.037 224.931 295.353 224.189 295.353 223.277C295.353 222.365 296.037 221.624 296.878 221.624C297.72 221.624 298.404 222.365 298.404 223.277Z" fill="#524587"/>
<path d="M297.294 223.934H296.462V227.336H297.294V223.934Z" fill="#524587"/>
<path d="M288.723 230.075C288.682 230.075 288.647 227.958 288.647 225.347C288.647 222.737 288.682 220.62 288.723 220.62C288.764 220.62 288.799 222.737 288.799 225.347C288.799 227.958 288.764 230.075 288.723 230.075Z" fill="#F9F6FF"/>
<path d="M295.681 225.398C295.681 225.398 295.609 225.373 295.504 225.288C295.396 225.205 295.253 225.06 295.111 224.852C294.825 224.448 294.566 223.713 294.735 222.92C294.913 222.128 295.448 221.598 295.871 221.374C296.083 221.257 296.272 221.2 296.4 221.178C296.532 221.156 296.604 221.156 296.607 221.166C296.613 221.197 296.319 221.226 295.923 221.475C295.533 221.715 295.047 222.226 294.884 222.955C294.726 223.687 294.951 224.382 295.201 224.786C295.451 225.202 295.705 225.373 295.684 225.395L295.681 225.398Z" fill="#F9F6FF"/>
</g>
<defs>
<linearGradient id="paint0_linear_972_35567" x1="149.003" y1="139.693" x2="200.213" y2="119.549" gradientUnits="userSpaceOnUse">
<stop stop-color="#7260ED"/>
<stop offset="1" stop-color="#AA7CEE"/>
</linearGradient>
<linearGradient id="paint1_linear_972_35567" x1="139.711" y1="139.691" x2="195.357" y2="128.359" gradientUnits="userSpaceOnUse">
<stop stop-color="#7260ED"/>
<stop offset="1" stop-color="#AA7CEE"/>
</linearGradient>
<linearGradient id="paint2_linear_972_35567" x1="165.32" y1="112.554" x2="176.475" y2="108.441" gradientUnits="userSpaceOnUse">
<stop stop-color="#7260ED"/>
<stop offset="1" stop-color="#AA7CEE"/>
</linearGradient>
<linearGradient id="paint3_linear_972_35567" x1="223.319" y1="387.96" x2="269.872" y2="385.657" gradientUnits="userSpaceOnUse">
<stop stop-color="#7260ED"/>
<stop offset="1" stop-color="#AA7CEE"/>
</linearGradient>
<linearGradient id="paint4_linear_972_35567" x1="313.731" y1="387.852" x2="324.866" y2="387.709" gradientUnits="userSpaceOnUse">
<stop stop-color="#7260ED"/>
<stop offset="1" stop-color="#AA7CEE"/>
</linearGradient>
<linearGradient id="paint5_linear_972_35567" x1="223.318" y1="387.285" x2="228.888" y2="387.249" gradientUnits="userSpaceOnUse">
<stop stop-color="#7260ED"/>
<stop offset="1" stop-color="#AA7CEE"/>
</linearGradient>
<linearGradient id="paint6_linear_972_35567" x1="319.008" y1="387.96" x2="365.56" y2="385.657" gradientUnits="userSpaceOnUse">
<stop stop-color="#7260ED"/>
<stop offset="1" stop-color="#AA7CEE"/>
</linearGradient>
<linearGradient id="paint7_linear_972_35567" x1="325.712" y1="269.713" x2="224.478" y2="305.295" gradientUnits="userSpaceOnUse">
<stop stop-color="#7260ED"/>
<stop offset="1" stop-color="#AA7CEE"/>
</linearGradient>
<linearGradient id="paint8_linear_972_35567" x1="361.045" y1="269.713" x2="315.373" y2="276.293" gradientUnits="userSpaceOnUse">
<stop stop-color="#7260ED"/>
<stop offset="1" stop-color="#AA7CEE"/>
</linearGradient>
<linearGradient id="paint9_linear_972_35567" x1="318.122" y1="262.391" x2="271.569" y2="317.205" gradientUnits="userSpaceOnUse">
<stop stop-color="#7260ED"/>
<stop offset="1" stop-color="#AA7CEE"/>
</linearGradient>
<linearGradient id="paint10_linear_972_35567" x1="366.25" y1="262.391" x2="325.154" y2="286.401" gradientUnits="userSpaceOnUse">
<stop stop-color="#7260ED"/>
<stop offset="1" stop-color="#AA7CEE"/>
</linearGradient>
<linearGradient id="paint11_linear_972_35567" x1="310.804" y1="277.036" x2="238.854" y2="311.076" gradientUnits="userSpaceOnUse">
<stop stop-color="#7260ED"/>
<stop offset="1" stop-color="#AA7CEE"/>
</linearGradient>
<linearGradient id="paint12_linear_972_35567" x1="262.692" y1="286.541" x2="273.445" y2="284.189" gradientUnits="userSpaceOnUse">
<stop stop-color="#7260ED"/>
<stop offset="1" stop-color="#AA7CEE"/>
</linearGradient>
<linearGradient id="paint13_linear_972_35567" x1="262.692" y1="286.541" x2="269.375" y2="285.659" gradientUnits="userSpaceOnUse">
<stop stop-color="#7260ED"/>
<stop offset="1" stop-color="#AA7CEE"/>
</linearGradient>
<linearGradient id="paint14_linear_972_35567" x1="258.998" y1="69.2704" x2="274.357" y2="67.7309" gradientUnits="userSpaceOnUse">
<stop stop-color="#7260ED"/>
<stop offset="1" stop-color="#AA7CEE"/>
</linearGradient>
<linearGradient id="paint15_linear_972_35567" x1="223.81" y1="120.429" x2="256.366" y2="113.132" gradientUnits="userSpaceOnUse">
<stop stop-color="#7260ED"/>
<stop offset="1" stop-color="#AA7CEE"/>
</linearGradient>
<linearGradient id="paint16_linear_972_35567" x1="186.208" y1="23.681" x2="201.567" y2="22.1416" gradientUnits="userSpaceOnUse">
<stop stop-color="#7260ED"/>
<stop offset="1" stop-color="#AA7CEE"/>
</linearGradient>
<linearGradient id="paint17_linear_972_35567" x1="151.02" y1="73.9042" x2="183.576" y2="66.6061" gradientUnits="userSpaceOnUse">
<stop stop-color="#7260ED"/>
<stop offset="1" stop-color="#AA7CEE"/>
</linearGradient>
<linearGradient id="paint18_linear_972_35567" x1="103.963" y1="60.5668" x2="119.322" y2="59.0273" gradientUnits="userSpaceOnUse">
<stop stop-color="#7260ED"/>
<stop offset="1" stop-color="#AA7CEE"/>
</linearGradient>
<linearGradient id="paint19_linear_972_35567" x1="68.636" y1="111.435" x2="101.193" y2="104.136" gradientUnits="userSpaceOnUse">
<stop stop-color="#7260ED"/>
<stop offset="1" stop-color="#AA7CEE"/>
</linearGradient>
<linearGradient id="paint20_linear_972_35567" x1="71.9102" y1="156.604" x2="87.2688" y2="155.065" gradientUnits="userSpaceOnUse">
<stop stop-color="#7260ED"/>
<stop offset="1" stop-color="#AA7CEE"/>
</linearGradient>
<linearGradient id="paint21_linear_972_35567" x1="36.583" y1="207.473" x2="69.139" y2="200.175" gradientUnits="userSpaceOnUse">
<stop stop-color="#7260ED"/>
<stop offset="1" stop-color="#AA7CEE"/>
</linearGradient>
<linearGradient id="paint22_linear_972_35567" x1="153.041" y1="191.679" x2="181.01" y2="187.758" gradientUnits="userSpaceOnUse">
<stop stop-color="#7260ED"/>
<stop offset="1" stop-color="#AA7CEE"/>
</linearGradient>
<linearGradient id="paint23_linear_972_35567" x1="156.41" y1="172.891" x2="161.89" y2="162.607" gradientUnits="userSpaceOnUse">
<stop stop-color="#7260ED"/>
<stop offset="1" stop-color="#AA7CEE"/>
</linearGradient>
<linearGradient id="paint24_linear_972_35567" x1="153.056" y1="191.598" x2="154.708" y2="185.433" gradientUnits="userSpaceOnUse">
<stop stop-color="#7260ED"/>
<stop offset="1" stop-color="#AA7CEE"/>
</linearGradient>
<linearGradient id="paint25_linear_972_35567" x1="164.572" y1="177.074" x2="167.015" y2="173.08" gradientUnits="userSpaceOnUse">
<stop stop-color="#7260ED"/>
<stop offset="1" stop-color="#AA7CEE"/>
</linearGradient>
<linearGradient id="paint26_linear_972_35567" x1="160.818" y1="180.149" x2="162.835" y2="175.545" gradientUnits="userSpaceOnUse">
<stop stop-color="#7260ED"/>
<stop offset="1" stop-color="#AA7CEE"/>
</linearGradient>
<linearGradient id="paint27_linear_972_35567" x1="160.267" y1="183.225" x2="162.284" y2="178.621" gradientUnits="userSpaceOnUse">
<stop stop-color="#7260ED"/>
<stop offset="1" stop-color="#AA7CEE"/>
</linearGradient>
<linearGradient id="paint28_linear_972_35567" x1="159.716" y1="186.299" x2="161.733" y2="181.695" gradientUnits="userSpaceOnUse">
<stop stop-color="#7260ED"/>
<stop offset="1" stop-color="#AA7CEE"/>
</linearGradient>
<linearGradient id="paint29_linear_972_35567" x1="159.164" y1="189.375" x2="161.497" y2="185.185" gradientUnits="userSpaceOnUse">
<stop stop-color="#7260ED"/>
<stop offset="1" stop-color="#AA7CEE"/>
</linearGradient>
<linearGradient id="paint30_linear_972_35567" x1="136.784" y1="147.585" x2="138.46" y2="147.469" gradientUnits="userSpaceOnUse">
<stop stop-color="#7260ED"/>
<stop offset="1" stop-color="#AA7CEE"/>
</linearGradient>
<linearGradient id="paint31_linear_972_35567" x1="137.657" y1="145.547" x2="139.217" y2="145.128" gradientUnits="userSpaceOnUse">
<stop stop-color="#7260ED"/>
<stop offset="1" stop-color="#AA7CEE"/>
</linearGradient>
<linearGradient id="paint32_linear_972_35567" x1="135.118" y1="142.023" x2="138.891" y2="140.874" gradientUnits="userSpaceOnUse">
<stop stop-color="#7260ED"/>
<stop offset="1" stop-color="#AA7CEE"/>
</linearGradient>
<linearGradient id="paint33_linear_972_35567" x1="107.327" y1="164.206" x2="142.572" y2="160.682" gradientUnits="userSpaceOnUse">
<stop stop-color="#7260ED"/>
<stop offset="1" stop-color="#AA7CEE"/>
</linearGradient>
<linearGradient id="paint34_linear_972_35567" x1="50.3188" y1="382.314" x2="67.2064" y2="380.975" gradientUnits="userSpaceOnUse">
<stop stop-color="#7260ED"/>
<stop offset="1" stop-color="#AA7CEE"/>
</linearGradient>
<linearGradient id="paint35_linear_972_35567" x1="59.3261" y1="361.59" x2="75.5823" y2="358.782" gradientUnits="userSpaceOnUse">
<stop stop-color="#7260ED"/>
<stop offset="1" stop-color="#AA7CEE"/>
</linearGradient>
<linearGradient id="paint36_linear_972_35567" x1="63.3472" y1="374.744" x2="67.7393" y2="374.224" gradientUnits="userSpaceOnUse">
<stop stop-color="#7260ED"/>
<stop offset="1" stop-color="#AA7CEE"/>
</linearGradient>
<linearGradient id="paint37_linear_972_35567" x1="63.3234" y1="372.002" x2="67.7505" y2="370.967" gradientUnits="userSpaceOnUse">
<stop stop-color="#7260ED"/>
<stop offset="1" stop-color="#AA7CEE"/>
</linearGradient>
<linearGradient id="paint38_linear_972_35567" x1="98.4874" y1="226.113" x2="122.315" y2="212.098" gradientUnits="userSpaceOnUse">
<stop stop-color="#7260ED"/>
<stop offset="1" stop-color="#AA7CEE"/>
</linearGradient>
<linearGradient id="paint39_linear_972_35567" x1="127.238" y1="367.466" x2="142.675" y2="362.849" gradientUnits="userSpaceOnUse">
<stop stop-color="#7260ED"/>
<stop offset="1" stop-color="#AA7CEE"/>
</linearGradient>
<linearGradient id="paint40_linear_972_35567" x1="136.847" y1="377.605" x2="141.862" y2="376.361" gradientUnits="userSpaceOnUse">
<stop stop-color="#7260ED"/>
<stop offset="1" stop-color="#AA7CEE"/>
</linearGradient>
<linearGradient id="paint41_linear_972_35567" x1="136.845" y1="377.281" x2="140.084" y2="377.005" gradientUnits="userSpaceOnUse">
<stop stop-color="#7260ED"/>
<stop offset="1" stop-color="#AA7CEE"/>
</linearGradient>
<linearGradient id="paint42_linear_972_35567" x1="126.729" y1="386.411" x2="150.447" y2="380.465" gradientUnits="userSpaceOnUse">
<stop stop-color="#7260ED"/>
<stop offset="1" stop-color="#AA7CEE"/>
</linearGradient>
<linearGradient id="paint43_linear_972_35567" x1="275.944" y1="212.32" x2="283.343" y2="211.533" gradientUnits="userSpaceOnUse">
<stop stop-color="#7260ED"/>
<stop offset="1" stop-color="#AA7CEE"/>
</linearGradient>
<linearGradient id="paint44_linear_972_35567" x1="283.284" y1="204.362" x2="290.679" y2="203.576" gradientUnits="userSpaceOnUse">
<stop stop-color="#7260ED"/>
<stop offset="1" stop-color="#AA7CEE"/>
</linearGradient>
<linearGradient id="paint45_linear_972_35567" x1="293.09" y1="201.241" x2="300.485" y2="200.455" gradientUnits="userSpaceOnUse">
<stop stop-color="#7260ED"/>
<stop offset="1" stop-color="#AA7CEE"/>
</linearGradient>
<linearGradient id="paint46_linear_972_35567" x1="303.24" y1="204.439" x2="310.635" y2="203.653" gradientUnits="userSpaceOnUse">
<stop stop-color="#7260ED"/>
<stop offset="1" stop-color="#AA7CEE"/>
</linearGradient>
<linearGradient id="paint47_linear_972_35567" x1="310.233" y1="212.019" x2="317.631" y2="211.232" gradientUnits="userSpaceOnUse">
<stop stop-color="#7260ED"/>
<stop offset="1" stop-color="#AA7CEE"/>
</linearGradient>
<linearGradient id="paint48_linear_972_35567" x1="312.769" y1="223.022" x2="320.167" y2="222.235" gradientUnits="userSpaceOnUse">
<stop stop-color="#7260ED"/>
<stop offset="1" stop-color="#AA7CEE"/>
</linearGradient>
<linearGradient id="paint49_linear_972_35567" x1="310.3" y1="233.948" x2="317.698" y2="233.161" gradientUnits="userSpaceOnUse">
<stop stop-color="#7260ED"/>
<stop offset="1" stop-color="#AA7CEE"/>
</linearGradient>
<linearGradient id="paint50_linear_972_35567" x1="302.873" y1="241.532" x2="310.271" y2="240.746" gradientUnits="userSpaceOnUse">
<stop stop-color="#7260ED"/>
<stop offset="1" stop-color="#AA7CEE"/>
</linearGradient>
<linearGradient id="paint51_linear_972_35567" x1="292.892" y1="244.657" x2="300.291" y2="243.87" gradientUnits="userSpaceOnUse">
<stop stop-color="#7260ED"/>
<stop offset="1" stop-color="#AA7CEE"/>
</linearGradient>
<linearGradient id="paint52_linear_972_35567" x1="283.36" y1="241.535" x2="290.758" y2="240.748" gradientUnits="userSpaceOnUse">
<stop stop-color="#7260ED"/>
<stop offset="1" stop-color="#AA7CEE"/>
</linearGradient>
<linearGradient id="paint53_linear_972_35567" x1="275.816" y1="233.752" x2="283.214" y2="232.966" gradientUnits="userSpaceOnUse">
<stop stop-color="#7260ED"/>
<stop offset="1" stop-color="#AA7CEE"/>
</linearGradient>
<linearGradient id="paint54_linear_972_35567" x1="273.28" y1="223.035" x2="280.678" y2="222.248" gradientUnits="userSpaceOnUse">
<stop stop-color="#7260ED"/>
<stop offset="1" stop-color="#AA7CEE"/>
</linearGradient>
<linearGradient id="paint55_linear_972_35567" x1="287.747" y1="231.281" x2="307.512" y2="228.167" gradientUnits="userSpaceOnUse">
<stop stop-color="#7260ED"/>
<stop offset="1" stop-color="#AA7CEE"/>
</linearGradient>
<clipPath id="clip0_972_35567">
<rect width="388" height="400" fill="white"/>
</clipPath>
</defs>
</svg>
