<svg width="400" height="400" viewBox="0 0 400 400" fill="none" xmlns="http://www.w3.org/2000/svg">
<g clip-path="url(#clip0_972_34529)">
<path d="M286.769 304.236L284.653 397.185H280.608L280.861 304.473L286.769 304.236Z" fill="#7E75A3"/>
<path d="M301.357 303.209L320.99 397.185H325.494L309.147 303.209H301.357Z" fill="#7E75A3"/>
<path d="M264.544 304.236L242.813 397.185H238.31L258.037 303.865L264.544 304.236Z" fill="#7E75A3"/>
<path d="M321.524 209.244C321.524 209.244 345.062 207.885 342.703 235.519C340.353 263.163 339.004 291.14 330.26 300.691C321.515 310.241 233.431 310.583 226.035 302.734C218.638 294.884 240.154 295.227 244.189 295.227C248.224 295.227 273.101 297.612 281.171 276.116C289.242 254.62 287.22 207.866 321.515 209.234L321.524 209.244Z" fill="#F9F6FF"/>
<path d="M323.031 209.252C323.031 209.252 341.026 212.987 339.341 232.097C337.656 251.208 332.956 284.649 324.211 293.173C315.466 301.707 281.218 303.56 262.689 302.391C241.174 301.022 227.589 296.87 227.589 296.87C227.589 296.87 223.666 299.435 224.855 301.079C226.044 302.733 236.53 309.366 287.388 308.264C338.246 307.161 334.707 299.54 336.823 291.225C338.939 282.9 343.367 238.55 342.749 228.8C342.141 219.05 337.3 210.962 323.031 209.252Z" fill="url(#paint0_linear_972_34529)"/>
<path d="M308.276 246.458C308.276 247.855 309.147 248.996 310.223 248.996C311.3 248.996 312.171 247.865 312.171 246.458C312.171 245.052 311.3 243.931 310.223 243.931C309.147 243.931 308.276 245.062 308.276 246.458Z" fill="url(#paint1_linear_972_34529)"/>
<path d="M309.605 235.273C309.727 235.311 308.978 236.641 308.941 238.96C308.931 240.1 309.147 241.478 309.802 242.837C310.13 243.502 310.551 244.206 311.085 244.776C311.356 245.07 311.693 245.356 311.983 245.764C312.283 246.163 312.423 246.771 312.321 247.285C312.105 248.292 311.571 249.014 311.328 249.765C311.103 250.487 311.028 251.323 311.038 252.065C311.057 253.576 311.497 254.897 312.021 255.904C313.107 257.947 314.38 258.755 314.296 258.85C314.277 258.888 313.94 258.717 313.425 258.299C312.91 257.88 312.218 257.177 311.609 256.132C311 255.096 310.476 253.69 310.42 252.065C310.401 251.247 310.439 250.421 310.71 249.527C311 248.672 311.515 247.921 311.665 247.152C311.843 246.391 311.234 245.859 310.617 245.232C310.008 244.557 309.596 243.835 309.25 243.103C308.575 241.63 308.398 240.148 308.472 238.941C308.547 237.725 308.838 236.784 309.1 236.166C309.362 235.548 309.577 235.244 309.615 235.273H309.605Z" fill="url(#paint2_linear_972_34529)"/>
<path d="M304.268 243.179C304.381 243.198 304.296 243.778 304.54 244.624C304.774 245.46 305.411 246.553 306.497 247.304C307.592 248.054 308.809 248.33 309.689 248.463C310.579 248.596 311.14 248.615 311.15 248.719C311.15 248.805 310.588 248.957 309.652 248.948C308.725 248.938 307.358 248.719 306.113 247.874C304.868 247.018 304.203 245.707 304.072 244.728C303.922 243.74 304.193 243.151 304.268 243.179Z" fill="url(#paint3_linear_972_34529)"/>
<path d="M362.214 398.012L365.725 398.003L360.173 261.749L356.671 261.939L362.214 398.012Z" fill="#7E75A3"/>
<path d="M167.366 398.163L170.868 398.382L177.469 262.099L173.967 261.881L167.366 398.163Z" fill="#7E75A3"/>
<path d="M200.007 399.028L203.499 399.246L209.922 263.943L206.42 263.724L200.007 399.028Z" fill="#7E75A3"/>
<path d="M384.159 398.001H387.67L382.034 261.871L378.542 262.061L384.159 398.001Z" fill="#7E75A3"/>
<path d="M391.285 260.275H161.413V267.288H391.285V260.275Z" fill="url(#paint4_linear_972_34529)"/>
<path d="M179.099 215.42L195.521 259.476H269.916L269.373 257.205L239.291 256.35L225.425 215.401L179.099 215.42Z" fill="#F9F6FF"/>
<path d="M212.065 237.402C212.552 239.207 211.709 240.975 210.183 241.345C208.657 241.725 207.009 240.566 206.522 238.76C206.035 236.955 206.878 235.187 208.404 234.807C209.93 234.437 211.578 235.586 212.065 237.392V237.402Z" fill="url(#paint5_linear_972_34529)"/>
<path d="M399.999 398.004C399.999 398.147 310.445 398.27 200.004 398.27C89.5621 398.27 -0.0102539 398.156 -0.0102539 398.004C-0.0102539 397.852 89.5246 397.738 200.004 397.738C310.483 397.738 399.999 397.852 399.999 398.004Z" fill="#F9F6FF"/>
<path d="M283.762 74.2837H309.968V37.6592H283.762V74.2837Z" fill="#F9F6FF"/>
<path d="M305.858 45.0421C305.858 45.0984 303.986 45.1359 301.673 45.1359C299.36 45.1359 297.479 45.089 297.479 45.0421C297.479 44.9952 299.351 44.9482 301.673 44.9482C303.995 44.9482 305.858 44.9952 305.858 45.0421Z" fill="url(#paint6_linear_972_34529)"/>
<path d="M301.664 49.8404C301.664 49.8967 300.727 49.9343 299.566 49.9343C298.405 49.9343 297.469 49.8873 297.469 49.8404C297.469 49.7935 298.405 49.7466 299.566 49.7466C300.727 49.7466 301.664 49.7935 301.664 49.8404Z" fill="url(#paint7_linear_972_34529)"/>
<path d="M291.58 51.2384C291.58 51.2947 290.643 51.3322 289.482 51.3322C288.322 51.3322 287.385 51.2853 287.385 51.2384C287.385 51.1915 288.322 51.1445 289.482 51.1445C290.643 51.1445 291.58 51.1915 291.58 51.2384Z" fill="url(#paint8_linear_972_34529)"/>
<path d="M293.742 53.2823C293.742 53.3386 292.319 53.3762 290.568 53.3762C288.817 53.3762 287.394 53.3292 287.394 53.2823C287.394 53.2354 288.817 53.1885 290.568 53.1885C292.319 53.1885 293.742 53.2354 293.742 53.2823Z" fill="url(#paint9_linear_972_34529)"/>
<path d="M291.58 56.7682C291.58 56.8245 290.643 56.862 289.482 56.862C288.322 56.862 287.385 56.8151 287.385 56.7682C287.385 56.7212 288.322 56.6743 289.482 56.6743C290.643 56.6743 291.58 56.7212 291.58 56.7682Z" fill="url(#paint10_linear_972_34529)"/>
<path d="M293.742 58.8126C293.742 58.8689 292.319 58.9064 290.568 58.9064C288.817 58.9064 287.394 58.8595 287.394 58.8126C287.394 58.7657 288.817 58.7188 290.568 58.7188C292.319 58.7188 293.742 58.7657 293.742 58.8126Z" fill="url(#paint11_linear_972_34529)"/>
<path d="M291.58 62.0445C291.58 62.1008 290.643 62.1384 289.482 62.1384C288.322 62.1384 287.385 62.0914 287.385 62.0445C287.385 61.9976 288.322 61.9507 289.482 61.9507C290.643 61.9507 291.58 61.9976 291.58 62.0445Z" fill="url(#paint12_linear_972_34529)"/>
<path d="M293.743 64.087C293.743 64.1433 292.32 64.1809 290.569 64.1809C288.818 64.1809 287.395 64.1339 287.395 64.087C287.395 64.0401 288.818 63.9932 290.569 63.9932C292.32 63.9932 293.743 64.0401 293.743 64.087Z" fill="url(#paint13_linear_972_34529)"/>
<path d="M307.028 53.4054C307.028 53.4617 304.893 53.4992 302.253 53.4992C299.613 53.4992 297.478 53.4523 297.478 53.4054C297.478 53.3584 299.613 53.3115 302.253 53.3115C304.893 53.3115 307.028 53.3584 307.028 53.4054Z" fill="url(#paint14_linear_972_34529)"/>
<path d="M301.261 56.9693C301.261 57.0256 300.418 57.0632 299.369 57.0632C298.321 57.0632 297.478 57.0163 297.478 56.9693C297.478 56.9224 298.321 56.8755 299.369 56.8755C300.418 56.8755 301.261 56.9224 301.261 56.9693Z" fill="url(#paint15_linear_972_34529)"/>
<path d="M307.028 60.523C307.028 60.5793 304.893 60.6169 302.253 60.6169C299.613 60.6169 297.478 60.57 297.478 60.523C297.478 60.4761 299.613 60.4292 302.253 60.4292C304.893 60.4292 307.028 60.4761 307.028 60.523Z" fill="url(#paint16_linear_972_34529)"/>
<path d="M307.028 64.087C307.028 64.1433 304.893 64.1809 302.253 64.1809C299.613 64.1809 297.478 64.1339 297.478 64.087C297.478 64.0401 299.613 63.9932 302.253 63.9932C304.893 63.9932 307.028 64.0401 307.028 64.087Z" fill="url(#paint17_linear_972_34529)"/>
<path d="M306.523 67.8214C306.523 67.8777 304.388 67.9152 301.748 67.9152C299.108 67.9152 296.973 67.8683 296.973 67.8214C296.973 67.7745 299.108 67.7275 301.748 67.7275C304.388 67.7275 306.523 67.7745 306.523 67.8214Z" fill="url(#paint18_linear_972_34529)"/>
<path d="M294.397 48.6152C294.397 48.6152 294.387 48.4252 294.378 48.1021C294.378 47.6934 294.369 47.2278 294.359 46.6861C294.35 45.3557 294.331 43.6642 294.312 41.678L294.397 41.7636C292.374 41.7636 290.043 41.7636 287.553 41.7731C287.534 41.7921 287.74 41.583 287.646 41.678V41.7921V41.9156V42.6188C287.646 42.9324 287.646 43.2365 287.646 43.5501C287.646 44.1583 287.646 44.757 287.646 45.3462C287.646 46.5055 287.646 47.5984 287.637 48.6247L287.553 48.5392C289.509 48.5582 291.176 48.5677 292.487 48.5867C293.02 48.5867 293.489 48.6057 293.882 48.6057C294.209 48.6057 294.387 48.6247 294.387 48.6247C294.387 48.6247 294.228 48.6342 293.91 48.6437C293.517 48.6437 293.058 48.6532 292.534 48.6627C291.213 48.6722 289.528 48.6912 287.543 48.7102H287.459V48.6247C287.459 47.6079 287.459 46.5055 287.45 45.3462C287.45 44.7665 287.45 44.1583 287.45 43.5501C287.45 43.246 287.45 42.9324 287.45 42.6188V42.1437V41.9061V41.6875C287.365 41.7636 287.571 41.5545 287.543 41.5735C290.034 41.5735 292.365 41.5735 294.387 41.583H294.472V41.6685C294.453 43.6737 294.443 45.3937 294.425 46.7336C294.425 47.2753 294.406 47.7314 294.406 48.1306C294.406 48.4537 294.387 48.6152 294.387 48.6152H294.397Z" fill="url(#paint19_linear_972_34529)"/>
<path d="M294.396 44.7966C294.396 44.7966 294.255 44.7301 294.04 44.5875C293.721 44.369 293.412 44.1599 293.113 43.9508H293.207C292.504 44.6351 291.83 45.2908 291.1 46.013L291.053 46.0605L290.997 46.1175L290.931 46.07C290.491 45.7469 290.07 45.4428 289.649 45.1292H289.761C289.246 45.5568 288.731 45.994 288.198 46.4406C287.814 46.7542 287.58 46.9348 287.561 46.9158C287.551 46.8968 287.757 46.6972 288.123 46.3551C288.638 45.8894 289.134 45.4428 289.639 44.9867L289.696 44.9392L289.752 44.9772C290.173 45.2813 290.594 45.5854 291.034 45.899H290.913L290.959 45.8609C291.699 45.1577 292.392 44.502 293.094 43.8273L293.141 43.7798L293.188 43.8178C293.478 44.0459 293.778 44.2739 294.077 44.5115C294.283 44.6826 294.396 44.7776 294.386 44.7871L294.396 44.7966Z" fill="url(#paint20_linear_972_34529)"/>
<path d="M291.737 43.3029C291.737 43.3029 291.737 42.9608 291.372 42.6852C291.203 42.5617 290.922 42.4952 290.66 42.5902C290.398 42.6852 290.173 42.9703 290.183 43.2934C290.183 43.626 290.398 43.9016 290.66 43.9966C290.922 44.1012 291.203 44.0347 291.372 43.9016C291.737 43.626 291.709 43.2744 291.737 43.2839C291.746 43.2649 291.849 43.645 291.447 44.0061C291.25 44.1772 290.922 44.2722 290.585 44.1582C290.258 44.0537 289.967 43.702 289.967 43.2839C289.967 42.8658 290.258 42.5142 290.585 42.4096C290.913 42.2956 291.25 42.3906 291.447 42.5617C291.849 42.9228 291.746 43.3124 291.737 43.2839V43.3029Z" fill="url(#paint21_linear_972_34529)"/>
<path d="M85.0484 74.2837H111.254V37.6592H85.0484V74.2837Z" fill="#F9F6FF"/>
<path d="M107.144 45.0421C107.144 45.0984 105.272 45.1359 102.959 45.1359C100.647 45.1359 98.7646 45.089 98.7646 45.0421C98.7646 44.9952 100.637 44.9482 102.959 44.9482C105.281 44.9482 107.144 44.9952 107.144 45.0421Z" fill="url(#paint22_linear_972_34529)"/>
<path d="M102.95 49.8404C102.95 49.8967 102.014 49.9343 100.853 49.9343C99.6916 49.9343 98.7554 49.8873 98.7554 49.8404C98.7554 49.7935 99.6916 49.7466 100.853 49.7466C102.014 49.7466 102.95 49.7935 102.95 49.8404Z" fill="url(#paint23_linear_972_34529)"/>
<path d="M92.8746 51.2384C92.8746 51.2947 91.9384 51.3322 90.7774 51.3322C89.6164 51.3322 88.6802 51.2853 88.6802 51.2384C88.6802 51.1915 89.6164 51.1445 90.7774 51.1445C91.9384 51.1445 92.8746 51.1915 92.8746 51.2384Z" fill="url(#paint24_linear_972_34529)"/>
<path d="M95.028 53.2823C95.028 53.3386 93.6049 53.3762 91.8541 53.3762C90.1033 53.3762 88.6802 53.3292 88.6802 53.2823C88.6802 53.2354 90.1033 53.1885 91.8541 53.1885C93.6049 53.1885 95.028 53.2354 95.028 53.2823Z" fill="url(#paint25_linear_972_34529)"/>
<path d="M92.8746 56.7682C92.8746 56.8245 91.9384 56.862 90.7774 56.862C89.6164 56.862 88.6802 56.8151 88.6802 56.7682C88.6802 56.7212 89.6164 56.6743 90.7774 56.6743C91.9384 56.6743 92.8746 56.7212 92.8746 56.7682Z" fill="url(#paint26_linear_972_34529)"/>
<path d="M95.028 58.8126C95.028 58.8689 93.6049 58.9064 91.8541 58.9064C90.1033 58.9064 88.6802 58.8595 88.6802 58.8126C88.6802 58.7657 90.1033 58.7188 91.8541 58.7188C93.6049 58.7188 95.028 58.7657 95.028 58.8126Z" fill="url(#paint27_linear_972_34529)"/>
<path d="M92.8746 62.0445C92.8746 62.1008 91.9384 62.1384 90.7774 62.1384C89.6164 62.1384 88.6802 62.0914 88.6802 62.0445C88.6802 61.9976 89.6164 61.9507 90.7774 61.9507C91.9384 61.9507 92.8746 61.9976 92.8746 62.0445Z" fill="url(#paint28_linear_972_34529)"/>
<path d="M95.028 64.087C95.028 64.1433 93.6049 64.1809 91.8541 64.1809C90.1033 64.1809 88.6802 64.1339 88.6802 64.087C88.6802 64.0401 90.1033 63.9932 91.8541 63.9932C93.6049 63.9932 95.028 64.0401 95.028 64.087Z" fill="url(#paint29_linear_972_34529)"/>
<path d="M108.314 53.4054C108.314 53.4617 106.179 53.4992 103.539 53.4992C100.899 53.4992 98.7642 53.4523 98.7642 53.4054C98.7642 53.3584 100.899 53.3115 103.539 53.3115C106.179 53.3115 108.314 53.3584 108.314 53.4054Z" fill="url(#paint30_linear_972_34529)"/>
<path d="M102.547 56.9693C102.547 57.0256 101.704 57.0632 100.655 57.0632C99.6068 57.0632 98.7642 57.0163 98.7642 56.9693C98.7642 56.9224 99.6068 56.8755 100.655 56.8755C101.704 56.8755 102.547 56.9224 102.547 56.9693Z" fill="url(#paint31_linear_972_34529)"/>
<path d="M108.314 60.523C108.314 60.5793 106.179 60.6169 103.539 60.6169C100.899 60.6169 98.7642 60.57 98.7642 60.523C98.7642 60.4761 100.899 60.4292 103.539 60.4292C106.179 60.4292 108.314 60.4761 108.314 60.523Z" fill="url(#paint32_linear_972_34529)"/>
<path d="M108.314 64.087C108.314 64.1433 106.179 64.1809 103.539 64.1809C100.899 64.1809 98.7642 64.1339 98.7642 64.087C98.7642 64.0401 100.899 63.9932 103.539 63.9932C106.179 63.9932 108.314 64.0401 108.314 64.087Z" fill="url(#paint33_linear_972_34529)"/>
<path d="M107.809 67.8214C107.809 67.8777 105.674 67.9152 103.034 67.9152C100.394 67.9152 98.2593 67.8683 98.2593 67.8214C98.2593 67.7745 100.394 67.7275 103.034 67.7275C105.674 67.7275 107.809 67.7745 107.809 67.8214Z" fill="url(#paint34_linear_972_34529)"/>
<path d="M95.6862 48.6169C95.6862 48.6169 95.6769 48.4269 95.6675 48.1038C95.6675 47.6952 95.6581 47.2295 95.6488 46.6878C95.6394 45.3574 95.6207 43.6659 95.602 41.6798L95.6862 41.7653C93.6639 41.7653 91.3326 41.7653 88.8421 41.7748C88.8234 41.7938 89.0294 41.5847 88.9358 41.6798V42.1549V42.6301C88.9358 42.9437 88.9358 43.2477 88.9358 43.5613C88.9358 44.1695 88.9358 44.7682 88.9358 45.3574C88.9358 46.5168 88.9358 47.6096 88.9264 48.6359L88.8421 48.5504C90.7989 48.5694 92.4655 48.5789 93.7762 48.5979C94.3099 48.5979 94.778 48.6169 95.1713 48.6169C95.499 48.6169 95.6769 48.6359 95.6769 48.6359C95.6769 48.6359 95.5177 48.6455 95.1994 48.655C94.8061 48.655 94.3474 48.6645 93.8231 48.674C92.5029 48.6835 90.8176 48.7025 88.8328 48.7215H88.7485V48.6359C88.7485 47.6191 88.7485 46.5168 88.7391 45.3574C88.7391 44.7777 88.7391 44.1695 88.7391 43.5613C88.7391 43.2573 88.7391 42.9437 88.7391 42.6301V42.1549V41.9173V41.6988C88.6549 41.7748 88.8609 41.5657 88.8328 41.5847C91.3232 41.5847 93.6545 41.5847 95.6769 41.5942H95.7611V41.6798C95.7424 43.6849 95.733 45.4049 95.7143 46.7449C95.7143 47.2865 95.6956 47.7427 95.6956 48.1418C95.6956 48.4649 95.6769 48.6264 95.6769 48.6264L95.6862 48.6169Z" fill="url(#paint35_linear_972_34529)"/>
<path d="M95.6846 44.799C95.6846 44.799 95.5442 44.7325 95.3289 44.59C95.0105 44.3714 94.7016 44.1623 94.402 43.9533H94.4956C93.7934 44.6375 93.1193 45.2932 92.389 46.0154L92.3422 46.0629L92.286 46.12L92.2205 46.0724C91.7804 45.7493 91.3591 45.4453 90.9378 45.1317H91.0501C90.5352 45.5593 90.0202 45.9964 89.4866 46.4431C89.1027 46.7567 88.8686 46.9372 88.8499 46.9182C88.8406 46.8992 89.0465 46.6996 89.4117 46.3575C89.9266 45.8919 90.4228 45.4453 90.9284 44.9891L90.9846 44.9416L91.0408 44.9796C91.4621 45.2837 91.8834 45.5878 92.3235 45.9014H92.2017L92.2485 45.8634C92.9882 45.1602 93.681 44.5045 94.3832 43.8297L94.43 43.7822L94.4769 43.8202C94.7671 44.0483 95.0667 44.2764 95.3663 44.514C95.5723 44.685 95.6846 44.78 95.6753 44.7895L95.6846 44.799Z" fill="url(#paint36_linear_972_34529)"/>
<path d="M93.0264 43.3054C93.0264 43.3054 93.0264 42.9633 92.6612 42.6877C92.4927 42.5641 92.2118 42.4976 91.9497 42.5926C91.6875 42.6877 91.4628 42.9728 91.4722 43.2959C91.4722 43.6285 91.6875 43.9041 91.9497 43.9991C92.2118 44.1036 92.4927 44.0371 92.6612 43.9041C93.0264 43.6285 92.9983 43.2769 93.0264 43.2864C93.0357 43.2674 93.1387 43.6475 92.7361 44.0086C92.5395 44.1796 92.2118 44.2747 91.8748 44.1606C91.5471 44.0561 91.2568 43.7045 91.2568 43.2864C91.2568 42.8682 91.5471 42.5166 91.8748 42.4121C92.2025 42.298 92.5395 42.3931 92.7361 42.5641C93.1387 42.9252 93.0357 43.3149 93.0264 43.2864V43.3054Z" fill="url(#paint37_linear_972_34529)"/>
<path d="M174.884 -0.00195312H172.244V2.67789H174.884V-0.00195312Z" fill="url(#paint38_linear_972_34529)"/>
<path d="M174.884 39.5308H172.244V42.2106H174.884V39.5308Z" fill="url(#paint39_linear_972_34529)"/>
<path d="M229.021 39.5317H226.38V42.2116H229.021V39.5317Z" fill="url(#paint40_linear_972_34529)"/>
<path d="M174.884 78.417H172.244V81.0968H174.884V78.417Z" fill="url(#paint41_linear_972_34529)"/>
<path d="M201.39 -0.00195312H198.75V2.67789H201.39V-0.00195312Z" fill="url(#paint42_linear_972_34529)"/>
<path d="M201.39 79.0635H198.75V81.7433H201.39V79.0635Z" fill="url(#paint43_linear_972_34529)"/>
<path d="M229.021 -0.00195312H226.38V2.67789H229.021V-0.00195312Z" fill="url(#paint44_linear_972_34529)"/>
<path d="M229.021 79.0635H226.38V81.7433H229.021V79.0635Z" fill="url(#paint45_linear_972_34529)"/>
<path d="M227.884 79.9279C227.884 79.9279 227.884 79.7948 227.875 79.5383C227.875 79.2722 227.875 78.9016 227.865 78.4169C227.865 77.4191 227.847 75.9651 227.837 74.0835C227.828 70.2919 227.8 64.7801 227.781 57.8144C227.753 43.883 227.715 24.1453 227.669 0.853486L227.893 1.08156C211.471 1.08156 193.102 1.09106 173.759 1.10056L174.002 0.853486C173.983 30.5408 173.965 57.9665 173.955 79.9184L173.759 79.7188C190.19 79.7663 203.7 79.7948 213.119 79.8234C217.829 79.8424 221.508 79.8614 224.036 79.8709C225.281 79.8804 226.246 79.8899 226.91 79.8899C227.566 79.8899 227.903 79.9089 227.903 79.9089C227.903 79.9089 227.584 79.9279 226.948 79.9279C226.292 79.9279 225.347 79.9374 224.111 79.9469C221.602 79.9564 217.931 79.9754 213.241 79.9944C203.794 80.0229 190.246 80.0514 173.759 80.0989H173.562V79.8994C173.553 57.9475 173.534 30.5218 173.515 0.83448V0.587402H173.759C193.102 0.587402 211.471 0.606408 227.893 0.606408H228.118V0.83448C228.071 24.1928 228.034 43.9781 228.006 57.9475C227.978 64.8942 227.959 70.3869 227.95 74.1596C227.94 76.0222 227.931 77.4571 227.921 78.4454C227.921 78.9206 227.912 79.2817 227.912 79.5383C227.912 79.7853 227.903 79.8994 227.903 79.8994L227.884 79.9279Z" fill="url(#paint46_linear_972_34529)"/>
<path d="M225.658 4.48486H175.868V77.1352H225.658V4.48486Z" fill="#F9F6FF"/>
<path d="M206.587 26.5977C206.587 26.7307 204.658 26.8447 202.29 26.8447C199.921 26.8447 197.992 26.7307 197.992 26.5977C197.992 26.4646 199.921 26.3506 202.29 26.3506C204.658 26.3506 206.587 26.4646 206.587 26.5977Z" fill="url(#paint47_linear_972_34529)"/>
<path d="M193.264 27.6807C193.264 27.8137 190.559 27.9277 187.225 27.9277C183.892 27.9277 181.187 27.8137 181.187 27.6807C181.187 27.5476 183.892 27.4336 187.225 27.4336C190.559 27.4336 193.264 27.5476 193.264 27.6807Z" fill="url(#paint48_linear_972_34529)"/>
<path d="M193.264 30.8926C193.264 31.0256 190.559 31.1397 187.225 31.1397C183.892 31.1397 181.187 31.0256 181.187 30.8926C181.187 30.7595 183.892 30.6455 187.225 30.6455C190.559 30.6455 193.264 30.7595 193.264 30.8926Z" fill="url(#paint49_linear_972_34529)"/>
<path d="M193.264 34.0947C193.264 34.2278 190.559 34.3418 187.225 34.3418C183.892 34.3418 181.187 34.2278 181.187 34.0947C181.187 33.9617 183.892 33.8477 187.225 33.8477C190.559 33.8477 193.264 33.9617 193.264 34.0947Z" fill="url(#paint50_linear_972_34529)"/>
<path d="M193.264 37.3066C193.264 37.4397 190.559 37.5537 187.225 37.5537C183.892 37.5537 181.187 37.4397 181.187 37.3066C181.187 37.1736 183.892 37.0596 187.225 37.0596C190.559 37.0596 193.264 37.1736 193.264 37.3066Z" fill="url(#paint51_linear_972_34529)"/>
<path d="M193.264 40.5171C193.264 40.6501 190.559 40.7642 187.225 40.7642C183.892 40.7642 181.187 40.6501 181.187 40.5171C181.187 40.3841 183.892 40.27 187.225 40.27C190.559 40.27 193.264 40.3841 193.264 40.5171Z" fill="url(#paint52_linear_972_34529)"/>
<path d="M193.265 46.3057C193.265 46.4387 190.559 46.5527 187.226 46.5527C183.893 46.5527 181.188 46.4387 181.188 46.3057C181.188 46.1726 183.893 46.0586 187.226 46.0586C190.559 46.0586 193.265 46.1726 193.265 46.3057Z" fill="url(#paint53_linear_972_34529)"/>
<path d="M193.265 49.5083C193.265 49.6413 190.559 49.7554 187.226 49.7554C183.893 49.7554 181.188 49.6413 181.188 49.5083C181.188 49.3753 183.893 49.2612 187.226 49.2612C190.559 49.2612 193.265 49.3753 193.265 49.5083Z" fill="url(#paint54_linear_972_34529)"/>
<path d="M193.265 52.7197C193.265 52.8528 190.559 52.9668 187.226 52.9668C183.893 52.9668 181.188 52.8528 181.188 52.7197C181.188 52.5867 183.893 52.4727 187.226 52.4727C190.559 52.4727 193.265 52.5867 193.265 52.7197Z" fill="url(#paint55_linear_972_34529)"/>
<path d="M187.91 55.9317C187.91 56.0647 186.402 56.1787 184.549 56.1787C182.695 56.1787 181.188 56.0647 181.188 55.9317C181.188 55.7986 182.686 55.6846 184.549 55.6846C186.412 55.6846 187.91 55.7986 187.91 55.9317Z" fill="url(#paint56_linear_972_34529)"/>
<path d="M217.383 31.8067C217.383 31.9397 213.039 32.0537 207.683 32.0537C202.328 32.0537 197.983 31.9397 197.983 31.8067C197.983 31.6736 202.328 31.5596 207.683 31.5596C213.039 31.5596 217.383 31.6736 217.383 31.8067Z" fill="url(#paint57_linear_972_34529)"/>
<path d="M217.662 34.9424C217.662 35.0754 213.318 35.1895 207.962 35.1895C202.607 35.1895 198.263 35.0754 198.263 34.9424C198.263 34.8094 202.607 34.6953 207.962 34.6953C213.318 34.6953 217.662 34.8094 217.662 34.9424Z" fill="url(#paint58_linear_972_34529)"/>
<path d="M206.587 42.0884C206.587 42.2214 204.658 42.3355 202.29 42.3355C199.921 42.3355 197.992 42.2214 197.992 42.0884C197.992 41.9553 199.921 41.8413 202.29 41.8413C204.658 41.8413 206.587 41.9553 206.587 42.0884Z" fill="url(#paint59_linear_972_34529)"/>
<path d="M217.382 47.2964C217.382 47.4294 213.038 47.5435 207.683 47.5435C202.327 47.5435 197.983 47.4294 197.983 47.2964C197.983 47.1634 202.327 47.0493 207.683 47.0493C213.038 47.0493 217.382 47.1634 217.382 47.2964Z" fill="url(#paint60_linear_972_34529)"/>
<path d="M217.662 50.4312C217.662 50.5642 213.318 50.6782 207.962 50.6782C202.607 50.6782 198.263 50.5642 198.263 50.4312C198.263 50.2981 202.607 50.1841 207.962 50.1841C213.318 50.1841 217.662 50.2981 217.662 50.4312Z" fill="url(#paint61_linear_972_34529)"/>
<path d="M206.587 58.186C206.587 58.3191 204.658 58.4331 202.29 58.4331C199.921 58.4331 197.992 58.3191 197.992 58.186C197.992 58.053 199.921 57.939 202.29 57.939C204.658 57.939 206.587 58.053 206.587 58.186Z" fill="url(#paint62_linear_972_34529)"/>
<path d="M217.382 63.3936C217.382 63.5266 213.038 63.6406 207.682 63.6406C202.327 63.6406 197.982 63.5266 197.982 63.3936C197.982 63.2605 202.327 63.1465 207.682 63.1465C213.038 63.1465 217.382 63.2605 217.382 63.3936Z" fill="url(#paint63_linear_972_34529)"/>
<path d="M217.662 66.5293C217.662 66.6623 213.318 66.7764 207.962 66.7764C202.607 66.7764 198.263 66.6623 198.263 66.5293C198.263 66.3963 202.607 66.2822 207.962 66.2822C213.318 66.2822 217.662 66.3963 217.662 66.5293Z" fill="url(#paint64_linear_972_34529)"/>
<path d="M193.629 22.9204C193.629 22.9204 193.601 22.5593 193.582 21.9416C193.572 21.2669 193.554 20.3736 193.526 19.2807C193.498 16.9525 193.46 13.75 193.423 9.9298L193.638 10.1484C189.902 10.1579 185.511 10.1674 180.839 10.1864C180.783 10.2434 181.298 9.72073 181.083 9.9393V10.8231V11.7069C181.083 12.296 181.083 12.8662 181.083 13.4459C181.083 14.5958 181.083 15.7171 181.083 16.8005C181.083 18.9767 181.064 21.0388 181.055 22.9299L180.839 22.7113C184.603 22.7588 187.758 22.7969 190.052 22.8159C191.129 22.8349 192.009 22.8539 192.674 22.8729C193.282 22.8919 193.619 22.9014 193.638 22.9204C193.657 22.9394 193.348 22.9489 192.758 22.9679C192.103 22.9869 191.241 22.9964 190.183 23.0249C187.852 23.0534 184.65 23.0914 180.839 23.1295H180.633V22.9109C180.633 21.0198 180.615 18.9576 180.605 16.7815C180.605 15.6886 180.605 14.5673 180.605 13.4269C180.605 12.8567 180.605 12.277 180.605 11.6879V10.8041V10.3574V9.9393V9.9203C180.39 10.1389 180.905 9.6162 180.849 9.66372C185.53 9.67322 189.912 9.68272 193.647 9.70173H193.863V9.9203C193.816 13.7975 193.778 17.0475 193.76 19.4043C193.741 20.4781 193.722 21.3524 193.704 22.0176C193.685 22.6163 193.675 22.9204 193.657 22.9109L193.629 22.9204Z" fill="url(#paint65_linear_972_34529)"/>
<path d="M220.061 15.4419C220.061 15.5749 215.463 15.689 209.799 15.689C204.135 15.689 199.538 15.5749 199.538 15.4419C199.538 15.3089 204.135 15.1948 209.799 15.1948C215.463 15.1948 220.061 15.3089 220.061 15.4419Z" fill="url(#paint66_linear_972_34529)"/>
<path d="M210.022 18.4453C210.022 18.5784 207.728 18.6924 204.891 18.6924C202.055 18.6924 199.761 18.5784 199.761 18.4453C199.761 18.3123 202.055 18.1982 204.891 18.1982C207.728 18.1982 210.022 18.3123 210.022 18.4453Z" fill="url(#paint67_linear_972_34529)"/>
<path d="M193 16.9451C193 16.9451 192.754 16.8179 192.376 16.5453C191.817 16.1273 191.275 15.7274 190.749 15.3276H190.913C189.68 16.6361 188.497 17.8901 187.214 19.2714L187.132 19.3622L187.034 19.4713L186.919 19.3804C186.146 18.7625 185.406 18.1809 184.667 17.5812H184.864C183.96 18.399 183.056 19.235 182.119 20.0892C181.445 20.6889 181.034 21.0342 181.001 20.9979C180.985 20.9615 181.346 20.5799 181.987 19.9256C182.891 19.0351 183.763 18.1809 184.65 17.3086L184.749 17.2177L184.847 17.2904C185.587 17.872 186.327 18.4535 187.099 19.0533H186.886L186.968 18.9806C188.266 17.6357 189.483 16.3817 190.716 15.0914L190.798 15.0005L190.88 15.0732C191.39 15.5094 191.916 15.9455 192.442 16.3999C192.803 16.727 193 16.9088 192.984 16.9269L193 16.9451Z" fill="url(#paint68_linear_972_34529)"/>
<path d="M188.959 14.0416C188.959 14.0416 188.959 13.3012 188.142 12.7047C187.765 12.4373 187.137 12.2933 186.55 12.499C185.964 12.7047 185.461 13.3217 185.482 14.0211C185.482 14.7409 185.964 15.3374 186.55 15.5431C187.137 15.7693 187.765 15.6254 188.142 15.3374C188.959 14.7409 188.896 13.9799 188.959 14.0005C188.98 13.9593 189.21 14.7821 188.31 15.5637C187.87 15.9339 187.137 16.1396 186.383 15.8927C185.65 15.6665 185 14.9055 185 14.0005C185 13.0955 185.65 12.3345 186.383 12.1082C187.116 11.8614 187.87 12.0671 188.31 12.4373C189.21 13.2189 188.98 14.0622 188.959 14.0005V14.0416Z" fill="url(#paint69_linear_972_34529)"/>
<path d="M272.273 27.5488H240.384V74.0755H272.273V27.5488Z" fill="#F9F6FF"/>
<path d="M259.989 41.8113C259.989 41.8957 258.753 41.9614 257.236 41.9614C255.719 41.9614 254.483 41.8957 254.483 41.8113C254.483 41.7268 255.719 41.6611 257.236 41.6611C258.753 41.6611 259.989 41.7268 259.989 41.8113Z" fill="url(#paint70_linear_972_34529)"/>
<path d="M251.253 42.9792C251.253 43.0637 249.521 43.1294 247.386 43.1294C245.252 43.1294 243.52 43.0637 243.52 42.9792C243.52 42.8948 245.252 42.8291 247.386 42.8291C249.521 42.8291 251.253 42.8948 251.253 42.9792Z" fill="url(#paint71_linear_972_34529)"/>
<path d="M251.253 45.0408C251.253 45.1252 249.521 45.1909 247.386 45.1909C245.252 45.1909 243.52 45.1252 243.52 45.0408C243.52 44.9563 245.252 44.8906 247.386 44.8906C249.521 44.8906 251.253 44.9563 251.253 45.0408Z" fill="url(#paint72_linear_972_34529)"/>
<path d="M251.253 47.093C251.253 47.1775 249.521 47.2432 247.386 47.2432C245.252 47.2432 243.52 47.1775 243.52 47.093C243.52 47.0086 245.252 46.9429 247.386 46.9429C249.521 46.9429 251.253 47.0086 251.253 47.093Z" fill="url(#paint73_linear_972_34529)"/>
<path d="M247.818 49.1462C247.818 49.2307 246.853 49.2964 245.664 49.2964C244.475 49.2964 243.511 49.2307 243.511 49.1462C243.511 49.0618 244.475 48.9961 245.664 48.9961C246.853 48.9961 247.818 49.0618 247.818 49.1462Z" fill="url(#paint74_linear_972_34529)"/>
<path d="M266.908 45.1467C266.908 45.2312 264.127 45.2969 260.691 45.2969C257.255 45.2969 254.474 45.2312 254.474 45.1467C254.474 45.0623 257.255 44.9966 260.691 44.9966C264.127 44.9966 266.908 45.0623 266.908 45.1467Z" fill="url(#paint75_linear_972_34529)"/>
<path d="M267.085 47.1506C267.085 47.2351 264.304 47.3008 260.868 47.3008C257.432 47.3008 254.651 47.2351 254.651 47.1506C254.651 47.0662 257.432 47.0005 260.868 47.0005C264.304 47.0005 267.085 47.0662 267.085 47.1506Z" fill="url(#paint76_linear_972_34529)"/>
<path d="M259.989 51.7317C259.989 51.8161 258.753 51.8818 257.236 51.8818C255.719 51.8818 254.483 51.8161 254.483 51.7317C254.483 51.6472 255.719 51.5815 257.236 51.5815C258.753 51.5815 259.989 51.6472 259.989 51.7317Z" fill="url(#paint77_linear_972_34529)"/>
<path d="M266.908 55.0671C266.908 55.1516 264.127 55.2173 260.691 55.2173C257.255 55.2173 254.474 55.1516 254.474 55.0671C254.474 54.9827 257.255 54.917 260.691 54.917C264.127 54.917 266.908 54.9827 266.908 55.0671Z" fill="url(#paint78_linear_972_34529)"/>
<path d="M267.085 57.072C267.085 57.1565 264.304 57.2222 260.868 57.2222C257.432 57.2222 254.651 57.1565 254.651 57.072C254.651 56.9876 257.432 56.9219 260.868 56.9219C264.304 56.9219 267.085 56.9876 267.085 57.072Z" fill="url(#paint79_linear_972_34529)"/>
<path d="M259.989 62.0437C259.989 62.1282 258.753 62.1938 257.236 62.1938C255.719 62.1938 254.483 62.1282 254.483 62.0437C254.483 61.9592 255.719 61.8936 257.236 61.8936C258.753 61.8936 259.989 61.9592 259.989 62.0437Z" fill="url(#paint80_linear_972_34529)"/>
<path d="M266.908 65.3782C266.908 65.4626 264.127 65.5283 260.691 65.5283C257.255 65.5283 254.474 65.4626 254.474 65.3782C254.474 65.2937 257.255 65.228 260.691 65.228C264.127 65.228 266.908 65.2937 266.908 65.3782Z" fill="url(#paint81_linear_972_34529)"/>
<path d="M267.086 67.3821C267.086 67.4665 264.306 67.5322 260.87 67.5322C257.434 67.5322 254.653 67.4665 254.653 67.3821C254.653 67.2976 257.434 67.2319 260.87 67.2319C264.306 67.2319 267.086 67.2976 267.086 67.3821Z" fill="url(#paint82_linear_972_34529)"/>
<path d="M268.621 36.594C268.621 36.6785 265.681 36.7441 262.049 36.7441C258.416 36.7441 255.476 36.6785 255.476 36.594C255.476 36.5095 258.416 36.4438 262.049 36.4438C265.681 36.4438 268.621 36.5095 268.621 36.594Z" fill="url(#paint83_linear_972_34529)"/>
<path d="M262.19 38.5125C262.19 38.5969 260.72 38.6626 258.903 38.6626C257.087 38.6626 255.617 38.5969 255.617 38.5125C255.617 38.428 257.087 38.3623 258.903 38.3623C260.72 38.3623 262.19 38.428 262.19 38.5125Z" fill="url(#paint84_linear_972_34529)"/>
<path d="M251.919 39.4553C251.919 39.4553 251.9 39.2273 251.89 38.8281C251.89 38.353 251.872 37.7923 251.853 37.1271C251.834 35.5781 251.816 33.5445 251.787 31.1307L251.919 31.2638C249.512 31.2638 246.713 31.2733 243.717 31.2828C243.679 31.3113 243.988 30.9977 243.867 31.1402V31.2067V31.2828V32.2711C243.867 32.6417 243.867 33.0123 243.867 33.3829C243.867 34.1147 243.867 34.8369 243.867 35.5306C243.867 36.918 243.857 38.239 243.848 39.4553L243.717 39.3223C246.086 39.3508 248.099 39.3698 249.625 39.3888C250.289 39.3983 250.842 39.4173 251.301 39.4268C251.694 39.4363 251.909 39.4458 251.919 39.4553C251.928 39.4648 251.731 39.4743 251.357 39.4838C250.898 39.4838 250.355 39.5029 249.709 39.5219C248.164 39.5409 246.123 39.5599 243.726 39.5884H243.604V39.4553C243.604 38.239 243.595 36.918 243.586 35.5306C243.586 34.8274 243.586 34.1147 243.586 33.3829C243.586 33.0123 243.586 32.6417 243.586 32.2711V31.7104V31.4253V31.1592V31.1402C243.455 31.2733 243.764 30.9597 243.736 30.9882C246.722 30.9882 249.522 30.9977 251.937 31.0072H252.068V31.1402C252.04 33.5825 252.022 35.6446 252.003 37.2126C251.993 37.8683 251.975 38.429 251.965 38.8852C251.956 39.2653 251.947 39.4648 251.937 39.4553H251.919Z" fill="url(#paint85_linear_972_34529)"/>
<path d="M156.543 27.5479H124.654V74.0745H156.543V27.5479Z" fill="#F9F6FF"/>
<path d="M144.259 41.8103C144.259 41.8948 143.023 41.9605 141.507 41.9605C139.99 41.9605 138.754 41.8948 138.754 41.8103C138.754 41.7258 139.99 41.6602 141.507 41.6602C143.023 41.6602 144.259 41.7258 144.259 41.8103Z" fill="url(#paint86_linear_972_34529)"/>
<path d="M135.524 42.9788C135.524 43.0632 133.791 43.1289 131.657 43.1289C129.522 43.1289 127.79 43.0632 127.79 42.9788C127.79 42.8943 129.522 42.8286 131.657 42.8286C133.791 42.8286 135.524 42.8943 135.524 42.9788Z" fill="url(#paint87_linear_972_34529)"/>
<path d="M135.524 45.0403C135.524 45.1247 133.792 45.1904 131.657 45.1904C129.523 45.1904 127.791 45.1247 127.791 45.0403C127.791 44.9558 129.523 44.8901 131.657 44.8901C133.792 44.8901 135.524 44.9558 135.524 45.0403Z" fill="url(#paint88_linear_972_34529)"/>
<path d="M135.524 47.093C135.524 47.1775 133.791 47.2432 131.657 47.2432C129.522 47.2432 127.79 47.1775 127.79 47.093C127.79 47.0086 129.522 46.9429 131.657 46.9429C133.791 46.9429 135.524 47.0086 135.524 47.093Z" fill="url(#paint89_linear_972_34529)"/>
<path d="M132.088 49.1462C132.088 49.2307 131.124 49.2964 129.935 49.2964C128.746 49.2964 127.781 49.2307 127.781 49.1462C127.781 49.0618 128.746 48.9961 129.935 48.9961C131.124 48.9961 132.088 49.0618 132.088 49.1462Z" fill="url(#paint90_linear_972_34529)"/>
<path d="M151.178 45.1458C151.178 45.2302 148.398 45.2959 144.961 45.2959C141.525 45.2959 138.745 45.2302 138.745 45.1458C138.745 45.0613 141.525 44.9956 144.961 44.9956C148.398 44.9956 151.178 45.0613 151.178 45.1458Z" fill="url(#paint91_linear_972_34529)"/>
<path d="M151.348 47.1497C151.348 47.2341 148.567 47.2998 145.131 47.2998C141.695 47.2998 138.914 47.2341 138.914 47.1497C138.914 47.0652 141.695 46.9995 145.131 46.9995C148.567 46.9995 151.348 47.0652 151.348 47.1497Z" fill="url(#paint92_linear_972_34529)"/>
<path d="M144.259 51.7317C144.259 51.8161 143.023 51.8818 141.507 51.8818C139.99 51.8818 138.754 51.8161 138.754 51.7317C138.754 51.6472 139.99 51.5815 141.507 51.5815C143.023 51.5815 144.259 51.6472 144.259 51.7317Z" fill="url(#paint93_linear_972_34529)"/>
<path d="M151.178 55.0662C151.178 55.1506 148.398 55.2163 144.961 55.2163C141.525 55.2163 138.745 55.1506 138.745 55.0662C138.745 54.9817 141.525 54.916 144.961 54.916C148.398 54.916 151.178 54.9817 151.178 55.0662Z" fill="url(#paint94_linear_972_34529)"/>
<path d="M151.348 57.071C151.348 57.1555 148.567 57.2212 145.131 57.2212C141.695 57.2212 138.914 57.1555 138.914 57.071C138.914 56.9866 141.695 56.9209 145.131 56.9209C148.567 56.9209 151.348 56.9866 151.348 57.071Z" fill="url(#paint95_linear_972_34529)"/>
<path d="M144.259 62.0418C144.259 62.1262 143.023 62.1919 141.507 62.1919C139.99 62.1919 138.754 62.1262 138.754 62.0418C138.754 61.9573 139.99 61.8916 141.507 61.8916C143.023 61.8916 144.259 61.9573 144.259 62.0418Z" fill="url(#paint96_linear_972_34529)"/>
<path d="M151.178 65.3772C151.178 65.4617 148.398 65.5273 144.961 65.5273C141.525 65.5273 138.745 65.4617 138.745 65.3772C138.745 65.2927 141.525 65.2271 144.961 65.2271C148.398 65.2271 151.178 65.2927 151.178 65.3772Z" fill="url(#paint97_linear_972_34529)"/>
<path d="M151.349 67.3811C151.349 67.4656 148.568 67.5313 145.132 67.5313C141.696 67.5313 138.915 67.4656 138.915 67.3811C138.915 67.2967 141.696 67.231 145.132 67.231C148.568 67.231 151.349 67.2967 151.349 67.3811Z" fill="url(#paint98_linear_972_34529)"/>
<path d="M152.893 36.592C152.893 36.6765 149.953 36.7422 146.32 36.7422C142.687 36.7422 139.748 36.6765 139.748 36.592C139.748 36.5076 142.687 36.4419 146.32 36.4419C149.953 36.4419 152.893 36.5076 152.893 36.592Z" fill="url(#paint99_linear_972_34529)"/>
<path d="M146.46 38.5115C146.46 38.5959 144.99 38.6616 143.174 38.6616C141.358 38.6616 139.888 38.5959 139.888 38.5115C139.888 38.427 141.358 38.3613 143.174 38.3613C144.99 38.3613 146.46 38.427 146.46 38.5115Z" fill="url(#paint100_linear_972_34529)"/>
<path d="M136.058 39.406C136.058 39.406 136.039 39.178 136.03 38.7788C136.03 38.3037 136.011 37.743 135.993 37.0778C135.974 35.5288 135.955 33.4857 135.927 31.0814L136.049 31.2144C133.643 31.2144 130.843 31.2239 127.847 31.2334C127.81 31.262 128.128 30.9484 127.997 31.0909V31.6611V32.2218C127.997 32.5924 127.997 32.963 127.997 33.3336C127.997 34.0653 127.997 34.7876 127.997 35.4813C127.997 36.8687 127.988 38.1896 127.978 39.406L127.857 39.273C130.225 39.3015 132.238 39.3205 133.764 39.3395C134.429 39.349 134.981 39.368 135.44 39.3775C135.833 39.387 136.049 39.3965 136.058 39.406C136.068 39.4155 135.871 39.425 135.496 39.4345C135.038 39.4345 134.495 39.4535 133.849 39.4725C132.304 39.4915 130.263 39.5106 127.866 39.5391H127.744V39.406C127.744 38.1896 127.735 36.8687 127.725 35.4813C127.725 34.7781 127.725 34.0653 127.725 33.3336C127.725 32.963 127.725 32.5924 127.725 32.2218V31.6611V31.376V31.1099V31.0909C127.594 31.2239 127.903 30.9103 127.875 30.9389C130.862 30.9389 133.661 30.9484 136.077 30.9579H136.208V31.0909C136.18 33.5332 136.161 35.5953 136.142 37.1633C136.133 37.819 136.114 38.3797 136.105 38.8358C136.096 39.216 136.086 39.4155 136.077 39.406H136.058Z" fill="url(#paint101_linear_972_34529)"/>
<path d="M169.247 102.29L171.176 134.049C171.241 135.18 172.168 136.064 173.282 136.064H229.617C230.788 136.064 231.733 135.104 231.733 133.916V109.18C231.733 107.992 230.778 107.023 229.608 107.032L194.966 107.261C194.404 107.261 193.871 107.042 193.468 106.643L187.448 100.627C187.055 100.228 186.521 100.01 185.969 100.01H171.363C170.146 100.01 169.182 101.055 169.256 102.29H169.247Z" fill="url(#paint102_linear_972_34529)"/>
<path d="M169.247 102.29L171.176 134.049C171.241 135.18 172.168 136.064 173.282 136.064H229.617C230.788 136.064 231.733 135.104 231.733 133.916V109.18C231.733 107.992 230.778 107.023 229.608 107.032L194.966 107.261C194.404 107.261 193.871 107.042 193.468 106.643L187.448 100.627C187.055 100.228 186.521 100.01 185.969 100.01H171.363C170.146 100.01 169.182 101.055 169.256 102.29H169.247Z" fill="url(#paint103_linear_972_34529)"/>
<path d="M165.681 115.567L170.381 154.5C170.465 155.194 171.046 155.717 171.729 155.717H231.715C232.427 155.717 233.017 155.166 233.073 154.443L236.097 115.51C236.163 114.711 235.535 114.018 234.74 114.018H167.038C166.224 114.018 165.587 114.74 165.69 115.567H165.681Z" fill="url(#paint104_linear_972_34529)"/>
<path d="M91.6138 119.718L93.6361 146.744C93.711 147.704 94.5068 148.445 95.4524 148.436L143.427 147.752C144.419 147.733 145.215 146.906 145.206 145.899L144.915 124.84C144.897 123.823 144.073 123.015 143.08 123.034L113.579 123.652C113.101 123.662 112.642 123.481 112.296 123.148L107.1 118.093C106.763 117.76 106.304 117.58 105.826 117.589L93.3927 117.77C92.3534 117.789 91.5482 118.682 91.6231 119.737L91.6138 119.718Z" fill="url(#paint105_linear_972_34529)"/>
<path d="M144.843 119.801L92.4272 120.553L92.8701 152.347L145.286 151.595L144.843 119.801Z" fill="#F9F6FF"/>
<path d="M88.2993 123.462L92.7652 156.561C92.8401 157.15 93.3457 157.587 93.9262 157.578L145.009 156.846C145.617 156.846 146.104 156.362 146.151 155.744L148.258 122.55C148.304 121.866 147.761 121.286 147.087 121.296L89.4321 122.122C88.7393 122.132 88.2056 122.759 88.2993 123.453V123.462Z" fill="url(#paint106_linear_972_34529)"/>
<path d="M261.752 117.418L263.728 143.818C263.803 144.759 264.58 145.481 265.507 145.471L312.367 144.797C313.34 144.787 314.117 143.97 314.099 142.991L313.808 122.417C313.799 121.429 312.994 120.64 312.011 120.659L283.193 121.258C282.724 121.267 282.275 121.087 281.938 120.763L276.863 115.831C276.526 115.508 276.086 115.328 275.618 115.337L263.465 115.508C262.454 115.527 261.659 116.402 261.733 117.428L261.752 117.418Z" fill="url(#paint107_linear_972_34529)"/>
<path opacity="0.4" d="M261.752 117.418L263.728 143.818C263.803 144.759 264.58 145.481 265.507 145.471L312.367 144.797C313.34 144.787 314.117 143.97 314.099 142.991L313.808 122.417C313.799 121.429 312.994 120.64 312.011 120.659L283.193 121.258C282.724 121.267 282.275 121.087 281.938 120.763L276.863 115.831C276.526 115.508 276.086 115.328 275.618 115.337L263.465 115.508C262.454 115.527 261.659 116.402 261.733 117.428L261.752 117.418Z" fill="url(#paint108_linear_972_34529)"/>
<path d="M313.751 117.5L262.542 118.235L262.975 149.288L314.183 148.553L313.751 117.5Z" fill="#F9F6FF"/>
<path d="M258.512 121.077L262.874 153.406C262.949 153.976 263.436 154.404 264.007 154.394L313.91 153.682C314.5 153.682 314.987 153.206 315.024 152.608L317.084 120.184C317.131 119.518 316.597 118.948 315.942 118.958L259.616 119.765C258.933 119.775 258.418 120.383 258.512 121.067V121.077Z" fill="url(#paint109_linear_972_34529)"/>
<path d="M185.818 161.569L180.799 164.001L176.184 156.646L178.88 150.963C179.133 150.441 179.414 149.842 179.695 149.167C180.032 148.379 180.228 147.533 180.294 146.668C180.369 145.623 180.416 144.235 180.21 143.475C179.957 142.525 180.949 141.755 181.623 142.306C182.297 142.857 183.046 145.452 182.541 148.578C182.045 151.705 185.631 148.388 186.96 147.2C188.289 146.012 192.559 142.544 193.233 142.686C194.216 142.886 194.188 144.017 192.84 145.176C191.473 146.345 187.662 150.08 188.289 150.773C188.289 150.773 188.299 150.773 188.318 150.773C189.919 150.944 191.239 152.151 191.595 153.748C191.932 155.287 192.212 157.416 191.36 158.119C189.75 159.44 185.808 161.578 185.808 161.578L185.818 161.569Z" fill="#FFBE9D"/>
<path d="M87.4337 96.0365L87.312 135.265L103.893 136.063L104.371 126.522C104.371 126.522 110.26 127.71 111.777 122.16C112.75 118.616 112.507 91.209 112.507 91.209L87.4244 96.0365H87.4337Z" fill="#FFBE9D"/>
<path d="M116.261 95.0755C115.147 97.4228 109.829 101.709 109.829 101.709L107.423 108.247C105.335 106.593 102.535 106.688 102.002 110.404C101.618 113.093 104.913 113.635 104.913 113.635C102.994 116.951 101.693 119.631 98.9026 122.777C95.8784 126.188 94.1838 126.53 90.9069 126.587H87.2929C87.2929 126.587 79.8964 120.315 81.357 103.79C82.8176 87.2641 97.4514 92.0916 100.944 87.9578C106.636 81.2392 119.978 87.2451 116.252 95.066L116.261 95.0755Z" fill="url(#paint110_linear_972_34529)"/>
<path d="M82.1822 117.608C82.1822 117.608 82.3414 117.608 82.641 117.608C82.9406 117.589 83.39 117.579 83.9518 117.456C85.0659 117.228 86.6576 116.563 88.193 115.166C89.7472 113.788 91.1142 111.697 92.4905 109.321C93.8949 106.984 95.4304 104.228 98.0706 102.375C99.3907 101.462 100.87 100.93 102.303 100.541C103.744 100.16 105.158 99.9228 106.497 99.6662C109.165 99.1721 111.553 98.4118 113.191 97.1289C114.83 95.865 115.644 94.2875 115.906 93.1662C116.178 92.0258 116.019 91.3701 116.056 91.3701C116.056 91.3701 116.084 91.5317 116.103 91.8358C116.103 92.1399 116.103 92.6055 115.972 93.1852C115.729 94.3255 114.923 95.9411 113.276 97.243C111.628 98.5639 109.203 99.3336 106.534 99.8468C103.885 100.398 100.805 100.759 98.183 102.536C95.5895 104.351 94.054 107.079 92.6403 109.416C91.2546 111.792 89.8596 113.892 88.2773 115.27C86.7137 116.667 85.094 117.323 83.9611 117.522C82.8189 117.741 82.1729 117.608 82.1729 117.608H82.1822Z" fill="#F9F6FF"/>
<path d="M96.9459 288.368L103.687 393.025L119.332 391.267C119.332 391.267 119.716 289.242 118.976 289.299C118.237 289.356 96.9365 288.368 96.9365 288.368H96.9459Z" fill="#FFBE9D"/>
<path d="M64.1384 287.74L46.5366 391.493L60.4495 393.641L84.8111 292.672L64.1384 287.74Z" fill="#FFBE9D"/>
<path d="M69.3216 222.54L45.3252 362.414L73.1416 368.534L94.2637 251.942L99.0012 365.379H124.842L120.198 218.254L69.3216 222.54Z" fill="#7E75A3"/>
<path d="M73.5176 369.105L44.7837 362.785L44.8586 362.339L68.9206 222.094L69.2764 222.065L120.64 217.741L120.659 218.245L125.321 365.864H98.5533L98.5346 365.408L93.9844 256.19L73.527 369.105H73.5176ZM45.8604 362.054L72.7686 367.974L94.5555 247.714L99.4428 364.914H124.347L119.732 218.777L69.707 222.987L45.851 362.054H45.8604Z" fill="#7E75A3"/>
<path d="M101.616 251.799C101.616 251.799 101.279 251.884 100.67 251.932C99.9492 251.989 99.0878 252.046 98.086 252.122C95.9045 252.274 92.8898 252.426 89.5848 252.759C86.2704 253.091 83.2837 253.538 81.1209 253.823C80.1191 253.947 79.2671 254.061 78.5556 254.146C77.947 254.213 77.6099 254.232 77.6006 254.203C77.6006 254.165 77.9283 254.089 78.5275 253.956C79.1267 253.833 79.9974 253.671 81.0741 253.481C83.2275 253.11 86.2142 252.607 89.5473 252.265C92.8804 251.932 95.8952 251.837 98.086 251.77C99.1815 251.742 100.062 251.732 100.679 251.732C101.288 251.732 101.634 251.751 101.634 251.789L101.616 251.799Z" fill="#F9F6FF"/>
<path d="M120.733 241.024C120.733 241.024 120.509 241.128 120.087 241.195C119.666 241.271 119.048 241.318 118.28 241.28C116.764 241.223 114.601 240.701 112.672 239.304C110.743 237.897 109.573 235.987 109.03 234.543C108.749 233.82 108.609 233.203 108.543 232.775C108.478 232.347 108.468 232.11 108.506 232.1C108.59 232.081 108.74 233.032 109.358 234.4C109.957 235.769 111.127 237.555 112.962 238.895C114.797 240.235 116.839 240.786 118.308 240.929C119.788 241.081 120.724 240.929 120.733 241.014V241.024Z" fill="#F9F6FF"/>
<path d="M125.212 359.517C125.212 359.65 119.37 359.46 112.179 359.09C104.989 358.719 99.1557 358.31 99.1651 358.168C99.1651 358.035 105.007 358.225 112.198 358.596C119.388 358.966 125.212 359.375 125.212 359.517Z" fill="#F9F6FF"/>
<path d="M74.8776 360.22C74.8776 360.22 74.475 360.153 73.7728 359.944C72.977 359.707 71.9845 359.402 70.8142 359.041C68.3144 358.281 64.8595 357.274 61.0021 356.285C57.1447 355.297 53.6244 354.527 51.0684 353.995C49.87 353.748 48.8588 353.539 48.0442 353.368C47.3327 353.216 46.9395 353.111 46.9395 353.083C46.9395 353.045 47.3514 353.083 48.0723 353.178C48.7933 353.273 49.8419 353.435 51.1339 353.653C53.7086 354.1 57.2477 354.822 61.1145 355.81C64.9813 356.799 68.4361 357.872 70.9078 358.718C72.1437 359.146 73.1455 359.497 73.8196 359.773C74.5031 360.039 74.8776 360.201 74.8588 360.229L74.8776 360.22Z" fill="#F9F6FF"/>
<path d="M66.8564 231.919H121.3L119.194 187.255C118.847 178.484 118.903 177.429 118.688 169.332C118.688 169.332 126.815 179.31 133.209 186.305C137.076 190.533 143.19 191.712 148.33 189.251L181.783 165.569L175.519 149.309L145.119 168.192C143.724 167.318 131.889 150.184 123.716 141.812C118.482 136.461 111.423 133.373 103.998 133.154C98.3804 132.993 91.5925 133.249 85.5349 133.905C76.3221 134.903 69.1128 142.41 68.3451 151.78C67.7553 158.955 68.2327 167.28 68.2327 181.42L66.8845 231.929L66.8564 231.919Z" fill="#F9F6FF"/>
<path d="M75.6197 137.99C70.4796 140.299 49.0391 168.181 47.5317 186.293C46.3989 199.788 72.2772 198.324 72.2772 198.324C72.2772 198.324 74.0374 142.941 73.2696 143.72" fill="#F9F6FF"/>
<path d="M70.367 142.715C70.367 142.715 70.367 142.914 70.3389 143.294C70.3014 143.722 70.264 144.273 70.2078 144.948C70.0955 146.383 69.955 148.473 69.8146 151.049C69.5243 156.199 69.2809 163.327 69.0375 171.205C68.7941 179.083 68.5787 186.21 68.3166 191.37C68.1948 193.945 68.0638 196.036 67.9514 197.471C67.8952 198.146 67.8484 198.697 67.8203 199.124C67.7829 199.504 67.7642 199.704 67.7642 199.704C67.7642 199.704 67.7642 199.504 67.7829 199.124C67.811 198.697 67.8391 198.146 67.8859 197.461C67.9608 195.95 68.0638 193.888 68.1855 191.36C68.4102 186.2 68.6068 179.073 68.8502 171.195C69.0937 163.327 69.3558 156.19 69.6835 151.039C69.8333 148.464 70.0018 146.383 70.1423 144.938C70.2078 144.264 70.264 143.712 70.3108 143.285C70.3482 142.905 70.3857 142.705 70.3857 142.705L70.367 142.715Z" fill="#7E75A3"/>
<path d="M68.2498 178.246C68.2498 178.246 67.997 178.664 67.5195 179.281C67.0421 179.899 66.3586 180.745 65.5627 181.638C64.7669 182.531 64.0086 183.311 63.4562 183.852C62.8944 184.394 62.5293 184.717 62.5105 184.698C62.4918 184.679 62.8195 184.328 63.3532 183.757C63.8868 183.187 64.6265 182.398 65.413 181.515C66.2088 180.621 66.9016 179.804 67.4072 179.205C67.9128 178.607 68.2217 178.236 68.2498 178.255V178.246Z" fill="#7E75A3"/>
<path d="M143.864 173.666C143.864 173.666 143.883 173.353 143.977 172.868C144.07 172.374 144.211 171.699 144.389 170.958C144.557 170.217 144.726 169.542 144.857 169.067C144.988 168.582 145.081 168.288 145.1 168.297C145.128 168.297 145.081 168.611 144.988 169.105C144.894 169.599 144.754 170.264 144.576 171.005C144.407 171.747 144.239 172.412 144.108 172.897C143.977 173.381 143.883 173.676 143.855 173.666H143.864Z" fill="#7E75A3"/>
<path d="M146.907 174.141C146.851 174.15 146.504 172.782 146.12 171.09C145.736 169.389 145.474 168.002 145.521 167.992C145.577 167.983 145.924 169.351 146.308 171.043C146.691 172.744 146.954 174.131 146.907 174.141Z" fill="#7E75A3"/>
<path d="M120.1 170.766C120.1 170.766 119.988 170.671 119.782 170.481C119.539 170.243 119.248 169.958 118.911 169.625C118.153 168.875 117.067 167.782 115.765 166.385C114.473 164.988 112.966 163.277 111.496 161.215C110.026 159.162 108.603 156.73 107.611 153.964C106.609 151.208 106.178 148.377 106.328 145.83C106.44 143.292 106.918 141.002 107.77 139.263C108.603 137.515 109.745 136.393 110.588 135.757C111.019 135.443 111.356 135.205 111.608 135.072C111.852 134.93 111.983 134.863 111.983 134.863C112.002 134.892 111.468 135.148 110.635 135.814C109.811 136.469 108.706 137.591 107.891 139.32C107.067 141.04 106.609 143.311 106.506 145.83C106.365 148.358 106.796 151.151 107.788 153.888C109.792 159.4 113.34 163.477 115.868 166.28C117.151 167.687 118.228 168.789 118.967 169.559C119.304 169.91 119.585 170.205 119.819 170.442C120.016 170.642 120.11 170.756 120.11 170.756L120.1 170.766Z" fill="#7E75A3"/>
<path d="M46.8102 388.423L44.4414 398.135L60.723 399.998L61.3035 390.371L46.8102 388.423Z" fill="url(#paint111_linear_972_34529)"/>
<path d="M54.1511 388.908C54.2822 388.927 54.0481 390.922 53.6174 393.364C53.1867 395.807 52.728 397.774 52.5969 397.745C52.4658 397.726 52.6999 395.731 53.1305 393.288C53.5612 390.846 54.02 388.879 54.1511 388.908Z" fill="url(#paint112_linear_972_34529)"/>
<path d="M60.7893 398.934C60.7706 399 59.8811 398.877 58.4299 398.658C56.8102 398.411 54.9002 398.126 52.7842 397.813C50.5747 397.47 48.5898 397.128 47.1479 396.834C45.7154 396.539 44.8447 396.302 44.8541 396.245C44.8728 396.178 45.7623 396.302 47.2135 396.52C48.8332 396.767 50.7432 397.052 52.8591 397.366C55.0687 397.708 57.0536 398.05 58.4861 398.345C59.9186 398.639 60.7893 398.877 60.7799 398.934H60.7893Z" fill="url(#paint113_linear_972_34529)"/>
<path d="M121.224 392.729L121.168 390.819L103.426 391.266L103.538 397.576L104.634 397.623C109.511 397.785 129.454 398.108 132.693 397.025C136.298 395.827 121.215 392.739 121.215 392.739L121.224 392.729Z" fill="url(#paint114_linear_972_34529)"/>
<g opacity="0.4">
<path d="M109.942 397.271C109.661 395.779 108.809 394.411 107.601 393.498C106.402 392.595 104.933 392.13 103.444 392.291L103.547 397.299L109.932 397.271H109.942Z" fill="#F9F6FF"/>
</g>
<g opacity="0.4">
<path d="M128.603 394.496C128.603 394.496 133.893 395.912 133.256 396.805C132.619 397.698 112.452 398.145 103.539 397.556L103.558 397.157L127.086 396.834C127.086 396.834 127.573 394.553 128.593 394.486L128.603 394.496Z" fill="#F9F6FF"/>
</g>
<path d="M103.286 397.155C103.286 397.155 103.389 397.174 103.586 397.184C103.848 397.193 104.138 397.203 104.457 397.222C105.327 397.241 106.404 397.26 107.668 397.289C110.383 397.327 114.128 397.327 118.276 397.241C122.414 397.155 126.169 396.984 128.874 396.832C130.138 396.747 131.206 396.68 132.086 396.623C132.413 396.595 132.694 396.576 132.956 396.547C133.153 396.528 133.256 396.519 133.256 396.509C133.256 396.509 133.153 396.509 132.947 396.509C132.685 396.509 132.395 396.528 132.076 396.538C131.206 396.576 130.129 396.623 128.865 396.671C126.159 396.785 122.405 396.927 118.266 397.013C114.128 397.098 110.383 397.127 107.668 397.127C106.404 397.127 105.327 397.127 104.457 397.127C104.129 397.127 103.848 397.127 103.586 397.127C103.389 397.127 103.277 397.136 103.277 397.146L103.286 397.155Z" fill="url(#paint115_linear_972_34529)"/>
<path d="M127.096 397.12C127.161 397.12 127.199 396.35 127.657 395.552C128.107 394.744 128.762 394.335 128.725 394.278C128.715 394.221 127.957 394.582 127.47 395.438C126.974 396.293 127.04 397.129 127.086 397.12H127.096Z" fill="url(#paint116_linear_972_34529)"/>
<path d="M121.824 394.554C121.871 394.583 122.114 394.269 122.367 393.851C122.62 393.433 122.779 393.072 122.723 393.034C122.666 392.996 122.432 393.319 122.18 393.737C121.927 394.155 121.768 394.516 121.824 394.545V394.554Z" fill="url(#paint117_linear_972_34529)"/>
<path d="M120.374 393.813C120.374 393.813 120.692 393.661 120.991 393.376C121.291 393.09 121.497 392.824 121.46 392.786C121.422 392.739 121.141 392.938 120.842 393.223C120.542 393.509 120.336 393.775 120.374 393.822V393.813Z" fill="url(#paint118_linear_972_34529)"/>
<path d="M119.436 392.148C119.436 392.204 119.848 392.251 120.363 392.242C120.868 392.242 121.289 392.186 121.28 392.129C121.28 392.073 120.868 392.026 120.353 392.035C119.848 392.035 119.426 392.092 119.436 392.148Z" fill="url(#paint119_linear_972_34529)"/>
<path d="M119.101 390.96C119.082 391.016 119.531 391.204 120.14 391.241C120.739 391.279 121.207 391.128 121.198 391.072C121.189 391.006 120.72 391.053 120.149 391.025C119.578 390.997 119.119 390.903 119.101 390.96Z" fill="url(#paint120_linear_972_34529)"/>
<path d="M122.387 392.976C122.387 392.976 122.827 393.043 123.52 392.947C123.866 392.9 124.278 392.805 124.718 392.653C124.933 392.567 125.167 392.501 125.401 392.349C125.514 392.273 125.636 392.159 125.673 391.988C125.72 391.817 125.617 391.627 125.495 391.532C124.4 390.99 123.323 391.627 122.939 392.206C122.724 392.501 122.63 392.786 122.583 392.986C122.546 393.185 122.546 393.299 122.565 393.299C122.602 393.309 122.63 392.843 123.061 392.301C123.276 392.035 123.595 391.779 124.016 391.636C124.418 391.503 124.98 391.465 125.373 391.703C125.561 391.836 125.495 392.054 125.289 392.178C125.102 392.301 124.868 392.387 124.662 392.472C124.231 392.634 123.838 392.738 123.501 392.805C122.827 392.938 122.387 392.957 122.396 392.986L122.387 392.976Z" fill="url(#paint121_linear_972_34529)"/>
<path d="M122.686 393.023C122.686 393.023 122.864 392.738 122.798 392.225C122.761 391.968 122.667 391.674 122.47 391.389C122.264 391.142 122.002 390.79 121.515 390.819C121.253 390.857 121.131 391.17 121.178 391.36C121.206 391.56 121.3 391.731 121.384 391.873C121.562 392.158 121.759 392.387 121.937 392.558C122.302 392.9 122.583 393.033 122.592 393.014C122.611 392.985 122.358 392.814 122.04 392.453C121.88 392.272 121.703 392.044 121.553 391.769C121.394 391.531 121.272 391.094 121.553 391.037C121.834 390.999 122.133 391.284 122.311 391.512C122.498 391.759 122.601 392.025 122.648 392.253C122.742 392.719 122.648 393.023 122.686 393.033V393.023Z" fill="url(#paint122_linear_972_34529)"/>
<path d="M103.54 392.242C103.54 392.242 104.046 392.185 104.841 392.261C105.637 392.337 106.742 392.642 107.716 393.392C108.689 394.143 109.27 395.15 109.551 395.901C109.841 396.661 109.879 397.184 109.916 397.174C109.925 397.174 109.935 397.041 109.916 396.813C109.897 396.585 109.832 396.253 109.701 395.854C109.448 395.065 108.867 394.01 107.856 393.221C106.845 392.442 105.684 392.147 104.87 392.109C104.458 392.09 104.121 392.109 103.896 392.157C103.671 392.195 103.549 392.233 103.549 392.242H103.54Z" fill="url(#paint123_linear_972_34529)"/>
<path d="M112.135 395.474C112.135 395.53 113.287 395.69 114.719 395.671C116.152 395.652 117.304 395.465 117.294 395.408C117.294 395.343 116.133 395.446 114.71 395.455C113.287 395.474 112.135 395.408 112.126 395.474H112.135Z" fill="url(#paint124_linear_972_34529)"/>
<path d="M108.67 395.551C108.67 395.551 108.773 395.798 108.895 396.064C109.026 396.33 109.092 396.568 109.148 396.558C109.204 396.558 109.232 396.273 109.092 395.969C108.951 395.665 108.708 395.504 108.68 395.551H108.67Z" fill="url(#paint125_linear_972_34529)"/>
<path d="M107.331 393.937C107.331 393.937 107.405 394.165 107.593 394.345C107.78 394.526 107.967 394.64 108.005 394.602C108.042 394.554 107.93 394.374 107.743 394.193C107.555 394.013 107.368 393.898 107.331 393.937Z" fill="url(#paint126_linear_972_34529)"/>
<path d="M105.45 393.223C105.46 393.28 105.703 393.28 105.956 393.366C106.218 393.442 106.405 393.584 106.452 393.546C106.499 393.508 106.349 393.261 106.021 393.157C105.694 393.052 105.431 393.166 105.45 393.223Z" fill="url(#paint127_linear_972_34529)"/>
<path d="M104.11 392.889C104.091 392.946 104.194 393.03 104.344 393.086C104.493 393.143 104.625 393.143 104.643 393.086C104.662 393.03 104.559 392.946 104.409 392.889C104.259 392.833 104.128 392.833 104.11 392.889Z" fill="url(#paint128_linear_972_34529)"/>
</g>
<defs>
<linearGradient id="paint0_linear_972_34529" x1="224.63" y1="308.387" x2="353.558" y2="291.544" gradientUnits="userSpaceOnUse">
<stop stop-color="#7260ED"/>
<stop offset="1" stop-color="#AA7CEE"/>
</linearGradient>
<linearGradient id="paint1_linear_972_34529" x1="308.276" y1="248.996" x2="312.567" y2="248.634" gradientUnits="userSpaceOnUse">
<stop stop-color="#7260ED"/>
<stop offset="1" stop-color="#AA7CEE"/>
</linearGradient>
<linearGradient id="paint2_linear_972_34529" x1="308.457" y1="258.855" x2="314.936" y2="258.679" gradientUnits="userSpaceOnUse">
<stop stop-color="#7260ED"/>
<stop offset="1" stop-color="#AA7CEE"/>
</linearGradient>
<linearGradient id="paint3_linear_972_34529" x1="304.027" y1="248.948" x2="311.788" y2="247.898" gradientUnits="userSpaceOnUse">
<stop stop-color="#7260ED"/>
<stop offset="1" stop-color="#AA7CEE"/>
</linearGradient>
<linearGradient id="paint4_linear_972_34529" x1="161.413" y1="267.288" x2="179.761" y2="201.385" gradientUnits="userSpaceOnUse">
<stop stop-color="#7260ED"/>
<stop offset="1" stop-color="#AA7CEE"/>
</linearGradient>
<linearGradient id="paint5_linear_972_34529" x1="206.384" y1="241.417" x2="212.782" y2="240.807" gradientUnits="userSpaceOnUse">
<stop stop-color="#7260ED"/>
<stop offset="1" stop-color="#AA7CEE"/>
</linearGradient>
<linearGradient id="paint6_linear_972_34529" x1="297.479" y1="45.1359" x2="297.851" y2="43.3117" gradientUnits="userSpaceOnUse">
<stop stop-color="#7260ED"/>
<stop offset="1" stop-color="#AA7CEE"/>
</linearGradient>
<linearGradient id="paint7_linear_972_34529" x1="297.469" y1="49.9343" x2="298.134" y2="48.3054" gradientUnits="userSpaceOnUse">
<stop stop-color="#7260ED"/>
<stop offset="1" stop-color="#AA7CEE"/>
</linearGradient>
<linearGradient id="paint8_linear_972_34529" x1="287.385" y1="51.3322" x2="288.05" y2="49.7034" gradientUnits="userSpaceOnUse">
<stop stop-color="#7260ED"/>
<stop offset="1" stop-color="#AA7CEE"/>
</linearGradient>
<linearGradient id="paint9_linear_972_34529" x1="287.394" y1="53.3762" x2="287.872" y2="51.6047" gradientUnits="userSpaceOnUse">
<stop stop-color="#7260ED"/>
<stop offset="1" stop-color="#AA7CEE"/>
</linearGradient>
<linearGradient id="paint10_linear_972_34529" x1="287.385" y1="56.862" x2="288.05" y2="55.2332" gradientUnits="userSpaceOnUse">
<stop stop-color="#7260ED"/>
<stop offset="1" stop-color="#AA7CEE"/>
</linearGradient>
<linearGradient id="paint11_linear_972_34529" x1="287.394" y1="58.9064" x2="287.872" y2="57.135" gradientUnits="userSpaceOnUse">
<stop stop-color="#7260ED"/>
<stop offset="1" stop-color="#AA7CEE"/>
</linearGradient>
<linearGradient id="paint12_linear_972_34529" x1="287.385" y1="62.1384" x2="288.05" y2="60.5096" gradientUnits="userSpaceOnUse">
<stop stop-color="#7260ED"/>
<stop offset="1" stop-color="#AA7CEE"/>
</linearGradient>
<linearGradient id="paint13_linear_972_34529" x1="287.395" y1="64.1809" x2="287.873" y2="62.4094" gradientUnits="userSpaceOnUse">
<stop stop-color="#7260ED"/>
<stop offset="1" stop-color="#AA7CEE"/>
</linearGradient>
<linearGradient id="paint14_linear_972_34529" x1="297.478" y1="53.4992" x2="297.808" y2="51.658" gradientUnits="userSpaceOnUse">
<stop stop-color="#7260ED"/>
<stop offset="1" stop-color="#AA7CEE"/>
</linearGradient>
<linearGradient id="paint15_linear_972_34529" x1="297.478" y1="57.0632" x2="298.192" y2="55.4861" gradientUnits="userSpaceOnUse">
<stop stop-color="#7260ED"/>
<stop offset="1" stop-color="#AA7CEE"/>
</linearGradient>
<linearGradient id="paint16_linear_972_34529" x1="297.478" y1="60.6169" x2="297.808" y2="58.7757" gradientUnits="userSpaceOnUse">
<stop stop-color="#7260ED"/>
<stop offset="1" stop-color="#AA7CEE"/>
</linearGradient>
<linearGradient id="paint17_linear_972_34529" x1="297.478" y1="64.1809" x2="297.808" y2="62.3396" gradientUnits="userSpaceOnUse">
<stop stop-color="#7260ED"/>
<stop offset="1" stop-color="#AA7CEE"/>
</linearGradient>
<linearGradient id="paint18_linear_972_34529" x1="296.973" y1="67.9152" x2="297.303" y2="66.074" gradientUnits="userSpaceOnUse">
<stop stop-color="#7260ED"/>
<stop offset="1" stop-color="#AA7CEE"/>
</linearGradient>
<linearGradient id="paint19_linear_972_34529" x1="287.429" y1="48.7102" x2="295.153" y2="47.8752" gradientUnits="userSpaceOnUse">
<stop stop-color="#7260ED"/>
<stop offset="1" stop-color="#AA7CEE"/>
</linearGradient>
<linearGradient id="paint20_linear_972_34529" x1="287.561" y1="46.9171" x2="294.736" y2="45.2042" gradientUnits="userSpaceOnUse">
<stop stop-color="#7260ED"/>
<stop offset="1" stop-color="#AA7CEE"/>
</linearGradient>
<linearGradient id="paint21_linear_972_34529" x1="289.967" y1="44.208" x2="291.929" y2="43.9999" gradientUnits="userSpaceOnUse">
<stop stop-color="#7260ED"/>
<stop offset="1" stop-color="#AA7CEE"/>
</linearGradient>
<linearGradient id="paint22_linear_972_34529" x1="98.7646" y1="45.1359" x2="99.1375" y2="43.3117" gradientUnits="userSpaceOnUse">
<stop stop-color="#7260ED"/>
<stop offset="1" stop-color="#AA7CEE"/>
</linearGradient>
<linearGradient id="paint23_linear_972_34529" x1="98.7554" y1="49.9343" x2="99.4205" y2="48.3054" gradientUnits="userSpaceOnUse">
<stop stop-color="#7260ED"/>
<stop offset="1" stop-color="#AA7CEE"/>
</linearGradient>
<linearGradient id="paint24_linear_972_34529" x1="88.6802" y1="51.3322" x2="89.3453" y2="49.7034" gradientUnits="userSpaceOnUse">
<stop stop-color="#7260ED"/>
<stop offset="1" stop-color="#AA7CEE"/>
</linearGradient>
<linearGradient id="paint25_linear_972_34529" x1="88.6802" y1="53.3762" x2="89.1581" y2="51.6047" gradientUnits="userSpaceOnUse">
<stop stop-color="#7260ED"/>
<stop offset="1" stop-color="#AA7CEE"/>
</linearGradient>
<linearGradient id="paint26_linear_972_34529" x1="88.6802" y1="56.862" x2="89.3453" y2="55.2332" gradientUnits="userSpaceOnUse">
<stop stop-color="#7260ED"/>
<stop offset="1" stop-color="#AA7CEE"/>
</linearGradient>
<linearGradient id="paint27_linear_972_34529" x1="88.6802" y1="58.9064" x2="89.1581" y2="57.135" gradientUnits="userSpaceOnUse">
<stop stop-color="#7260ED"/>
<stop offset="1" stop-color="#AA7CEE"/>
</linearGradient>
<linearGradient id="paint28_linear_972_34529" x1="88.6802" y1="62.1384" x2="89.3452" y2="60.5096" gradientUnits="userSpaceOnUse">
<stop stop-color="#7260ED"/>
<stop offset="1" stop-color="#AA7CEE"/>
</linearGradient>
<linearGradient id="paint29_linear_972_34529" x1="88.6802" y1="64.1809" x2="89.1581" y2="62.4094" gradientUnits="userSpaceOnUse">
<stop stop-color="#7260ED"/>
<stop offset="1" stop-color="#AA7CEE"/>
</linearGradient>
<linearGradient id="paint30_linear_972_34529" x1="98.7642" y1="53.4992" x2="99.0944" y2="51.658" gradientUnits="userSpaceOnUse">
<stop stop-color="#7260ED"/>
<stop offset="1" stop-color="#AA7CEE"/>
</linearGradient>
<linearGradient id="paint31_linear_972_34529" x1="98.7642" y1="57.0632" x2="99.4782" y2="55.4861" gradientUnits="userSpaceOnUse">
<stop stop-color="#7260ED"/>
<stop offset="1" stop-color="#AA7CEE"/>
</linearGradient>
<linearGradient id="paint32_linear_972_34529" x1="98.7642" y1="60.6169" x2="99.0944" y2="58.7757" gradientUnits="userSpaceOnUse">
<stop stop-color="#7260ED"/>
<stop offset="1" stop-color="#AA7CEE"/>
</linearGradient>
<linearGradient id="paint33_linear_972_34529" x1="98.7642" y1="64.1809" x2="99.0944" y2="62.3396" gradientUnits="userSpaceOnUse">
<stop stop-color="#7260ED"/>
<stop offset="1" stop-color="#AA7CEE"/>
</linearGradient>
<linearGradient id="paint34_linear_972_34529" x1="98.2593" y1="67.9152" x2="98.5895" y2="66.074" gradientUnits="userSpaceOnUse">
<stop stop-color="#7260ED"/>
<stop offset="1" stop-color="#AA7CEE"/>
</linearGradient>
<linearGradient id="paint35_linear_972_34529" x1="88.7188" y1="48.7215" x2="96.4426" y2="47.8864" gradientUnits="userSpaceOnUse">
<stop stop-color="#7260ED"/>
<stop offset="1" stop-color="#AA7CEE"/>
</linearGradient>
<linearGradient id="paint36_linear_972_34529" x1="88.8496" y1="46.9196" x2="96.0247" y2="45.2066" gradientUnits="userSpaceOnUse">
<stop stop-color="#7260ED"/>
<stop offset="1" stop-color="#AA7CEE"/>
</linearGradient>
<linearGradient id="paint37_linear_972_34529" x1="91.2568" y1="44.2104" x2="93.2188" y2="44.0024" gradientUnits="userSpaceOnUse">
<stop stop-color="#7260ED"/>
<stop offset="1" stop-color="#AA7CEE"/>
</linearGradient>
<linearGradient id="paint38_linear_972_34529" x1="172.244" y1="2.67789" x2="175.139" y2="2.36524" gradientUnits="userSpaceOnUse">
<stop stop-color="#7260ED"/>
<stop offset="1" stop-color="#AA7CEE"/>
</linearGradient>
<linearGradient id="paint39_linear_972_34529" x1="172.244" y1="42.2106" x2="175.139" y2="41.898" gradientUnits="userSpaceOnUse">
<stop stop-color="#7260ED"/>
<stop offset="1" stop-color="#AA7CEE"/>
</linearGradient>
<linearGradient id="paint40_linear_972_34529" x1="226.38" y1="42.2116" x2="229.276" y2="41.8989" gradientUnits="userSpaceOnUse">
<stop stop-color="#7260ED"/>
<stop offset="1" stop-color="#AA7CEE"/>
</linearGradient>
<linearGradient id="paint41_linear_972_34529" x1="172.244" y1="81.0968" x2="175.139" y2="80.7842" gradientUnits="userSpaceOnUse">
<stop stop-color="#7260ED"/>
<stop offset="1" stop-color="#AA7CEE"/>
</linearGradient>
<linearGradient id="paint42_linear_972_34529" x1="198.75" y1="2.67789" x2="201.646" y2="2.36524" gradientUnits="userSpaceOnUse">
<stop stop-color="#7260ED"/>
<stop offset="1" stop-color="#AA7CEE"/>
</linearGradient>
<linearGradient id="paint43_linear_972_34529" x1="198.75" y1="81.7433" x2="201.646" y2="81.4307" gradientUnits="userSpaceOnUse">
<stop stop-color="#7260ED"/>
<stop offset="1" stop-color="#AA7CEE"/>
</linearGradient>
<linearGradient id="paint44_linear_972_34529" x1="226.38" y1="2.67789" x2="229.276" y2="2.36524" gradientUnits="userSpaceOnUse">
<stop stop-color="#7260ED"/>
<stop offset="1" stop-color="#AA7CEE"/>
</linearGradient>
<linearGradient id="paint45_linear_972_34529" x1="226.38" y1="81.7433" x2="229.276" y2="81.4307" gradientUnits="userSpaceOnUse">
<stop stop-color="#7260ED"/>
<stop offset="1" stop-color="#AA7CEE"/>
</linearGradient>
<linearGradient id="paint46_linear_972_34529" x1="173.515" y1="80.0989" x2="233.76" y2="75.5652" gradientUnits="userSpaceOnUse">
<stop stop-color="#7260ED"/>
<stop offset="1" stop-color="#AA7CEE"/>
</linearGradient>
<linearGradient id="paint47_linear_972_34529" x1="197.992" y1="26.8447" x2="200.051" y2="22.9212" gradientUnits="userSpaceOnUse">
<stop stop-color="#7260ED"/>
<stop offset="1" stop-color="#AA7CEE"/>
</linearGradient>
<linearGradient id="paint48_linear_972_34529" x1="181.187" y1="27.9277" x2="182.826" y2="23.5364" gradientUnits="userSpaceOnUse">
<stop stop-color="#7260ED"/>
<stop offset="1" stop-color="#AA7CEE"/>
</linearGradient>
<linearGradient id="paint49_linear_972_34529" x1="181.187" y1="31.1397" x2="182.826" y2="26.7483" gradientUnits="userSpaceOnUse">
<stop stop-color="#7260ED"/>
<stop offset="1" stop-color="#AA7CEE"/>
</linearGradient>
<linearGradient id="paint50_linear_972_34529" x1="181.187" y1="34.3418" x2="182.826" y2="29.9504" gradientUnits="userSpaceOnUse">
<stop stop-color="#7260ED"/>
<stop offset="1" stop-color="#AA7CEE"/>
</linearGradient>
<linearGradient id="paint51_linear_972_34529" x1="181.187" y1="37.5537" x2="182.826" y2="33.1623" gradientUnits="userSpaceOnUse">
<stop stop-color="#7260ED"/>
<stop offset="1" stop-color="#AA7CEE"/>
</linearGradient>
<linearGradient id="paint52_linear_972_34529" x1="181.187" y1="40.7642" x2="182.826" y2="36.3728" gradientUnits="userSpaceOnUse">
<stop stop-color="#7260ED"/>
<stop offset="1" stop-color="#AA7CEE"/>
</linearGradient>
<linearGradient id="paint53_linear_972_34529" x1="181.188" y1="46.5527" x2="182.827" y2="42.1614" gradientUnits="userSpaceOnUse">
<stop stop-color="#7260ED"/>
<stop offset="1" stop-color="#AA7CEE"/>
</linearGradient>
<linearGradient id="paint54_linear_972_34529" x1="181.188" y1="49.7554" x2="182.827" y2="45.364" gradientUnits="userSpaceOnUse">
<stop stop-color="#7260ED"/>
<stop offset="1" stop-color="#AA7CEE"/>
</linearGradient>
<linearGradient id="paint55_linear_972_34529" x1="181.188" y1="52.9668" x2="182.827" y2="48.5754" gradientUnits="userSpaceOnUse">
<stop stop-color="#7260ED"/>
<stop offset="1" stop-color="#AA7CEE"/>
</linearGradient>
<linearGradient id="paint56_linear_972_34529" x1="181.188" y1="56.1787" x2="183.502" y2="52.728" gradientUnits="userSpaceOnUse">
<stop stop-color="#7260ED"/>
<stop offset="1" stop-color="#AA7CEE"/>
</linearGradient>
<linearGradient id="paint57_linear_972_34529" x1="197.983" y1="32.0537" x2="199.087" y2="27.3067" gradientUnits="userSpaceOnUse">
<stop stop-color="#7260ED"/>
<stop offset="1" stop-color="#AA7CEE"/>
</linearGradient>
<linearGradient id="paint58_linear_972_34529" x1="198.263" y1="35.1895" x2="199.366" y2="30.4424" gradientUnits="userSpaceOnUse">
<stop stop-color="#7260ED"/>
<stop offset="1" stop-color="#AA7CEE"/>
</linearGradient>
<linearGradient id="paint59_linear_972_34529" x1="197.992" y1="42.3355" x2="200.051" y2="38.4119" gradientUnits="userSpaceOnUse">
<stop stop-color="#7260ED"/>
<stop offset="1" stop-color="#AA7CEE"/>
</linearGradient>
<linearGradient id="paint60_linear_972_34529" x1="197.983" y1="47.5435" x2="199.086" y2="42.7964" gradientUnits="userSpaceOnUse">
<stop stop-color="#7260ED"/>
<stop offset="1" stop-color="#AA7CEE"/>
</linearGradient>
<linearGradient id="paint61_linear_972_34529" x1="198.263" y1="50.6782" x2="199.366" y2="45.9312" gradientUnits="userSpaceOnUse">
<stop stop-color="#7260ED"/>
<stop offset="1" stop-color="#AA7CEE"/>
</linearGradient>
<linearGradient id="paint62_linear_972_34529" x1="197.992" y1="58.4331" x2="200.051" y2="54.5096" gradientUnits="userSpaceOnUse">
<stop stop-color="#7260ED"/>
<stop offset="1" stop-color="#AA7CEE"/>
</linearGradient>
<linearGradient id="paint63_linear_972_34529" x1="197.982" y1="63.6406" x2="199.086" y2="58.8936" gradientUnits="userSpaceOnUse">
<stop stop-color="#7260ED"/>
<stop offset="1" stop-color="#AA7CEE"/>
</linearGradient>
<linearGradient id="paint64_linear_972_34529" x1="198.263" y1="66.7764" x2="199.366" y2="62.0294" gradientUnits="userSpaceOnUse">
<stop stop-color="#7260ED"/>
<stop offset="1" stop-color="#AA7CEE"/>
</linearGradient>
<linearGradient id="paint65_linear_972_34529" x1="180.552" y1="23.1295" x2="195.15" y2="21.5486" gradientUnits="userSpaceOnUse">
<stop stop-color="#7260ED"/>
<stop offset="1" stop-color="#AA7CEE"/>
</linearGradient>
<linearGradient id="paint66_linear_972_34529" x1="199.538" y1="15.689" x2="200.586" y2="10.9159" gradientUnits="userSpaceOnUse">
<stop stop-color="#7260ED"/>
<stop offset="1" stop-color="#AA7CEE"/>
</linearGradient>
<linearGradient id="paint67_linear_972_34529" x1="199.761" y1="18.6924" x2="201.604" y2="14.4987" gradientUnits="userSpaceOnUse">
<stop stop-color="#7260ED"/>
<stop offset="1" stop-color="#AA7CEE"/>
</linearGradient>
<linearGradient id="paint68_linear_972_34529" x1="181" y1="21.0005" x2="193.705" y2="18.216" gradientUnits="userSpaceOnUse">
<stop stop-color="#7260ED"/>
<stop offset="1" stop-color="#AA7CEE"/>
</linearGradient>
<linearGradient id="paint69_linear_972_34529" x1="185" y1="16.0005" x2="189.386" y2="15.5199" gradientUnits="userSpaceOnUse">
<stop stop-color="#7260ED"/>
<stop offset="1" stop-color="#AA7CEE"/>
</linearGradient>
<linearGradient id="paint70_linear_972_34529" x1="254.483" y1="41.9614" x2="255.696" y2="39.5246" gradientUnits="userSpaceOnUse">
<stop stop-color="#7260ED"/>
<stop offset="1" stop-color="#AA7CEE"/>
</linearGradient>
<linearGradient id="paint71_linear_972_34529" x1="243.52" y1="43.1294" x2="244.477" y2="40.428" gradientUnits="userSpaceOnUse">
<stop stop-color="#7260ED"/>
<stop offset="1" stop-color="#AA7CEE"/>
</linearGradient>
<linearGradient id="paint72_linear_972_34529" x1="243.52" y1="45.1909" x2="244.477" y2="42.4895" gradientUnits="userSpaceOnUse">
<stop stop-color="#7260ED"/>
<stop offset="1" stop-color="#AA7CEE"/>
</linearGradient>
<linearGradient id="paint73_linear_972_34529" x1="243.52" y1="47.2432" x2="244.477" y2="44.5417" gradientUnits="userSpaceOnUse">
<stop stop-color="#7260ED"/>
<stop offset="1" stop-color="#AA7CEE"/>
</linearGradient>
<linearGradient id="paint74_linear_972_34529" x1="243.511" y1="49.2964" x2="244.888" y2="47.132" gradientUnits="userSpaceOnUse">
<stop stop-color="#7260ED"/>
<stop offset="1" stop-color="#AA7CEE"/>
</linearGradient>
<linearGradient id="paint75_linear_972_34529" x1="254.474" y1="45.2969" x2="255.113" y2="42.3971" gradientUnits="userSpaceOnUse">
<stop stop-color="#7260ED"/>
<stop offset="1" stop-color="#AA7CEE"/>
</linearGradient>
<linearGradient id="paint76_linear_972_34529" x1="254.651" y1="47.3008" x2="255.29" y2="44.401" gradientUnits="userSpaceOnUse">
<stop stop-color="#7260ED"/>
<stop offset="1" stop-color="#AA7CEE"/>
</linearGradient>
<linearGradient id="paint77_linear_972_34529" x1="254.483" y1="51.8818" x2="255.696" y2="49.445" gradientUnits="userSpaceOnUse">
<stop stop-color="#7260ED"/>
<stop offset="1" stop-color="#AA7CEE"/>
</linearGradient>
<linearGradient id="paint78_linear_972_34529" x1="254.474" y1="55.2173" x2="255.113" y2="52.3175" gradientUnits="userSpaceOnUse">
<stop stop-color="#7260ED"/>
<stop offset="1" stop-color="#AA7CEE"/>
</linearGradient>
<linearGradient id="paint79_linear_972_34529" x1="254.651" y1="57.2222" x2="255.29" y2="54.3224" gradientUnits="userSpaceOnUse">
<stop stop-color="#7260ED"/>
<stop offset="1" stop-color="#AA7CEE"/>
</linearGradient>
<linearGradient id="paint80_linear_972_34529" x1="254.483" y1="62.1938" x2="255.696" y2="59.757" gradientUnits="userSpaceOnUse">
<stop stop-color="#7260ED"/>
<stop offset="1" stop-color="#AA7CEE"/>
</linearGradient>
<linearGradient id="paint81_linear_972_34529" x1="254.474" y1="65.5283" x2="255.113" y2="62.6286" gradientUnits="userSpaceOnUse">
<stop stop-color="#7260ED"/>
<stop offset="1" stop-color="#AA7CEE"/>
</linearGradient>
<linearGradient id="paint82_linear_972_34529" x1="254.653" y1="67.5322" x2="255.292" y2="64.6325" gradientUnits="userSpaceOnUse">
<stop stop-color="#7260ED"/>
<stop offset="1" stop-color="#AA7CEE"/>
</linearGradient>
<linearGradient id="paint83_linear_972_34529" x1="255.476" y1="36.7441" x2="256.084" y2="33.8302" gradientUnits="userSpaceOnUse">
<stop stop-color="#7260ED"/>
<stop offset="1" stop-color="#AA7CEE"/>
</linearGradient>
<linearGradient id="paint84_linear_972_34529" x1="255.617" y1="38.6626" x2="256.697" y2="36.0723" gradientUnits="userSpaceOnUse">
<stop stop-color="#7260ED"/>
<stop offset="1" stop-color="#AA7CEE"/>
</linearGradient>
<linearGradient id="paint85_linear_972_34529" x1="243.553" y1="39.5884" x2="252.892" y2="38.5754" gradientUnits="userSpaceOnUse">
<stop stop-color="#7260ED"/>
<stop offset="1" stop-color="#AA7CEE"/>
</linearGradient>
<linearGradient id="paint86_linear_972_34529" x1="138.754" y1="41.9605" x2="139.967" y2="39.5236" gradientUnits="userSpaceOnUse">
<stop stop-color="#7260ED"/>
<stop offset="1" stop-color="#AA7CEE"/>
</linearGradient>
<linearGradient id="paint87_linear_972_34529" x1="127.79" y1="43.1289" x2="128.747" y2="40.4275" gradientUnits="userSpaceOnUse">
<stop stop-color="#7260ED"/>
<stop offset="1" stop-color="#AA7CEE"/>
</linearGradient>
<linearGradient id="paint88_linear_972_34529" x1="127.791" y1="45.1904" x2="128.748" y2="42.489" gradientUnits="userSpaceOnUse">
<stop stop-color="#7260ED"/>
<stop offset="1" stop-color="#AA7CEE"/>
</linearGradient>
<linearGradient id="paint89_linear_972_34529" x1="127.79" y1="47.2432" x2="128.747" y2="44.5417" gradientUnits="userSpaceOnUse">
<stop stop-color="#7260ED"/>
<stop offset="1" stop-color="#AA7CEE"/>
</linearGradient>
<linearGradient id="paint90_linear_972_34529" x1="127.781" y1="49.2964" x2="129.158" y2="47.132" gradientUnits="userSpaceOnUse">
<stop stop-color="#7260ED"/>
<stop offset="1" stop-color="#AA7CEE"/>
</linearGradient>
<linearGradient id="paint91_linear_972_34529" x1="138.745" y1="45.2959" x2="139.384" y2="42.3961" gradientUnits="userSpaceOnUse">
<stop stop-color="#7260ED"/>
<stop offset="1" stop-color="#AA7CEE"/>
</linearGradient>
<linearGradient id="paint92_linear_972_34529" x1="138.914" y1="47.2998" x2="139.553" y2="44.4" gradientUnits="userSpaceOnUse">
<stop stop-color="#7260ED"/>
<stop offset="1" stop-color="#AA7CEE"/>
</linearGradient>
<linearGradient id="paint93_linear_972_34529" x1="138.754" y1="51.8818" x2="139.967" y2="49.445" gradientUnits="userSpaceOnUse">
<stop stop-color="#7260ED"/>
<stop offset="1" stop-color="#AA7CEE"/>
</linearGradient>
<linearGradient id="paint94_linear_972_34529" x1="138.745" y1="55.2163" x2="139.384" y2="52.3165" gradientUnits="userSpaceOnUse">
<stop stop-color="#7260ED"/>
<stop offset="1" stop-color="#AA7CEE"/>
</linearGradient>
<linearGradient id="paint95_linear_972_34529" x1="138.914" y1="57.2212" x2="139.553" y2="54.3214" gradientUnits="userSpaceOnUse">
<stop stop-color="#7260ED"/>
<stop offset="1" stop-color="#AA7CEE"/>
</linearGradient>
<linearGradient id="paint96_linear_972_34529" x1="138.754" y1="62.1919" x2="139.967" y2="59.7551" gradientUnits="userSpaceOnUse">
<stop stop-color="#7260ED"/>
<stop offset="1" stop-color="#AA7CEE"/>
</linearGradient>
<linearGradient id="paint97_linear_972_34529" x1="138.745" y1="65.5273" x2="139.384" y2="62.6276" gradientUnits="userSpaceOnUse">
<stop stop-color="#7260ED"/>
<stop offset="1" stop-color="#AA7CEE"/>
</linearGradient>
<linearGradient id="paint98_linear_972_34529" x1="138.915" y1="67.5313" x2="139.554" y2="64.6315" gradientUnits="userSpaceOnUse">
<stop stop-color="#7260ED"/>
<stop offset="1" stop-color="#AA7CEE"/>
</linearGradient>
<linearGradient id="paint99_linear_972_34529" x1="139.748" y1="36.7422" x2="140.355" y2="33.8282" gradientUnits="userSpaceOnUse">
<stop stop-color="#7260ED"/>
<stop offset="1" stop-color="#AA7CEE"/>
</linearGradient>
<linearGradient id="paint100_linear_972_34529" x1="139.888" y1="38.6616" x2="140.968" y2="36.0713" gradientUnits="userSpaceOnUse">
<stop stop-color="#7260ED"/>
<stop offset="1" stop-color="#AA7CEE"/>
</linearGradient>
<linearGradient id="paint101_linear_972_34529" x1="127.693" y1="39.5391" x2="137.031" y2="38.5261" gradientUnits="userSpaceOnUse">
<stop stop-color="#7260ED"/>
<stop offset="1" stop-color="#AA7CEE"/>
</linearGradient>
<linearGradient id="paint102_linear_972_34529" x1="169.247" y1="136.064" x2="236.167" y2="123.355" gradientUnits="userSpaceOnUse">
<stop stop-color="#7260ED"/>
<stop offset="1" stop-color="#AA7CEE"/>
</linearGradient>
<linearGradient id="paint103_linear_972_34529" x1="169.247" y1="136.064" x2="236.167" y2="123.355" gradientUnits="userSpaceOnUse">
<stop stop-color="#7260ED"/>
<stop offset="1" stop-color="#AA7CEE"/>
</linearGradient>
<linearGradient id="paint104_linear_972_34529" x1="165.679" y1="155.717" x2="241.231" y2="141.734" gradientUnits="userSpaceOnUse">
<stop stop-color="#7260ED"/>
<stop offset="1" stop-color="#AA7CEE"/>
</linearGradient>
<linearGradient id="paint105_linear_972_34529" x1="91.6138" y1="148.436" x2="148.998" y2="137.511" gradientUnits="userSpaceOnUse">
<stop stop-color="#7260ED"/>
<stop offset="1" stop-color="#AA7CEE"/>
</linearGradient>
<linearGradient id="paint106_linear_972_34529" x1="88.2886" y1="157.578" x2="152.718" y2="145.908" gradientUnits="userSpaceOnUse">
<stop stop-color="#7260ED"/>
<stop offset="1" stop-color="#AA7CEE"/>
</linearGradient>
<linearGradient id="paint107_linear_972_34529" x1="261.729" y1="145.471" x2="317.804" y2="134.792" gradientUnits="userSpaceOnUse">
<stop stop-color="#7260ED"/>
<stop offset="1" stop-color="#AA7CEE"/>
</linearGradient>
<linearGradient id="paint108_linear_972_34529" x1="261.729" y1="145.471" x2="317.804" y2="134.792" gradientUnits="userSpaceOnUse">
<stop stop-color="#7260ED"/>
<stop offset="1" stop-color="#AA7CEE"/>
</linearGradient>
<linearGradient id="paint109_linear_972_34529" x1="258.5" y1="154.394" x2="321.441" y2="142.991" gradientUnits="userSpaceOnUse">
<stop stop-color="#7260ED"/>
<stop offset="1" stop-color="#AA7CEE"/>
</linearGradient>
<linearGradient id="paint110_linear_972_34529" x1="81.166" y1="126.587" x2="120.465" y2="122.883" gradientUnits="userSpaceOnUse">
<stop stop-color="#7260ED"/>
<stop offset="1" stop-color="#AA7CEE"/>
</linearGradient>
<linearGradient id="paint111_linear_972_34529" x1="44.4414" y1="399.998" x2="62.6863" y2="397.085" gradientUnits="userSpaceOnUse">
<stop stop-color="#7260ED"/>
<stop offset="1" stop-color="#AA7CEE"/>
</linearGradient>
<linearGradient id="paint112_linear_972_34529" x1="52.5605" y1="397.746" x2="54.3649" y2="397.709" gradientUnits="userSpaceOnUse">
<stop stop-color="#7260ED"/>
<stop offset="1" stop-color="#AA7CEE"/>
</linearGradient>
<linearGradient id="paint113_linear_972_34529" x1="44.854" y1="398.952" x2="57.3892" y2="390.92" gradientUnits="userSpaceOnUse">
<stop stop-color="#7260ED"/>
<stop offset="1" stop-color="#AA7CEE"/>
</linearGradient>
<linearGradient id="paint114_linear_972_34529" x1="103.426" y1="397.797" x2="130.564" y2="385.086" gradientUnits="userSpaceOnUse">
<stop stop-color="#7260ED"/>
<stop offset="1" stop-color="#AA7CEE"/>
</linearGradient>
<linearGradient id="paint115_linear_972_34529" x1="103.277" y1="397.313" x2="105.155" y2="389.636" gradientUnits="userSpaceOnUse">
<stop stop-color="#7260ED"/>
<stop offset="1" stop-color="#AA7CEE"/>
</linearGradient>
<linearGradient id="paint116_linear_972_34529" x1="127.055" y1="397.12" x2="128.902" y2="397.001" gradientUnits="userSpaceOnUse">
<stop stop-color="#7260ED"/>
<stop offset="1" stop-color="#AA7CEE"/>
</linearGradient>
<linearGradient id="paint117_linear_972_34529" x1="121.813" y1="394.556" x2="122.83" y2="394.489" gradientUnits="userSpaceOnUse">
<stop stop-color="#7260ED"/>
<stop offset="1" stop-color="#AA7CEE"/>
</linearGradient>
<linearGradient id="paint118_linear_972_34529" x1="120.369" y1="393.822" x2="121.568" y2="393.684" gradientUnits="userSpaceOnUse">
<stop stop-color="#7260ED"/>
<stop offset="1" stop-color="#AA7CEE"/>
</linearGradient>
<linearGradient id="paint119_linear_972_34529" x1="119.436" y1="392.243" x2="120.492" y2="391.22" gradientUnits="userSpaceOnUse">
<stop stop-color="#7260ED"/>
<stop offset="1" stop-color="#AA7CEE"/>
</linearGradient>
<linearGradient id="paint120_linear_972_34529" x1="119.1" y1="391.247" x2="120.585" y2="390.128" gradientUnits="userSpaceOnUse">
<stop stop-color="#7260ED"/>
<stop offset="1" stop-color="#AA7CEE"/>
</linearGradient>
<linearGradient id="paint121_linear_972_34529" x1="122.387" y1="393.299" x2="125.927" y2="392.651" gradientUnits="userSpaceOnUse">
<stop stop-color="#7260ED"/>
<stop offset="1" stop-color="#AA7CEE"/>
</linearGradient>
<linearGradient id="paint122_linear_972_34529" x1="121.168" y1="393.033" x2="122.981" y2="392.885" gradientUnits="userSpaceOnUse">
<stop stop-color="#7260ED"/>
<stop offset="1" stop-color="#AA7CEE"/>
</linearGradient>
<linearGradient id="paint123_linear_972_34529" x1="103.54" y1="397.175" x2="110.494" y2="396.215" gradientUnits="userSpaceOnUse">
<stop stop-color="#7260ED"/>
<stop offset="1" stop-color="#AA7CEE"/>
</linearGradient>
<linearGradient id="paint124_linear_972_34529" x1="112.126" y1="395.673" x2="113.291" y2="393.365" gradientUnits="userSpaceOnUse">
<stop stop-color="#7260ED"/>
<stop offset="1" stop-color="#AA7CEE"/>
</linearGradient>
<linearGradient id="paint125_linear_972_34529" x1="108.67" y1="396.559" x2="109.249" y2="396.526" gradientUnits="userSpaceOnUse">
<stop stop-color="#7260ED"/>
<stop offset="1" stop-color="#AA7CEE"/>
</linearGradient>
<linearGradient id="paint126_linear_972_34529" x1="107.331" y1="394.609" x2="108.078" y2="394.527" gradientUnits="userSpaceOnUse">
<stop stop-color="#7260ED"/>
<stop offset="1" stop-color="#AA7CEE"/>
</linearGradient>
<linearGradient id="paint127_linear_972_34529" x1="105.449" y1="393.553" x2="106.504" y2="393.286" gradientUnits="userSpaceOnUse">
<stop stop-color="#7260ED"/>
<stop offset="1" stop-color="#AA7CEE"/>
</linearGradient>
<linearGradient id="paint128_linear_972_34529" x1="104.107" y1="393.129" x2="104.679" y2="393.009" gradientUnits="userSpaceOnUse">
<stop stop-color="#7260ED"/>
<stop offset="1" stop-color="#AA7CEE"/>
</linearGradient>
<clipPath id="clip0_972_34529">
<rect width="400" height="400" fill="white"/>
</clipPath>
</defs>
</svg>
