<svg width="447" height="400" viewBox="0 0 447 400" fill="none" xmlns="http://www.w3.org/2000/svg">
<g clip-path="url(#clip0_972_34768)">
<path opacity="0.05" d="M184.547 400C240.417 400 285.709 393.493 285.709 385.466C285.709 377.438 240.417 370.931 184.547 370.931C128.676 370.931 83.3838 377.438 83.3838 385.466C83.3838 393.493 128.676 400 184.547 400Z" fill="white"/>
<path d="M401.507 161.87C392.999 161.87 382.952 145.026 374.083 130.149C368.267 120.405 362.619 110.934 356.61 104.095H376.499V93.6729H352.103C356.466 88.2797 360.6 81.3623 364.842 74.2625C371.5 63.0853 379.792 49.1854 386.125 49.1854H404.776V38.7637H386.125C374.552 38.7637 365.912 53.2628 356.766 68.6088C350.109 79.773 341.816 93.6729 335.471 93.6729H122.593C116.26 93.6729 107.968 79.773 101.31 68.6088C92.1529 53.2628 83.5123 38.8028 71.9515 38.8028H53.2883V49.2244H71.9515C78.2847 49.2244 86.5768 63.1244 93.2345 74.3016C97.4646 81.4014 101.647 88.3188 105.961 93.712H19.5552V104.134H116.488C110.48 110.973 104.819 120.444 99.0149 130.188C90.146 145.052 80.0993 161.909 71.591 161.909H36.2355V172.331H71.615C85.351 172.331 95.9264 154.614 107.103 135.855C115.972 120.978 126.018 104.134 134.527 104.134H338.584C347.092 104.134 357.139 120.978 366.008 135.855C377.196 154.614 387.759 172.331 401.507 172.331H436.863V161.909L401.507 161.87Z" fill="#524587"/>
<g opacity="0.4">
<path d="M347.681 101.606L347.176 102.414C354.255 107.703 360.96 118.385 368.351 130.761L369.108 130.226C361.657 117.76 354.904 106.999 347.681 101.606Z" fill="white"/>
<path d="M378.47 145.625L377.725 146.185C380.871 151.347 384.495 156.149 388.54 160.514L389.153 159.798C385.152 155.484 381.572 150.734 378.47 145.625Z" fill="white"/>
<path d="M370.646 134.617C372.209 137.222 373.759 139.827 375.321 142.329L376.066 141.782C374.516 139.267 372.966 136.675 371.404 134.083L370.646 134.617Z" fill="white"/>
<path d="M392.482 162.56L391.953 163.342C394.687 165.732 398.058 167.102 401.567 167.25H425.41V166.273H401.507C398.211 166.11 395.049 164.809 392.482 162.56Z" fill="white"/>
<path d="M436.863 166.312H429.652V167.289H436.863V166.312Z" fill="white"/>
<path d="M26.7657 98.1143H19.5552V99.0913H26.7657V98.1143Z" fill="white"/>
<path d="M61.7125 98.1143H33.7478V99.0913H61.7125V98.1143Z" fill="white"/>
<path d="M68.7065 98.1148V99.0918H124.624V98.1148H122.593C120.258 98.0366 117.997 97.2017 116.104 95.7178L115.611 96.5385C116.461 97.1532 117.362 97.6809 118.303 98.1148H68.7065Z" fill="white"/>
<path d="M299.382 98.1143H271.418V99.0913H299.382V98.1143Z" fill="white"/>
<path d="M362.294 99.0918V98.1148H339.773C340.713 97.6781 341.614 97.1506 342.465 96.5385L341.961 95.7178C340.068 97.2038 337.807 98.039 335.471 98.1148H306.377V99.0918H338.584C340.291 99.109 341.978 99.4942 343.547 100.225L343.895 99.3263L343.294 99.0918H362.294Z" fill="white"/>
<path d="M264.424 98.1143H250.448V99.0913H264.424V98.1143Z" fill="white"/>
<path d="M243.453 98.1143H187.536V99.0913H243.453V98.1143Z" fill="white"/>
<path d="M376.499 98.1143H369.289V99.0913H376.499V98.1143Z" fill="white"/>
<path d="M359.17 74.7831L358.412 74.249C354.663 80.489 350.301 87.5236 345.914 92.2004L346.539 92.8908C350.998 88.1489 355.396 81.0622 359.17 74.7831Z" fill="white"/>
<path d="M386.125 44.1826H392.35V43.2056H386.125C376.943 43.2056 368.603 57.1706 361.249 69.4943L362.006 70.0284C369.24 57.9132 377.436 44.1826 386.125 44.1826Z" fill="white"/>
<path d="M404.776 43.2056H397.566V44.1826H404.776V43.2056Z" fill="white"/>
<path d="M112.162 92.2131C107.764 87.5363 103.401 80.4887 99.6638 74.2617L98.9067 74.7958C102.68 81.0749 107.079 88.1616 111.525 92.9035L112.162 92.2131Z" fill="white"/>
<path d="M96.0706 70.0669L96.8277 69.5328C89.4609 57.2092 81.1208 43.2441 71.9514 43.2441H65.7144V44.2212H71.9514C80.6281 44.1821 88.836 57.9127 96.0706 70.0669Z" fill="white"/>
<path d="M60.4986 43.2056H53.2881V44.1826H60.4986V43.2056Z" fill="white"/>
<path d="M152.589 98.1143H150.462V99.0913H152.589H157.672H180.553V98.1143H157.672H152.589Z" fill="white"/>
<path d="M103.99 130.226L104.747 130.761C112.138 118.385 118.832 107.703 125.922 102.414L125.405 101.606C118.183 106.999 111.429 117.76 103.99 130.226Z" fill="white"/>
<path d="M134.503 98.1143H131.618V98.4921C130.797 98.6958 129.993 98.9747 129.215 99.3258L129.563 100.225C131.133 99.4964 132.819 99.1112 134.527 99.0913H146.232V98.1143H134.527H134.503Z" fill="white"/>
<path d="M71.6148 166.312H47.748V167.289H71.6148C75.1244 167.144 78.4968 165.773 81.2288 163.381L80.7 162.599C78.1173 164.861 74.9322 166.163 71.6148 166.312Z" fill="white"/>
<path d="M97.02 141.782L97.7771 142.329C99.3274 139.801 100.89 137.209 102.44 134.617L101.683 134.083C100.133 136.675 98.5823 139.267 97.02 141.782Z" fill="white"/>
<path d="M83.8848 159.694L84.5097 160.41C88.5582 156.048 92.1825 151.246 95.3254 146.081L94.5923 145.521C91.4823 150.632 87.8941 155.381 83.8848 159.694Z" fill="white"/>
<path d="M43.4459 166.312H36.2354V167.289H43.4459V166.312Z" fill="white"/>
</g>
<path d="M71.9994 141.912H63.2026C62.1822 141.913 61.1778 142.187 60.2785 142.71C59.3791 143.232 58.6127 143.988 58.0471 144.908L56.7612 147.019C56.2449 147.864 55.5432 148.558 54.719 149.038C53.8948 149.517 52.9738 149.768 52.0384 149.767H29.2892C28.8037 149.767 28.323 149.871 27.8746 150.073C27.4262 150.275 27.019 150.571 26.6762 150.943C26.3335 151.316 26.062 151.759 25.8773 152.245C25.6926 152.732 25.5983 153.254 25.5999 153.78V192.249H76.8545V149.767L76.3978 146.081C76.2551 144.926 75.7305 143.867 74.9215 143.1C74.1124 142.333 73.0741 141.911 71.9994 141.912Z" fill="#9C95BA"/>
<path d="M73.009 154.64H29.4456V186.934H73.009V154.64Z" fill="#524587"/>
<path opacity="0.9" d="M73.009 154.64H29.4456V186.934H73.009V154.64Z" fill="white"/>
<path d="M76.8545 192.249H25.5999L18.0769 162.56C17.9461 162.035 17.9283 161.485 18.025 160.952C18.1217 160.418 18.3304 159.916 18.6348 159.484C18.9391 159.052 19.3311 158.702 19.7804 158.461C20.2296 158.219 20.7241 158.093 21.2255 158.092H63.2868C64.7174 158.096 66.1074 158.607 67.2446 159.548C68.3817 160.489 69.2033 161.808 69.584 163.303L76.8545 192.249Z" fill="url(#paint0_linear_972_34768)"/>
<path opacity="0.9" d="M76.8545 192.249H25.5999L18.0769 162.56C17.9461 162.035 17.9283 161.485 18.025 160.952C18.1217 160.418 18.3304 159.916 18.6348 159.484C18.9391 159.052 19.3311 158.702 19.7804 158.461C20.2296 158.219 20.7241 158.093 21.2255 158.092H63.2868C64.7174 158.096 66.1074 158.607 67.2446 159.548C68.3817 160.489 69.2033 161.808 69.584 163.303L76.8545 192.249Z" fill="white"/>
<path d="M15.3731 0.463867H24.879C25.9802 0.463642 27.0644 0.758465 28.0351 1.32211C29.0059 1.88576 29.833 2.70075 30.4431 3.69459L31.8251 5.97434C32.3858 6.88613 33.1452 7.63411 34.036 8.15215C34.9268 8.6702 35.9216 8.94234 36.9325 8.94451H61.4602C62.5152 8.94451 63.527 9.39881 64.273 10.2075C65.0189 11.0161 65.438 12.1129 65.438 13.2565V51.2435C65.438 52.1798 65.0949 53.0778 64.4841 53.7398C63.8734 54.4019 63.045 54.7738 62.1813 54.7738H13.4022C12.5385 54.7738 11.7101 54.4019 11.0994 53.7398C10.4886 53.0778 10.1455 52.1798 10.1455 51.2435V8.94451L10.6382 4.95821C10.7971 3.71715 11.3633 2.57972 12.2328 1.7543C13.1024 0.928886 14.2173 0.470763 15.3731 0.463867Z" fill="url(#paint1_linear_972_34768)"/>
<path opacity="0.9" d="M15.3731 0.463867H24.879C25.9802 0.463642 27.0644 0.758465 28.0351 1.32211C29.0059 1.88576 29.833 2.70075 30.4431 3.69459L31.8251 5.97434C32.3858 6.88613 33.1452 7.63411 34.036 8.15215C34.9268 8.6702 35.9216 8.94234 36.9325 8.94451H61.4602C62.5152 8.94451 63.527 9.39881 64.273 10.2075C65.0189 11.0161 65.438 12.1129 65.438 13.2565V51.2435C65.438 52.1798 65.0949 53.0778 64.4841 53.7398C63.8734 54.4019 63.045 54.7738 62.1813 54.7738H13.4022C12.5385 54.7738 11.7101 54.4019 11.0994 53.7398C10.4886 53.0778 10.1455 52.1798 10.1455 51.2435V8.94451L10.6382 4.95821C10.7971 3.71715 11.3633 2.57972 12.2328 1.7543C13.1024 0.928886 14.2173 0.470763 15.3731 0.463867Z" fill="white"/>
<path d="M55.4996 8.94434H50.5845V45.8501H55.4996V8.94434Z" fill="#524587"/>
<path opacity="0.5" d="M55.4996 8.94434H50.5845V45.8501H55.4996V8.94434Z" fill="white"/>
<path d="M53.1922 10.7031H49.4187V13.7384H53.1922V10.7031Z" fill="#524587"/>
<path d="M53.1922 17.3208H49.4187V20.3561H53.1922V17.3208Z" fill="#524587"/>
<path d="M53.1922 23.9385H49.4187V26.9738H53.1922V23.9385Z" fill="#524587"/>
<path d="M53.1922 30.5566H49.4187V33.592H53.1922V30.5566Z" fill="#524587"/>
<path d="M53.1922 37.1743H49.4187V40.2096H53.1922V37.1743Z" fill="#524587"/>
<path opacity="0.7" d="M53.1922 10.7031H49.4187V13.7384H53.1922V10.7031Z" fill="white"/>
<path opacity="0.7" d="M53.1922 17.3208H49.4187V20.3561H53.1922V17.3208Z" fill="white"/>
<path opacity="0.7" d="M53.1922 23.9385H49.4187V26.9738H53.1922V23.9385Z" fill="white"/>
<path opacity="0.7" d="M53.1922 30.5566H49.4187V33.592H53.1922V30.5566Z" fill="white"/>
<path opacity="0.7" d="M53.1922 37.1743H49.4187V40.2096H53.1922V37.1743Z" fill="white"/>
<path d="M56.8455 13.7383H53.072V16.7736H56.8455V13.7383Z" fill="#524587"/>
<path d="M56.8455 20.3564H53.072V23.3918H56.8455V20.3564Z" fill="#524587"/>
<path d="M56.8455 26.9741H53.072V30.0094H56.8455V26.9741Z" fill="#524587"/>
<path d="M56.8455 33.5918H53.072V36.6271H56.8455V33.5918Z" fill="#524587"/>
<path d="M56.8455 40.2095H53.072V43.2448H56.8455V40.2095Z" fill="#524587"/>
<g opacity="0.8">
<path d="M56.8455 13.7383H53.072V16.7736H56.8455V13.7383Z" fill="white"/>
<path d="M56.8455 20.356H53.072V23.3913H56.8455V20.356Z" fill="white"/>
<path d="M56.8455 26.9736H53.072V30.0089H56.8455V26.9736Z" fill="white"/>
<path d="M56.8455 33.5913H53.072V36.6266H56.8455V33.5913Z" fill="white"/>
<path d="M56.8455 40.2095H53.072V43.2448H56.8455V40.2095Z" fill="white"/>
</g>
<path d="M47.7842 43.2578V55.36H58.5999V43.2578H47.7842ZM56.8574 53.1584H49.6469V45.4464H56.8574V53.1584Z" fill="#524587"/>
<path opacity="0.7" d="M47.7842 43.2578V55.36H58.5999V43.2578H47.7842ZM56.8574 53.1584H49.6469V45.4464H56.8574V53.1584Z" fill="white"/>
<path d="M50.8246 70.2627H0.723633V82.3649L11.8759 94.454H61.9648V82.3518L50.8246 70.2627Z" fill="url(#paint2_linear_972_34768)"/>
<path opacity="0.3" d="M50.8246 70.2627H0.723633V82.3649L11.8759 94.454H61.9648V82.3518L50.8246 70.2627Z" fill="white"/>
<path d="M61.9769 94.4414H11.876V106.544H61.9769V94.4414Z" fill="url(#paint3_linear_972_34768)"/>
<g opacity="0.4" filter="url(#filter0_d_972_34768)">
<path d="M61.9769 94.4414H11.876V106.544H61.9769V94.4414Z" fill="white"/>
</g>
<path d="M61.9769 106.544H11.876V118.646H61.9769V106.544Z" fill="url(#paint4_linear_972_34768)"/>
<path opacity="0.9" d="M61.9769 106.544H11.876V118.646H61.9769V106.544Z" fill="white"/>
<path d="M61.9769 82.3525H11.876V94.4547H61.9769V82.3525Z" fill="url(#paint5_linear_972_34768)"/>
<path d="M30.7675 118.645H42.0159V82.3518L30.8636 70.2627H19.6152L30.7675 82.3518V118.645Z" fill="url(#paint6_linear_972_34768)"/>
<path opacity="0.2" d="M30.7675 118.645H42.0159V82.3518L30.8636 70.2627H19.6152L30.7675 82.3518V118.645Z" fill="#1C1A24"/>
<path d="M27.7751 91.0024V109.996H44.7439V91.0024H27.7751ZM42.0159 106.544H30.7555V94.4416H42.0039L42.0159 106.544Z" fill="#524587"/>
<path opacity="0.5" d="M27.7751 91.0024V109.996H44.7439V91.0024H27.7751ZM42.0159 106.544H30.7555V94.4416H42.0039L42.0159 106.544Z" fill="white"/>
<path d="M0.723633 70.2627V82.3649L11.8759 94.454V82.3518L0.723633 70.2627Z" fill="#524587"/>
<path opacity="0.5" d="M0.723633 70.2627V82.3649L11.8759 94.454V82.3518L0.723633 70.2627Z" fill="white"/>
<path d="M0.723633 82.3525V94.4677L11.8759 106.544V94.4417L0.723633 82.3525Z" fill="#524587"/>
<path opacity="0.6" d="M0.723633 82.3525V94.4677L11.8759 106.544V94.4417L0.723633 82.3525Z" fill="white"/>
<path d="M0.723633 94.4546V106.557L11.8759 118.646V106.544L0.723633 94.4546Z" fill="#524587"/>
<path opacity="0.8" d="M0.723633 94.4546V106.557L11.8759 118.646V106.544L0.723633 94.4546Z" fill="white"/>
<path d="M446.489 125.941H391.857V205.641H446.489V125.941Z" fill="url(#paint7_linear_972_34768)"/>
<path opacity="0.9" d="M446.489 125.941H391.857V205.641H446.489V125.941Z" fill="white"/>
<path opacity="0.7" d="M442.92 129.811H395.427V150.563H442.92V129.811Z" fill="white"/>
<path opacity="0.7" d="M442.92 155.409H395.427V176.161H442.92V155.409Z" fill="white"/>
<path d="M442.92 141L438.485 135.151L433.017 142.381L427.55 133.861L421.745 140.153L416.049 136.675L410.857 146.003L405.678 136.675L399.801 140.284L395.427 137.6V139.815L399.801 142.498L405.053 139.281L410.857 149.754L416.674 139.281L422.046 142.563L427.297 136.858L432.897 145.586L438.485 138.199L442.92 144.049V141Z" fill="url(#paint8_linear_972_34768)"/>
<path opacity="0.5" d="M442.92 141L438.485 135.151L433.017 142.381L427.55 133.861L421.745 140.153L416.049 136.675L410.857 146.003L405.678 136.675L399.801 140.284L395.427 137.6V139.815L399.801 142.498L405.053 139.281L410.857 149.754L416.674 139.281L422.046 142.563L427.297 136.858L432.897 145.586L438.485 138.199L442.92 144.049V141Z" fill="white"/>
<path d="M442.92 161.714L438.449 164.45L432.573 160.841L427.393 170.169L422.214 160.854L416.517 164.319L410.713 158.027L405.245 166.547L399.765 159.317L395.427 165.062V168.11L399.765 162.365L405.353 169.752L410.953 161.024L416.205 166.729L421.577 163.46L427.393 173.92L433.21 163.46L438.449 166.664L442.92 163.942V161.714Z" fill="url(#paint9_linear_972_34768)"/>
<path opacity="0.5" d="M442.92 161.714L438.449 164.45L432.573 160.841L427.393 170.169L422.214 160.854L416.517 164.319L410.713 158.027L405.245 166.547L399.765 159.317L395.427 165.062V168.11L399.765 162.365L405.353 169.752L410.953 161.024L416.205 166.729L421.577 163.46L427.393 173.92L433.21 163.46L438.449 166.664L442.92 163.942V161.714Z" fill="white"/>
<path d="M415.039 181.984H442.247C442.483 181.984 442.709 181.883 442.876 181.702C443.042 181.521 443.136 181.276 443.136 181.02C443.136 180.765 443.042 180.519 442.876 180.339C442.709 180.158 442.483 180.056 442.247 180.056H415.039C414.803 180.056 414.577 180.158 414.41 180.339C414.244 180.519 414.15 180.765 414.15 181.02C414.15 181.276 414.244 181.521 414.41 181.702C414.577 181.883 414.803 181.984 415.039 181.984Z" fill="#524587"/>
<path d="M415.039 187.312H438.678C438.897 187.284 439.1 187.17 439.247 186.991C439.394 186.812 439.475 186.581 439.475 186.342C439.475 186.102 439.394 185.871 439.247 185.692C439.1 185.513 438.897 185.399 438.678 185.371H415.039C414.82 185.399 414.617 185.513 414.47 185.692C414.323 185.871 414.242 186.102 414.242 186.342C414.242 186.581 414.323 186.812 414.47 186.991C414.617 187.17 414.82 187.284 415.039 187.312Z" fill="#524587"/>
<path d="M415.039 192.524H438.678C438.897 192.496 439.1 192.382 439.247 192.203C439.394 192.024 439.475 191.793 439.475 191.553C439.475 191.313 439.394 191.082 439.247 190.903C439.1 190.724 438.897 190.61 438.678 190.583H415.039C414.82 190.61 414.617 190.724 414.47 190.903C414.323 191.082 414.242 191.313 414.242 191.553C414.242 191.793 414.323 192.024 414.47 192.203C414.617 192.382 414.82 192.496 415.039 192.524Z" fill="#524587"/>
<path d="M415.039 197.734H439.867C440.103 197.734 440.329 197.632 440.496 197.451C440.663 197.271 440.757 197.025 440.757 196.77C440.757 196.514 440.663 196.269 440.496 196.088C440.329 195.907 440.103 195.806 439.867 195.806H415.039C414.803 195.806 414.577 195.907 414.41 196.088C414.244 196.269 414.15 196.514 414.15 196.77C414.15 197.025 414.244 197.271 414.41 197.451C414.577 197.632 414.803 197.734 415.039 197.734Z" fill="#524587"/>
<g opacity="0.4">
<path d="M415.039 181.984H442.247C442.483 181.984 442.709 181.882 442.876 181.701C443.042 181.521 443.136 181.275 443.136 181.02C443.136 180.764 443.042 180.519 442.876 180.338C442.709 180.157 442.483 180.056 442.247 180.056H415.039C414.803 180.056 414.577 180.157 414.41 180.338C414.244 180.519 414.15 180.764 414.15 181.02C414.15 181.275 414.244 181.521 414.41 181.701C414.577 181.882 414.803 181.984 415.039 181.984Z" fill="white"/>
<path d="M415.039 187.312H438.678C438.897 187.284 439.1 187.17 439.247 186.991C439.394 186.812 439.475 186.581 439.475 186.342C439.475 186.102 439.394 185.871 439.247 185.692C439.1 185.513 438.897 185.399 438.678 185.371H415.039C414.82 185.399 414.617 185.513 414.47 185.692C414.323 185.871 414.242 186.102 414.242 186.342C414.242 186.581 414.323 186.812 414.47 186.991C414.617 187.17 414.82 187.284 415.039 187.312Z" fill="white"/>
<path d="M415.039 192.523H438.678C438.897 192.495 439.1 192.381 439.247 192.202C439.394 192.023 439.475 191.792 439.475 191.552C439.475 191.312 439.394 191.081 439.247 190.902C439.1 190.723 438.897 190.609 438.678 190.582H415.039C414.82 190.609 414.617 190.723 414.47 190.902C414.323 191.081 414.242 191.312 414.242 191.552C414.242 191.792 414.323 192.023 414.47 192.202C414.617 192.381 414.82 192.495 415.039 192.523Z" fill="white"/>
<path d="M415.039 197.734H439.867C440.103 197.734 440.329 197.632 440.496 197.451C440.663 197.271 440.757 197.025 440.757 196.77C440.757 196.514 440.663 196.269 440.496 196.088C440.329 195.907 440.103 195.806 439.867 195.806H415.039C414.803 195.806 414.577 195.907 414.41 196.088C414.244 196.269 414.15 196.514 414.15 196.77C414.15 197.025 414.244 197.271 414.41 197.451C414.577 197.632 414.803 197.734 415.039 197.734Z" fill="white"/>
</g>
<path d="M443.689 3.34277H394.021V75.7995H443.689V3.34277Z" fill="url(#paint10_linear_972_34768)"/>
<path opacity="0.9" d="M443.689 3.34277H394.021V75.7995H443.689V3.34277Z" fill="white"/>
<path opacity="0.7" d="M440.444 6.86084H397.265V25.7241H440.444V6.86084Z" fill="white"/>
<path d="M415.231 31.3905H439.975C440.174 31.3643 440.356 31.2604 440.488 31.0984C440.621 30.9364 440.694 30.7275 440.694 30.5111C440.694 30.2948 440.621 30.0859 440.488 29.9239C440.356 29.7619 440.174 29.658 439.975 29.6318H415.231C415.033 29.658 414.851 29.7619 414.719 29.9239C414.586 30.0859 414.513 30.2948 414.513 30.5111C414.513 30.7275 414.586 30.9364 414.719 31.0984C414.851 31.2604 415.033 31.3643 415.231 31.3905Z" fill="#524587"/>
<path d="M415.232 36.1976H436.731C436.929 36.1714 437.112 36.0675 437.244 35.9055C437.376 35.7436 437.449 35.5347 437.449 35.3183C437.449 35.1019 437.376 34.893 437.244 34.731C437.112 34.5691 436.929 34.4652 436.731 34.439H415.232C415.034 34.4652 414.851 34.5691 414.719 34.731C414.586 34.893 414.513 35.1019 414.513 35.3183C414.513 35.5347 414.586 35.7436 414.719 35.9055C414.851 36.0675 415.034 36.1714 415.232 36.1976Z" fill="#524587"/>
<path d="M415.231 40.9652H436.731C436.929 40.939 437.111 40.8351 437.244 40.6731C437.376 40.5111 437.449 40.3022 437.449 40.0859C437.449 39.8695 437.376 39.6606 437.244 39.4986C437.111 39.3366 436.929 39.2327 436.731 39.2065H415.231C415.033 39.2327 414.851 39.3366 414.719 39.4986C414.586 39.6606 414.513 39.8695 414.513 40.0859C414.513 40.3022 414.586 40.5111 414.719 40.6731C414.851 40.8351 415.033 40.939 415.231 40.9652Z" fill="#524587"/>
<path d="M415.232 45.7591H437.813C438.011 45.7329 438.193 45.6291 438.325 45.4671C438.458 45.3051 438.531 45.0962 438.531 44.8798C438.531 44.6634 438.458 44.4545 438.325 44.2926C438.193 44.1306 438.011 44.0267 437.813 44.0005H415.232C415.034 44.0267 414.851 44.1306 414.719 44.2926C414.586 44.4545 414.513 44.6634 414.513 44.8798C414.513 45.0962 414.586 45.3051 414.719 45.4671C414.851 45.6291 415.034 45.7329 415.232 45.7591Z" fill="#524587"/>
<path d="M415.232 50.5267H433.486C433.684 50.5005 433.867 50.3966 433.999 50.2346C434.131 50.0727 434.205 49.8638 434.205 49.6474C434.205 49.431 434.131 49.2221 433.999 49.0602C433.867 48.8982 433.684 48.7943 433.486 48.7681H415.232C415.034 48.7943 414.851 48.8982 414.719 49.0602C414.586 49.2221 414.513 49.431 414.513 49.6474C414.513 49.8638 414.586 50.0727 414.719 50.2346C414.851 50.3966 415.034 50.5005 415.232 50.5267Z" fill="#524587"/>
<path d="M415.232 55.3344H439.976C440.174 55.3082 440.356 55.2043 440.489 55.0423C440.621 54.8803 440.694 54.6714 440.694 54.455C440.694 54.2386 440.621 54.0298 440.489 53.8678C440.356 53.7058 440.174 53.6019 439.976 53.5757H415.232C415.034 53.6019 414.851 53.7058 414.719 53.8678C414.586 54.0298 414.513 54.2386 414.513 54.455C414.513 54.6714 414.586 54.8803 414.719 55.0423C414.851 55.2043 415.034 55.3082 415.232 55.3344Z" fill="#524587"/>
<path d="M415.232 60.1156H436.731C436.929 60.0894 437.112 59.9855 437.244 59.8235C437.376 59.6615 437.449 59.4526 437.449 59.2363C437.449 59.0199 437.376 58.811 437.244 58.649C437.112 58.487 436.929 58.3831 436.731 58.3569H415.232C415.034 58.3831 414.851 58.487 414.719 58.649C414.586 58.811 414.513 59.0199 414.513 59.2363C414.513 59.4526 414.586 59.6615 414.719 59.8235C414.851 59.9855 415.034 60.0894 415.232 60.1156Z" fill="#524587"/>
<path d="M415.232 64.8568H436.731C436.929 64.8306 437.112 64.7267 437.244 64.5647C437.376 64.4027 437.449 64.1938 437.449 63.9775C437.449 63.7611 437.376 63.5522 437.244 63.3902C437.112 63.2282 436.929 63.1243 436.731 63.0981H415.232C415.034 63.1243 414.851 63.2282 414.719 63.3902C414.586 63.5522 414.513 63.7611 414.513 63.9775C414.513 64.1938 414.586 64.4027 414.719 64.5647C414.851 64.7267 415.034 64.8306 415.232 64.8568Z" fill="#524587"/>
<path d="M415.232 69.6903H437.813C438.011 69.6641 438.193 69.5602 438.325 69.3982C438.458 69.2362 438.531 69.0273 438.531 68.811C438.531 68.5946 438.458 68.3857 438.325 68.2237C438.193 68.0617 438.011 67.9578 437.813 67.9316H415.232C415.034 67.9578 414.851 68.0617 414.719 68.2237C414.586 68.3857 414.513 68.5946 414.513 68.811C414.513 69.0273 414.586 69.2362 414.719 69.3982C414.851 69.5602 415.034 69.6641 415.232 69.6903Z" fill="#524587"/>
<g opacity="0.4">
<path d="M415.231 31.39H439.975C440.174 31.3638 440.356 31.2599 440.488 31.0979C440.621 30.9359 440.694 30.727 440.694 30.5107C440.694 30.2943 440.621 30.0854 440.488 29.9234C440.356 29.7614 440.174 29.6575 439.975 29.6313H415.231C415.033 29.6575 414.851 29.7614 414.719 29.9234C414.586 30.0854 414.513 30.2943 414.513 30.5107C414.513 30.727 414.586 30.9359 414.719 31.0979C414.851 31.2599 415.033 31.3638 415.231 31.39Z" fill="white"/>
</g>
<g opacity="0.4">
<path d="M415.231 36.1971H436.731C436.929 36.171 437.111 36.0671 437.244 35.9051C437.376 35.7431 437.449 35.5342 437.449 35.3178C437.449 35.1014 437.376 34.8926 437.244 34.7306C437.111 34.5686 436.929 34.4647 436.731 34.4385H415.231C415.033 34.4647 414.851 34.5686 414.719 34.7306C414.586 34.8926 414.513 35.1014 414.513 35.3178C414.513 35.5342 414.586 35.7431 414.719 35.9051C414.851 36.0671 415.033 36.171 415.231 36.1971Z" fill="white"/>
</g>
<g opacity="0.4">
<path d="M415.232 40.9652H436.731C436.929 40.939 437.112 40.8351 437.244 40.6731C437.376 40.5111 437.449 40.3022 437.449 40.0859C437.449 39.8695 437.376 39.6606 437.244 39.4986C437.112 39.3366 436.929 39.2327 436.731 39.2065H415.232C415.034 39.2327 414.851 39.3366 414.719 39.4986C414.586 39.6606 414.513 39.8695 414.513 40.0859C414.513 40.3022 414.586 40.5111 414.719 40.6731C414.851 40.8351 415.034 40.939 415.232 40.9652Z" fill="white"/>
</g>
<g opacity="0.4">
<path d="M415.232 45.7582H437.813C438.011 45.732 438.193 45.6281 438.325 45.4661C438.458 45.3041 438.531 45.0952 438.531 44.8788C438.531 44.6625 438.458 44.4536 438.325 44.2916C438.193 44.1296 438.011 44.0257 437.813 43.9995H415.232C415.034 44.0257 414.851 44.1296 414.719 44.2916C414.586 44.4536 414.513 44.6625 414.513 44.8788C414.513 45.0952 414.586 45.3041 414.719 45.4661C414.851 45.6281 415.034 45.732 415.232 45.7582Z" fill="white"/>
</g>
<g opacity="0.4">
<path d="M415.232 50.5267H433.486C433.684 50.5005 433.867 50.3966 433.999 50.2346C434.131 50.0727 434.205 49.8638 434.205 49.6474C434.205 49.431 434.131 49.2221 433.999 49.0602C433.867 48.8982 433.684 48.7943 433.486 48.7681H415.232C415.034 48.7943 414.851 48.8982 414.719 49.0602C414.586 49.2221 414.513 49.431 414.513 49.6474C414.513 49.8638 414.586 50.0727 414.719 50.2346C414.851 50.3966 415.034 50.5005 415.232 50.5267Z" fill="white"/>
</g>
<g opacity="0.4">
<path d="M415.231 55.3344H439.975C440.174 55.3082 440.356 55.2043 440.488 55.0423C440.621 54.8803 440.694 54.6714 440.694 54.455C440.694 54.2386 440.621 54.0298 440.488 53.8678C440.356 53.7058 440.174 53.6019 439.975 53.5757H415.231C415.033 53.6019 414.851 53.7058 414.719 53.8678C414.586 54.0298 414.513 54.2386 414.513 54.455C414.513 54.6714 414.586 54.8803 414.719 55.0423C414.851 55.2043 415.033 55.3082 415.231 55.3344Z" fill="white"/>
</g>
<g opacity="0.4">
<path d="M415.232 60.1156H436.731C436.929 60.0894 437.112 59.9855 437.244 59.8235C437.376 59.6615 437.449 59.4526 437.449 59.2363C437.449 59.0199 437.376 58.811 437.244 58.649C437.112 58.487 436.929 58.3831 436.731 58.3569H415.232C415.034 58.3831 414.851 58.487 414.719 58.649C414.586 58.811 414.513 59.0199 414.513 59.2363C414.513 59.4526 414.586 59.6615 414.719 59.8235C414.851 59.9855 415.034 60.0894 415.232 60.1156Z" fill="white"/>
</g>
<g opacity="0.4">
<path d="M415.231 64.8563H436.731C436.929 64.8301 437.111 64.7262 437.244 64.5642C437.376 64.4022 437.449 64.1934 437.449 63.977C437.449 63.7606 437.376 63.5517 437.244 63.3897C437.111 63.2277 436.929 63.1238 436.731 63.0977H415.231C415.033 63.1238 414.851 63.2277 414.719 63.3897C414.586 63.5517 414.513 63.7606 414.513 63.977C414.513 64.1934 414.586 64.4022 414.719 64.5642C414.851 64.7262 415.033 64.8301 415.231 64.8563Z" fill="white"/>
</g>
<g opacity="0.4">
<path d="M415.231 69.6893H437.812C438.01 69.6631 438.193 69.5592 438.325 69.3972C438.458 69.2353 438.531 69.0264 438.531 68.81C438.531 68.5936 438.458 68.3847 438.325 68.2227C438.193 68.0608 438.01 67.9569 437.812 67.9307H415.231C415.033 67.9569 414.851 68.0608 414.719 68.2227C414.586 68.3847 414.513 68.5936 414.513 68.81C414.513 69.0264 414.586 69.2353 414.719 69.3972C414.851 69.5592 415.033 69.6631 415.231 69.6893Z" fill="white"/>
</g>
<path d="M409.439 30.5176H397.265V43.714H409.439V30.5176Z" fill="url(#paint11_linear_972_34768)"/>
<path opacity="0.3" d="M409.439 30.5176H397.265V43.714H409.439V30.5176Z" fill="white"/>
<path d="M410.617 16.8784H407.324V24.0173H410.617V16.8784Z" fill="url(#paint12_linear_972_34768)"/>
<path d="M417.214 13.2959H413.922V24.0042H417.214V13.2959Z" fill="url(#paint13_linear_972_34768)"/>
<path d="M423.8 15.0933H420.507V24.0168H423.8V15.0933Z" fill="url(#paint14_linear_972_34768)"/>
<path d="M430.386 9.72656H427.093V24.0173H430.386V9.72656Z" fill="url(#paint15_linear_972_34768)"/>
<path d="M419.366 63.542H369.697V135.999H419.366V63.542Z" fill="url(#paint16_linear_972_34768)"/>
<path opacity="0.9" d="M419.366 63.542H369.697V135.999H419.366V63.542Z" fill="white"/>
<path d="M390.908 71.3715H415.652C415.85 71.3453 416.033 71.2414 416.165 71.0794C416.297 70.9174 416.371 70.7085 416.371 70.4921C416.371 70.2758 416.297 70.0669 416.165 69.9049C416.033 69.7429 415.85 69.639 415.652 69.6128H390.908C390.71 69.639 390.528 69.7429 390.395 69.9049C390.263 70.0669 390.19 70.2758 390.19 70.4921C390.19 70.7085 390.263 70.9174 390.395 71.0794C390.528 71.2414 390.71 71.3453 390.908 71.3715Z" fill="#524587"/>
<path d="M390.908 76.1H412.408C412.606 76.0738 412.788 75.9699 412.92 75.8079C413.053 75.6459 413.126 75.437 413.126 75.2206C413.126 75.0043 413.053 74.7954 412.92 74.6334C412.788 74.4714 412.606 74.3675 412.408 74.3413H390.908C390.71 74.3675 390.528 74.4714 390.395 74.6334C390.263 74.7954 390.19 75.0043 390.19 75.2206C390.19 75.437 390.263 75.6459 390.395 75.8079C390.528 75.9699 390.71 76.0738 390.908 76.1Z" fill="#524587"/>
<path d="M390.908 80.8807H412.408C412.606 80.8545 412.788 80.7506 412.92 80.5887C413.053 80.4267 413.126 80.2178 413.126 80.0014C413.126 79.785 413.053 79.5761 412.92 79.4142C412.788 79.2522 412.606 79.1483 412.408 79.1221H390.908C390.71 79.1483 390.528 79.2522 390.395 79.4142C390.263 79.5761 390.19 79.785 390.19 80.0014C390.19 80.2178 390.263 80.4267 390.395 80.5887C390.528 80.7506 390.71 80.8545 390.908 80.8807Z" fill="#524587"/>
<path d="M390.908 85.701H413.489C413.687 85.6749 413.87 85.571 414.002 85.409C414.134 85.247 414.207 85.0381 414.207 84.8217C414.207 84.6053 414.134 84.3965 414.002 84.2345C413.87 84.0725 413.687 83.9686 413.489 83.9424H390.908C390.71 83.9686 390.528 84.0725 390.395 84.2345C390.263 84.3965 390.19 84.6053 390.19 84.8217C390.19 85.0381 390.263 85.247 390.395 85.409C390.528 85.571 390.71 85.6749 390.908 85.701Z" fill="#524587"/>
<path d="M390.908 90.4559H409.163C409.361 90.4297 409.543 90.3258 409.676 90.1638C409.808 90.0019 409.881 89.793 409.881 89.5766C409.881 89.3602 409.808 89.1513 409.676 88.9893C409.543 88.8273 409.361 88.7235 409.163 88.6973H390.908C390.71 88.7235 390.528 88.8273 390.395 88.9893C390.263 89.1513 390.19 89.3602 390.19 89.5766C390.19 89.793 390.263 90.0019 390.395 90.1638C390.528 90.3258 390.71 90.4297 390.908 90.4559Z" fill="#524587"/>
<path d="M390.908 95.2494H415.652C415.85 95.2232 416.033 95.1193 416.165 94.9573C416.297 94.7953 416.371 94.5864 416.371 94.3701C416.371 94.1537 416.297 93.9448 416.165 93.7828C416.033 93.6208 415.85 93.5169 415.652 93.4907H390.908C390.71 93.5169 390.528 93.6208 390.395 93.7828C390.263 93.9448 390.19 94.1537 390.19 94.3701C390.19 94.5864 390.263 94.7953 390.395 94.9573C390.528 95.1193 390.71 95.2232 390.908 95.2494Z" fill="#524587"/>
<path d="M390.908 100.03H412.408C412.606 100.004 412.788 99.9001 412.92 99.7381C413.053 99.5761 413.126 99.3672 413.126 99.1508C413.126 98.9344 413.053 98.7256 412.92 98.5636C412.788 98.4016 412.606 98.2977 412.408 98.2715H390.908C390.71 98.2977 390.528 98.4016 390.395 98.5636C390.263 98.7256 390.19 98.9344 390.19 99.1508C390.19 99.3672 390.263 99.5761 390.395 99.7381C390.528 99.9001 390.71 100.004 390.908 100.03Z" fill="#524587"/>
<path d="M390.908 104.825H412.408C412.606 104.798 412.788 104.694 412.92 104.533C413.053 104.371 413.126 104.162 413.126 103.945C413.126 103.729 413.053 103.52 412.92 103.358C412.788 103.196 412.606 103.092 412.408 103.066H390.908C390.71 103.092 390.528 103.196 390.395 103.358C390.263 103.52 390.19 103.729 390.19 103.945C390.19 104.162 390.263 104.371 390.395 104.533C390.528 104.694 390.71 104.798 390.908 104.825Z" fill="#524587"/>
<path d="M390.908 114.36H409.163C409.361 114.334 409.543 114.23 409.676 114.068C409.808 113.906 409.881 113.697 409.881 113.481C409.881 113.265 409.808 113.056 409.676 112.894C409.543 112.732 409.361 112.628 409.163 112.602H390.908C390.71 112.628 390.528 112.732 390.395 112.894C390.263 113.056 390.19 113.265 390.19 113.481C390.19 113.697 390.263 113.906 390.395 114.068C390.528 114.23 390.71 114.334 390.908 114.36Z" fill="#524587"/>
<path d="M390.908 119.193H415.652C415.85 119.167 416.033 119.063 416.165 118.901C416.297 118.739 416.371 118.53 416.371 118.313C416.371 118.097 416.297 117.888 416.165 117.726C416.033 117.564 415.85 117.46 415.652 117.434H390.908C390.71 117.46 390.528 117.564 390.395 117.726C390.263 117.888 390.19 118.097 390.19 118.313C390.19 118.53 390.263 118.739 390.395 118.901C390.528 119.063 390.71 119.167 390.908 119.193Z" fill="#524587"/>
<path d="M390.908 123.974H412.408C412.606 123.948 412.788 123.844 412.92 123.682C413.053 123.52 413.126 123.312 413.126 123.095C413.126 122.879 413.053 122.67 412.92 122.508C412.788 122.346 412.606 122.242 412.408 122.216H390.908C390.71 122.242 390.528 122.346 390.395 122.508C390.263 122.67 390.19 122.879 390.19 123.095C390.19 123.312 390.263 123.52 390.395 123.682C390.528 123.844 390.71 123.948 390.908 123.974Z" fill="#524587"/>
<path d="M390.908 128.768H412.408C412.606 128.742 412.788 128.638 412.92 128.476C413.053 128.314 413.126 128.105 413.126 127.889C413.126 127.673 413.053 127.464 412.92 127.302C412.788 127.14 412.606 127.036 412.408 127.01H390.908C390.71 127.036 390.528 127.14 390.395 127.302C390.263 127.464 390.19 127.673 390.19 127.889C390.19 128.105 390.263 128.314 390.395 128.476C390.528 128.638 390.71 128.742 390.908 128.768Z" fill="#524587"/>
<path d="M390.908 109.606H413.489C413.687 109.58 413.87 109.476 414.002 109.314C414.134 109.152 414.207 108.943 414.207 108.727C414.207 108.51 414.134 108.301 414.002 108.139C413.87 107.977 413.687 107.873 413.489 107.847H390.908C390.71 107.873 390.528 107.977 390.395 108.139C390.263 108.301 390.19 108.51 390.19 108.727C390.19 108.943 390.263 109.152 390.395 109.314C390.528 109.476 390.71 109.58 390.908 109.606Z" fill="#524587"/>
<g opacity="0.4">
<path d="M390.908 71.3695H415.652C415.85 71.3433 416.033 71.2394 416.165 71.0774C416.297 70.9154 416.371 70.7065 416.371 70.4902C416.371 70.2738 416.297 70.0649 416.165 69.9029C416.033 69.7409 415.85 69.637 415.652 69.6108H390.908C390.71 69.637 390.528 69.7409 390.395 69.9029C390.263 70.0649 390.19 70.2738 390.19 70.4902C390.19 70.7065 390.263 70.9154 390.395 71.0774C390.528 71.2394 390.71 71.3433 390.908 71.3695Z" fill="white"/>
<path d="M390.908 76.0985H412.408C412.606 76.0723 412.788 75.9684 412.92 75.8064C413.053 75.6444 413.126 75.4355 413.126 75.2192C413.126 75.0028 413.053 74.7939 412.92 74.6319C412.788 74.4699 412.606 74.366 412.408 74.3398H390.908C390.71 74.366 390.528 74.4699 390.395 74.6319C390.263 74.7939 390.19 75.0028 390.19 75.2192C390.19 75.4355 390.263 75.6444 390.395 75.8064C390.528 75.9684 390.71 76.0723 390.908 76.0985Z" fill="white"/>
<path d="M390.908 80.8807H412.408C412.606 80.8545 412.788 80.7506 412.92 80.5887C413.053 80.4267 413.126 80.2178 413.126 80.0014C413.126 79.785 413.053 79.5761 412.92 79.4142C412.788 79.2522 412.606 79.1483 412.408 79.1221H390.908C390.71 79.1483 390.528 79.2522 390.395 79.4142C390.263 79.5761 390.19 79.785 390.19 80.0014C390.19 80.2178 390.263 80.4267 390.395 80.5887C390.528 80.7506 390.71 80.8545 390.908 80.8807Z" fill="white"/>
<path d="M390.908 85.6991H413.489C413.687 85.6729 413.87 85.569 414.002 85.407C414.134 85.245 414.207 85.0361 414.207 84.8198C414.207 84.6034 414.134 84.3945 414.002 84.2325C413.87 84.0705 413.687 83.9666 413.489 83.9404H390.908C390.71 83.9666 390.528 84.0705 390.395 84.2325C390.263 84.3945 390.19 84.6034 390.19 84.8198C390.19 85.0361 390.263 85.245 390.395 85.407C390.528 85.569 390.71 85.6729 390.908 85.6991Z" fill="white"/>
<path d="M390.908 90.4544H409.163C409.361 90.4283 409.543 90.3244 409.676 90.1624C409.808 90.0004 409.881 89.7915 409.881 89.5751C409.881 89.3588 409.808 89.1499 409.676 88.9879C409.543 88.8259 409.361 88.722 409.163 88.6958H390.908C390.71 88.722 390.528 88.8259 390.395 88.9879C390.263 89.1499 390.19 89.3588 390.19 89.5751C390.19 89.7915 390.263 90.0004 390.395 90.1624C390.528 90.3244 390.71 90.4283 390.908 90.4544Z" fill="white"/>
<path d="M390.908 95.2484H415.652C415.85 95.2222 416.033 95.1183 416.165 94.9563C416.297 94.7943 416.371 94.5855 416.371 94.3691C416.371 94.1527 416.297 93.9438 416.165 93.7818C416.033 93.6198 415.85 93.5159 415.652 93.4897H390.908C390.71 93.5159 390.528 93.6198 390.395 93.7818C390.263 93.9438 390.19 94.1527 390.19 94.3691C390.19 94.5855 390.263 94.7943 390.395 94.9563C390.528 95.1183 390.71 95.2222 390.908 95.2484Z" fill="white"/>
<path d="M390.908 100.03H412.408C412.606 100.003 412.788 99.8996 412.92 99.7376C413.053 99.5756 413.126 99.3667 413.126 99.1503C413.126 98.934 413.053 98.7251 412.92 98.5631C412.788 98.4011 412.606 98.2972 412.408 98.271H390.908C390.71 98.2972 390.528 98.4011 390.395 98.5631C390.263 98.7251 390.19 98.934 390.19 99.1503C390.19 99.3667 390.263 99.5756 390.395 99.7376C390.528 99.8996 390.71 100.003 390.908 100.03Z" fill="white"/>
<path d="M390.908 104.823H412.408C412.606 104.797 412.788 104.693 412.92 104.531C413.053 104.369 413.126 104.16 413.126 103.944C413.126 103.727 413.053 103.519 412.92 103.357C412.788 103.195 412.606 103.091 412.408 103.064H390.908C390.71 103.091 390.528 103.195 390.395 103.357C390.263 103.519 390.19 103.727 390.19 103.944C390.19 104.16 390.263 104.369 390.395 104.531C390.528 104.693 390.71 104.797 390.908 104.823Z" fill="white"/>
<path d="M390.908 114.359H409.163C409.361 114.333 409.543 114.229 409.676 114.067C409.808 113.905 409.881 113.696 409.881 113.48C409.881 113.264 409.808 113.055 409.676 112.893C409.543 112.731 409.361 112.627 409.163 112.601H390.908C390.71 112.627 390.528 112.731 390.395 112.893C390.263 113.055 390.19 113.264 390.19 113.48C390.19 113.696 390.263 113.905 390.395 114.067C390.528 114.229 390.71 114.333 390.908 114.359Z" fill="white"/>
<path d="M390.908 119.192H415.652C415.85 119.166 416.033 119.062 416.165 118.9C416.297 118.738 416.371 118.529 416.371 118.313C416.371 118.097 416.297 117.888 416.165 117.726C416.033 117.564 415.85 117.46 415.652 117.434H390.908C390.71 117.46 390.528 117.564 390.395 117.726C390.263 117.888 390.19 118.097 390.19 118.313C390.19 118.529 390.263 118.738 390.395 118.9C390.528 119.062 390.71 119.166 390.908 119.192Z" fill="white"/>
<path d="M390.908 123.973H412.408C412.606 123.946 412.788 123.842 412.92 123.68C413.053 123.518 413.126 123.31 413.126 123.093C413.126 122.877 413.053 122.668 412.92 122.506C412.788 122.344 412.606 122.24 412.408 122.214H390.908C390.71 122.24 390.528 122.344 390.395 122.506C390.263 122.668 390.19 122.877 390.19 123.093C390.19 123.31 390.263 123.518 390.395 123.68C390.528 123.842 390.71 123.946 390.908 123.973Z" fill="white"/>
<path d="M390.908 128.767H412.408C412.606 128.741 412.788 128.637 412.92 128.475C413.053 128.313 413.126 128.104 413.126 127.888C413.126 127.672 413.053 127.463 412.92 127.301C412.788 127.139 412.606 127.035 412.408 127.009H390.908C390.71 127.035 390.528 127.139 390.395 127.301C390.263 127.463 390.19 127.672 390.19 127.888C390.19 128.104 390.263 128.313 390.395 128.475C390.528 128.637 390.71 128.741 390.908 128.767Z" fill="white"/>
<path d="M390.908 109.604H413.489C413.687 109.578 413.87 109.474 414.002 109.312C414.134 109.15 414.207 108.941 414.207 108.725C414.207 108.509 414.134 108.3 414.002 108.138C413.87 107.976 413.687 107.872 413.489 107.846H390.908C390.71 107.872 390.528 107.976 390.395 108.138C390.263 108.3 390.19 108.509 390.19 108.725C390.19 108.941 390.263 109.15 390.395 109.312C390.528 109.474 390.71 109.578 390.908 109.604Z" fill="white"/>
</g>
<path d="M377.328 95.5624L375.37 93.439C374.673 94.1873 374.121 95.0783 373.746 96.0601C373.37 97.042 373.179 98.095 373.182 99.1579H375.958C375.956 98.4902 376.076 97.8287 376.312 97.2115C376.547 96.5944 376.892 96.0339 377.328 95.5624Z" fill="url(#paint17_linear_972_34768)"/>
<path d="M380.633 104.239C379.392 104.235 378.203 103.699 377.327 102.746C376.451 101.794 375.958 100.503 375.958 99.1582H373.182C373.182 101.3 373.967 103.355 375.365 104.869C376.762 106.384 378.657 107.235 380.633 107.235V104.239Z" fill="url(#paint18_linear_972_34768)"/>
<path opacity="0.3" d="M380.633 104.239C379.392 104.235 378.203 103.699 377.327 102.746C376.451 101.794 375.958 100.503 375.958 99.1582H373.182C373.182 101.3 373.967 103.355 375.365 104.869C376.762 106.384 378.657 107.235 380.633 107.235V104.239Z" fill="white"/>
<path d="M377.328 95.5622C377.761 95.0893 378.276 94.7144 378.843 94.4594C379.411 94.2044 380.019 94.0745 380.633 94.0771V91.0679C379.655 91.0678 378.687 91.2773 377.783 91.6842C376.88 92.091 376.06 92.6873 375.37 93.4388L377.328 95.5622Z" fill="url(#paint19_linear_972_34768)"/>
<path opacity="0.5" d="M377.328 95.5622C377.761 95.0893 378.276 94.7144 378.843 94.4594C379.411 94.2044 380.019 94.0745 380.633 94.0771V91.0679C379.655 91.0678 378.687 91.2773 377.783 91.6842C376.88 92.091 376.06 92.6873 375.37 93.4388L377.328 95.5622Z" fill="#1C1A24"/>
<path d="M385.272 99.1579C385.272 100.505 384.778 101.798 383.899 102.75C383.02 103.703 381.828 104.238 380.585 104.238V107.235C381.59 107.278 382.592 107.102 383.532 106.715C384.472 106.329 385.33 105.74 386.055 104.985C386.78 104.23 387.356 103.325 387.75 102.322C388.144 101.32 388.347 100.241 388.347 99.1514C388.347 98.0617 388.144 96.9832 387.75 95.9807C387.356 94.9782 386.78 94.0723 386.055 93.3174C385.33 92.5625 384.472 91.9741 383.532 91.5875C382.592 91.201 381.59 91.0243 380.585 91.068V94.0773C381.201 94.0756 381.811 94.2058 382.381 94.4605C382.95 94.7153 383.467 95.0894 383.903 95.5615C384.338 96.0336 384.684 96.5944 384.918 97.2116C385.153 97.8288 385.274 98.4902 385.272 99.1579Z" fill="url(#paint20_linear_972_34768)"/>
<path opacity="0.2" d="M383.95 102.741L385.909 104.877C386.603 104.127 387.154 103.236 387.53 102.255C387.905 101.273 388.098 100.221 388.096 99.1582H385.272C385.281 99.8204 385.168 100.478 384.941 101.093C384.715 101.708 384.378 102.268 383.95 102.741Z" fill="#1C1A24"/>
<path d="M377.328 80.2944L375.37 82.4178C376.058 83.1716 376.878 83.7695 377.782 84.1765C378.685 84.5836 379.655 84.7917 380.633 84.7888V81.7925C380.018 81.7928 379.409 81.6604 378.842 81.4032C378.275 81.146 377.76 80.7691 377.328 80.2944Z" fill="url(#paint21_linear_972_34768)"/>
<path d="M385.272 76.7119C385.272 78.0594 384.778 79.3516 383.899 80.3044C383.02 81.2572 381.828 81.7925 380.585 81.7925V84.7887C382.562 84.7887 384.459 83.9382 385.858 82.4239C387.257 80.9095 388.045 78.8552 388.048 76.7119H385.272Z" fill="url(#paint22_linear_972_34768)"/>
<path opacity="0.3" d="M385.272 76.7119C385.272 78.0594 384.778 79.3516 383.899 80.3044C383.02 81.2572 381.828 81.7925 380.585 81.7925V84.7887C382.562 84.7887 384.459 83.9382 385.858 82.4239C387.257 80.9095 388.045 78.8552 388.048 76.7119H385.272Z" fill="white"/>
<path d="M377.328 80.2944C376.892 79.8257 376.546 79.2676 376.311 78.6525C376.076 78.0374 375.956 77.3777 375.958 76.7119H373.182C373.18 77.7727 373.372 78.8234 373.747 79.803C374.123 80.7826 374.674 81.6714 375.37 82.4178L377.328 80.2944Z" fill="url(#paint23_linear_972_34768)"/>
<path opacity="0.5" d="M377.328 80.2944C376.892 79.8257 376.546 79.2676 376.311 78.6525C376.076 78.0374 375.956 77.3777 375.958 76.7119H373.182C373.18 77.7727 373.372 78.8234 373.747 79.803C374.123 80.7826 374.674 81.6714 375.37 82.4178L377.328 80.2944Z" fill="#1C1A24"/>
<path d="M380.633 71.6312C381.249 71.6295 381.859 71.7597 382.429 72.0144C382.998 72.2691 383.515 72.6433 383.951 73.1154C384.386 73.5875 384.731 74.1483 384.966 74.7655C385.201 75.3827 385.322 76.0441 385.32 76.7118H388.096C388.136 75.6229 387.973 74.5365 387.617 73.5177C387.26 72.4988 386.717 71.5686 386.021 70.7827C385.325 69.9969 384.489 69.3717 383.564 68.9446C382.639 68.5175 381.644 68.2974 380.639 68.2974C379.634 68.2974 378.639 68.5175 377.714 68.9446C376.789 69.3717 375.954 69.9969 375.257 70.7827C374.561 71.5686 374.018 72.4988 373.662 73.5177C373.305 74.5365 373.142 75.6229 373.182 76.7118H375.958C375.957 76.0452 376.077 75.3848 376.311 74.7685C376.545 74.1522 376.889 73.592 377.323 73.1201C377.758 72.6481 378.273 72.2736 378.841 72.0182C379.409 71.7627 380.018 71.6312 380.633 71.6312Z" fill="url(#paint24_linear_972_34768)"/>
<path opacity="0.2" d="M383.95 73.1165L385.909 70.9931C385.219 70.2383 384.397 69.6399 383.491 69.2329C382.585 68.8258 381.614 68.6182 380.633 68.6221V71.6314C381.249 71.6277 381.86 71.7572 382.43 72.0122C382.999 72.2671 383.516 72.6425 383.95 73.1165Z" fill="#1C1A24"/>
<path d="M383.95 118.008L385.909 115.885C386.605 116.633 387.157 117.524 387.533 118.506C387.908 119.488 388.1 120.541 388.096 121.604H385.272C385.28 120.94 385.168 120.28 384.941 119.663C384.714 119.046 384.377 118.484 383.95 118.008Z" fill="url(#paint25_linear_972_34768)"/>
<path d="M380.633 126.684C381.876 126.684 383.068 126.149 383.947 125.196C384.826 124.243 385.32 122.951 385.32 121.604H388.096C388.096 123.749 387.31 125.807 385.91 127.324C384.511 128.841 382.613 129.693 380.633 129.693V126.684Z" fill="url(#paint26_linear_972_34768)"/>
<path opacity="0.3" d="M380.633 126.684C381.876 126.684 383.068 126.149 383.947 125.196C384.826 124.243 385.32 122.951 385.32 121.604H388.096C388.096 123.749 387.31 125.807 385.91 127.324C384.511 128.841 382.613 129.693 380.633 129.693V126.684Z" fill="white"/>
<path d="M383.95 118.008C383.514 117.536 382.997 117.163 382.428 116.908C381.859 116.653 381.249 116.522 380.633 116.523V113.514C381.613 113.513 382.584 113.722 383.489 114.128C384.395 114.535 385.217 115.132 385.909 115.885L383.95 118.008Z" fill="url(#paint27_linear_972_34768)"/>
<path opacity="0.5" d="M383.95 118.008C383.514 117.536 382.997 117.163 382.428 116.908C381.859 116.653 381.249 116.522 380.633 116.523V113.514C381.613 113.513 382.584 113.722 383.489 114.128C384.395 114.535 385.217 115.132 385.909 115.885L383.95 118.008Z" fill="#1C1A24"/>
<path d="M375.958 121.603C375.958 122.949 376.451 124.239 377.327 125.191C378.203 126.144 379.392 126.681 380.633 126.684V129.693C378.654 129.693 376.756 128.841 375.356 127.324C373.957 125.807 373.17 123.749 373.17 121.603C373.17 119.458 373.957 117.4 375.356 115.883C376.756 114.366 378.654 113.514 380.633 113.514V116.523C379.392 116.526 378.203 117.063 377.327 118.016C376.451 118.968 375.958 120.258 375.958 121.603Z" fill="url(#paint28_linear_972_34768)"/>
<path opacity="0.2" d="M377.328 125.199L375.37 127.387C374.675 126.638 374.124 125.746 373.749 124.765C373.373 123.783 373.181 122.731 373.182 121.668H375.958C375.97 122.994 376.462 124.262 377.328 125.199Z" fill="#1C1A24"/>
<path d="M183.558 207.803H245.412C246.196 207.803 246.948 208.14 247.503 208.741C248.057 209.342 248.369 210.157 248.369 211.007V213.365C248.369 214.215 248.057 215.03 247.503 215.631C246.948 216.232 246.196 216.57 245.412 216.57H183.558C182.771 216.57 182.016 216.231 181.459 215.628C180.903 215.024 180.59 214.206 180.59 213.352V211.02C180.588 210.597 180.664 210.178 180.813 209.787C180.961 209.396 181.18 209.04 181.456 208.741C181.732 208.442 182.06 208.205 182.42 208.044C182.781 207.883 183.168 207.801 183.558 207.803Z" fill="#1C1A24"/>
<path d="M325.797 50.3837H311.256L299.948 189.917H314.489C315.992 189.89 317.434 189.267 318.541 188.165C319.649 187.063 320.345 185.559 320.498 183.938L330.785 56.4022C330.869 55.6418 330.802 54.8707 330.589 54.1405C330.375 53.4104 330.021 52.7379 329.549 52.1682C329.077 51.5984 328.498 51.1445 327.851 50.8368C327.204 50.529 326.504 50.3746 325.797 50.3837Z" fill="#524587"/>
<path d="M311.184 189.918H135.152C134.446 189.932 133.745 189.783 133.096 189.48C132.448 189.177 131.867 188.727 131.391 188.161C130.916 187.595 130.557 186.926 130.339 186.198C130.122 185.47 130.05 184.699 130.128 183.939L140.415 56.4033C140.571 54.7845 141.268 53.2835 142.375 52.1842C143.482 51.0848 144.923 50.4632 146.424 50.4369H322.444C323.149 50.4231 323.849 50.5723 324.496 50.8744C325.144 51.1766 325.725 51.6249 326.2 52.1894C326.675 52.7539 327.034 53.4217 327.253 54.1483C327.471 54.8749 327.545 55.6436 327.468 56.4033L317.181 183.939C317.028 185.558 316.334 187.06 315.229 188.162C314.124 189.264 312.685 189.888 311.184 189.918Z" fill="#524587"/>
<path opacity="0.7" d="M311.184 189.918H135.152C134.446 189.932 133.745 189.783 133.096 189.48C132.448 189.177 131.867 188.727 131.391 188.161C130.916 187.595 130.557 186.926 130.339 186.198C130.122 185.47 130.05 184.699 130.128 183.939L140.415 56.4033C140.571 54.7845 141.268 53.2835 142.375 52.1842C143.482 51.0848 144.923 50.4632 146.424 50.4369H322.444C323.149 50.4231 323.849 50.5723 324.496 50.8744C325.144 51.1766 325.725 51.6249 326.2 52.1894C326.675 52.7539 327.034 53.4217 327.253 54.1483C327.471 54.8749 327.545 55.6436 327.468 56.4033L317.181 183.939C317.028 185.558 316.334 187.06 315.229 188.162C314.124 189.264 312.685 189.888 311.184 189.918Z" fill="url(#paint29_linear_972_34768)"/>
<path d="M306.485 173.581H142.518C141.903 173.595 141.293 173.466 140.727 173.202C140.162 172.938 139.656 172.546 139.243 172.052C138.829 171.559 138.518 170.974 138.331 170.339C138.143 169.704 138.084 169.032 138.156 168.37L146.7 62.4077C146.83 60.9994 147.431 59.6914 148.389 58.7311C149.348 57.7708 150.599 57.2249 151.904 57.1968H315.871C316.486 57.1829 317.097 57.3121 317.662 57.5758C318.227 57.8395 318.733 58.2315 319.147 58.7254C319.56 59.2193 319.871 59.8035 320.058 60.4387C320.246 61.0739 320.305 61.7454 320.233 62.4077L311.689 168.37C311.56 169.778 310.959 171.086 310 172.047C309.041 173.007 307.79 173.553 306.485 173.581Z" fill="white"/>
<path d="M263.547 94.6631H257.814L258.812 82.2222H264.556L263.547 94.6631Z" fill="url(#paint30_linear_972_34768)"/>
<path opacity="0.2" d="M263.547 94.6631H257.814L258.812 82.2222H264.556L263.547 94.6631Z" fill="#1C1A24"/>
<path d="M275.023 94.6626H269.291L270.793 76.0078H276.526L275.023 94.6626Z" fill="url(#paint31_linear_972_34768)"/>
<path d="M286.5 94.6629H280.756L282.018 79.1216H287.75L286.5 94.6629Z" fill="url(#paint32_linear_972_34768)"/>
<path d="M297.977 94.6632H292.232L294.239 69.7944H299.984L297.977 94.6632Z" fill="url(#paint33_linear_972_34768)"/>
<path opacity="0.4" d="M297.977 94.6632H292.232L294.239 69.7944H299.984L297.977 94.6632Z" fill="#1C1A24"/>
<path d="M303.709 93.5163H253.236C253.869 85.6132 254.509 77.7058 255.158 69.794C255.279 68.3219 253.151 68.3219 253.031 69.794C252.374 78.0792 251.705 86.3688 251.024 94.6627C251.028 94.9657 251.14 95.2553 251.338 95.4696C251.535 95.6839 251.802 95.8057 252.082 95.8091H303.757C304.038 95.8022 304.304 95.6748 304.498 95.4549C304.692 95.2351 304.797 94.9407 304.791 94.6367C304.784 94.3326 304.667 94.0438 304.464 93.8337C304.261 93.6236 303.99 93.5094 303.709 93.5163Z" fill="url(#paint34_linear_972_34768)"/>
<path opacity="0.5" d="M303.709 93.5163H253.236C253.869 85.6132 254.509 77.7058 255.158 69.794C255.279 68.3219 253.151 68.3219 253.031 69.794C252.374 78.0792 251.705 86.3688 251.024 94.6627C251.028 94.9657 251.14 95.2553 251.338 95.4696C251.535 95.6839 251.802 95.8057 252.082 95.8091H303.757C304.038 95.8022 304.304 95.6748 304.498 95.4549C304.692 95.2351 304.797 94.9407 304.791 94.6367C304.784 94.3326 304.667 94.0438 304.464 93.8337C304.261 93.6236 303.99 93.5094 303.709 93.5163Z" fill="white"/>
<path d="M168.957 87.9282L165.219 91.667C166.355 92.9965 167.735 94.0523 169.272 94.766C170.808 95.4797 172.465 95.8352 174.136 95.8096L174.557 90.5988C173.503 90.6053 172.459 90.3709 171.494 89.9108C170.529 89.4506 169.665 88.7751 168.957 87.9282Z" fill="url(#paint35_linear_972_34768)"/>
<path opacity="0.5" d="M168.957 87.9282L165.219 91.667C166.355 92.9965 167.735 94.0523 169.272 94.766C170.808 95.4797 172.465 95.8352 174.136 95.8096L174.557 90.5988C173.503 90.6053 172.459 90.3709 171.494 89.9108C170.529 89.4506 169.665 88.7751 168.957 87.9282Z" fill="#1C1A24"/>
<path d="M183.438 81.6351C183.209 84.0481 182.174 86.2867 180.526 87.9284C178.879 89.57 176.734 90.5011 174.497 90.5457L174.076 95.7565C177.636 95.6875 181.05 94.2074 183.671 91.5959C186.293 88.9844 187.941 85.4224 188.305 81.583L183.438 81.6351Z" fill="url(#paint36_linear_972_34768)"/>
<path opacity="0.1" d="M183.438 81.6351C183.209 84.0481 182.174 86.2867 180.526 87.9284C178.879 89.57 176.734 90.5011 174.497 90.5457L174.076 95.7565C177.636 95.6875 181.05 94.2074 183.671 91.5959C186.293 88.9844 187.941 85.4224 188.305 81.583L183.438 81.6351Z" fill="#1C1A24"/>
<path d="M168.957 87.9278C168.253 87.0803 167.721 86.0828 167.394 84.9993C167.067 83.9157 166.953 82.7701 167.058 81.6357H162.251C162.081 83.4433 162.261 85.2695 162.781 86.997C163.3 88.7245 164.147 90.3151 165.268 91.6666L168.957 87.9278Z" fill="url(#paint37_linear_972_34768)"/>
<path d="M175.939 72.6731C176.992 72.6513 178.037 72.8732 179.005 73.3242C179.972 73.7751 180.84 74.4446 181.55 75.288C182.259 76.1314 182.795 77.1292 183.121 78.2149C183.446 79.3006 183.555 80.449 183.438 81.5837H188.245C188.418 79.7889 188.239 77.9748 187.719 76.2604C187.2 74.5461 186.351 72.9703 185.23 71.6366C184.108 70.303 182.739 69.2415 181.213 68.5221C179.686 67.8027 178.036 67.4415 176.372 67.4623C172.81 67.5316 169.395 69.0135 166.773 71.6277C164.151 74.2419 162.504 77.807 162.143 81.6488H166.95C167.163 79.2143 168.199 76.9511 169.858 75.2943C171.518 73.6375 173.683 72.7039 175.939 72.6731Z" fill="url(#paint38_linear_972_34768)"/>
<path opacity="0.2" d="M175.939 72.6731C176.992 72.6513 178.037 72.8732 179.005 73.3242C179.972 73.7751 180.84 74.4446 181.55 75.288C182.259 76.1314 182.795 77.1292 183.121 78.2149C183.446 79.3006 183.555 80.449 183.438 81.5837H188.245C188.418 79.7889 188.239 77.9748 187.719 76.2604C187.2 74.5461 186.351 72.9703 185.23 71.6366C184.108 70.303 182.739 69.2415 181.213 68.5221C179.686 67.8027 178.036 67.4415 176.372 67.4623C172.81 67.5316 169.395 69.0135 166.773 71.6277C164.151 74.2419 162.504 77.807 162.143 81.6488H166.95C167.163 79.2143 168.199 76.9511 169.858 75.2943C171.518 73.6375 173.683 72.7039 175.939 72.6731Z" fill="white"/>
<path opacity="0.6" d="M181.539 75.2785L185.277 71.5528C184.145 70.2212 182.767 69.163 181.233 68.4471C179.698 67.7311 178.042 67.3733 176.372 67.3971L175.939 72.608C176.994 72.5997 178.038 72.8334 179.003 73.2937C179.968 73.754 180.832 74.4304 181.539 75.2785Z" fill="white"/>
<path d="M205.334 87.9282L201.596 91.667C202.732 92.9959 204.113 94.0513 205.649 94.7649C207.185 95.4785 208.842 95.8344 210.513 95.8096L210.946 90.5988C209.89 90.6064 208.844 90.3724 207.877 89.9123C206.91 89.4521 206.044 88.7761 205.334 87.9282Z" fill="url(#paint39_linear_972_34768)"/>
<path opacity="0.5" d="M205.334 87.9282L201.596 91.667C202.732 92.9959 204.113 94.0513 205.649 94.7649C207.185 95.4785 208.842 95.8344 210.513 95.8096L210.946 90.5988C209.89 90.6064 208.844 90.3724 207.877 89.9123C206.91 89.4521 206.044 88.7761 205.334 87.9282Z" fill="#1C1A24"/>
<path d="M219.875 81.6351C219.647 84.0459 218.613 86.2828 216.968 87.9241C215.323 89.5655 213.181 90.4979 210.946 90.5457L210.513 95.7565C214.073 95.6875 217.487 94.2074 220.108 91.5959C222.73 88.9844 224.378 85.4224 224.742 81.583L219.875 81.6351Z" fill="url(#paint40_linear_972_34768)"/>
<path opacity="0.1" d="M219.875 81.6351C219.647 84.0459 218.613 86.2828 216.968 87.9241C215.323 89.5655 213.181 90.4979 210.946 90.5457L210.513 95.7565C214.073 95.6875 217.487 94.2074 220.108 91.5959C222.73 88.9844 224.378 85.4224 224.742 81.583L219.875 81.6351Z" fill="#1C1A24"/>
<path d="M205.334 87.9278C204.632 87.079 204.101 86.0813 203.774 84.9981C203.447 83.915 203.332 82.7699 203.435 81.6357H198.628C198.458 83.4433 198.638 85.2695 199.158 86.997C199.677 88.7245 200.524 90.3151 201.645 91.6666L205.334 87.9278Z" fill="url(#paint41_linear_972_34768)"/>
<path d="M212.376 72.6731C213.429 72.6513 214.474 72.8732 215.442 73.3242C216.409 73.7751 217.277 74.4446 217.987 75.288C218.696 76.1314 219.232 77.1292 219.558 78.2149C219.883 79.3006 219.992 80.449 219.875 81.5837H224.682C224.855 79.7889 224.676 77.9748 224.156 76.2604C223.637 74.5461 222.788 72.9703 221.667 71.6366C220.545 70.303 219.176 69.2415 217.65 68.5221C216.123 67.8027 214.473 67.4415 212.809 67.4623C209.247 67.5316 205.832 69.0135 203.21 71.6277C200.588 74.2419 198.941 77.807 198.58 81.6488H203.387C203.6 79.2143 204.636 76.9511 206.295 75.2943C207.955 73.6375 210.12 72.7039 212.376 72.6731Z" fill="url(#paint42_linear_972_34768)"/>
<path opacity="0.2" d="M212.376 72.6731C213.429 72.6513 214.474 72.8732 215.442 73.3242C216.409 73.7751 217.277 74.4446 217.987 75.288C218.696 76.1314 219.232 77.1292 219.558 78.2149C219.883 79.3006 219.992 80.449 219.875 81.5837H224.682C224.855 79.7889 224.676 77.9748 224.156 76.2604C223.637 74.5461 222.788 72.9703 221.667 71.6366C220.545 70.303 219.176 69.2415 217.65 68.5221C216.123 67.8027 214.473 67.4415 212.809 67.4623C209.247 67.5316 205.832 69.0135 203.21 71.6277C200.588 74.2419 198.941 77.807 198.58 81.6488H203.387C203.6 79.2143 204.636 76.9511 206.295 75.2943C207.955 73.6375 210.12 72.7039 212.376 72.6731Z" fill="white"/>
<path opacity="0.6" d="M217.976 75.2785L221.714 71.5528C220.582 70.2212 219.204 69.163 217.67 68.4471C216.135 67.7311 214.479 67.3733 212.809 67.3971L212.376 72.608C213.431 72.5997 214.475 72.8334 215.44 73.2937C216.405 73.754 217.269 74.4304 217.976 75.2785Z" fill="white"/>
<path d="M260.086 140.805H253.236L253.824 133.379H260.686L260.086 140.805ZM254.846 139.189H258.716L259.064 134.995H255.194L254.846 139.189Z" fill="url(#paint43_linear_972_34768)"/>
<path d="M259.172 152.139H252.322L252.911 144.713H259.773L259.172 152.139ZM253.945 150.523H257.814L258.151 146.329H254.281L253.945 150.523Z" fill="url(#paint44_linear_972_34768)"/>
<path d="M258.259 163.407H251.409L252.01 155.994H258.86L258.259 163.407ZM253.079 161.804H256.949L257.286 157.596H253.416L253.079 161.804Z" fill="url(#paint45_linear_972_34768)"/>
<path d="M264.833 139.111C264.618 139.116 264.405 139.072 264.208 138.98C264.011 138.889 263.835 138.753 263.69 138.582C263.545 138.41 263.436 138.207 263.37 137.986C263.304 137.765 263.282 137.531 263.306 137.3C263.353 136.811 263.563 136.356 263.898 136.023C264.232 135.689 264.667 135.5 265.121 135.49H288.038C288.253 135.484 288.465 135.529 288.663 135.62C288.86 135.712 289.036 135.848 289.181 136.019C289.325 136.191 289.435 136.394 289.501 136.615C289.567 136.836 289.589 137.07 289.565 137.3C289.52 137.791 289.311 138.247 288.976 138.581C288.641 138.915 288.205 139.104 287.75 139.111H264.833Z" fill="url(#paint46_linear_972_34768)"/>
<path opacity="0.7" d="M264.833 139.111C264.618 139.116 264.405 139.072 264.208 138.98C264.011 138.889 263.835 138.753 263.69 138.582C263.545 138.41 263.436 138.207 263.37 137.986C263.304 137.765 263.282 137.531 263.306 137.3C263.353 136.811 263.563 136.356 263.898 136.023C264.232 135.689 264.667 135.5 265.121 135.49H288.038C288.253 135.484 288.465 135.529 288.663 135.62C288.86 135.712 289.036 135.848 289.181 136.019C289.325 136.191 289.435 136.394 289.501 136.615C289.567 136.836 289.589 137.07 289.565 137.3C289.52 137.791 289.311 138.247 288.976 138.581C288.641 138.915 288.205 139.104 287.75 139.111H264.833Z" fill="white"/>
<path d="M263.018 161.518C262.805 161.519 262.594 161.471 262.399 161.379C262.203 161.286 262.028 161.15 261.884 160.979C261.741 160.809 261.631 160.607 261.564 160.388C261.496 160.169 261.472 159.937 261.492 159.707C261.539 159.215 261.751 158.759 262.087 158.425C262.424 158.091 262.862 157.903 263.318 157.896H282.546C282.76 157.893 282.971 157.939 283.167 158.031C283.362 158.123 283.538 158.259 283.681 158.431C283.824 158.602 283.932 158.804 283.997 159.025C284.063 159.245 284.084 159.477 284.061 159.707C284.014 160.197 283.804 160.651 283.469 160.985C283.135 161.318 282.7 161.508 282.246 161.518H263.018Z" fill="url(#paint47_linear_972_34768)"/>
<path opacity="0.4" d="M263.018 161.518C262.805 161.519 262.594 161.471 262.399 161.379C262.203 161.286 262.028 161.15 261.884 160.979C261.741 160.809 261.631 160.607 261.564 160.388C261.496 160.169 261.472 159.937 261.492 159.707C261.539 159.215 261.751 158.759 262.087 158.425C262.424 158.091 262.862 157.903 263.318 157.896H282.546C282.76 157.893 282.971 157.939 283.167 158.031C283.362 158.123 283.538 158.259 283.681 158.431C283.824 158.602 283.932 158.804 283.997 159.025C284.063 159.245 284.084 159.477 284.061 159.707C284.014 160.197 283.804 160.651 283.469 160.985C283.135 161.318 282.7 161.508 282.246 161.518H263.018Z" fill="white"/>
<path d="M263.895 150.211C263.681 150.214 263.47 150.168 263.273 150.076C263.077 149.984 262.901 149.847 262.757 149.676C262.613 149.505 262.504 149.303 262.437 149.083C262.37 148.863 262.347 148.63 262.369 148.4C262.416 147.908 262.628 147.452 262.965 147.118C263.301 146.784 263.739 146.596 264.196 146.589H281.921C282.135 146.586 282.347 146.632 282.543 146.724C282.739 146.816 282.915 146.952 283.059 147.123C283.204 147.294 283.313 147.496 283.38 147.716C283.446 147.936 283.47 148.169 283.448 148.4C283.401 148.89 283.191 149.344 282.856 149.677C282.522 150.011 282.087 150.2 281.633 150.211H263.895Z" fill="url(#paint48_linear_972_34768)"/>
<path opacity="0.2" d="M263.895 150.211C263.681 150.214 263.47 150.168 263.273 150.076C263.077 149.984 262.901 149.847 262.757 149.676C262.613 149.505 262.504 149.303 262.437 149.083C262.37 148.863 262.347 148.63 262.369 148.4C262.416 147.908 262.628 147.452 262.965 147.118C263.301 146.784 263.739 146.596 264.196 146.589H281.921C282.135 146.586 282.347 146.632 282.543 146.724C282.739 146.816 282.915 146.952 283.059 147.123C283.204 147.294 283.313 147.496 283.38 147.716C283.446 147.936 283.47 148.169 283.448 148.4C283.401 148.89 283.191 149.344 282.856 149.677C282.522 150.011 282.087 150.2 281.633 150.211H263.895Z" fill="white"/>
<path d="M241.699 151.565C239.984 148.96 238.258 146.402 236.519 143.892C236.434 143.743 236.318 143.616 236.182 143.52C236.045 143.425 235.891 143.364 235.73 143.342C235.568 143.319 235.405 143.336 235.25 143.391C235.096 143.445 234.955 143.537 234.837 143.658L229.345 150.172C227.903 147.566 226.473 145.052 225.031 142.486C224.948 142.333 224.834 142.203 224.698 142.105C224.561 142.007 224.407 141.944 224.245 141.92C224.083 141.896 223.918 141.912 223.763 141.967C223.607 142.022 223.466 142.115 223.348 142.238C221.449 144.127 219.599 146.081 217.652 147.918C217.075 147.579 216.45 147.188 215.945 146.824L212.821 144.817C212.574 144.668 212.284 144.628 212.01 144.706C211.737 144.784 211.502 144.973 211.355 145.234L205.803 153.949C204.425 151.049 203.047 148.144 201.669 145.234C201.521 144.973 201.286 144.784 201.013 144.706C200.74 144.628 200.449 144.668 200.202 144.817L197.547 146.355C197.018 146.68 195.143 147.657 194.686 148.087C193.946 147.541 193.176 147.045 192.379 146.602L189.603 144.817C189.358 144.662 189.065 144.618 188.79 144.697C188.515 144.775 188.28 144.968 188.137 145.234C187.994 145.5 187.953 145.817 188.026 146.115C188.098 146.413 188.276 146.668 188.521 146.824C190.06 147.814 192.8 150.562 194.614 150.549C196.429 150.536 198.592 148.673 200.311 147.462L204.745 156.789C204.841 156.962 204.977 157.105 205.139 157.204C205.301 157.303 205.484 157.355 205.67 157.355C205.857 157.355 206.039 157.303 206.202 157.204C206.364 157.105 206.499 156.962 206.596 156.789L212.605 147.371L217.267 150.354C217.473 150.479 217.71 150.529 217.944 150.496C218.178 150.464 218.396 150.35 218.565 150.172L223.877 144.882L228.263 152.699C228.347 152.85 228.462 152.979 228.599 153.076C228.735 153.173 228.89 153.235 229.052 153.257C229.214 153.28 229.379 153.262 229.533 153.206C229.688 153.15 229.829 153.057 229.946 152.933L235.522 146.263L239.86 152.699C240.665 153.923 242.516 152.764 241.699 151.565Z" fill="url(#paint49_linear_972_34768)"/>
<path d="M239.968 161.088H188.906C189.555 153.089 190.2 145.09 190.841 137.092C190.961 135.607 188.822 135.607 188.702 137.092L186.671 162.247C186.674 162.554 186.787 162.847 186.987 163.063C187.187 163.28 187.458 163.403 187.74 163.407H239.968C240.252 163.407 240.524 163.284 240.725 163.067C240.925 162.85 241.038 162.555 241.038 162.247C241.038 161.94 240.925 161.645 240.725 161.427C240.524 161.21 240.252 161.088 239.968 161.088Z" fill="url(#paint50_linear_972_34768)"/>
<path opacity="0.5" d="M239.968 161.088H188.906C189.555 153.089 190.2 145.09 190.841 137.092C190.961 135.607 188.822 135.607 188.702 137.092L186.671 162.247C186.674 162.554 186.787 162.847 186.987 163.063C187.187 163.28 187.458 163.403 187.74 163.407H239.968C240.252 163.407 240.524 163.284 240.725 163.067C240.925 162.85 241.038 162.555 241.038 162.247C241.038 161.94 240.925 161.645 240.725 161.427C240.524 161.21 240.252 161.088 239.968 161.088Z" fill="white"/>
<path d="M295.561 126.983H204.433L206.464 101.775H297.592L295.561 126.983Z" fill="url(#paint51_linear_972_34768)"/>
<path opacity="0.9" d="M295.561 126.983H204.433L206.464 101.775H297.592L295.561 126.983Z" fill="white"/>
<path d="M297.172 128.898H202.51L204.913 99.8608H299.575L297.172 128.898ZM206.355 125.068H293.939L295.669 103.704H208.086L206.355 125.068Z" fill="#524587"/>
<path d="M225.019 117.76L224.85 119.766H217.171L218.036 109.005H225.535L225.379 110.999H220.164L219.971 113.343H224.574L224.418 115.271H219.815L219.611 117.76H225.019Z" fill="url(#paint52_linear_972_34768)"/>
<path d="M232.83 119.766L230.739 116.027L228.083 119.766H225.439L229.549 114.294L226.485 109.005H229.093L231.099 112.497L233.611 109.005H236.099L232.217 114.216L235.474 119.779L232.83 119.766Z" fill="url(#paint53_linear_972_34768)"/>
<path d="M239.031 111.038H235.858L236.027 109.005H244.667L244.511 111.038H241.338L240.629 119.766H238.334L239.031 111.038Z" fill="url(#paint54_linear_972_34768)"/>
<path d="M251.361 119.766L249.691 116.77H247.576L247.335 119.766H245.04L245.905 109.005H250.195C250.971 108.983 251.742 109.143 252.455 109.474C253.027 109.745 253.51 110.2 253.837 110.777C254.147 111.417 254.273 112.143 254.197 112.862C254.146 113.604 253.904 114.317 253.5 114.92C253.078 115.505 252.517 115.955 251.878 116.222L253.825 119.688L251.361 119.766ZM251.445 111.52C251.004 111.161 250.457 110.989 249.907 111.038H248.032L247.732 114.776H249.606C250.178 114.816 250.745 114.646 251.217 114.294C251.408 114.126 251.564 113.916 251.676 113.678C251.788 113.441 251.852 113.18 251.866 112.914C251.903 112.662 251.884 112.404 251.811 112.161C251.738 111.919 251.613 111.699 251.445 111.52Z" fill="url(#paint55_linear_972_34768)"/>
<path d="M262.177 117.46H257.574L256.505 119.766H254.101L259.389 109.005H261.66L265.265 119.766H262.862L262.177 117.46ZM261.6 115.558L260.398 111.441L258.499 115.558H261.6Z" fill="url(#paint56_linear_972_34768)"/>
<path d="M268.222 119.232C267.463 118.779 266.847 118.089 266.455 117.252C266.041 116.368 265.878 115.37 265.986 114.386C266.059 113.359 266.378 112.371 266.912 111.52C267.444 110.679 268.163 109.998 269.003 109.54C269.872 109.056 270.838 108.81 271.815 108.823C272.603 108.805 273.385 108.97 274.11 109.305C274.755 109.624 275.317 110.112 275.745 110.725L274.146 112.197C273.873 111.785 273.512 111.451 273.093 111.224C272.674 110.997 272.211 110.884 271.743 110.894C271.162 110.887 270.588 111.034 270.072 111.324C269.577 111.607 269.161 112.03 268.871 112.549C268.55 113.084 268.36 113.698 268.318 114.334C268.254 114.943 268.345 115.561 268.582 116.118C268.798 116.627 269.155 117.051 269.604 117.33C270.092 117.636 270.65 117.789 271.214 117.773C271.707 117.769 272.194 117.652 272.642 117.427C273.09 117.202 273.488 116.876 273.81 116.47L275.168 117.942C274.65 118.566 274.009 119.056 273.293 119.375C272.531 119.713 271.713 119.882 270.889 119.87C269.965 119.907 269.046 119.687 268.222 119.232Z" fill="url(#paint57_linear_972_34768)"/>
<path d="M279.218 111.038H276.045L276.213 109.005H284.854L284.698 111.038H281.513L280.816 119.766H278.521L279.218 111.038Z" fill="url(#paint58_linear_972_34768)"/>
<path d="M176.576 85.8437C174.857 88.4491 178.643 96.8516 178.643 96.8516L161.59 99.0792L164.931 78.9263C164.931 78.9263 178.571 82.7432 176.576 85.8437Z" fill="#FFBE9D"/>
<path opacity="0.2" d="M176.311 89.608C175.965 88.3567 176.059 87.0105 176.576 85.8301C177.777 83.9021 172.97 81.7005 169.209 80.3066C170.158 82.2868 172.67 87.2371 176.311 89.608Z" fill="#1C1A24"/>
<path d="M217.664 361.209L219.478 380.008L211.475 381.636L206.668 363.489L217.664 361.209Z" fill="#FFBE9D"/>
<path d="M219.31 376.791L209.9 378.81C209.727 378.848 209.571 378.949 209.458 379.096C209.344 379.243 209.28 379.427 209.276 379.618L209.107 388.281C209.097 388.642 209.217 388.993 209.441 389.261C209.665 389.528 209.976 389.69 210.309 389.714C210.397 389.727 210.486 389.727 210.573 389.714C213.962 388.919 216.943 388.059 221.161 387.109C226.148 386.027 224.994 386.952 230.871 385.806C234.416 385.089 234.26 380.595 232.722 380.712C225.703 381.272 224.574 379.175 221.437 377.091C220.782 376.726 220.03 376.62 219.31 376.791Z" fill="url(#paint59_linear_972_34768)"/>
<path opacity="0.2" d="M209.84 375.474L218.914 374.184L217.664 361.209L206.668 363.489L209.84 375.474Z" fill="#1C1A24"/>
<path d="M148.443 357.393L142.987 380.711L135.308 379.539L137.351 356.729L148.443 357.393Z" fill="#FFBE9D"/>
<path d="M144.008 377.781L134.394 377.051C134.219 377.04 134.046 377.093 133.902 377.202C133.758 377.311 133.652 377.469 133.601 377.65L131.318 385.949C131.22 386.303 131.255 386.685 131.414 387.011C131.574 387.338 131.846 387.583 132.171 387.694H132.447C135.896 387.89 138.985 387.929 143.263 388.255C148.335 388.645 147.001 389.206 152.961 389.753C156.567 390.078 157.492 385.701 155.978 385.376C149.08 383.891 148.503 381.546 145.991 378.641C145.444 378.11 144.742 377.806 144.008 377.781Z" fill="url(#paint60_linear_972_34768)"/>
<path opacity="0.2" d="M135.776 374.238L144.189 375.632L148.202 358.449C144.525 358.019 138.492 357.368 137.315 357.237L135.776 374.238Z" fill="#1C1A24"/>
<path d="M156.747 178.883C156.747 178.883 154.103 187.221 153.718 207.543C153.478 219.658 152.384 238.808 151.543 252.343C151.303 256.251 151.075 259.743 150.894 262.387C150.669 265.747 149.947 269.046 148.755 272.157C147.938 274.32 146.917 277.29 145.859 280.977C143.748 288.466 142.229 296.136 141.316 303.904C138.516 326.624 135.308 370.655 135.308 370.655L145.679 372.114L171.228 269.5L198.448 178.805L156.747 178.883Z" fill="#7E75A3"/>
<path opacity="0.2" d="M183.846 227.814L182.753 218.877L173.836 210.761L170.844 209.159C175.333 223.225 177.104 238.142 176.047 252.982L183.846 227.814Z" fill="#1C1A24"/>
<path d="M206.535 179.3L219.022 369.886L208.446 371.84C208.446 371.84 194.314 319.094 191.922 289.939C191.639 286.849 191.534 283.742 191.61 280.638C191.718 276.672 191.235 272.713 190.18 268.913L188.689 263.481L180.361 232.906C178.672 226.513 175.874 220.526 172.117 215.268C167.779 209.34 162.419 197.85 164.642 178.792L203.807 175.809L206.535 179.3Z" fill="#7E75A3"/>
<path d="M167.431 167.263C167.431 167.263 173.499 165.96 175.542 166.129C177.767 166.693 179.942 167.464 182.044 168.435C182.508 168.598 182.925 168.89 183.252 169.283C183.579 169.675 183.806 170.153 183.91 170.67C184.013 171.187 183.989 171.724 183.841 172.228C183.693 172.732 183.426 173.185 183.065 173.542C183.065 173.542 179.736 178.179 178.066 178.57C174.737 179.326 165.195 173.789 165.195 173.789L167.431 167.263Z" fill="#FFBE9D"/>
<path d="M167.13 164.11L163.765 175.9L166.998 176.2L169.966 165.895L167.13 164.11Z" fill="#524587"/>
<path opacity="0.2" d="M167.13 164.11L163.765 175.9L166.998 176.2L169.966 165.895L167.13 164.11Z" fill="white"/>
<path d="M147.157 107.937C146.786 107.412 146.297 107.001 145.735 106.742C145.174 106.484 144.56 106.389 143.955 106.465C143.349 106.541 142.772 106.786 142.28 107.177C141.788 107.567 141.398 108.09 141.148 108.693C137.363 117.473 127.809 140.752 127.773 152.06C127.773 166.142 165.928 174.48 165.928 174.48L168.236 166.39L141.989 148.881L149.548 129.562C149.548 129.562 151.423 114.281 147.157 107.937Z" fill="#F9F6FF"/>
<g opacity="0.4">
<path d="M147.842 109.592L143.72 110.204L141.317 112.041L144.141 143.306L149.416 129.836C149.416 129.836 151.087 116.522 147.842 109.592Z" fill="#9C95BA"/>
<path d="M155.798 158.392L144.886 151.083L146.472 168.644C148.755 169.569 151.039 170.39 153.202 171.119L155.798 158.392Z" fill="#9C95BA"/>
</g>
<path d="M205.947 179.196C205.947 179.196 187.139 185.866 156.338 180.499L141.569 113.057C141.074 110.575 141.336 107.986 142.316 105.679C143.295 103.372 144.939 101.472 147.001 100.265C153.334 96.4609 165.88 92.8915 190.624 94.3636C193.597 94.544 196.437 95.7615 198.72 97.8345C201.003 99.9075 202.606 102.725 203.291 105.866L205.947 179.196Z" fill="#F9F6FF"/>
<path d="M156.555 97.1513L158.429 92.3703C158.429 92.3703 165.844 88.3059 178.415 90.2209L181.407 93.9727C181.407 93.9727 167.334 94.3374 156.555 97.1513Z" fill="#524587"/>
<path d="M185.493 62.1208C185.661 62.8763 185.421 63.5928 184.952 63.697C184.483 63.8013 183.93 63.2672 183.75 62.5246C183.57 61.7821 183.75 61.0525 184.279 60.9483C184.808 60.8441 185.312 61.3652 185.493 62.1208Z" fill="#524587"/>
<path d="M184.856 64.4141L189.663 69.5077C189.093 70.102 188.403 70.5453 187.648 70.8029C186.894 71.0605 186.094 71.1255 185.313 70.9928L184.856 64.4141Z" fill="#FFBE9D"/>
<path d="M157.456 65.5209C159.295 75.7211 159.86 80.0982 165.4 84.7489C173.547 89.1651 185.192 87.224 186.262 76.646C187.235 67.1363 184.075 52.0769 174.052 49.1328C170.669 48.102 167.048 48.5612 163.976 50.4105C160.903 52.2598 158.629 55.3496 157.648 59.0073C157.104 61.1306 157.038 63.3643 157.456 65.5209Z" fill="#FFBE9D"/>
<path d="M181.948 59.7242C182.011 59.7253 182.075 59.7093 182.131 59.6774C182.188 59.6456 182.236 59.599 182.272 59.5418C182.526 59.1108 182.871 58.7514 183.279 58.4933C183.686 58.2351 184.144 58.0854 184.616 58.0567C184.665 58.0603 184.714 58.0528 184.761 58.0348C184.807 58.0167 184.85 57.9885 184.886 57.9519C184.922 57.9152 184.951 57.8709 184.971 57.8217C184.99 57.7725 185 57.7195 185 57.6659C185 57.5553 184.96 57.4493 184.887 57.3711C184.815 57.2929 184.718 57.249 184.616 57.249C184.016 57.2594 183.429 57.4316 182.906 57.7501C182.384 58.0685 181.943 58.5231 181.623 59.0728C181.571 59.1655 181.553 59.2761 181.573 59.3824C181.594 59.4887 181.65 59.5829 181.731 59.646C181.797 59.6892 181.871 59.7159 181.948 59.7242Z" fill="#524587"/>
<path opacity="0.4" d="M205.238 146.198L203.976 121.447L195.828 109.723L191.369 105.241L187.932 107.847C187.932 107.847 188.401 121.551 205.238 146.198Z" fill="#9C95BA"/>
<path d="M207.978 110.829C212.496 119.818 214.239 125.159 215.789 127.361C215.888 127.508 216.021 127.623 216.176 127.695C216.33 127.766 216.5 127.79 216.666 127.765L243.045 123.609C243.264 123.573 243.489 123.622 243.678 123.748C243.868 123.875 244.009 124.07 244.078 124.299L246.205 131.373C246.246 131.501 246.264 131.637 246.256 131.773C246.247 131.908 246.214 132.041 246.158 132.162C246.102 132.283 246.025 132.392 245.929 132.48C245.834 132.568 245.724 132.635 245.604 132.676L220.872 141.795C218.678 142.725 216.29 142.983 213.97 142.542C211.649 142.101 209.485 140.977 207.713 139.294C200.686 132.61 194.966 124.469 190.889 115.35C188.99 111.285 184.579 103.756 191.826 97.1119C197.799 91.6014 205.009 104.863 207.978 110.829Z" fill="#F9F6FF"/>
<path d="M243.814 124.286L249.246 117.356C249.834 116.601 250.616 116.052 251.493 115.78L264.292 111.741C264.501 111.679 264.724 111.697 264.923 111.792C265.123 111.887 265.285 112.053 265.385 112.262C265.445 112.388 265.48 112.525 265.488 112.666C265.495 112.807 265.476 112.948 265.431 113.081C265.386 113.213 265.316 113.334 265.225 113.435C265.134 113.537 265.025 113.616 264.904 113.669L259.617 116.014C259.433 116.094 259.278 116.236 259.174 116.419C259.07 116.602 259.023 116.816 259.04 117.03L259.304 120.496C259.381 121.533 259.162 122.57 258.676 123.468C258.19 124.365 257.461 125.078 256.588 125.511L252.743 127.413L252.298 127.595L245.688 130.005C245.566 130.051 245.435 130.068 245.306 130.055C245.176 130.042 245.051 130 244.937 129.931C244.824 129.862 244.725 129.768 244.648 129.656C244.57 129.543 244.515 129.413 244.487 129.276L243.609 125.172C243.578 125.018 243.581 124.857 243.616 124.703C243.651 124.55 243.719 124.407 243.814 124.286Z" fill="#FFBE9D"/>
<path d="M242.263 123.57L245.52 132.481C245.568 132.611 245.641 132.729 245.732 132.828C245.824 132.926 245.934 133.004 246.054 133.055C246.175 133.106 246.303 133.13 246.433 133.126C246.562 133.121 246.689 133.088 246.806 133.028L247.888 132.455C248.103 132.341 248.27 132.144 248.354 131.901C248.439 131.659 248.436 131.391 248.344 131.152L245.244 122.606C245.163 122.392 245.019 122.213 244.834 122.097C244.649 121.982 244.434 121.936 244.222 121.968L243.021 122.176C242.877 122.195 242.74 122.249 242.619 122.334C242.498 122.42 242.397 122.535 242.323 122.67C242.25 122.805 242.206 122.956 242.196 123.112C242.186 123.269 242.209 123.425 242.263 123.57Z" fill="#524587"/>
<path d="M206.379 369.131L208.014 373.833L220.476 371.749L220.127 366.747L206.379 369.131Z" fill="url(#paint61_linear_972_34768)"/>
<path opacity="0.2" d="M206.379 369.131L208.014 373.833L220.476 371.749L220.127 366.747L206.379 369.131Z" fill="#1C1A24"/>
<path d="M134.118 367.229L133.926 372.179L146.424 373.99L147.397 369.078L134.118 367.229Z" fill="url(#paint62_linear_972_34768)"/>
<path opacity="0.2" d="M134.118 367.229L133.926 372.179L146.424 373.99L147.397 369.078L134.118 367.229Z" fill="#1C1A24"/>
<path d="M163.897 85.0616C163.897 85.0616 165.291 82.9122 169.498 85.4003C169.498 85.4003 175.506 78.1442 175.651 71.3571C175.651 71.3571 180.061 70.4843 179.7 67.3839C179.34 64.2834 177.225 60.258 177.669 57.4572C178.114 54.6564 182.404 47.3091 178.763 44.0393C175.122 40.7695 174.689 44.6646 172.622 45.0815C170.555 45.4983 158.105 45.9934 156.507 55.5031C154.703 57.7126 153.64 60.5171 153.49 63.4628C153.339 66.4085 154.11 69.3231 155.677 71.7349C161.121 80.932 163.897 85.0616 163.897 85.0616Z" fill="url(#paint63_linear_972_34768)"/>
<path d="M175.843 64.9872L186.755 58.4736C186.755 58.4736 189.495 66.2117 188.173 66.6025C186.851 66.9933 185.132 60.9097 185.132 60.9097L177.369 64.8569L175.843 64.9872Z" fill="url(#paint64_linear_972_34768)"/>
<path opacity="0.7" d="M185.409 61.0659L186.238 60.5317C186.238 60.5317 188.485 66.0031 187.872 66.4851C187.259 66.9671 185.409 61.0659 185.409 61.0659Z" fill="white"/>
<path d="M177.369 65.2215C178.185 65.8093 178.886 66.5668 179.43 67.45C179.975 68.3333 180.353 69.3247 180.542 70.3672C181.022 73.1289 178.619 74.2753 176.275 73.2852C174.16 72.3994 171.372 69.8852 171.961 67.2016C172.106 66.6096 172.385 66.0657 172.771 65.6185C173.157 65.1713 173.639 64.8347 174.175 64.6386C174.71 64.4426 175.282 64.3932 175.839 64.4949C176.397 64.5966 176.922 64.8462 177.369 65.2215Z" fill="#FFBE9D"/>
</g>
<defs>
<filter id="filter0_d_972_34768" x="7.06898" y="94.4414" width="59.7151" height="21.7161" filterUnits="userSpaceOnUse" color-interpolation-filters="sRGB">
<feFlood flood-opacity="0" result="BackgroundImageFix"/>
<feColorMatrix in="SourceAlpha" type="matrix" values="0 0 0 0 0 0 0 0 0 0 0 0 0 0 0 0 0 0 127 0" result="hardAlpha"/>
<feOffset dy="4.807"/>
<feGaussianBlur stdDeviation="2.4035"/>
<feComposite in2="hardAlpha" operator="out"/>
<feColorMatrix type="matrix" values="0 0 0 0 0 0 0 0 0 0 0 0 0 0 0 0 0 0 0.25 0"/>
<feBlend mode="normal" in2="BackgroundImageFix" result="effect1_dropShadow_972_34768"/>
<feBlend mode="normal" in="SourceGraphic" in2="effect1_dropShadow_972_34768" result="shape"/>
</filter>
<linearGradient id="paint0_linear_972_34768" x1="17.9636" y1="192.249" x2="81.0558" y2="180.328" gradientUnits="userSpaceOnUse">
<stop stop-color="#7260ED"/>
<stop offset="1" stop-color="#AA7CEE"/>
</linearGradient>
<linearGradient id="paint1_linear_972_34768" x1="10.1455" y1="54.7738" x2="70.7429" y2="48.0132" gradientUnits="userSpaceOnUse">
<stop stop-color="#7260ED"/>
<stop offset="1" stop-color="#AA7CEE"/>
</linearGradient>
<linearGradient id="paint2_linear_972_34768" x1="0.723633" y1="94.454" x2="63.82" y2="76.9501" gradientUnits="userSpaceOnUse">
<stop stop-color="#7260ED"/>
<stop offset="1" stop-color="#AA7CEE"/>
</linearGradient>
<linearGradient id="paint3_linear_972_34768" x1="11.876" y1="106.544" x2="57.9789" y2="85.6286" gradientUnits="userSpaceOnUse">
<stop stop-color="#7260ED"/>
<stop offset="1" stop-color="#AA7CEE"/>
</linearGradient>
<linearGradient id="paint4_linear_972_34768" x1="11.876" y1="118.646" x2="57.9789" y2="97.7311" gradientUnits="userSpaceOnUse">
<stop stop-color="#7260ED"/>
<stop offset="1" stop-color="#AA7CEE"/>
</linearGradient>
<linearGradient id="paint5_linear_972_34768" x1="11.876" y1="94.4547" x2="57.979" y2="73.5397" gradientUnits="userSpaceOnUse">
<stop stop-color="#7260ED"/>
<stop offset="1" stop-color="#AA7CEE"/>
</linearGradient>
<linearGradient id="paint6_linear_972_34768" x1="19.6152" y1="118.645" x2="44.4068" y2="117.388" gradientUnits="userSpaceOnUse">
<stop stop-color="#7260ED"/>
<stop offset="1" stop-color="#AA7CEE"/>
</linearGradient>
<linearGradient id="paint7_linear_972_34768" x1="391.857" y1="205.641" x2="452.136" y2="201.113" gradientUnits="userSpaceOnUse">
<stop stop-color="#7260ED"/>
<stop offset="1" stop-color="#AA7CEE"/>
</linearGradient>
<linearGradient id="paint8_linear_972_34768" x1="395.427" y1="149.754" x2="443.021" y2="134.169" gradientUnits="userSpaceOnUse">
<stop stop-color="#7260ED"/>
<stop offset="1" stop-color="#AA7CEE"/>
</linearGradient>
<linearGradient id="paint9_linear_972_34768" x1="395.427" y1="173.92" x2="443.021" y2="158.335" gradientUnits="userSpaceOnUse">
<stop stop-color="#7260ED"/>
<stop offset="1" stop-color="#AA7CEE"/>
</linearGradient>
<linearGradient id="paint10_linear_972_34768" x1="394.021" y1="75.7995" x2="448.823" y2="71.6829" gradientUnits="userSpaceOnUse">
<stop stop-color="#7260ED"/>
<stop offset="1" stop-color="#AA7CEE"/>
</linearGradient>
<linearGradient id="paint11_linear_972_34768" x1="397.265" y1="43.714" x2="410.636" y2="42.3623" gradientUnits="userSpaceOnUse">
<stop stop-color="#7260ED"/>
<stop offset="1" stop-color="#AA7CEE"/>
</linearGradient>
<linearGradient id="paint12_linear_972_34768" x1="407.324" y1="24.0173" x2="410.968" y2="23.8331" gradientUnits="userSpaceOnUse">
<stop stop-color="#7260ED"/>
<stop offset="1" stop-color="#AA7CEE"/>
</linearGradient>
<linearGradient id="paint13_linear_972_34768" x1="413.922" y1="24.0042" x2="417.571" y2="23.8812" gradientUnits="userSpaceOnUse">
<stop stop-color="#7260ED"/>
<stop offset="1" stop-color="#AA7CEE"/>
</linearGradient>
<linearGradient id="paint14_linear_972_34768" x1="420.507" y1="24.0168" x2="424.155" y2="23.8693" gradientUnits="userSpaceOnUse">
<stop stop-color="#7260ED"/>
<stop offset="1" stop-color="#AA7CEE"/>
</linearGradient>
<linearGradient id="paint15_linear_972_34768" x1="427.093" y1="24.0173" x2="430.744" y2="23.9251" gradientUnits="userSpaceOnUse">
<stop stop-color="#7260ED"/>
<stop offset="1" stop-color="#AA7CEE"/>
</linearGradient>
<linearGradient id="paint16_linear_972_34768" x1="369.697" y1="135.999" x2="424.499" y2="131.882" gradientUnits="userSpaceOnUse">
<stop stop-color="#7260ED"/>
<stop offset="1" stop-color="#AA7CEE"/>
</linearGradient>
<linearGradient id="paint17_linear_972_34768" x1="373.182" y1="99.1579" x2="377.754" y2="98.7947" gradientUnits="userSpaceOnUse">
<stop stop-color="#7260ED"/>
<stop offset="1" stop-color="#AA7CEE"/>
</linearGradient>
<linearGradient id="paint18_linear_972_34768" x1="373.182" y1="107.235" x2="381.366" y2="106.408" gradientUnits="userSpaceOnUse">
<stop stop-color="#7260ED"/>
<stop offset="1" stop-color="#AA7CEE"/>
</linearGradient>
<linearGradient id="paint19_linear_972_34768" x1="375.37" y1="95.5622" x2="381.115" y2="94.8248" gradientUnits="userSpaceOnUse">
<stop stop-color="#7260ED"/>
<stop offset="1" stop-color="#AA7CEE"/>
</linearGradient>
<linearGradient id="paint20_linear_972_34768" x1="380.585" y1="107.241" x2="389.174" y2="106.79" gradientUnits="userSpaceOnUse">
<stop stop-color="#7260ED"/>
<stop offset="1" stop-color="#AA7CEE"/>
</linearGradient>
<linearGradient id="paint21_linear_972_34768" x1="375.37" y1="84.7888" x2="381.115" y2="84.0514" gradientUnits="userSpaceOnUse">
<stop stop-color="#7260ED"/>
<stop offset="1" stop-color="#AA7CEE"/>
</linearGradient>
<linearGradient id="paint22_linear_972_34768" x1="380.585" y1="84.7887" x2="388.782" y2="83.9588" gradientUnits="userSpaceOnUse">
<stop stop-color="#7260ED"/>
<stop offset="1" stop-color="#AA7CEE"/>
</linearGradient>
<linearGradient id="paint23_linear_972_34768" x1="373.182" y1="82.4178" x2="377.754" y2="82.0538" gradientUnits="userSpaceOnUse">
<stop stop-color="#7260ED"/>
<stop offset="1" stop-color="#AA7CEE"/>
</linearGradient>
<linearGradient id="paint24_linear_972_34768" x1="373.176" y1="76.7118" x2="389.135" y2="73.6097" gradientUnits="userSpaceOnUse">
<stop stop-color="#7260ED"/>
<stop offset="1" stop-color="#AA7CEE"/>
</linearGradient>
<linearGradient id="paint25_linear_972_34768" x1="383.95" y1="121.604" x2="388.522" y2="121.24" gradientUnits="userSpaceOnUse">
<stop stop-color="#7260ED"/>
<stop offset="1" stop-color="#AA7CEE"/>
</linearGradient>
<linearGradient id="paint26_linear_972_34768" x1="380.633" y1="129.693" x2="388.83" y2="128.865" gradientUnits="userSpaceOnUse">
<stop stop-color="#7260ED"/>
<stop offset="1" stop-color="#AA7CEE"/>
</linearGradient>
<linearGradient id="paint27_linear_972_34768" x1="380.633" y1="118.008" x2="386.392" y2="117.267" gradientUnits="userSpaceOnUse">
<stop stop-color="#7260ED"/>
<stop offset="1" stop-color="#AA7CEE"/>
</linearGradient>
<linearGradient id="paint28_linear_972_34768" x1="373.17" y1="129.693" x2="381.43" y2="129.276" gradientUnits="userSpaceOnUse">
<stop stop-color="#7260ED"/>
<stop offset="1" stop-color="#AA7CEE"/>
</linearGradient>
<linearGradient id="paint29_linear_972_34768" x1="130.097" y1="189.919" x2="343.985" y2="156.748" gradientUnits="userSpaceOnUse">
<stop stop-color="#7260ED"/>
<stop offset="1" stop-color="#AA7CEE"/>
</linearGradient>
<linearGradient id="paint30_linear_972_34768" x1="257.814" y1="94.6631" x2="265.269" y2="94.2204" gradientUnits="userSpaceOnUse">
<stop stop-color="#7260ED"/>
<stop offset="1" stop-color="#AA7CEE"/>
</linearGradient>
<linearGradient id="paint31_linear_972_34768" x1="269.291" y1="94.6626" x2="277.304" y2="94.3221" gradientUnits="userSpaceOnUse">
<stop stop-color="#7260ED"/>
<stop offset="1" stop-color="#AA7CEE"/>
</linearGradient>
<linearGradient id="paint32_linear_972_34768" x1="280.756" y1="94.6629" x2="288.498" y2="94.2811" gradientUnits="userSpaceOnUse">
<stop stop-color="#7260ED"/>
<stop offset="1" stop-color="#AA7CEE"/>
</linearGradient>
<linearGradient id="paint33_linear_972_34768" x1="292.232" y1="94.6632" x2="300.823" y2="94.3698" gradientUnits="userSpaceOnUse">
<stop stop-color="#7260ED"/>
<stop offset="1" stop-color="#AA7CEE"/>
</linearGradient>
<linearGradient id="paint34_linear_972_34768" x1="251.024" y1="95.8091" x2="307.994" y2="83.4319" gradientUnits="userSpaceOnUse">
<stop stop-color="#7260ED"/>
<stop offset="1" stop-color="#AA7CEE"/>
</linearGradient>
<linearGradient id="paint35_linear_972_34768" x1="165.219" y1="95.8109" x2="175.409" y2="94.4882" gradientUnits="userSpaceOnUse">
<stop stop-color="#7260ED"/>
<stop offset="1" stop-color="#AA7CEE"/>
</linearGradient>
<linearGradient id="paint36_linear_972_34768" x1="174.076" y1="95.7565" x2="189.676" y2="94.0404" gradientUnits="userSpaceOnUse">
<stop stop-color="#7260ED"/>
<stop offset="1" stop-color="#AA7CEE"/>
</linearGradient>
<linearGradient id="paint37_linear_972_34768" x1="162.189" y1="91.6666" x2="169.658" y2="91.1144" gradientUnits="userSpaceOnUse">
<stop stop-color="#7260ED"/>
<stop offset="1" stop-color="#AA7CEE"/>
</linearGradient>
<linearGradient id="paint38_linear_972_34768" x1="162.143" y1="81.6488" x2="190.037" y2="76.0112" gradientUnits="userSpaceOnUse">
<stop stop-color="#7260ED"/>
<stop offset="1" stop-color="#AA7CEE"/>
</linearGradient>
<linearGradient id="paint39_linear_972_34768" x1="201.596" y1="95.8108" x2="211.798" y2="94.4848" gradientUnits="userSpaceOnUse">
<stop stop-color="#7260ED"/>
<stop offset="1" stop-color="#AA7CEE"/>
</linearGradient>
<linearGradient id="paint40_linear_972_34768" x1="210.513" y1="95.7565" x2="226.113" y2="94.0404" gradientUnits="userSpaceOnUse">
<stop stop-color="#7260ED"/>
<stop offset="1" stop-color="#AA7CEE"/>
</linearGradient>
<linearGradient id="paint41_linear_972_34768" x1="198.566" y1="91.6666" x2="206.035" y2="91.1144" gradientUnits="userSpaceOnUse">
<stop stop-color="#7260ED"/>
<stop offset="1" stop-color="#AA7CEE"/>
</linearGradient>
<linearGradient id="paint42_linear_972_34768" x1="198.58" y1="81.6488" x2="226.474" y2="76.0112" gradientUnits="userSpaceOnUse">
<stop stop-color="#7260ED"/>
<stop offset="1" stop-color="#AA7CEE"/>
</linearGradient>
<linearGradient id="paint43_linear_972_34768" x1="253.236" y1="140.805" x2="261.404" y2="139.907" gradientUnits="userSpaceOnUse">
<stop stop-color="#7260ED"/>
<stop offset="1" stop-color="#AA7CEE"/>
</linearGradient>
<linearGradient id="paint44_linear_972_34768" x1="252.322" y1="152.139" x2="260.491" y2="151.241" gradientUnits="userSpaceOnUse">
<stop stop-color="#7260ED"/>
<stop offset="1" stop-color="#AA7CEE"/>
</linearGradient>
<linearGradient id="paint45_linear_972_34768" x1="251.409" y1="163.407" x2="259.577" y2="162.507" gradientUnits="userSpaceOnUse">
<stop stop-color="#7260ED"/>
<stop offset="1" stop-color="#AA7CEE"/>
</linearGradient>
<linearGradient id="paint46_linear_972_34768" x1="263.297" y1="139.112" x2="281.163" y2="124.909" gradientUnits="userSpaceOnUse">
<stop stop-color="#7260ED"/>
<stop offset="1" stop-color="#AA7CEE"/>
</linearGradient>
<linearGradient id="paint47_linear_972_34768" x1="261.485" y1="161.518" x2="278.568" y2="149.844" gradientUnits="userSpaceOnUse">
<stop stop-color="#7260ED"/>
<stop offset="1" stop-color="#AA7CEE"/>
</linearGradient>
<linearGradient id="paint48_linear_972_34768" x1="262.361" y1="150.211" x2="278.992" y2="139.596" gradientUnits="userSpaceOnUse">
<stop stop-color="#7260ED"/>
<stop offset="1" stop-color="#AA7CEE"/>
</linearGradient>
<linearGradient id="paint49_linear_972_34768" x1="187.99" y1="157.355" x2="240.176" y2="137.394" gradientUnits="userSpaceOnUse">
<stop stop-color="#7260ED"/>
<stop offset="1" stop-color="#AA7CEE"/>
</linearGradient>
<linearGradient id="paint50_linear_972_34768" x1="186.671" y1="163.407" x2="244.278" y2="150.894" gradientUnits="userSpaceOnUse">
<stop stop-color="#7260ED"/>
<stop offset="1" stop-color="#AA7CEE"/>
</linearGradient>
<linearGradient id="paint51_linear_972_34768" x1="204.433" y1="126.983" x2="293.236" y2="91.0183" gradientUnits="userSpaceOnUse">
<stop stop-color="#7260ED"/>
<stop offset="1" stop-color="#AA7CEE"/>
</linearGradient>
<linearGradient id="paint52_linear_972_34768" x1="217.171" y1="119.766" x2="226.385" y2="118.981" gradientUnits="userSpaceOnUse">
<stop stop-color="#7260ED"/>
<stop offset="1" stop-color="#AA7CEE"/>
</linearGradient>
<linearGradient id="paint53_linear_972_34768" x1="225.439" y1="119.779" x2="237.129" y2="118.511" gradientUnits="userSpaceOnUse">
<stop stop-color="#7260ED"/>
<stop offset="1" stop-color="#AA7CEE"/>
</linearGradient>
<linearGradient id="paint54_linear_972_34768" x1="235.858" y1="119.766" x2="245.554" y2="118.896" gradientUnits="userSpaceOnUse">
<stop stop-color="#7260ED"/>
<stop offset="1" stop-color="#AA7CEE"/>
</linearGradient>
<linearGradient id="paint55_linear_972_34768" x1="245.04" y1="119.766" x2="255.136" y2="118.822" gradientUnits="userSpaceOnUse">
<stop stop-color="#7260ED"/>
<stop offset="1" stop-color="#AA7CEE"/>
</linearGradient>
<linearGradient id="paint56_linear_972_34768" x1="254.101" y1="119.766" x2="266.331" y2="118.375" gradientUnits="userSpaceOnUse">
<stop stop-color="#7260ED"/>
<stop offset="1" stop-color="#AA7CEE"/>
</linearGradient>
<linearGradient id="paint57_linear_972_34768" x1="265.954" y1="119.874" x2="276.716" y2="118.829" gradientUnits="userSpaceOnUse">
<stop stop-color="#7260ED"/>
<stop offset="1" stop-color="#AA7CEE"/>
</linearGradient>
<linearGradient id="paint58_linear_972_34768" x1="276.045" y1="119.766" x2="285.741" y2="118.896" gradientUnits="userSpaceOnUse">
<stop stop-color="#7260ED"/>
<stop offset="1" stop-color="#AA7CEE"/>
</linearGradient>
<linearGradient id="paint59_linear_972_34768" x1="209.107" y1="389.724" x2="235.328" y2="384.28" gradientUnits="userSpaceOnUse">
<stop stop-color="#7260ED"/>
<stop offset="1" stop-color="#AA7CEE"/>
</linearGradient>
<linearGradient id="paint60_linear_972_34768" x1="131.263" y1="389.77" x2="158.171" y2="383.879" gradientUnits="userSpaceOnUse">
<stop stop-color="#7260ED"/>
<stop offset="1" stop-color="#AA7CEE"/>
</linearGradient>
<linearGradient id="paint61_linear_972_34768" x1="206.379" y1="373.833" x2="221.311" y2="370.579" gradientUnits="userSpaceOnUse">
<stop stop-color="#7260ED"/>
<stop offset="1" stop-color="#AA7CEE"/>
</linearGradient>
<linearGradient id="paint62_linear_972_34768" x1="133.926" y1="373.99" x2="148.193" y2="370.874" gradientUnits="userSpaceOnUse">
<stop stop-color="#7260ED"/>
<stop offset="1" stop-color="#AA7CEE"/>
</linearGradient>
<linearGradient id="paint63_linear_972_34768" x1="153.471" y1="85.4003" x2="183.009" y2="83.3709" gradientUnits="userSpaceOnUse">
<stop stop-color="#7260ED"/>
<stop offset="1" stop-color="#AA7CEE"/>
</linearGradient>
<linearGradient id="paint64_linear_972_34768" x1="175.843" y1="66.6206" x2="189.525" y2="64.285" gradientUnits="userSpaceOnUse">
<stop stop-color="#7260ED"/>
<stop offset="1" stop-color="#AA7CEE"/>
</linearGradient>
<clipPath id="clip0_972_34768">
<rect width="445.349" height="400" fill="white" transform="translate(0.825684)"/>
</clipPath>
</defs>
</svg>
