<svg width="24" height="24" viewBox="0 0 24 24" fill="none" xmlns="http://www.w3.org/2000/svg">
<path d="M11.0002 4.04147C9.61187 4.21344 8.33613 4.72937 7.18545 5.58299C6.71643 5.9332 5.93472 6.7149 5.58452 7.18393C4.72151 8.3471 4.21184 9.61972 4.03987 11.0299C3.98671 11.4927 3.98671 12.5058 4.03987 12.9686C4.21184 14.3787 4.72151 15.6514 5.58452 16.8145C5.93472 17.2836 6.71643 18.0653 7.18545 18.4155C8.34863 19.2785 9.62125 19.7882 11.0314 19.9601C11.4942 20.0133 12.5073 20.0133 12.9701 19.9601C14.3803 19.7882 15.6529 19.2785 16.8161 18.4155C17.2851 18.0653 18.0668 17.2836 18.417 16.8145C19.28 15.6514 19.7897 14.3787 19.9617 12.9686C20.0148 12.5058 20.0148 11.4927 19.9617 11.0299C19.7897 9.61972 19.28 8.3471 18.417 7.18393C18.0668 6.7149 17.2851 5.9332 16.8161 5.58299C15.6529 4.71999 14.3803 4.21031 12.9701 4.03834C12.5229 3.98518 11.4442 3.98831 11.0002 4.04147ZM12.7981 7.57165C13.6861 7.83743 14.4022 8.55347 14.6773 9.45087C14.7586 9.7104 14.7649 9.77294 14.7649 10.2482C14.7649 10.7235 14.7586 10.786 14.6773 11.0456C14.4022 11.9398 13.6924 12.6496 12.7981 12.9248C12.5386 13.0061 12.476 13.0123 12.0008 13.0123C11.5255 13.0123 11.463 13.0061 11.2034 12.9248C10.3092 12.6496 9.59936 11.9398 9.3242 11.0456C9.2429 10.786 9.23665 10.7235 9.23665 10.2482C9.23665 9.77294 9.2429 9.7104 9.3242 9.45087C9.62438 8.46592 10.4123 7.74363 11.4411 7.51224C11.7694 7.4372 12.4479 7.46847 12.7981 7.57165ZM12.8044 13.1437C14.6961 13.4219 16.3314 14.657 17.1131 16.3956L17.2538 16.7051L17.0412 16.9177C15.9374 18.0403 14.4209 18.8001 12.8982 18.9877C12.4135 19.0471 11.588 19.0471 11.1034 18.9877C9.5806 18.8001 8.06409 18.0403 6.96032 16.9177L6.7477 16.7051L6.88841 16.3956C7.17295 15.7639 7.53253 15.248 8.04533 14.7352C8.91459 13.8691 9.97458 13.3281 11.1722 13.1437C11.563 13.0811 12.401 13.0811 12.8044 13.1437Z" fill="#F9F6FF"/>
</svg>
