<svg width="24" height="24" viewBox="0 0 24 24" fill="none" xmlns="http://www.w3.org/2000/svg">
<path d="M17.1665 4.06099C16.7384 4.21413 16.4102 4.55478 16.2664 4.99231C16.2258 5.12357 16.2164 5.2392 16.2227 5.4986L16.2352 5.83925L15.4476 6.42991L14.6601 7.02058L14.4632 6.92683C14.2944 6.84557 14.2194 6.82994 13.9507 6.81744C13.7038 6.80807 13.5975 6.81432 13.4662 6.85807C13.0193 7.00183 12.6818 7.33311 12.5287 7.77064C12.4505 8.0019 12.4474 8.41756 12.5287 8.6457L12.5818 8.80821L11.6442 9.73953L10.7035 10.674L10.5473 10.6208C10.341 10.5458 9.90973 10.5427 9.70034 10.6146C9.52846 10.674 9.36907 10.7584 9.24094 10.8646L9.15343 10.9365L8.46588 10.5927L7.78145 10.2489V10.0364C7.78145 9.46764 7.3908 8.9426 6.82201 8.74571C6.48136 8.63007 5.95632 8.68008 5.66568 8.86134C5.20314 9.15199 4.96875 9.56452 4.96875 10.0927C4.96875 10.899 5.56567 11.499 6.3751 11.499C6.73138 11.499 7.00327 11.4053 7.25954 11.1959L7.34705 11.124L8.0346 11.4678L8.71902 11.8116V12.0241C8.71902 12.5929 9.10968 13.1179 9.67847 13.3148C9.91599 13.396 10.3316 13.396 10.5692 13.3148C11.0004 13.1679 11.3255 12.8429 11.4723 12.4147C11.5505 12.1866 11.5505 11.7647 11.4723 11.5459L11.4192 11.3897L12.3537 10.449L13.285 9.51139L13.4475 9.56452C13.6756 9.64577 14.0913 9.64265 14.3226 9.56452C14.7601 9.41138 15.0914 9.07386 15.2351 8.63007C15.2758 8.49882 15.2851 8.38318 15.2789 8.12379L15.2664 7.78314L16.0539 7.19247L16.8415 6.6018L17.0384 6.69556C17.2071 6.77681 17.2821 6.79244 17.5509 6.80494C17.7978 6.81432 17.9041 6.80807 18.0353 6.76431C18.6541 6.5643 19.0323 6.04864 19.0323 5.40484C19.0323 4.77667 18.6666 4.26413 18.0728 4.05787C17.8384 3.97974 17.3978 3.97974 17.1665 4.06099Z" fill="#F9F6FF"/>
<path d="M16.4259 8.74605C16.379 8.77731 16.3103 8.84606 16.279 8.89294C16.2228 8.98045 16.2196 9.13983 16.2196 14.0214V19.0624H15.7509H15.2821V15.4278C15.2821 11.9244 15.2789 11.7932 15.2227 11.7056C15.1914 11.6588 15.1227 11.59 15.0758 11.5588C14.9914 11.5025 14.9102 11.4994 13.8757 11.4994C12.8413 11.4994 12.76 11.5025 12.6756 11.5588C12.6288 11.59 12.56 11.6588 12.5287 11.7056C12.4725 11.7932 12.4694 11.9244 12.4694 15.4278V19.0624H12.0006H11.5318V17.3029C11.5318 15.6341 11.5287 15.5434 11.4724 15.4559C11.4412 15.409 11.3724 15.3403 11.3255 15.309C11.2412 15.2528 11.1599 15.2497 10.1254 15.2497C9.091 15.2497 9.00974 15.2528 8.92536 15.309C8.87848 15.3403 8.80973 15.409 8.77847 15.4559C8.72222 15.5434 8.71909 15.6341 8.71909 17.3029V19.0624H8.25031H7.78153V16.3654C7.78153 13.7777 7.7784 13.6683 7.72215 13.5808C7.69089 13.5339 7.62214 13.4651 7.57526 13.4339C7.49088 13.3776 7.40962 13.3745 6.37517 13.3745C5.34072 13.3745 5.25947 13.3776 5.17509 13.4339C5.12821 13.4651 5.05945 13.5339 5.0282 13.5808C4.97195 13.6683 4.96882 13.7777 4.96882 16.3654V19.0624H4.63442C4.35628 19.0624 4.28127 19.0718 4.20627 19.1218C4.0625 19.2187 4 19.3375 4 19.5312C4 19.725 4.0625 19.8437 4.20627 19.9406C4.29377 19.9969 4.50629 20 12.0006 20C19.4949 20 19.7074 19.9969 19.7949 19.9406C19.9387 19.8437 20.0012 19.725 20.0012 19.5312C20.0012 19.3375 19.9387 19.2187 19.7949 19.1218C19.7199 19.0718 19.6449 19.0624 19.3699 19.0624H19.0323V14.0214C19.0323 9.13983 19.0292 8.98045 18.973 8.89294C18.9417 8.84606 18.873 8.77731 18.8261 8.74605C18.7417 8.6898 18.6604 8.68668 17.626 8.68668C16.5915 8.68668 16.5103 8.6898 16.4259 8.74605Z" fill="#F9F6FF"/>
</svg>
