<svg width="182" height="40" viewBox="0 0 182 40" fill="none" xmlns="http://www.w3.org/2000/svg">
<rect x="97" y="5" width="2" height="2" fill="#F9F6FF"/>
<rect x="97" y="2" width="2" height="2" fill="#F9F6FF"/>
<rect x="97" y="8" width="2" height="2" fill="#F9F6FF"/>
<rect x="97" y="11" width="2" height="2" fill="#F9F6FF"/>
<rect x="97" y="17" width="2" height="2" fill="#F9F6FF"/>
<rect x="97" y="14" width="2" height="2" fill="#F9F6FF"/>
<rect x="97" y="20" width="2" height="2" fill="#F9F6FF"/>
<rect x="109" y="5" width="2" height="2" fill="#F9F6FF"/>
<rect x="109" y="2" width="2" height="2" fill="#F9F6FF"/>
<rect x="109" y="8" width="2" height="2" fill="#F9F6FF"/>
<rect x="109" y="11" width="2" height="2" fill="#F9F6FF"/>
<rect x="109" y="17" width="2" height="2" fill="#F9F6FF"/>
<rect x="109" y="14" width="2" height="2" fill="#F9F6FF"/>
<rect x="109" y="20" width="2" height="2" fill="#F9F6FF"/>
<rect x="100" y="5" width="2" height="2" fill="#F9F6FF"/>
<rect x="100" y="2" width="2" height="2" fill="#F9F6FF"/>
<rect x="100" y="32" width="2" height="2" fill="#F9F6FF"/>
<rect x="100" y="35" width="2" height="2" fill="#F9F6FF"/>
<rect x="100" y="8" width="2" height="2" fill="#F9F6FF"/>
<rect x="100" y="11" width="2" height="2" fill="#F9F6FF"/>
<rect x="100" y="17" width="2" height="2" fill="#F9F6FF"/>
<rect x="100" y="14" width="2" height="2" fill="#F9F6FF"/>
<rect x="100" y="20" width="2" height="2" fill="#F9F6FF"/>
<rect x="100" y="23" width="2" height="2" fill="#F9F6FF"/>
<rect x="100" y="26" width="2" height="2" fill="#F9F6FF"/>
<rect x="100" y="29" width="2" height="2" fill="#F9F6FF"/>
<rect x="103" y="32" width="2" height="2" fill="#F9F6FF"/>
<rect x="103" y="35" width="2" height="2" fill="#F9F6FF"/>
<rect x="103" y="17" width="2" height="2" fill="#F9F6FF"/>
<rect x="103" y="20" width="2" height="2" fill="#F9F6FF"/>
<rect x="103" y="23" width="2" height="2" fill="#F9F6FF"/>
<rect x="103" y="26" width="2" height="2" fill="#F9F6FF"/>
<rect x="103" y="29" width="2" height="2" fill="#F9F6FF"/>
<rect x="94" y="5" width="2" height="2" fill="#F9F6FF"/>
<rect x="94" y="2" width="2" height="2" fill="#F9F6FF"/>
<rect x="94" y="8" width="2" height="2" fill="#F9F6FF"/>
<rect x="94" y="11" width="2" height="2" fill="#F9F6FF"/>
<rect x="94" y="17" width="2" height="2" fill="#F9F6FF"/>
<rect x="94" y="14" width="2" height="2" fill="#F9F6FF"/>
<rect x="112" y="5" width="2" height="2" fill="#F9F6FF"/>
<rect x="112" y="2" width="2" height="2" fill="#F9F6FF"/>
<rect x="112" y="8" width="2" height="2" fill="#F9F6FF"/>
<rect x="112" y="11" width="2" height="2" fill="#F9F6FF"/>
<rect x="112" y="17" width="2" height="2" fill="#F9F6FF"/>
<rect x="112" y="14" width="2" height="2" fill="#F9F6FF"/>
<rect x="106" y="5" width="2" height="2" fill="#F9F6FF"/>
<rect x="106" y="2" width="2" height="2" fill="#F9F6FF"/>
<rect x="106" y="32" width="2" height="2" fill="#F9F6FF"/>
<rect x="106" y="35" width="2" height="2" fill="#F9F6FF"/>
<rect x="106" y="8" width="2" height="2" fill="#F9F6FF"/>
<rect x="106" y="11" width="2" height="2" fill="#F9F6FF"/>
<rect x="106" y="17" width="2" height="2" fill="#F9F6FF"/>
<rect x="106" y="14" width="2" height="2" fill="#F9F6FF"/>
<rect x="106" y="20" width="2" height="2" fill="#F9F6FF"/>
<rect x="106" y="23" width="2" height="2" fill="#F9F6FF"/>
<rect x="106" y="26" width="2" height="2" fill="#F9F6FF"/>
<rect x="106" y="29" width="2" height="2" fill="#F9F6FF"/>
<rect x="139" y="5" width="2" height="2" fill="#F9F6FF"/>
<rect x="139" y="2" width="2" height="2" fill="#F9F6FF"/>
<rect x="139" y="32" width="2" height="2" fill="#F9F6FF"/>
<rect x="139" y="35" width="2" height="2" fill="#F9F6FF"/>
<rect x="139" y="8" width="2" height="2" fill="#F9F6FF"/>
<rect x="139" y="11" width="2" height="2" fill="#F9F6FF"/>
<rect x="139" y="17" width="2" height="2" fill="#F9F6FF"/>
<rect x="139" y="14" width="2" height="2" fill="#F9F6FF"/>
<rect x="139" y="20" width="2" height="2" fill="#F9F6FF"/>
<rect x="139" y="23" width="2" height="2" fill="#F9F6FF"/>
<rect x="139" y="26" width="2" height="2" fill="#F9F6FF"/>
<rect x="139" y="29" width="2" height="2" fill="#F9F6FF"/>
<rect x="151" y="5" width="2" height="2" fill="#F9F6FF"/>
<rect x="151" y="2" width="2" height="2" fill="#F9F6FF"/>
<rect x="151" y="32" width="2" height="2" fill="#F9F6FF"/>
<rect x="151" y="35" width="2" height="2" fill="#F9F6FF"/>
<rect x="151" y="8" width="2" height="2" fill="#F9F6FF"/>
<rect x="151" y="11" width="2" height="2" fill="#F9F6FF"/>
<rect x="151" y="17" width="2" height="2" fill="#F9F6FF"/>
<rect x="151" y="14" width="2" height="2" fill="#F9F6FF"/>
<rect x="151" y="20" width="2" height="2" fill="#F9F6FF"/>
<rect x="151" y="23" width="2" height="2" fill="#F9F6FF"/>
<rect x="151" y="26" width="2" height="2" fill="#F9F6FF"/>
<rect x="151" y="29" width="2" height="2" fill="#F9F6FF"/>
<rect x="142" y="5" width="2" height="2" fill="#F9F6FF"/>
<rect x="142" y="2" width="2" height="2" fill="#F9F6FF"/>
<rect x="142" y="32" width="2" height="2" fill="#F9F6FF"/>
<rect x="142" y="35" width="2" height="2" fill="#F9F6FF"/>
<rect x="142" y="8" width="2" height="2" fill="#F9F6FF"/>
<rect x="142" y="11" width="2" height="2" fill="#F9F6FF"/>
<rect x="142" y="17" width="2" height="2" fill="#F9F6FF"/>
<rect x="142" y="14" width="2" height="2" fill="#F9F6FF"/>
<rect x="142" y="20" width="2" height="2" fill="#F9F6FF"/>
<rect x="142" y="23" width="2" height="2" fill="#F9F6FF"/>
<rect x="142" y="26" width="2" height="2" fill="#F9F6FF"/>
<rect x="142" y="29" width="2" height="2" fill="#F9F6FF"/>
<rect x="154" y="5" width="2" height="2" fill="#F9F6FF"/>
<rect x="154" y="2" width="2" height="2" fill="#F9F6FF"/>
<rect x="154" y="32" width="2" height="2" fill="#F9F6FF"/>
<rect x="154" y="35" width="2" height="2" fill="#F9F6FF"/>
<rect x="154" y="8" width="2" height="2" fill="#F9F6FF"/>
<rect x="154" y="11" width="2" height="2" fill="#F9F6FF"/>
<rect x="154" y="17" width="2" height="2" fill="#F9F6FF"/>
<rect x="154" y="14" width="2" height="2" fill="#F9F6FF"/>
<rect x="154" y="20" width="2" height="2" fill="#F9F6FF"/>
<rect x="154" y="23" width="2" height="2" fill="#F9F6FF"/>
<rect x="154" y="26" width="2" height="2" fill="#F9F6FF"/>
<rect x="154" y="29" width="2" height="2" fill="#F9F6FF"/>
<rect x="145" y="5" width="2" height="2" fill="#F9F6FF"/>
<rect x="145" y="2" width="2" height="2" fill="#F9F6FF"/>
<rect x="145" y="32" width="2" height="2" fill="#F9F6FF"/>
<rect x="145" y="35" width="2" height="2" fill="#F9F6FF"/>
<rect x="145" y="8" width="2" height="2" fill="#F9F6FF"/>
<rect x="145" y="11" width="2" height="2" fill="#F9F6FF"/>
<rect x="145" y="17" width="2" height="2" fill="#F9F6FF"/>
<rect x="145" y="14" width="2" height="2" fill="#F9F6FF"/>
<rect x="145" y="20" width="2" height="2" fill="#F9F6FF"/>
<rect x="145" y="23" width="2" height="2" fill="#F9F6FF"/>
<rect x="145" y="26" width="2" height="2" fill="#F9F6FF"/>
<rect x="145" y="29" width="2" height="2" fill="#F9F6FF"/>
<rect x="157" y="5" width="2" height="2" fill="#F9F6FF"/>
<rect x="157" y="2" width="2" height="2" fill="#F9F6FF"/>
<rect x="157" y="32" width="2" height="2" fill="#F9F6FF"/>
<rect x="157" y="35" width="2" height="2" fill="#F9F6FF"/>
<rect x="157" y="8" width="2" height="2" fill="#F9F6FF"/>
<rect x="157" y="11" width="2" height="2" fill="#F9F6FF"/>
<rect x="157" y="17" width="2" height="2" fill="#F9F6FF"/>
<rect x="157" y="14" width="2" height="2" fill="#F9F6FF"/>
<rect x="157" y="20" width="2" height="2" fill="#F9F6FF"/>
<rect x="157" y="23" width="2" height="2" fill="#F9F6FF"/>
<rect x="157" y="26" width="2" height="2" fill="#F9F6FF"/>
<rect x="157" y="29" width="2" height="2" fill="#F9F6FF"/>
<rect x="148" y="17" width="2" height="2" fill="#F9F6FF"/>
<rect x="148" y="20" width="2" height="2" fill="#F9F6FF"/>
<rect x="168" y="5" width="2" height="2" fill="#F9F6FF"/>
<rect x="168" y="2" width="2" height="2" fill="#F9F6FF"/>
<rect x="168" y="32" width="2" height="2" fill="#F9F6FF"/>
<rect x="168" y="35" width="2" height="2" fill="#F9F6FF"/>
<rect x="168" y="8" width="2" height="2" fill="#F9F6FF"/>
<rect x="168" y="11" width="2" height="2" fill="#F9F6FF"/>
<rect x="168" y="17" width="2" height="2" fill="#F9F6FF"/>
<rect x="168" y="14" width="2" height="2" fill="#F9F6FF"/>
<rect x="168" y="20" width="2" height="2" fill="#F9F6FF"/>
<rect x="168" y="23" width="2" height="2" fill="#F9F6FF"/>
<rect x="168" y="26" width="2" height="2" fill="#F9F6FF"/>
<rect x="168" y="29" width="2" height="2" fill="#F9F6FF"/>
<rect x="174" y="5" width="2" height="2" fill="#F9F6FF"/>
<rect x="174" y="2" width="2" height="2" fill="#F9F6FF"/>
<rect x="174" y="32" width="2" height="2" fill="#F9F6FF"/>
<rect x="174" y="35" width="2" height="2" fill="#F9F6FF"/>
<rect x="174" y="8" width="2" height="2" fill="#F9F6FF"/>
<rect x="174" y="11" width="2" height="2" fill="#F9F6FF"/>
<rect x="174" y="17" width="2" height="2" fill="#F9F6FF"/>
<rect x="174" y="14" width="2" height="2" fill="#F9F6FF"/>
<rect x="174" y="20" width="2" height="2" fill="#F9F6FF"/>
<rect x="174" y="23" width="2" height="2" fill="#F9F6FF"/>
<rect x="174" y="26" width="2" height="2" fill="#F9F6FF"/>
<rect x="174" y="29" width="2" height="2" fill="#F9F6FF"/>
<rect x="162" y="5" width="2" height="2" fill="#F9F6FF"/>
<rect x="162" y="2" width="2" height="2" fill="#F9F6FF"/>
<rect x="162" y="32" width="2" height="2" fill="#F9F6FF"/>
<rect x="162" y="35" width="2" height="2" fill="#F9F6FF"/>
<rect x="162" y="8" width="2" height="2" fill="#F9F6FF"/>
<rect x="162" y="11" width="2" height="2" fill="#F9F6FF"/>
<rect x="162" y="14" width="2" height="2" fill="#F9F6FF"/>
<rect x="162" y="23" width="2" height="2" fill="#F9F6FF"/>
<rect x="162" y="26" width="2" height="2" fill="#F9F6FF"/>
<rect x="162" y="29" width="2" height="2" fill="#F9F6FF"/>
<rect x="180" y="5" width="2" height="2" fill="#F9F6FF"/>
<rect x="180" y="2" width="2" height="2" fill="#F9F6FF"/>
<rect x="180" y="32" width="2" height="2" fill="#F9F6FF"/>
<rect x="180" y="35" width="2" height="2" fill="#F9F6FF"/>
<rect x="180" y="8" width="2" height="2" fill="#F9F6FF"/>
<rect x="180" y="11" width="2" height="2" fill="#F9F6FF"/>
<rect x="180" y="14" width="2" height="2" fill="#F9F6FF"/>
<rect x="180" y="23" width="2" height="2" fill="#F9F6FF"/>
<rect x="180" y="26" width="2" height="2" fill="#F9F6FF"/>
<rect x="180" y="29" width="2" height="2" fill="#F9F6FF"/>
<rect x="165" y="5" width="2" height="2" fill="#F9F6FF"/>
<rect x="165" y="2" width="2" height="2" fill="#F9F6FF"/>
<rect x="165" y="32" width="2" height="2" fill="#F9F6FF"/>
<rect x="165" y="35" width="2" height="2" fill="#F9F6FF"/>
<rect x="165" y="8" width="2" height="2" fill="#F9F6FF"/>
<rect x="165" y="11" width="2" height="2" fill="#F9F6FF"/>
<rect x="165" y="17" width="2" height="2" fill="#F9F6FF"/>
<rect x="165" y="14" width="2" height="2" fill="#F9F6FF"/>
<rect x="165" y="20" width="2" height="2" fill="#F9F6FF"/>
<rect x="165" y="23" width="2" height="2" fill="#F9F6FF"/>
<rect x="165" y="26" width="2" height="2" fill="#F9F6FF"/>
<rect x="165" y="29" width="2" height="2" fill="#F9F6FF"/>
<rect x="177" y="5" width="2" height="2" fill="#F9F6FF"/>
<rect x="177" y="2" width="2" height="2" fill="#F9F6FF"/>
<rect x="177" y="32" width="2" height="2" fill="#F9F6FF"/>
<rect x="177" y="35" width="2" height="2" fill="#F9F6FF"/>
<rect x="177" y="8" width="2" height="2" fill="#F9F6FF"/>
<rect x="177" y="11" width="2" height="2" fill="#F9F6FF"/>
<rect x="177" y="17" width="2" height="2" fill="#F9F6FF"/>
<rect x="177" y="14" width="2" height="2" fill="#F9F6FF"/>
<rect x="177" y="20" width="2" height="2" fill="#F9F6FF"/>
<rect x="177" y="23" width="2" height="2" fill="#F9F6FF"/>
<rect x="177" y="26" width="2" height="2" fill="#F9F6FF"/>
<rect x="177" y="29" width="2" height="2" fill="#F9F6FF"/>
<rect x="171" y="17" width="2" height="2" fill="#F9F6FF"/>
<rect x="171" y="20" width="2" height="2" fill="#F9F6FF"/>
<rect x="116" y="5" width="2" height="2" fill="#F9F6FF"/>
<rect x="116" y="2" width="2" height="2" fill="#F9F6FF"/>
<rect x="116" y="32" width="2" height="2" fill="#F9F6FF"/>
<rect x="116" y="35" width="2" height="2" fill="#F9F6FF"/>
<rect x="116" y="8" width="2" height="2" fill="#F9F6FF"/>
<rect x="116" y="11" width="2" height="2" fill="#F9F6FF"/>
<rect x="116" y="17" width="2" height="2" fill="#F9F6FF"/>
<rect x="116" y="14" width="2" height="2" fill="#F9F6FF"/>
<rect x="116" y="20" width="2" height="2" fill="#F9F6FF"/>
<rect x="116" y="23" width="2" height="2" fill="#F9F6FF"/>
<rect x="116" y="26" width="2" height="2" fill="#F9F6FF"/>
<rect x="116" y="29" width="2" height="2" fill="#F9F6FF"/>
<rect x="119" y="5" width="2" height="2" fill="#F9F6FF"/>
<rect x="119" y="2" width="2" height="2" fill="#F9F6FF"/>
<rect x="119" y="32" width="2" height="2" fill="#F9F6FF"/>
<rect x="119" y="35" width="2" height="2" fill="#F9F6FF"/>
<rect x="119" y="8" width="2" height="2" fill="#F9F6FF"/>
<rect x="119" y="11" width="2" height="2" fill="#F9F6FF"/>
<rect x="119" y="17" width="2" height="2" fill="#F9F6FF"/>
<rect x="119" y="14" width="2" height="2" fill="#F9F6FF"/>
<rect x="119" y="20" width="2" height="2" fill="#F9F6FF"/>
<rect x="119" y="23" width="2" height="2" fill="#F9F6FF"/>
<rect x="119" y="26" width="2" height="2" fill="#F9F6FF"/>
<rect x="119" y="29" width="2" height="2" fill="#F9F6FF"/>
<rect x="122" y="5" width="2" height="2" fill="#F9F6FF"/>
<rect x="122" y="2" width="2" height="2" fill="#F9F6FF"/>
<rect x="122" y="32" width="2" height="2" fill="#F9F6FF"/>
<rect x="122" y="35" width="2" height="2" fill="#F9F6FF"/>
<rect x="122" y="8" width="2" height="2" fill="#F9F6FF"/>
<rect x="122" y="11" width="2" height="2" fill="#F9F6FF"/>
<rect x="122" y="17" width="2" height="2" fill="#F9F6FF"/>
<rect x="122" y="14" width="2" height="2" fill="#F9F6FF"/>
<rect x="122" y="20" width="2" height="2" fill="#F9F6FF"/>
<rect x="122" y="23" width="2" height="2" fill="#F9F6FF"/>
<rect x="122" y="26" width="2" height="2" fill="#F9F6FF"/>
<rect x="122" y="29" width="2" height="2" fill="#F9F6FF"/>
<rect x="128" y="5" width="2" height="2" fill="#F9F6FF"/>
<rect x="128" y="2" width="2" height="2" fill="#F9F6FF"/>
<rect x="128" y="8" width="2" height="2" fill="#F9F6FF"/>
<rect x="128" y="11" width="2" height="2" fill="#F9F6FF"/>
<rect x="128" y="17" width="2" height="2" fill="#F9F6FF"/>
<rect x="128" y="14" width="2" height="2" fill="#F9F6FF"/>
<rect x="128" y="20" width="2" height="2" fill="#F9F6FF"/>
<rect x="131" y="5" width="2" height="2" fill="#F9F6FF"/>
<rect x="131" y="2" width="2" height="2" fill="#F9F6FF"/>
<rect x="131" y="8" width="2" height="2" fill="#F9F6FF"/>
<rect x="131" y="11" width="2" height="2" fill="#F9F6FF"/>
<rect x="131" y="17" width="2" height="2" fill="#F9F6FF"/>
<rect x="131" y="14" width="2" height="2" fill="#F9F6FF"/>
<rect x="131" y="20" width="2" height="2" fill="#F9F6FF"/>
<rect x="134" y="5" width="2" height="2" fill="#F9F6FF"/>
<rect x="134" y="8" width="2" height="2" fill="#F9F6FF"/>
<rect x="134" y="11" width="2" height="2" fill="#F9F6FF"/>
<rect x="134" y="17" width="2" height="2" fill="#F9F6FF"/>
<rect x="134" y="14" width="2" height="2" fill="#F9F6FF"/>
<rect x="125" y="5" width="2" height="2" fill="#F9F6FF"/>
<rect x="125" y="2" width="2" height="2" fill="#F9F6FF"/>
<rect x="125" y="17" width="2" height="2" fill="#F9F6FF"/>
<rect x="125" y="20" width="2" height="2" fill="#F9F6FF"/>
<rect x="71" y="5" width="2" height="2" fill="#F9F6FF"/>
<rect x="71" y="2" width="2" height="2" fill="#F9F6FF"/>
<rect x="71" y="32" width="2" height="2" fill="#F9F6FF"/>
<rect x="71" y="35" width="2" height="2" fill="#F9F6FF"/>
<rect x="71" y="8" width="2" height="2" fill="#F9F6FF"/>
<rect x="71" y="11" width="2" height="2" fill="#F9F6FF"/>
<rect x="71" y="17" width="2" height="2" fill="#F9F6FF"/>
<rect x="71" y="14" width="2" height="2" fill="#F9F6FF"/>
<rect x="71" y="20" width="2" height="2" fill="#F9F6FF"/>
<rect x="71" y="23" width="2" height="2" fill="#F9F6FF"/>
<rect x="71" y="26" width="2" height="2" fill="#F9F6FF"/>
<rect x="71" y="29" width="2" height="2" fill="#F9F6FF"/>
<rect x="74" y="5" width="2" height="2" fill="#F9F6FF"/>
<rect x="74" y="2" width="2" height="2" fill="#F9F6FF"/>
<rect x="74" y="32" width="2" height="2" fill="#F9F6FF"/>
<rect x="74" y="35" width="2" height="2" fill="#F9F6FF"/>
<rect x="74" y="8" width="2" height="2" fill="#F9F6FF"/>
<rect x="74" y="11" width="2" height="2" fill="#F9F6FF"/>
<rect x="74" y="17" width="2" height="2" fill="#F9F6FF"/>
<rect x="74" y="14" width="2" height="2" fill="#F9F6FF"/>
<rect x="74" y="20" width="2" height="2" fill="#F9F6FF"/>
<rect x="74" y="23" width="2" height="2" fill="#F9F6FF"/>
<rect x="74" y="26" width="2" height="2" fill="#F9F6FF"/>
<rect x="74" y="29" width="2" height="2" fill="#F9F6FF"/>
<rect x="77" y="5" width="2" height="2" fill="#F9F6FF"/>
<rect x="77" y="2" width="2" height="2" fill="#F9F6FF"/>
<rect x="77" y="32" width="2" height="2" fill="#F9F6FF"/>
<rect x="80" y="32" width="2" height="2" fill="#F9F6FF"/>
<rect x="83" y="32" width="2" height="2" fill="#F9F6FF"/>
<rect x="86" y="32" width="2" height="2" fill="#F9F6FF"/>
<rect x="89" y="32" width="2" height="2" fill="#F9F6FF"/>
<rect x="77" y="35" width="2" height="2" fill="#F9F6FF"/>
<rect x="80" y="35" width="2" height="2" fill="#F9F6FF"/>
<rect x="83" y="35" width="2" height="2" fill="#F9F6FF"/>
<rect x="86" y="35" width="2" height="2" fill="#F9F6FF"/>
<rect x="89" y="35" width="2" height="2" fill="#F9F6FF"/>
<rect x="77" y="8" width="2" height="2" fill="#F9F6FF"/>
<rect x="77" y="11" width="2" height="2" fill="#F9F6FF"/>
<rect x="77" y="17" width="2" height="2" fill="#F9F6FF"/>
<rect x="77" y="14" width="2" height="2" fill="#F9F6FF"/>
<rect x="77" y="20" width="2" height="2" fill="#F9F6FF"/>
<rect x="77" y="23" width="2" height="2" fill="#F9F6FF"/>
<rect x="77" y="26" width="2" height="2" fill="#F9F6FF"/>
<rect x="77" y="29" width="2" height="2" fill="#F9F6FF"/>
<rect x="48" y="5" width="2" height="2" fill="#F9F6FF"/>
<rect x="51" y="5" width="2" height="2" fill="#F9F6FF"/>
<rect x="57" y="5" width="2" height="2" fill="#F9F6FF"/>
<rect x="51" y="2" width="2" height="2" fill="#F9F6FF"/>
<rect x="57" y="2" width="2" height="2" fill="#F9F6FF"/>
<rect x="51" y="32" width="2" height="2" fill="#F9F6FF"/>
<rect x="57" y="32" width="2" height="2" fill="#F9F6FF"/>
<rect x="51" y="35" width="2" height="2" fill="#F9F6FF"/>
<rect x="57" y="35" width="2" height="2" fill="#F9F6FF"/>
<rect x="48" y="8" width="2" height="2" fill="#F9F6FF"/>
<rect x="51" y="8" width="2" height="2" fill="#F9F6FF"/>
<rect x="48" y="11" width="2" height="2" fill="#F9F6FF"/>
<rect x="51" y="11" width="2" height="2" fill="#F9F6FF"/>
<rect x="48" y="14" width="2" height="2" fill="#F9F6FF"/>
<rect x="51" y="14" width="2" height="2" fill="#F9F6FF"/>
<rect x="48" y="17" width="2" height="2" fill="#F9F6FF"/>
<rect x="51" y="17" width="2" height="2" fill="#F9F6FF"/>
<rect x="48" y="20" width="2" height="2" fill="#F9F6FF"/>
<rect x="51" y="20" width="2" height="2" fill="#F9F6FF"/>
<rect x="48" y="23" width="2" height="2" fill="#F9F6FF"/>
<rect x="51" y="23" width="2" height="2" fill="#F9F6FF"/>
<rect x="48" y="26" width="2" height="2" fill="#F9F6FF"/>
<rect x="51" y="26" width="2" height="2" fill="#F9F6FF"/>
<rect x="48" y="29" width="2" height="2" fill="#F9F6FF"/>
<rect x="48" y="32" width="2" height="2" fill="#F9F6FF"/>
<rect x="51" y="29" width="2" height="2" fill="#F9F6FF"/>
<rect x="54" y="5" width="2" height="2" fill="#F9F6FF"/>
<rect x="54" y="2" width="2" height="2" fill="#F9F6FF"/>
<rect x="54" y="32" width="2" height="2" fill="#F9F6FF"/>
<rect x="54" y="35" width="2" height="2" fill="#F9F6FF"/>
<rect x="54" y="8" width="2" height="2" fill="#F9F6FF"/>
<rect x="54" y="11" width="2" height="2" fill="#F9F6FF"/>
<rect x="54" y="14" width="2" height="2" fill="#F9F6FF"/>
<rect x="54" y="17" width="2" height="2" fill="#F9F6FF"/>
<rect x="54" y="20" width="2" height="2" fill="#F9F6FF"/>
<rect x="54" y="23" width="2" height="2" fill="#F9F6FF"/>
<rect x="54" y="26" width="2" height="2" fill="#F9F6FF"/>
<rect x="54" y="29" width="2" height="2" fill="#F9F6FF"/>
<rect x="60" y="5" width="2" height="2" fill="#F9F6FF"/>
<rect x="60" y="2" width="2" height="2" fill="#F9F6FF"/>
<rect x="60" y="32" width="2" height="2" fill="#F9F6FF"/>
<rect x="60" y="35" width="2" height="2" fill="#F9F6FF"/>
<rect x="60" y="8" width="2" height="2" fill="#F9F6FF"/>
<rect x="60" y="11" width="2" height="2" fill="#F9F6FF"/>
<rect x="60" y="17" width="2" height="2" fill="#F9F6FF"/>
<rect x="60" y="20" width="2" height="2" fill="#F9F6FF"/>
<rect x="60" y="23" width="2" height="2" fill="#F9F6FF"/>
<rect x="60" y="26" width="2" height="2" fill="#F9F6FF"/>
<rect x="60" y="29" width="2" height="2" fill="#F9F6FF"/>
<rect x="63" y="5" width="2" height="2" fill="#F9F6FF"/>
<rect x="63" y="2" width="2" height="2" fill="#F9F6FF"/>
<rect x="63" y="32" width="2" height="2" fill="#F9F6FF"/>
<rect x="63" y="35" width="2" height="2" fill="#F9F6FF"/>
<rect x="63" y="8" width="2" height="2" fill="#F9F6FF"/>
<rect x="63" y="11" width="2" height="2" fill="#F9F6FF"/>
<rect x="63" y="17" width="2" height="2" fill="#F9F6FF"/>
<rect x="63" y="20" width="2" height="2" fill="#F9F6FF"/>
<rect x="63" y="23" width="2" height="2" fill="#F9F6FF"/>
<rect x="63" y="26" width="2" height="2" fill="#F9F6FF"/>
<rect x="63" y="29" width="2" height="2" fill="#F9F6FF"/>
<rect x="66" y="5" width="2" height="2" fill="#F9F6FF"/>
<rect x="66" y="32" width="2" height="2" fill="#F9F6FF"/>
<rect x="66" y="35" width="2" height="2" fill="#F9F6FF"/>
<rect x="66" y="8" width="2" height="2" fill="#F9F6FF"/>
<rect x="66" y="11" width="2" height="2" fill="#F9F6FF"/>
<rect x="66" y="17" width="2" height="2" fill="#F9F6FF"/>
<rect x="66" y="20" width="2" height="2" fill="#F9F6FF"/>
<rect x="66" y="23" width="2" height="2" fill="#F9F6FF"/>
<rect x="66" y="26" width="2" height="2" fill="#F9F6FF"/>
<rect x="66" y="29" width="2" height="2" fill="#F9F6FF"/>
<path d="M14.2466 0L5.84473 8.47926L19.9087 22.8571L33.9726 8.47926L25.5708 0L17.3516 8.47926L19.9087 11.2442L25.7534 5.34562L28.8584 8.47926L19.9087 17.5115L11.1415 8.47926L16.8036 2.58065L14.2466 0Z" fill="#F9F6FF"/>
<path d="M13.8813 23.2254L2.55708 11.7969L0 14.3775L8.76712 23.2254L0.365297 31.7047L8.58448 39.9996L19.9087 28.5711L31.2329 39.9996L39.4521 31.7047L31.2329 23.4098L40 14.5619L37.2603 11.7969L25.9361 23.2254L34.3379 31.7047L31.2329 34.8384L19.9087 23.4098L8.58448 34.8384L5.47945 31.7047L13.8813 23.2254Z" fill="#F9F6FF"/>
</svg>
