<svg width="24" height="24" viewBox="0 0 24 24" fill="none" xmlns="http://www.w3.org/2000/svg">
<path d="M19.0945 4.06256C18.7386 4.17684 18.3468 4.50336 18.1868 4.81681C18.1117 4.96047 16.613 9.0125 16.6065 9.0876C16.6032 9.11372 17.044 9.2933 17.8407 9.58716C18.5231 9.83531 19.0945 10.041 19.1141 10.041C19.1337 10.041 19.4961 9.09739 19.9173 7.94154C20.6618 5.9041 20.6846 5.83879 20.6944 5.56779C20.7107 5.23148 20.6454 4.95721 20.4822 4.64702C20.1981 4.10175 19.6659 3.87972 19.0945 4.06256Z" fill="#9C95BA"/>
<path d="M16.966 4.3988C16.7897 4.43471 16.6232 4.56858 16.5546 4.73184C16.5219 4.80694 16.1301 5.84198 15.6893 7.03702C14.9449 9.03854 14.8861 9.22139 14.8959 9.37812C14.9449 9.96258 15.7122 10.1552 16.0354 9.66545C16.1171 9.53484 17.7039 5.28365 17.7398 5.091C17.779 4.8755 17.6484 4.58491 17.4558 4.47063C17.3252 4.39553 17.126 4.36614 16.966 4.3988Z" fill="#9C95BA"/>
<path d="M7.25207 8.40613C6.97127 8.49103 6.56639 8.7 6.28559 8.9057C5.29952 9.63382 4.67588 10.8582 4.23182 12.9185C4.01633 13.9209 4.00327 14.0417 4 14.8907C4 15.6025 4.00653 15.7004 4.0751 15.9682C4.28407 16.7845 4.72812 17.2873 5.4236 17.4897C5.50522 17.5126 5.72072 17.5322 5.92643 17.5289C6.4815 17.5256 6.8276 17.3918 7.6145 16.8791C8.02264 16.6114 8.08468 16.5788 8.05203 16.631C8.00958 16.7028 7.9704 17.2938 7.99978 17.4669C8.06182 17.8424 8.30018 18.2048 8.61363 18.3909C8.75403 18.4725 8.79321 18.4823 9.0936 18.4791C9.44297 18.4791 9.5899 18.4333 9.92621 18.2211L10.0699 18.1297L10.1221 18.2081C10.2984 18.4823 10.5858 18.6195 11.0788 18.6652C11.2878 18.6848 11.4869 18.7239 11.5424 18.7533C11.598 18.7827 11.7612 18.9101 11.9049 19.0407C12.2902 19.3835 12.4371 19.4423 12.7408 19.377C13.0803 19.3019 13.3187 18.9166 13.2273 18.5803C13.175 18.3876 13.0803 18.2701 12.7114 17.9501C12.2151 17.5191 11.8592 17.3559 11.4216 17.3559H11.2323L11.1506 17.1893C11.0037 16.902 10.6478 16.7094 10.2527 16.7061C9.99478 16.7028 9.84785 16.742 9.56378 16.8824L9.34828 16.9902L9.44297 16.5918C9.55398 16.1282 9.59317 15.6417 9.53766 15.436C9.48542 15.2531 9.30583 15.0539 9.12299 14.9854C9.00871 14.9429 8.91728 14.9331 8.69199 14.9495C8.18916 14.9854 7.81041 15.1486 7.00392 15.671C6.36395 16.0857 6.15825 16.1869 5.93296 16.1935C5.64236 16.2 5.51502 16.089 5.39421 15.7168C5.3485 15.5731 5.3387 15.4229 5.34197 14.858C5.34197 14.2475 5.35503 14.1234 5.43339 13.7316C5.74358 12.1969 6.0505 11.2925 6.4815 10.646C6.83087 10.1203 7.41859 9.6828 7.77449 9.6828C8.28058 9.6828 8.66913 10.264 8.84545 11.2794C8.90096 11.5864 8.92708 11.6745 9.00544 11.7692C9.12625 11.9194 9.26012 11.9945 9.43971 12.0206C9.7303 12.0598 9.99478 11.9227 10.1286 11.6615C10.1874 11.5439 10.194 11.4917 10.1776 11.2174C10.145 10.7211 9.98825 10.1595 9.74989 9.69259C9.44624 9.09181 8.95647 8.62163 8.44711 8.44205C8.15651 8.33757 7.54593 8.32124 7.25207 8.40613Z" fill="#9C95BA"/>
<path d="M16.1789 10.1622C16.0026 10.6095 14.1121 15.7978 14.0729 15.9545C13.9129 16.5422 13.8215 17.6948 13.877 18.3446C13.8999 18.5764 13.9423 18.8441 13.975 18.9421L14.0305 19.1184L13.9358 19.3862C13.8509 19.6212 13.8444 19.6735 13.8738 19.7747C13.9162 19.9216 14.0305 20 14.1905 20C14.3505 20 14.4484 19.889 14.5594 19.5755C14.6411 19.3568 14.6639 19.3209 14.8206 19.2131C15.3333 18.8572 16.094 17.8809 16.5218 17.0353C16.6948 16.6892 18.7584 11.0568 18.7225 11.0242C18.6898 10.9948 16.2736 10.1067 16.2312 10.1067C16.2149 10.1067 16.192 10.1328 16.1789 10.1622Z" fill="#9C95BA"/>
</svg>
