<svg width="48" height="48" viewBox="0 0 48 48" fill="none" xmlns="http://www.w3.org/2000/svg">
<circle cx="24" cy="24" r="24" fill="url(#paint0_linear_972_25366)"/>
<path d="M30.9032 15.6957C30.56 15.8774 29.5002 17.0786 25.604 21.752L20.7287 27.5862L18.5585 25.4262C16.2672 23.1551 16.0048 22.9633 15.1569 22.9633C13.5924 22.9734 12.5426 24.6287 13.1987 26.0419C13.3198 26.3043 14.4907 27.5358 16.6003 29.6353C19.8102 32.8249 19.8202 32.835 20.3754 32.946C20.9911 33.0672 21.4958 32.9864 22.0106 32.6836C22.3639 32.4817 33.3055 19.491 33.7699 18.734C34.3351 17.7952 34.0424 16.5032 33.1138 15.8572C32.5283 15.4434 31.5391 15.3727 30.9032 15.6957Z" fill="white"/>
<defs>
<linearGradient id="paint0_linear_972_25366" x1="3.57628e-07" y1="48" x2="52.628" y2="42.2328" gradientUnits="userSpaceOnUse">
<stop stop-color="#7260ED"/>
<stop offset="1" stop-color="#AA7CEE"/>
</linearGradient>
</defs>
</svg>
