<svg width="24" height="24" viewBox="0 0 24 24" fill="none" xmlns="http://www.w3.org/2000/svg">
<path d="M6.27031 4.0875C5.94844 4.19687 5.74219 4.32812 5.50781 4.57812C5.28906 4.8125 5.11719 5.14375 5.05156 5.45312C4.98281 5.78125 4.98281 18.2187 5.05156 18.5469C5.18594 19.1844 5.67656 19.7281 6.28906 19.9219L6.53906 20H11.6922H16.8453L17.0922 19.9219C17.7109 19.725 18.1984 19.1875 18.3328 18.5469C18.4016 18.2187 18.4016 5.78125 18.3328 5.45312C18.1984 4.8125 17.7109 4.275 17.0922 4.07812L16.8453 4H11.6828H6.52031L6.27031 4.0875ZM11.3391 9.37812C11.5016 9.4375 11.6234 9.5875 11.6641 9.77812C11.7172 10.0437 11.6891 10.5906 11.6109 10.7219C11.5172 10.8781 11.3672 10.9687 11.1953 10.9687C10.9266 10.9687 10.7453 10.7875 10.7047 10.4781L10.6859 10.3125H10.2672H9.84844L9.85469 11.6625L9.86406 13.0125L9.97344 13.0406C10.0328 13.0562 10.1297 13.1094 10.1828 13.1656C10.3859 13.3562 10.3922 13.6031 10.2047 13.8125C10.0547 13.9781 9.88906 14.0094 9.23906 13.9937C8.75469 13.9844 8.72969 13.9812 8.60781 13.9C8.24844 13.6625 8.34219 13.1187 8.75781 13.0344L8.86406 13.0125L8.87344 11.6625L8.87969 10.3125H8.44219H8.00469V10.4625C8.00469 10.6437 7.92344 10.8031 7.78281 10.9C7.69531 10.9625 7.64531 10.9719 7.49531 10.9625C7.35156 10.95 7.29844 10.9312 7.22031 10.8562C7.06406 10.7094 7.03594 10.6094 7.03594 10.1625C7.03594 9.67187 7.08906 9.52812 7.31719 9.4125L7.45469 9.34375H9.35156C10.6141 9.34375 11.2797 9.35625 11.3391 9.37812ZM16.0672 9.4125C16.1703 9.46562 16.2266 9.52187 16.2797 9.625C16.4016 9.85937 16.3359 10.0812 16.0984 10.2406C15.9953 10.3125 15.9922 10.3125 14.6922 10.3125C13.3922 10.3125 13.3891 10.3125 13.2859 10.2406C13.0484 10.0812 12.9828 9.85937 13.1047 9.625C13.1578 9.52187 13.2141 9.46562 13.3172 9.4125C13.4547 9.34375 13.4703 9.34375 14.6922 9.34375C15.9141 9.34375 15.9297 9.34375 16.0672 9.4125ZM16.0672 11.2344C16.1953 11.3 16.3203 11.4781 16.3391 11.6156C16.3609 11.7969 16.2453 11.9969 16.0672 12.0844C15.9297 12.1562 15.9141 12.1562 14.6922 12.1562C13.4703 12.1562 13.4547 12.1562 13.3172 12.0844C13.2141 12.0344 13.1578 11.9781 13.1047 11.875C12.9828 11.6406 13.0484 11.4187 13.2859 11.2562C13.3891 11.1875 13.3922 11.1875 14.6828 11.1875C15.7703 11.1875 15.9922 11.1937 16.0672 11.2344ZM15.9578 13.0344C16.1109 13.075 16.2734 13.225 16.3203 13.3656C16.4016 13.6187 16.2203 13.9062 15.9391 13.9656C15.7297 14.0125 13.6547 14.0125 13.4453 13.9656C13.1641 13.9062 12.9828 13.6187 13.0641 13.3656C13.1109 13.2312 13.2703 13.075 13.4109 13.0375C13.5641 12.9937 15.7984 12.9906 15.9578 13.0344ZM15.9578 15.0344C16.1109 15.075 16.2734 15.225 16.3203 15.3656C16.4016 15.6187 16.2203 15.9062 15.9391 15.9656C15.7203 16.0125 7.66406 16.0125 7.44531 15.9656C7.16406 15.9062 6.98281 15.6187 7.06406 15.3656C7.11094 15.2312 7.27031 15.075 7.41094 15.0375C7.57031 14.9906 15.7922 14.9906 15.9578 15.0344ZM15.9578 17.0344C16.1109 17.075 16.2734 17.225 16.3203 17.3656C16.4016 17.6187 16.2203 17.9062 15.9391 17.9656C15.7203 18.0125 7.66406 18.0125 7.44531 17.9656C7.16406 17.9062 6.98281 17.6187 7.06406 17.3656C7.11094 17.2312 7.27031 17.075 7.41094 17.0375C7.57031 16.9906 15.7922 16.9906 15.9578 17.0344Z" fill="#9C95BA"/>
</svg>
