<svg width="24" height="24" viewBox="0 0 24 24" fill="none" xmlns="http://www.w3.org/2000/svg">
<path d="M4.28571 4.00252C4.21785 4.03824 4.125 4.12038 4.08214 4.18466L4 4.30252V10.0953V15.8881L4.07857 16.006C4.125 16.0702 4.20714 16.1595 4.26071 16.1988L4.36071 16.2738L9.06423 16.2845C12.3392 16.2917 13.807 16.2845 13.8999 16.256C14.0285 16.2202 14.2499 16.0631 14.2499 16.006C14.2499 15.9917 14.107 15.9524 13.9356 15.9203C12.2428 15.6131 11.0714 14.4381 10.8035 12.781C10.6464 11.8096 10.8714 10.781 11.4178 9.96674C11.7785 9.42389 12.3963 8.92033 13.0106 8.65962C13.3106 8.53462 13.9427 8.36319 14.1142 8.36319C14.3356 8.36319 14.3213 8.50962 14.3213 6.33821C14.3213 4.38466 14.3213 4.35252 14.2463 4.22038C14.2035 4.14538 14.1106 4.05252 14.0356 4.00966L13.8999 3.93467H9.15352C4.60356 3.93467 4.40357 3.93824 4.28571 4.00252ZM11.1678 5.26322C11.3249 5.40965 11.2464 5.68465 11.0285 5.73822C10.9821 5.74893 10.1035 5.7525 9.07852 5.74893L7.20711 5.73822L7.13925 5.6525C7.04997 5.54179 7.05354 5.37036 7.14997 5.26679L7.22497 5.18465H9.15709H11.0856L11.1678 5.26322ZM13.0035 7.18106C13.0928 7.29177 13.0892 7.4632 12.9928 7.56677L12.9178 7.64891H9.16066H5.40356L5.33213 7.56677C5.20713 7.4382 5.2107 7.29177 5.33927 7.1632L5.42498 7.07749L9.18209 7.08463L12.9356 7.09535L13.0035 7.18106ZM10.5321 8.95247C10.7035 9.03818 10.7321 9.24175 10.5892 9.38104L10.5035 9.47032H7.95353H5.40356L5.33213 9.38818C5.20713 9.25961 5.2107 9.11318 5.33927 8.98818L5.42498 8.8989H7.92853C10.0571 8.8989 10.4464 8.90604 10.5321 8.95247ZM10.2214 10.8274C10.3106 10.9203 10.3249 10.956 10.3071 11.0524C10.2964 11.1167 10.2499 11.1953 10.2106 11.2274C10.1392 11.2882 9.97136 11.2917 7.77139 11.2917H5.40356L5.33213 11.2096C5.20713 11.081 5.2107 10.9346 5.33927 10.8096L5.42498 10.7203H7.76782H10.1142L10.2214 10.8274ZM10.1499 12.6489C10.2392 12.7417 10.2535 12.7774 10.2356 12.8739C10.2249 12.9381 10.1785 13.0167 10.1392 13.0489C10.0678 13.1096 9.89994 13.1131 7.73567 13.1131H5.40356L5.33213 13.031C5.29284 12.9881 5.25356 12.9274 5.24284 12.8953C5.2107 12.8096 5.3107 12.6167 5.39998 12.5774C5.44641 12.5596 6.46426 12.5453 7.76067 12.5453L10.0428 12.5417L10.1499 12.6489Z" fill="#F9F6FF"/>
<path d="M14.9282 7.49734V8.3509L15.1211 8.3759C15.6246 8.43304 16.3318 8.71876 16.7782 9.04375C16.9068 9.14018 17.0282 9.21875 17.0461 9.21875C17.0639 9.21875 17.0711 8.82233 17.0639 8.33305C17.0532 7.45805 17.0532 7.45091 16.9568 7.27234C16.8353 7.04377 16.6353 6.85092 16.4103 6.74735C16.2496 6.67592 16.1675 6.66521 15.5818 6.65449L14.9282 6.64021V7.49734Z" fill="#F9F6FF"/>
<path d="M13.8967 8.9741C12.611 9.22409 11.5931 10.2777 11.361 11.5919C11.3038 11.9026 11.3145 12.5062 11.3788 12.8205C11.636 14.074 12.6431 15.0847 13.9002 15.3419C14.4824 15.4633 15.2288 15.3847 15.7966 15.149C16.4181 14.8919 17.0395 14.3598 17.3645 13.8098C17.9145 12.8741 17.9466 11.6026 17.443 10.6562C16.9823 9.78123 16.1895 9.20266 15.1752 8.98838C14.9002 8.93124 14.1574 8.92052 13.8967 8.9741ZM14.6966 9.49195C14.7609 9.51695 14.8574 9.68837 14.8574 9.77409C14.8574 9.80623 14.8145 9.87766 14.7574 9.93123C14.6716 10.0169 14.6216 10.0312 14.3752 10.0527C13.8359 10.0955 13.4181 10.2991 12.9931 10.7276C12.7002 11.0205 12.6217 11.0562 12.4717 10.9491C12.361 10.8705 12.3145 10.7419 12.3574 10.6276C12.4502 10.3884 13.0538 9.87409 13.4502 9.69909C13.8645 9.51695 14.4859 9.41338 14.6966 9.49195Z" fill="#F9F6FF"/>
<path d="M18.0218 13.7784C17.9075 14.0498 17.5468 14.5605 17.2646 14.8462L17.0039 15.1105L17.7896 15.7248C18.7003 16.4462 18.8575 16.5391 19.1289 16.5391C19.6432 16.5391 20.0003 16.1462 20.0003 15.5712C20.0003 15.0998 19.9646 15.0534 18.9682 14.2748C18.5003 13.9105 18.111 13.6105 18.1039 13.6105C18.0968 13.6105 18.0575 13.6855 18.0218 13.7784Z" fill="#F9F6FF"/>
<path d="M16.3676 15.5227C16.1569 15.6691 15.4569 15.8977 15.0462 15.9512C14.8855 15.9727 14.8605 15.9869 14.8391 16.0691C14.8034 16.2334 14.5712 16.5334 14.3998 16.6476C14.0641 16.8691 14.2248 16.8619 10.2927 16.8619H6.70703L6.72132 17.5476C6.73203 18.2155 6.7356 18.2441 6.82846 18.4191C6.95703 18.6619 7.21417 18.8833 7.44631 18.9512C7.60345 18.9976 8.20344 19.0048 11.9677 18.9976L16.3034 18.9869L16.4534 18.9048C16.6891 18.7798 16.8462 18.6226 16.9534 18.4048L17.0533 18.2012L17.0605 17.0405L17.0712 15.8798L16.8069 15.6727C16.5248 15.4548 16.4855 15.4405 16.3676 15.5227Z" fill="#F9F6FF"/>
</svg>
