<svg width="24" height="24" viewBox="0 0 24 24" fill="none" xmlns="http://www.w3.org/2000/svg">
<path d="M6.75588 2.84032C5.94935 3.05875 5.32345 3.66785 5.07561 4.47858C5.0042 4.71802 5 5.06247 5 11.3887V18.0468L5.09241 18.3408C5.27304 18.9205 5.70991 19.4456 6.235 19.7228C6.79369 20.0169 6.48704 20.0001 11.8681 20.0001C17.2492 20.0001 16.9425 20.0169 17.5012 19.7228C18.0263 19.4456 18.4632 18.9205 18.6438 18.3408L18.7362 18.0468V12.4809V6.91497L18.6396 6.62092C18.438 6.01603 18.3833 5.95302 16.8879 4.56679C15.4261 3.21418 15.3715 3.16797 15.1026 3.02935C14.5901 2.7689 14.7078 2.77731 10.6667 2.78151C7.65062 2.78151 6.93651 2.79411 6.75588 2.84032ZM12.1411 6.72174C12.2504 6.77215 12.6704 7.16701 13.3257 7.82232C14.1953 8.70446 14.3423 8.86828 14.3675 9.0069C14.4347 9.35136 14.3003 9.64541 14.0104 9.79243C13.666 9.96886 13.4434 9.88905 12.9813 9.41857C12.7965 9.22954 12.6326 9.07832 12.6158 9.07832C12.5948 9.07832 12.5822 9.64961 12.5822 10.3469C12.5822 11.0946 12.5654 11.6827 12.5402 11.7751C12.4772 11.9936 12.3176 12.17 12.0991 12.2498C11.7967 12.3674 11.4522 12.2498 11.28 11.9684C11.2002 11.8382 11.196 11.7541 11.196 10.4519C11.196 9.69582 11.1792 9.07832 11.1624 9.07832C11.1456 9.07832 11.007 9.20434 10.8599 9.35556C10.5029 9.72102 10.2592 9.87644 10.0492 9.87644C9.53673 9.87644 9.19227 9.33036 9.42331 8.88509C9.54093 8.66245 11.427 6.78895 11.6161 6.70914C11.8135 6.62512 11.9395 6.62932 12.1411 6.72174ZM14.9724 14.8374C15.1656 14.9551 15.258 15.0727 15.3127 15.2617C15.4009 15.5726 15.2286 15.9128 14.9178 16.0556C14.754 16.127 14.5775 16.1354 11.8681 16.1354C9.15867 16.1354 8.98224 16.127 8.81841 16.0556C8.50756 15.9128 8.33533 15.5726 8.42355 15.2617C8.47816 15.0727 8.57057 14.9551 8.7638 14.8374C8.90663 14.7492 8.94443 14.7492 11.8681 14.7492C14.7918 14.7492 14.8296 14.7492 14.9724 14.8374Z" fill="#F9F6FF"/>
</svg>
