<svg width="24" height="24" viewBox="0 0 24 24" fill="none" xmlns="http://www.w3.org/2000/svg">
<path d="M11.3509 4.06219C10.5734 4.23538 9.9037 4.61642 9.34561 5.21299C9.03386 5.54014 8.8876 5.74798 8.69516 6.13671C7.77913 7.98416 8.44883 10.2473 10.2155 11.2711C11.501 12.0139 13.1021 11.9754 14.3414 11.1672C16.3698 9.84316 16.7162 6.97961 15.0612 5.22069C14.7032 4.83965 14.3684 4.59718 13.9103 4.37394C13.3292 4.08913 13.029 4.01985 12.2938 4.00445C11.7973 3.99291 11.6164 4.00445 11.3509 4.06219Z" fill="#F9F6FF"/>
<path d="M9.27222 13.0219C8.17915 13.145 7.24773 13.5761 6.47411 14.3112C5.53114 15.2157 5 16.432 5 17.6905C5 18.5873 5.45801 19.3686 6.20084 19.7458C6.73583 20.0152 6.3471 19.9998 12.1935 19.9998C17.9668 19.9998 17.6858 20.0114 18.14 19.7805C18.5595 19.5688 18.9598 19.1723 19.1715 18.7567C19.3023 18.4949 19.3947 18.0485 19.3947 17.6713C19.3947 15.7546 18.113 13.9494 16.2771 13.2836C16.1193 13.2259 15.8345 13.145 15.6421 13.0989C15.3072 13.0219 15.1879 13.018 12.3513 13.0103C10.7309 13.0065 9.34535 13.0103 9.27222 13.0219Z" fill="#F9F6FF"/>
</svg>
