<svg width="24" height="24" viewBox="0 0 24 24" fill="none" xmlns="http://www.w3.org/2000/svg">
<rect width="24" height="24" fill="#EEEEEE"/>
<g clip-path="url(#clip0_801_3282)">
<rect width="1920" height="1080" transform="translate(-638 -306)" fill="white"/>
<rect x="-358" y="-24" width="1600" height="72" rx="16" fill="#F9F6FF"/>
<rect x="-200.5" y="-11.5" width="787" height="47" rx="7.5" fill="white"/>
<g clip-path="url(#clip1_801_3282)">
<path d="M11.4141 0.060936C10.9781 0.206249 10.7859 0.360937 9.77344 1.35938C8.22656 2.88281 8.17031 2.90625 6.07031 2.90625C4.99687 2.90625 4.65 2.92031 4.42969 2.97656C3.66562 3.17813 3.09844 3.77813 2.95312 4.54688C2.92969 4.68281 2.90625 5.38594 2.90625 6.1125C2.90625 8.16562 2.87812 8.23594 1.35469 9.77813C0.459375 10.6828 0.309375 10.8563 0.178125 11.1375C0.0328125 11.4422 0.0234375 11.4891 0.0234375 12C0.0234375 12.5109 0.0328125 12.5578 0.178125 12.8625C0.309375 13.1437 0.459375 13.3172 1.35 14.2219C2.87813 15.7734 2.90625 15.8344 2.90625 17.9344C2.90625 19.4109 2.93438 19.6312 3.17344 20.0719C3.31875 20.3391 3.70313 20.7188 3.975 20.8547C4.39219 21.0656 4.62656 21.0938 6.04688 21.0938C8.16562 21.0938 8.23125 21.1219 9.77813 22.65C10.6828 23.5406 10.8563 23.6906 11.1375 23.8219C11.4422 23.9672 11.4891 23.9766 12 23.9766C12.5109 23.9766 12.5578 23.9672 12.8625 23.8219C13.1437 23.6906 13.3172 23.5406 14.2219 22.65C15.7687 21.1219 15.8344 21.0938 17.9531 21.0938C19.3734 21.0938 19.6078 21.0656 20.025 20.8547C20.2969 20.7188 20.6813 20.3391 20.8266 20.0719C21.0656 19.6312 21.0938 19.4109 21.0938 17.9531C21.0938 15.8344 21.1219 15.7687 22.65 14.2219C23.5406 13.3172 23.6906 13.1437 23.8219 12.8625C23.9672 12.5578 23.9766 12.5109 23.9766 12C23.9766 11.4891 23.9672 11.4422 23.8219 11.1375C23.6906 10.8563 23.5406 10.6828 22.65 9.77813C21.1219 8.23125 21.0938 8.16562 21.0938 6.04688C21.0938 4.58906 21.0656 4.36875 20.8266 3.92812C20.6813 3.66094 20.2969 3.28125 20.025 3.14531C19.6078 2.93438 19.3734 2.90625 17.9531 2.90625C15.8344 2.90625 15.7687 2.87812 14.2219 1.35C13.3125 0.454687 13.1437 0.309374 12.8625 0.178123C12.5766 0.0421867 12.4875 0.0234375 12.0703 0.014061C11.775 0.00468636 11.5312 0.0234375 11.4141 0.060936Z" fill="#FF9C65"/>
<mask id="path-4-outside-1_801_3282" maskUnits="userSpaceOnUse" x="7" y="7" width="10" height="10" fill="black">
<rect fill="white" x="7" y="7" width="10" height="10"/>
<path d="M8.20915 8.04365C8.07331 8.11078 8.00305 8.23257 8.00305 8.3965C8.00305 8.46052 8.01398 8.51985 8.03584 8.56512C8.05926 8.61977 8.43866 9.00697 9.7486 10.3169L11.4301 12L9.74235 13.6893C7.86722 15.5676 7.99369 15.4255 8.00618 15.6347C8.01711 15.8455 8.1545 15.9829 8.36528 15.9938C8.57449 16.0063 8.43241 16.1328 10.3107 14.2576L12 12.5699L13.6909 14.2576C15.5676 16.1328 15.4255 16.0063 15.6347 15.9938C15.8455 15.9829 15.9829 15.8455 15.9938 15.6347C16.0063 15.4255 16.1328 15.5676 14.2576 13.6909L12.5699 12L14.2576 10.3091C16.1328 8.43241 16.0063 8.57449 15.9938 8.36528C15.9829 8.1545 15.8455 8.01711 15.6347 8.00618C15.4255 7.99369 15.5676 7.86722 13.6893 9.74235L12 11.4301L10.3169 9.7486C9.00697 8.43866 8.61977 8.05926 8.56512 8.03584C8.46052 7.98744 8.31375 7.99212 8.20915 8.04365Z"/>
</mask>
<path d="M8.20915 8.04365C8.07331 8.11078 8.00305 8.23257 8.00305 8.3965C8.00305 8.46052 8.01398 8.51985 8.03584 8.56512C8.05926 8.61977 8.43866 9.00697 9.7486 10.3169L11.4301 12L9.74235 13.6893C7.86722 15.5676 7.99369 15.4255 8.00618 15.6347C8.01711 15.8455 8.1545 15.9829 8.36528 15.9938C8.57449 16.0063 8.43241 16.1328 10.3107 14.2576L12 12.5699L13.6909 14.2576C15.5676 16.1328 15.4255 16.0063 15.6347 15.9938C15.8455 15.9829 15.9829 15.8455 15.9938 15.6347C16.0063 15.4255 16.1328 15.5676 14.2576 13.6909L12.5699 12L14.2576 10.3091C16.1328 8.43241 16.0063 8.57449 15.9938 8.36528C15.9829 8.1545 15.8455 8.01711 15.6347 8.00618C15.4255 7.99369 15.5676 7.86722 13.6893 9.74235L12 11.4301L10.3169 9.7486C9.00697 8.43866 8.61977 8.05926 8.56512 8.03584C8.46052 7.98744 8.31375 7.99212 8.20915 8.04365Z" fill="white"/>
<path d="M8.20915 8.04365C8.07331 8.11078 8.00305 8.23257 8.00305 8.3965C8.00305 8.46052 8.01398 8.51985 8.03584 8.56512C8.05926 8.61977 8.43866 9.00697 9.7486 10.3169L11.4301 12L9.74235 13.6893C7.86722 15.5676 7.99369 15.4255 8.00618 15.6347C8.01711 15.8455 8.1545 15.9829 8.36528 15.9938C8.57449 16.0063 8.43241 16.1328 10.3107 14.2576L12 12.5699L13.6909 14.2576C15.5676 16.1328 15.4255 16.0063 15.6347 15.9938C15.8455 15.9829 15.9829 15.8455 15.9938 15.6347C16.0063 15.4255 16.1328 15.5676 14.2576 13.6909L12.5699 12L14.2576 10.3091C16.1328 8.43241 16.0063 8.57449 15.9938 8.36528C15.9829 8.1545 15.8455 8.01711 15.6347 8.00618C15.4255 7.99369 15.5676 7.86722 13.6893 9.74235L12 11.4301L10.3169 9.7486C9.00697 8.43866 8.61977 8.05926 8.56512 8.03584C8.46052 7.98744 8.31375 7.99212 8.20915 8.04365Z" stroke="white" stroke-width="1.2" mask="url(#path-4-outside-1_801_3282)"/>
</g>
<rect x="-200.5" y="-11.5" width="787" height="47" rx="7.5" stroke="#E7E6F0"/>
</g>
<defs>
<clipPath id="clip0_801_3282">
<rect width="1920" height="1080" fill="white" transform="translate(-638 -306)"/>
</clipPath>
<clipPath id="clip1_801_3282">
<rect width="24" height="24" fill="white"/>
</clipPath>
</defs>
</svg>
