<svg width="24" height="24" viewBox="0 0 24 24" fill="none" xmlns="http://www.w3.org/2000/svg">
<g clip-path="url(#clip0_972_26671)">
<path d="M10.4765 0.0613542C8.31087 0.342713 6.32806 1.17272 4.59368 2.51387C4.04525 2.9406 3.11243 3.8597 2.65775 4.42242C1.364 6.02617 0.506185 7.92065 0.14056 9.98395C0.0093099 10.7155 -0.0422526 12.474 0.0421224 13.2759C0.243685 15.1469 0.895247 16.9804 1.90775 18.5373C2.36712 19.2407 2.77025 19.7424 3.39837 20.3849C5.36243 22.4013 7.84212 23.6205 10.664 23.9487C11.2921 24.0238 12.8202 24.0097 13.4999 23.93C17.0062 23.4939 20.1374 21.5291 22.0921 18.5373C23.0765 17.032 23.7046 15.3016 23.9296 13.4963C24.0234 12.7366 24.0234 11.2594 23.9296 10.4951C23.4984 7.01561 21.539 3.87377 18.5859 1.93239C17.0437 0.919501 15.3281 0.291131 13.4999 0.0613542C12.7874 -0.0230535 11.1515 -0.0230535 10.4765 0.0613542Z" fill="#7260ED"/>
<path d="M5.08165 11.8765L5.08158 11.8767C5.00045 12.1163 5.06694 12.3445 5.24732 12.5249C5.31387 12.5914 5.39389 12.6493 5.48019 12.6798C5.51131 12.6913 5.54877 12.6952 5.57357 12.6976C5.60717 12.7008 5.65143 12.7034 5.70715 12.7058C5.81895 12.7104 5.98436 12.7138 6.21837 12.7164C6.68681 12.7216 7.43593 12.7233 8.59359 12.7233C8.59361 12.7233 8.59363 12.7233 8.59366 12.7233L11.4177 12.7247L11.419 15.5598V15.5598C11.4191 15.7769 11.4193 15.9788 11.4194 16.1667C11.42 17.4116 11.4204 18.0417 11.4392 18.3741C11.4498 18.5601 11.4666 18.6795 11.5078 18.7642C11.5313 18.8123 11.5602 18.8451 11.5892 18.8713C11.6013 18.8823 11.6139 18.8925 11.6236 18.9003C11.6241 18.9008 11.6247 18.9012 11.6252 18.9017C11.636 18.9103 11.6449 18.9176 11.6543 18.926L11.7539 18.8138L11.6535 18.9252C11.7748 19.0346 11.9192 19.0962 12.0713 19.0962C12.2231 19.0962 12.3674 19.0348 12.4886 18.9256C12.4979 18.9174 12.5068 18.9102 12.5173 18.9017C12.5179 18.9012 12.5184 18.9008 12.519 18.9003C12.5287 18.8925 12.5413 18.8823 12.5534 18.8713C12.5824 18.8451 12.6113 18.8123 12.6347 18.7642C12.676 18.6795 12.6928 18.5601 12.7034 18.3741C12.7222 18.0417 12.7226 17.4116 12.7232 16.1667C12.7233 15.9788 12.7234 15.7769 12.7236 15.5598L12.7236 15.5598L12.7249 12.7246L15.5614 12.722C15.5614 12.722 15.5615 12.722 15.5615 12.722C15.7798 12.7219 15.9828 12.7219 16.1716 12.7218C17.4136 12.7217 18.0425 12.7216 18.3745 12.7029C18.5604 12.6925 18.6797 12.6757 18.7644 12.6345C18.8126 12.611 18.8454 12.5821 18.8716 12.5531C18.8826 12.541 18.8928 12.5284 18.9006 12.5187L18.9019 12.5171C18.9106 12.5064 18.9179 12.4974 18.9262 12.488L18.8141 12.3885L18.9255 12.4889C19.0349 12.3675 19.0965 12.2231 19.0965 12.071C19.0965 11.9191 19.035 11.7749 18.9259 11.6536M5.08165 11.8765L18.9255 11.6532C18.9256 11.6533 18.9257 11.6535 18.9259 11.6536M5.08165 11.8765C5.14204 11.6988 5.29831 11.5297 5.47796 11.463C5.5095 11.451 5.54817 11.4469 5.57357 11.4445C5.60717 11.4413 5.65143 11.4386 5.70715 11.4363C5.81895 11.4317 5.98437 11.4282 6.21837 11.4256C6.68681 11.4204 7.43593 11.4187 8.59359 11.4187C8.59361 11.4187 8.59363 11.4187 8.59366 11.4187L11.4177 11.4174L11.419 8.58228V8.58222C11.4191 8.36519 11.4193 8.16327 11.4194 7.97535C11.42 6.73047 11.4204 6.10037 11.4392 5.76794C11.4498 5.58191 11.4666 5.46258 11.5078 5.37789C11.5313 5.32972 11.5602 5.29693 11.5892 5.27072C11.6013 5.25972 11.6139 5.24954 11.6236 5.24173L11.6252 5.24039C11.6358 5.23185 11.6447 5.22463 11.6539 5.21646C11.7752 5.10731 11.9194 5.04579 12.0713 5.0458C12.2233 5.04579 12.3678 5.10746 12.4891 5.21686L12.3887 5.32823L12.4882 5.21608C12.4976 5.2244 12.5066 5.23171 12.5173 5.24039L12.519 5.24171C12.5286 5.24952 12.5412 5.2597 12.5534 5.27071C12.5824 5.29692 12.6113 5.32971 12.6347 5.37789C12.6759 5.46259 12.6927 5.5819 12.7032 5.76783C12.7219 6.09979 12.722 6.72873 12.7221 7.97072C12.7221 8.15955 12.7221 8.36255 12.7222 8.58083C12.7222 8.58086 12.7222 8.58088 12.7222 8.58091L12.7249 11.4175L15.5614 11.4201C15.7797 11.4202 15.9827 11.4202 16.1716 11.4202C17.4136 11.4204 18.0425 11.4204 18.3745 11.4391C18.5604 11.4496 18.6797 11.4664 18.7644 11.5076C18.8126 11.531 18.8454 11.5599 18.8716 11.5889C18.8826 11.6011 18.8928 11.6137 18.9006 11.6233L18.9019 11.625C18.9105 11.6355 18.9177 11.6444 18.9259 11.6536M5.08165 11.8765L18.9259 11.6536" fill="white" stroke="white" stroke-width="0.3"/>
</g>
<defs>
<clipPath id="clip0_972_26671">
<rect width="24" height="24" fill="white"/>
</clipPath>
</defs>
</svg>
