<svg width="17" height="17" viewBox="0 0 17 17" fill="none" xmlns="http://www.w3.org/2000/svg">
<mask id="path-1-outside-1_1107_11771" maskUnits="userSpaceOnUse" x="-1.41512" y="-1.41407" width="19.799" height="19.799" fill="black">
<rect fill="white" x="-1.41512" y="-1.41407" width="19.799" height="19.799"/>
<path d="M0.267224 8.30988C0.194359 8.52517 0.249008 8.72886 0.42289 8.90274C0.490786 8.97063 0.565307 9.02197 0.636516 9.04681C0.719316 9.07993 1.53242 9.08821 4.31122 9.08821L7.87993 9.08987L7.88159 12.6718C7.8849 16.6529 7.86834 16.3681 8.10349 16.5767C8.33865 16.7887 8.6301 16.7887 8.86526 16.5767C9.10041 16.3681 9.08385 16.6529 9.08716 12.6718L9.08882 9.08987L12.6724 9.08656C16.6518 9.0849 16.367 9.10146 16.5757 8.86631C16.7876 8.63115 16.7876 8.33969 16.5757 8.10454C16.367 7.86938 16.6518 7.88594 12.6724 7.88429L9.08882 7.88098L9.08551 4.29736C9.08385 0.317952 9.10041 0.602786 8.86526 0.394128C8.6301 0.182158 8.33865 0.182158 8.10349 0.394128C7.86834 0.602786 7.8849 0.317952 7.88159 4.29901L7.87993 7.88098L4.31122 7.88263C1.53242 7.88263 0.719317 7.89091 0.636516 7.92403C0.474226 7.98365 0.323528 8.14428 0.267224 8.30988Z"/>
</mask>
<path d="M0.267224 8.30988C0.194359 8.52517 0.249008 8.72886 0.42289 8.90274C0.490786 8.97063 0.565307 9.02197 0.636516 9.04681C0.719316 9.07993 1.53242 9.08821 4.31122 9.08821L7.87993 9.08987L7.88159 12.6718C7.8849 16.6529 7.86834 16.3681 8.10349 16.5767C8.33865 16.7887 8.6301 16.7887 8.86526 16.5767C9.10041 16.3681 9.08385 16.6529 9.08716 12.6718L9.08882 9.08987L12.6724 9.08656C16.6518 9.0849 16.367 9.10146 16.5757 8.86631C16.7876 8.63115 16.7876 8.33969 16.5757 8.10454C16.367 7.86938 16.6518 7.88594 12.6724 7.88429L9.08882 7.88098L9.08551 4.29736C9.08385 0.317952 9.10041 0.602786 8.86526 0.394128C8.6301 0.182158 8.33865 0.182158 8.10349 0.394128C7.86834 0.602786 7.8849 0.317952 7.88159 4.29901L7.87993 7.88098L4.31122 7.88263C1.53242 7.88263 0.719317 7.89091 0.636516 7.92403C0.474226 7.98365 0.323528 8.14428 0.267224 8.30988Z" fill="url(#paint0_linear_1107_11771)"/>
<path d="M0.267224 8.30988C0.194359 8.52517 0.249008 8.72886 0.42289 8.90274C0.490786 8.97063 0.565307 9.02197 0.636516 9.04681C0.719316 9.07993 1.53242 9.08821 4.31122 9.08821L7.87993 9.08987L7.88159 12.6718C7.8849 16.6529 7.86834 16.3681 8.10349 16.5767C8.33865 16.7887 8.6301 16.7887 8.86526 16.5767C9.10041 16.3681 9.08385 16.6529 9.08716 12.6718L9.08882 9.08987L12.6724 9.08656C16.6518 9.0849 16.367 9.10146 16.5757 8.86631C16.7876 8.63115 16.7876 8.33969 16.5757 8.10454C16.367 7.86938 16.6518 7.88594 12.6724 7.88429L9.08882 7.88098L9.08551 4.29736C9.08385 0.317952 9.10041 0.602786 8.86526 0.394128C8.6301 0.182158 8.33865 0.182158 8.10349 0.394128C7.86834 0.602786 7.8849 0.317952 7.88159 4.29901L7.87993 7.88098L4.31122 7.88263C1.53242 7.88263 0.719317 7.89091 0.636516 7.92403C0.474226 7.98365 0.323528 8.14428 0.267224 8.30988Z" stroke="url(#paint1_linear_1107_11771)" stroke-width="0.26" mask="url(#path-1-outside-1_1107_11771)"/>
<defs>
<linearGradient id="paint0_linear_1107_11771" x1="-0.000906103" y1="8.48542" x2="10.322" y2="0.201515" gradientUnits="userSpaceOnUse">
<stop stop-color="#7260ED"/>
<stop offset="1" stop-color="#AA7CEE"/>
</linearGradient>
<linearGradient id="paint1_linear_1107_11771" x1="-0.000906103" y1="8.48542" x2="10.322" y2="0.201515" gradientUnits="userSpaceOnUse">
<stop stop-color="#7260ED"/>
<stop offset="1" stop-color="#AA7CEE"/>
</linearGradient>
</defs>
</svg>
