<svg width="24" height="24" viewBox="0 0 24 24" fill="none" xmlns="http://www.w3.org/2000/svg">
<circle opacity="0.1" cx="12" cy="12" r="12" fill="#459BFF"/>
<path d="M16.7738 18.4196C16.9953 18.2548 17.0414 17.9416 16.8766 17.72C16.7118 17.4984 16.3986 17.4524 16.177 17.6172L16.7738 18.4196ZM4.65443 13.5141L4.16473 13.6151L4.65443 13.5141ZM5.29869 8.63217L4.85193 8.40765L5.29869 8.63217ZM8.83177 5.20205L8.62056 4.74885L8.83177 5.20205ZM13.7306 4.70241L13.6153 5.18891L13.7306 4.70241ZM19.5 12L20.7537 6.36427L15.2462 8.09637L19.5 12ZM16.177 17.6172C14.9126 18.5574 13.368 19.0435 11.7931 18.9969L11.7635 19.9965C13.5635 20.0497 15.3287 19.4942 16.7738 18.4196L16.177 17.6172ZM11.7931 18.9969C10.2181 18.9504 8.70489 18.3738 7.49829 17.3605L6.85518 18.1262C8.23416 19.2843 9.96352 19.9433 11.7635 19.9965L11.7931 18.9969ZM7.49829 17.3605C6.29168 16.3472 5.46224 14.9564 5.14414 13.4132L4.16473 13.6151C4.52827 15.3787 5.47621 16.9682 6.85518 18.1262L7.49829 17.3605ZM5.14414 13.4132C4.82604 11.87 5.0379 10.2646 5.74544 8.85669L4.85193 8.40765C4.04332 10.0166 3.80119 11.8514 4.16473 13.6151L5.14414 13.4132ZM5.74544 8.85669C6.45298 7.44883 7.61482 6.32085 9.04299 5.65524L8.62056 4.74885C6.98836 5.50954 5.66055 6.79866 4.85193 8.40765L5.74544 8.85669ZM9.04299 5.65524C10.4712 4.98963 12.0821 4.82533 13.6153 5.18891L13.846 4.2159C12.0938 3.80038 10.2527 3.98815 8.62056 4.74885L9.04299 5.65524ZM13.6153 5.18891C15.1484 5.5525 16.514 6.4227 17.4912 7.65873L18.2757 7.03855C17.1589 5.62594 15.5982 4.63142 13.846 4.2159L13.6153 5.18891ZM17.4912 7.65873C17.5776 7.76804 17.6606 7.87964 17.7399 7.99336L18.5599 7.42096C18.4692 7.291 18.3744 7.16346 18.2757 7.03855L17.4912 7.65873Z" fill="#459BFF"/>
<path d="M16.4754 18.0184C15.1207 19.0258 13.4657 19.5466 11.7783 19.4967C10.0908 19.4468 8.46953 18.829 7.17674 17.7434C5.88394 16.6577 4.99525 15.1676 4.65443 13.5141C4.31362 11.8607 4.54061 10.1406 5.29869 8.63217C6.05677 7.12375 7.30159 5.9152 8.83177 5.20205C10.362 4.48889 12.088 4.31285 13.7306 4.70241C15.3733 5.09196 16.8365 6.02432 17.8834 7.34864" stroke="#459BFF" stroke-width="1.5" stroke-linecap="round"/>
</svg>
