<svg width="18" height="18" viewBox="0 0 18 18" fill="none" xmlns="http://www.w3.org/2000/svg">
<circle cx="9" cy="9" r="9" fill="url(#paint0_linear_972_38954)"/>
<path d="M11.7137 5.57633C11.585 5.64447 11.1876 6.0949 9.7265 7.84743L7.89826 10.0353L7.08445 9.22524C6.22521 8.37357 6.1268 8.30166 5.80884 8.30166C5.22214 8.30544 4.82848 8.92621 5.07452 9.45613C5.11994 9.55455 5.55902 10.0163 6.35012 10.8037C7.55381 11.9998 7.55759 12.0036 7.76578 12.0452C7.99667 12.0906 8.18593 12.0603 8.37897 11.9468C8.51146 11.8711 12.6146 6.99956 12.7887 6.71567C13.0007 6.36365 12.8909 5.87915 12.5427 5.6369C12.3231 5.4817 11.9522 5.45521 11.7137 5.57633Z" fill="white"/>
<defs>
<linearGradient id="paint0_linear_972_38954" x1="1.3411e-07" y1="18" x2="19.7355" y2="15.8373" gradientUnits="userSpaceOnUse">
<stop stop-color="#7260ED"/>
<stop offset="1" stop-color="#AA7CEE"/>
</linearGradient>
</defs>
</svg>
