<svg width="24" height="24" viewBox="0 0 24 24" fill="none" xmlns="http://www.w3.org/2000/svg">
<circle opacity="0.1" cx="12" cy="12" r="12" fill="#FF5F5F"/>
<path d="M6.93099 5.87193C6.97038 5.88987 7.00796 5.9205 7.03088 5.93943C7.06252 5.96556 7.10265 6.00114 7.15198 6.04655C7.251 6.1377 7.39449 6.2753 7.59527 6.47168C7.99725 6.86486 8.63444 7.49912 9.61672 8.48141C9.61674 8.48143 9.61677 8.48145 9.61679 8.48147L12 10.8625L14.3926 8.47204L14.3927 8.47199C14.5771 8.28793 14.7486 8.11661 14.9082 7.95718C15.9647 6.90174 16.5002 6.36688 16.7987 6.10041C16.9652 5.95173 17.0835 5.86205 17.1947 5.82368C17.2584 5.80168 17.3134 5.79823 17.3621 5.80067C17.3836 5.80175 17.4046 5.80405 17.4196 5.80563C17.4358 5.80735 17.449 5.80871 17.4633 5.80958C17.6629 5.8201 17.8424 5.89192 17.9752 6.02475C18.1081 6.15759 18.1799 6.33706 18.1904 6.53674C18.1913 6.55097 18.1927 6.56421 18.1944 6.5804L18.1946 6.58304C18.1962 6.5978 18.1983 6.61762 18.1993 6.63785C18.2018 6.68656 18.1983 6.74157 18.1763 6.80531C18.1379 6.91645 18.0482 7.03468 17.8995 7.20108C17.6333 7.49906 17.0992 8.03327 16.0458 9.08694C15.8855 9.24727 15.7132 9.41963 15.528 9.60502L13.1374 12L15.528 14.395C15.7132 14.5804 15.8855 14.7527 16.0458 14.913C17.0992 15.9667 17.6333 16.5009 17.8995 16.7989C18.0482 16.9653 18.1379 17.0836 18.1763 17.1947C18.1983 17.2584 18.2018 17.3134 18.1993 17.3622C18.1983 17.3824 18.1962 17.4022 18.1946 17.417L18.1944 17.4196C18.1927 17.4358 18.1913 17.449 18.1904 17.4633C18.1799 17.6629 18.1081 17.8424 17.9752 17.9752C17.8424 18.1081 17.663 18.1799 17.4633 18.1904C17.4491 18.1913 17.4358 18.1926 17.4196 18.1944L17.417 18.1946C17.4022 18.1962 17.3824 18.1983 17.3622 18.1993C17.3134 18.2018 17.2584 18.1983 17.1947 18.1763C17.0836 18.1379 16.9653 18.0482 16.7989 17.8995C16.5009 17.6333 15.9667 17.0992 14.9131 16.0458C14.7527 15.8855 14.5804 15.7132 14.395 15.528L12.0001 13.1375L9.60736 15.528L9.6073 15.528C9.42294 15.7121 9.25145 15.8834 9.09185 16.0428C8.03527 17.0983 7.49984 17.6331 7.20131 17.8996C7.03476 18.0483 6.91646 18.138 6.80532 18.1763C6.74157 18.1983 6.68657 18.2018 6.63785 18.1993C6.61761 18.1983 6.59778 18.1962 6.58302 18.1946C6.58213 18.1945 6.58126 18.1945 6.5804 18.1944C6.56419 18.1926 6.55093 18.1913 6.53667 18.1904C6.33702 18.1799 6.15758 18.1081 6.02476 17.9752C5.89193 17.8424 5.82012 17.663 5.80958 17.4633C5.80871 17.4491 5.80735 17.4358 5.80563 17.4196C5.80554 17.4187 5.80545 17.4179 5.80536 17.417C5.80379 17.4022 5.80169 17.3824 5.80067 17.3621C5.79824 17.3134 5.80169 17.2584 5.82369 17.1947C5.86205 17.0835 5.95173 16.9652 6.10041 16.7987C6.36688 16.5002 6.90174 15.9647 7.95719 14.9082C8.11662 14.7486 8.28793 14.5771 8.47199 14.3927L8.47204 14.3926L10.8625 12L8.48147 9.61679C8.48145 9.61677 8.48143 9.61674 8.48141 9.61672C7.49912 8.63444 6.86486 7.99725 6.47168 7.59527C6.2753 7.39449 6.1377 7.251 6.04655 7.15198C6.00114 7.10265 5.96556 7.06252 5.93943 7.03088C5.92073 7.00824 5.89061 6.97129 5.87259 6.93243C5.82362 6.82983 5.80458 6.70963 5.80458 6.59476C5.80458 6.28195 5.94527 6.02448 6.2251 5.88618L6.22535 5.88605C6.43282 5.78387 6.71599 5.77275 6.93099 5.87193ZM6.93099 5.87193C6.92949 5.87125 6.92798 5.87058 6.92647 5.86993L6.84769 6.05376M6.93099 5.87193C6.93122 5.87204 6.93144 5.87214 6.93167 5.87225L6.84769 6.05376M6.84769 6.05376C6.69078 5.98116 6.47063 5.98819 6.31372 6.06547L9.47537 8.62289C7.51046 6.65799 6.92966 6.08889 6.84769 6.05376Z" fill="#FF5F5F" stroke="#FF5F5F" stroke-width="0.4"/>
</svg>
