<svg width="24" height="24" viewBox="0 0 24 24" fill="none" xmlns="http://www.w3.org/2000/svg">
<rect width="24" height="24" fill="#EEEEEE"/>
<g clip-path="url(#clip0_801_3282)">
<rect width="1920" height="1080" transform="translate(-1727 -22)" fill="white"/>
<mask id="path-1-outside-1_801_3282" maskUnits="userSpaceOnUse" x="-1487" y="-22" width="1680" height="69" fill="black">
<rect fill="white" x="-1487" y="-22" width="1680" height="69"/>
<path d="M-1487 -22H193V46H-1487V-22Z"/>
</mask>
<path d="M-1487 -22H193V46H-1487V-22Z" fill="white"/>
<path d="M193 45H-1487V47H193V45Z" fill="#E7E6F0" mask="url(#path-1-outside-1_801_3282)"/>
<rect x="-24" y="-12" width="176" height="48" rx="8" fill="url(#paint0_linear_801_3282)"/>
<mask id="path-4-inside-2_801_3282" fill="white">
<path d="M10.0375 14.2094L8.09375 12.2656L8.54688 11.8125L9 11.3594L10.1875 12.5469L11.375 13.7344V8.86562V4H12H12.625V8.86562V13.7344L13.8125 12.5469L15 11.3594L15.4531 11.8125L15.9062 12.2656L13.9625 14.2094C12.8906 15.2812 12.0094 16.1562 12 16.1562C11.9906 16.1562 11.1094 15.2812 10.0375 14.2094Z"/>
</mask>
<path d="M10.0375 14.2094L8.09375 12.2656L8.54688 11.8125L9 11.3594L10.1875 12.5469L11.375 13.7344V8.86562V4H12H12.625V8.86562V13.7344L13.8125 12.5469L15 11.3594L15.4531 11.8125L15.9062 12.2656L13.9625 14.2094C12.8906 15.2812 12.0094 16.1562 12 16.1562C11.9906 16.1562 11.1094 15.2812 10.0375 14.2094Z" fill="white" stroke="white" stroke-width="0.4" mask="url(#path-4-inside-2_801_3282)"/>
<mask id="path-5-inside-3_801_3282" fill="white">
<path d="M4 16.0844C4 18.6437 3.99688 18.5688 4.19063 18.9625C4.40313 19.3938 4.82188 19.7562 5.28438 19.9094L5.51563 19.9844H12H18.4844L18.7156 19.9094C19.1781 19.7562 19.5969 19.3938 19.8094 18.9625C20.0031 18.5688 20 18.6437 20 16.0844V13.75H19.375H18.7531L18.7438 15.9906C18.7344 18.5031 18.7469 18.3594 18.5031 18.5688C18.4313 18.6313 18.3281 18.6875 18.275 18.7C18.15 18.725 5.85 18.725 5.725 18.7C5.67188 18.6875 5.56875 18.6313 5.49688 18.5688C5.25313 18.3594 5.26563 18.5031 5.25625 15.9906L5.24688 13.75H4.625H4V16.0844Z"/>
</mask>
<path d="M4 16.0844C4 18.6437 3.99688 18.5688 4.19063 18.9625C4.40313 19.3938 4.82188 19.7562 5.28438 19.9094L5.51563 19.9844H12H18.4844L18.7156 19.9094C19.1781 19.7562 19.5969 19.3938 19.8094 18.9625C20.0031 18.5688 20 18.6437 20 16.0844V13.75H19.375H18.7531L18.7438 15.9906C18.7344 18.5031 18.7469 18.3594 18.5031 18.5688C18.4313 18.6313 18.3281 18.6875 18.275 18.7C18.15 18.725 5.85 18.725 5.725 18.7C5.67188 18.6875 5.56875 18.6313 5.49688 18.5688C5.25313 18.3594 5.26563 18.5031 5.25625 15.9906L5.24688 13.75H4.625H4V16.0844Z" fill="white" stroke="white" stroke-width="0.4" mask="url(#path-5-inside-3_801_3282)"/>
<g filter="url(#filter0_d_801_3282)">
<rect x="-43" y="44" width="196" height="96" rx="8" fill="white"/>
</g>
</g>
<defs>
<filter id="filter0_d_801_3282" x="-67" y="20" width="244" height="144" filterUnits="userSpaceOnUse" color-interpolation-filters="sRGB">
<feFlood flood-opacity="0" result="BackgroundImageFix"/>
<feColorMatrix in="SourceAlpha" type="matrix" values="0 0 0 0 0 0 0 0 0 0 0 0 0 0 0 0 0 0 127 0" result="hardAlpha"/>
<feOffset/>
<feGaussianBlur stdDeviation="12"/>
<feComposite in2="hardAlpha" operator="out"/>
<feColorMatrix type="matrix" values="0 0 0 0 0 0 0 0 0 0 0 0 0 0 0 0 0 0 0.2 0"/>
<feBlend mode="normal" in2="BackgroundImageFix" result="effect1_dropShadow_801_3282"/>
<feBlend mode="normal" in="SourceGraphic" in2="effect1_dropShadow_801_3282" result="shape"/>
</filter>
<linearGradient id="paint0_linear_801_3282" x1="-24" y1="36" x2="144.141" y2="-31.5601" gradientUnits="userSpaceOnUse">
<stop stop-color="#7260ED"/>
<stop offset="1" stop-color="#AA7CEE"/>
</linearGradient>
<clipPath id="clip0_801_3282">
<rect width="1920" height="1080" fill="white" transform="translate(-1727 -22)"/>
</clipPath>
</defs>
</svg>
