<svg width="24" height="24" viewBox="0 0 24 24" fill="none" xmlns="http://www.w3.org/2000/svg">
<rect width="24" height="24" fill="#EEEEEE"/>
<g clip-path="url(#clip0_801_3282)">
<rect width="1920" height="1080" transform="translate(-1009 -306)" fill="white"/>
<rect x="-729" y="-24" width="1600" height="72" rx="16" fill="#F9F6FF"/>
<rect x="-571.5" y="-11.5" width="787" height="47" rx="7.5" fill="white"/>
<g clip-path="url(#clip1_801_3282)">
<path d="M10.4765 0.0613537C8.31087 0.342712 6.32806 1.17272 4.59368 2.51387C4.04525 2.9406 3.11243 3.8597 2.65775 4.42242C1.364 6.02617 0.506185 7.92065 0.14056 9.98395C0.0093099 10.7155 -0.0422526 12.474 0.0421224 13.2759C0.243685 15.1469 0.895247 16.9804 1.90775 18.5373C2.36712 19.2407 2.77025 19.7424 3.39837 20.3849C5.36243 22.4013 7.84212 23.6205 10.664 23.9487C11.2921 24.0238 12.8202 24.0097 13.4999 23.93C17.0062 23.4939 20.1374 21.5291 22.0921 18.5373C23.0765 17.032 23.7046 15.3016 23.9296 13.4963C24.0234 12.7366 24.0234 11.2594 23.9296 10.4951C23.4984 7.01562 21.539 3.87377 18.5859 1.93239C17.0437 0.9195 15.3281 0.29113 13.4999 0.0613537C12.7874 -0.0230541 11.1515 -0.0230541 10.4765 0.0613537Z" fill="#7260ED"/>
<mask id="path-4-inside-1_801_3282" fill="white">
<path d="M10.2828 13.9419L8.58203 12.2395L8.97852 11.8426L9.375 11.4457L10.4141 12.4858L11.4531 13.5259V9.26158V5H12H12.5469V9.26158V13.5259L13.5859 12.4858L14.625 11.4457L15.0215 11.8426L15.418 12.2395L13.7172 13.9419C12.7793 14.8807 12.0082 15.6471 12 15.6471C11.9918 15.6471 11.2207 14.8807 10.2828 13.9419Z"/>
</mask>
<path d="M10.2828 13.9419L8.58203 12.2395L8.97852 11.8426L9.375 11.4457L10.4141 12.4858L11.4531 13.5259V9.26158V5H12H12.5469V9.26158V13.5259L13.5859 12.4858L14.625 11.4457L15.0215 11.8426L15.418 12.2395L13.7172 13.9419C12.7793 14.8807 12.0082 15.6471 12 15.6471C11.9918 15.6471 11.2207 14.8807 10.2828 13.9419Z" fill="white" stroke="white" stroke-width="0.4" mask="url(#path-4-inside-1_801_3282)"/>
<mask id="path-5-inside-2_801_3282" fill="white">
<path d="M5 15.5842C5 17.8258 4.99727 17.7601 5.1668 18.105C5.35274 18.4827 5.71914 18.8002 6.12383 18.9343L6.32617 19H12H17.6738L17.8762 18.9343C18.2809 18.8002 18.6473 18.4827 18.8332 18.105C19.0027 17.7601 19 17.8258 19 15.5842V13.5396H18.4531H17.909L17.9008 15.5021C17.8926 17.7026 17.9035 17.5767 17.6902 17.7601C17.6273 17.8149 17.5371 17.8641 17.4906 17.8751C17.3812 17.897 6.61875 17.897 6.50938 17.8751C6.46289 17.8641 6.37266 17.8149 6.30977 17.7601C6.09649 17.5767 6.10742 17.7026 6.09922 15.5021L6.09102 13.5396H5.54688H5V15.5842Z"/>
</mask>
<path d="M5 15.5842C5 17.8258 4.99727 17.7601 5.1668 18.105C5.35274 18.4827 5.71914 18.8002 6.12383 18.9343L6.32617 19H12H17.6738L17.8762 18.9343C18.2809 18.8002 18.6473 18.4827 18.8332 18.105C19.0027 17.7601 19 17.8258 19 15.5842V13.5396H18.4531H17.909L17.9008 15.5021C17.8926 17.7026 17.9035 17.5767 17.6902 17.7601C17.6273 17.8149 17.5371 17.8641 17.4906 17.8751C17.3812 17.897 6.61875 17.897 6.50938 17.8751C6.46289 17.8641 6.37266 17.8149 6.30977 17.7601C6.09649 17.5767 6.10742 17.7026 6.09922 15.5021L6.09102 13.5396H5.54688H5V15.5842Z" fill="white" stroke="white" stroke-width="0.4" mask="url(#path-5-inside-2_801_3282)"/>
</g>
<rect x="-571.5" y="-11.5" width="787" height="47" rx="7.5" stroke="#E7E6F0"/>
</g>
<defs>
<clipPath id="clip0_801_3282">
<rect width="1920" height="1080" fill="white" transform="translate(-1009 -306)"/>
</clipPath>
<clipPath id="clip1_801_3282">
<rect width="24" height="24" fill="white"/>
</clipPath>
</defs>
</svg>
