<svg width="24" height="24" viewBox="0 0 24 24" fill="none" xmlns="http://www.w3.org/2000/svg">
<g clip-path="url(#clip0_972_13813)">
<path d="M5.56178 0.0674973C5.15729 0.2248 4.80335 0.679853 4.80335 1.05064C4.80335 1.21918 4.80335 1.21918 4.48313 1.21918C3.55617 1.2248 2.41572 1.69109 1.5955 2.40457C0.932581 2.9776 0.370785 3.89894 0.123595 4.82029L0 5.2922V12.5955V19.8989L0.129213 20.3764C0.595504 22.1348 1.86516 23.4045 3.62358 23.8708L4.10111 24H11.9943H19.8876L20.3651 23.8708C22.1235 23.4045 23.3932 22.1348 23.8595 20.3764L23.9887 19.8989V12.5955V5.2922L23.8651 4.82029C23.7022 4.22479 23.3763 3.54501 23.0055 3.05625C22.2303 2.0394 20.9157 1.31468 19.6853 1.23603L19.1853 1.20232V1.0394C19.1853 0.646147 18.7752 0.168619 18.3258 0.0450249C17.6404 -0.151604 16.8763 0.320305 16.7865 0.983225L16.7528 1.21918H14.9999H13.2415L13.2022 1.0057C13.1404 0.663 12.9157 0.337158 12.6236 0.168619C12.2471 -0.0560989 11.7415 -0.0560989 11.3651 0.168619C11.073 0.337158 10.8483 0.663 10.7865 1.0057L10.7472 1.21918H8.98873H7.23593L7.20222 0.983225C7.1629 0.679853 6.91009 0.325922 6.61234 0.163002C6.31458 -0.00553703 5.85953 -0.0448627 5.56178 0.0674973ZM12.5898 7.42702C12.7415 7.51691 12.8932 7.67421 12.9887 7.83713L13.146 8.10118L13.1629 11.2922C13.1741 13.4551 13.1573 14.5506 13.1179 14.7079C13.0449 14.9776 12.7415 15.3315 12.4775 15.4551C12.2303 15.5731 11.7584 15.5731 11.5112 15.4551C11.2472 15.3315 10.9438 14.9776 10.8707 14.7079C10.8314 14.5506 10.8146 13.4551 10.8258 11.2922L10.8427 8.10118L10.9943 7.83713C11.337 7.2641 12.0112 7.08994 12.5898 7.42702ZM12.4775 16.9438C12.9269 17.1461 13.2303 17.7023 13.146 18.1798C13.1011 18.4551 12.9382 18.7079 12.6516 18.9382C12.4494 19.1011 12.3988 19.1124 11.9943 19.1124C11.5898 19.1124 11.5393 19.1011 11.337 18.9382C11.2191 18.8427 11.0674 18.6854 11 18.5843C10.5168 17.8764 11.1067 16.8371 11.9943 16.8371C12.1348 16.8371 12.3483 16.8877 12.4775 16.9438Z" fill="#FF9C65"/>
</g>
<defs>
<clipPath id="clip0_972_13813">
<rect width="24" height="24" fill="white"/>
</clipPath>
</defs>
</svg>
