<svg width="20" height="20" viewBox="0 0 20 20" fill="none" xmlns="http://www.w3.org/2000/svg">
<path d="M3.86328 0.0898438C3.17969 0.324219 2.66797 0.839844 2.46094 1.51953C2.38281 1.76172 2.38281 1.92578 2.38281 10C2.38281 18.0742 2.38281 18.2383 2.46094 18.4805C2.66797 19.1602 3.17969 19.6758 3.86328 19.9102L4.12109 19.9961H10H15.8789L16.1367 19.9102C16.8203 19.6758 17.332 19.1602 17.5391 18.4805C17.6172 18.2383 17.6172 18.0859 17.6172 12.0469V5.85937H15.3047C14.0313 5.85937 12.8789 5.84375 12.7422 5.82422C12.6094 5.80469 12.4141 5.74609 12.3125 5.69922C12.0508 5.57031 11.7461 5.24609 11.6328 4.97266L11.543 4.74609L11.5313 2.37109L11.5195 -3.17705e-07H7.82031L4.12109 0.00390657L3.86328 0.0898438ZM14.4531 7.91797C14.6328 8.02734 14.7266 8.19531 14.7266 8.39844C14.7266 8.60156 14.6328 8.76953 14.4531 8.87891L14.3164 8.96484H9.88281C5.51953 8.96484 5.44531 8.96484 5.32031 8.88672C5.14453 8.78125 5.03906 8.60156 5.03906 8.40234C5.03906 8.11719 5.20313 7.91797 5.48828 7.84766C5.55078 7.83203 7.56641 7.82422 9.96094 7.82422L14.3164 7.83203L14.4531 7.91797ZM14.4531 11.043C14.6328 11.1523 14.7266 11.3203 14.7266 11.5234C14.7266 11.7266 14.6328 11.8945 14.4531 12.0039L14.3164 12.0898H9.88281C5.51953 12.0898 5.44531 12.0898 5.32031 12.0117C5.14453 11.9063 5.03906 11.7266 5.03906 11.5273C5.03906 11.2422 5.20313 11.043 5.48828 10.9727C5.55078 10.957 7.56641 10.9492 9.96094 10.9492L14.3164 10.957L14.4531 11.043ZM8.69922 14.1641C9.07031 14.4414 9.07031 14.8555 8.69922 15.1328C8.58984 15.2109 8.55078 15.2148 7.01953 15.2148C5.51953 15.2148 5.44531 15.2109 5.32031 15.1367C5.14453 15.0313 5.03906 14.8516 5.03906 14.6523C5.03906 14.3672 5.19922 14.168 5.48828 14.0977C5.55078 14.082 6.27734 14.0703 7.09766 14.0742C8.54297 14.082 8.58984 14.0859 8.69922 14.1641Z" fill="url(#paint0_linear_972_29162)"/>
<path d="M12.6953 2.41802C12.6953 4.21099 12.7031 4.60942 12.75 4.64458C12.7852 4.67583 13.4336 4.68364 15.0938 4.67974L17.3867 4.66802L17.2422 4.46489C17.168 4.35552 16.2148 3.42192 15.1289 2.39458C13.3008 0.664111 12.8203 0.234424 12.7305 0.234424C12.7109 0.234424 12.6953 1.15239 12.6953 2.41802Z" fill="url(#paint1_linear_972_29162)"/>
<defs>
<linearGradient id="paint0_linear_972_29162" x1="2.38281" y1="1.48982e-07" x2="19.1696" y2="1.4015" gradientUnits="userSpaceOnUse">
<stop stop-color="#7260ED"/>
<stop offset="1" stop-color="#AA7CEE"/>
</linearGradient>
<linearGradient id="paint1_linear_972_29162" x1="12.6953" y1="0.234424" x2="17.8321" y2="0.828376" gradientUnits="userSpaceOnUse">
<stop stop-color="#7260ED"/>
<stop offset="1" stop-color="#AA7CEE"/>
</linearGradient>
</defs>
</svg>
