<svg width="24" height="24" viewBox="0 0 24 24" fill="none" xmlns="http://www.w3.org/2000/svg">
<rect width="24" height="24" fill="#EEEEEE"/>
<g clip-path="url(#clip0_801_3282)">
<rect width="1920" height="1080" transform="translate(-927 -306)" fill="white"/>
<rect x="-647" y="-24" width="1600" height="72" rx="16" fill="#F9F6FF"/>
<rect x="-489.5" y="-11.5" width="787" height="47" rx="7.5" fill="white"/>
<g clip-path="url(#clip1_801_3282)">
<path d="M10.4765 0.0613537C8.31087 0.342712 6.32806 1.17272 4.59368 2.51387C4.04525 2.9406 3.11243 3.8597 2.65775 4.42242C1.364 6.02617 0.506185 7.92065 0.14056 9.98395C0.0093099 10.7155 -0.0422526 12.474 0.0421224 13.2759C0.243685 15.1469 0.895247 16.9804 1.90775 18.5373C2.36712 19.2407 2.77025 19.7424 3.39837 20.3849C5.36243 22.4013 7.84212 23.6205 10.664 23.9487C11.2921 24.0238 12.8202 24.0097 13.4999 23.93C17.0062 23.4939 20.1374 21.5291 22.0921 18.5373C23.0765 17.032 23.7046 15.3016 23.9296 13.4963C24.0234 12.7366 24.0234 11.2594 23.9296 10.4951C23.4984 7.01562 21.539 3.87377 18.5859 1.93239C17.0437 0.9195 15.3281 0.29113 13.4999 0.0613537C12.7874 -0.0230541 11.1515 -0.0230541 10.4765 0.0613537Z" fill="#CD7FF2"/>
<path d="M7 13.3773C7.6676 12.6414 8.56517 12.2292 9.5 12.2292C10.4348 12.2292 11.3324 12.6414 12 13.3773C12.6676 14.1132 13.5652 14.5253 14.5 14.5253C15.4348 14.5253 16.3324 14.1132 17 13.3773V6.14807C16.3324 6.88395 15.4348 7.29614 14.5 7.29614C13.5652 7.29614 12.6676 6.88395 12 6.14807C11.3324 5.41219 10.4348 5 9.5 5C8.56517 5 7.6676 5.41219 7 6.14807V13.3773ZM7 13.3773V19" stroke="white" stroke-width="1.2" stroke-linecap="round" stroke-linejoin="round"/>
</g>
<rect x="-489.5" y="-11.5" width="787" height="47" rx="7.5" stroke="#E7E6F0"/>
</g>
<defs>
<clipPath id="clip0_801_3282">
<rect width="1920" height="1080" fill="white" transform="translate(-927 -306)"/>
</clipPath>
<clipPath id="clip1_801_3282">
<rect width="24" height="24" fill="white"/>
</clipPath>
</defs>
</svg>
