<svg width="20" height="20" viewBox="0 0 20 20" fill="none" xmlns="http://www.w3.org/2000/svg">
<rect width="20" height="20" fill="white"/>
<path d="M0.816637 2.32027C0.496324 2.43355 0.265856 2.63277 0.109606 2.92965L0.0197618 3.10543L0.00804302 8.70699C0.00413677 11.789 0.00413677 14.3046 0.0158555 14.2929C0.023668 14.2851 0.687731 12.8984 1.48851 11.2109C2.88695 8.28121 2.95726 8.13668 3.16429 7.92965C3.38695 7.70308 3.69554 7.53121 3.98851 7.4648C4.10179 7.43746 6.37523 7.42183 10.5237 7.42183H16.883L16.8674 6.47262C16.8557 5.61324 16.844 5.51168 16.7698 5.34762C16.6604 5.10152 16.4299 4.85933 16.1955 4.73433L15.9963 4.62887L12.1643 4.61715L8.33226 4.60933L7.67992 3.69527C6.95336 2.67183 6.81664 2.51558 6.53929 2.37887L6.34789 2.28512L3.65257 2.2773C1.51976 2.26949 0.926012 2.2773 0.816637 2.32027Z" fill="url(#paint0_linear_972_29169)"/>
<path d="M4.61328 8.57806C4.15625 8.69916 3.75 9.03119 3.53125 9.45697C3.47266 9.57416 2.65625 11.2851 1.71094 13.2578L0 16.8476L0.09375 17.0546C0.273438 17.4453 0.640625 17.707 1.10156 17.7773C1.43359 17.8242 15.207 17.8203 15.5781 17.7734C15.9609 17.7226 16.2617 17.5742 16.5234 17.3046C16.7227 17.1015 16.8555 16.8476 18.3594 13.832L19.9805 10.582V10.1445C19.9805 9.74994 19.9688 9.68353 19.875 9.48041C19.7461 9.20697 19.4414 8.87494 19.1875 8.73822C18.7539 8.50385 19.1758 8.51556 11.6797 8.51947C5.81641 8.51947 4.79297 8.52728 4.61328 8.57806Z" fill="url(#paint1_linear_972_29169)"/>
<defs>
<linearGradient id="paint0_linear_972_29169" x1="0.00570691" y1="2.27462" x2="18.2993" y2="5.0898" gradientUnits="userSpaceOnUse">
<stop stop-color="#7260ED"/>
<stop offset="1" stop-color="#AA7CEE"/>
</linearGradient>
<linearGradient id="paint1_linear_972_29169" x1="1.48866e-07" y1="8.51804" x2="21.0039" y2="13.4671" gradientUnits="userSpaceOnUse">
<stop stop-color="#7260ED"/>
<stop offset="1" stop-color="#AA7CEE"/>
</linearGradient>
</defs>
</svg>
