<svg width="24" height="24" viewBox="0 0 24 24" fill="none" xmlns="http://www.w3.org/2000/svg">
<g id="Group 13">
<path id="question 1 (Traced)" fill-rule="evenodd" clip-rule="evenodd" d="M10.5428 0.0297228C8.13778 0.197371 6.18497 0.655764 4.53671 1.43962C2.83286 2.24989 1.89705 3.15869 1.24024 4.64101C-0.391292 8.32304 -0.417345 15.4907 1.18712 19.2399C1.9331 20.9831 3.13314 22.0419 5.33715 22.9013C9.06197 24.3538 14.8636 24.3678 18.5731 22.9332C20.7197 22.103 21.9179 21.1189 22.6446 19.5888C24.1785 16.3596 24.453 10.2063 23.2498 6.0235C22.8414 4.60376 22.3301 3.6349 21.5985 2.8943C20.1674 1.44569 17.5955 0.454631 14.3835 0.114053C13.3918 0.00887903 11.4528 -0.0336511 10.5428 0.0297228Z" fill="#47D8A4"/>
<path id="Vector 1" d="M6 11.0768L8.90512 15.1324C9.08202 15.3794 9.43645 15.4128 9.65642 15.2033L16.8 8.3999" stroke="white" stroke-width="2" stroke-linecap="round"/>
</g>
</svg>
