<svg width="24" height="24" viewBox="0 0 24 24" fill="none" xmlns="http://www.w3.org/2000/svg">
<path d="M15.1866 2.62989C14.4319 2.71895 13.5506 3.04239 12.8569 3.49239C12.285 3.8627 10.4147 5.71426 10.2553 6.06583C10.0913 6.43145 10.1006 7.00801 10.2788 7.36895C10.4288 7.67364 10.6959 7.93614 11.01 8.08145C11.1788 8.15645 11.3147 8.17989 11.6475 8.17989C12.2756 8.17989 12.3881 8.10958 13.5225 6.98926C14.2866 6.23926 14.5163 6.0377 14.7647 5.91583C15.0788 5.76114 15.5991 5.6252 15.8897 5.6252C15.9788 5.6252 16.2038 5.65801 16.3819 5.69551C17.3428 5.89708 18.0975 6.65645 18.3038 7.62676C18.3881 8.02989 18.3881 8.19395 18.3038 8.60176C18.1725 9.23458 18.0225 9.44551 16.9819 10.5049C15.8709 11.6346 15.7772 11.7799 15.7725 12.3752C15.7725 12.6846 15.7959 12.7736 15.9272 13.0455C16.2131 13.6221 16.7147 13.9033 17.385 13.8658C17.9522 13.833 18.0647 13.7533 19.2647 12.5299C20.0944 11.6861 20.3709 11.3721 20.5678 11.058C21.5006 9.53926 21.66 7.67364 21.0038 6.02364C20.7038 5.28301 20.2725 4.65958 19.6397 4.06895C18.4444 2.94864 16.8694 2.4377 15.1866 2.62989Z" fill="#524587"/>
<path d="M12.9089 9.16009C12.8011 9.1929 12.6229 9.28665 12.5104 9.36634C12.3979 9.44134 11.6339 10.182 10.8183 11.0023C9.10263 12.7226 9.06982 12.7695 9.0745 13.4304C9.0745 13.7445 9.09794 13.8523 9.20107 14.0726C9.562 14.8179 10.4714 15.1413 11.2261 14.7991C11.4698 14.6866 11.7136 14.4616 13.087 13.0882C14.8917 11.2835 14.9198 11.246 14.9245 10.5945C14.9292 10.2851 14.9104 10.2007 14.7745 9.92884C14.5026 9.3804 14.0339 9.08977 13.4151 9.09915C13.2417 9.09915 13.0167 9.12727 12.9089 9.16009Z" fill="#524587"/>
<path d="M6.28511 10.1955C6.14449 10.2377 5.96636 10.308 5.88668 10.3596C5.80699 10.4064 5.29605 10.8986 4.74761 11.4471C3.97418 12.2299 3.69761 12.5393 3.47261 12.8908C2.3148 14.6908 2.29605 16.9924 3.43043 18.8393C3.76793 19.3877 4.61168 20.2314 5.16011 20.5689C6.97418 21.6846 9.23355 21.6846 11.0429 20.5736C11.3804 20.3674 11.6711 20.1143 12.5476 19.2471C13.8086 18.0049 13.8461 17.9439 13.8507 17.2971C13.8507 16.9549 13.832 16.8611 13.7195 16.6314C13.5695 16.3268 13.3023 16.0643 12.9882 15.9189C12.8195 15.8439 12.6836 15.8205 12.3507 15.8205C11.7226 15.8205 11.6382 15.8768 10.4992 16.9924C9.44449 18.0236 9.22886 18.1736 8.60074 18.3049C8.19293 18.3893 8.02886 18.3893 7.62574 18.3049C6.65543 18.0986 5.90074 17.3439 5.69449 16.3736C5.61011 15.9705 5.61011 15.8064 5.69449 15.3986C5.82574 14.7658 5.97105 14.5596 7.03511 13.4768C7.9023 12.5955 8.01011 12.4643 8.10386 12.2111C8.32418 11.6299 8.1648 10.9127 7.73824 10.5377C7.35386 10.2002 6.76793 10.0596 6.28511 10.1955Z" fill="#524587"/>
</svg>
