<svg width="20" height="20" viewBox="0 0 20 20" fill="none" xmlns="http://www.w3.org/2000/svg">
<path d="M12.6561 2.19133C12.0272 2.26555 11.2928 2.53508 10.7147 2.91008C10.2382 3.21867 8.67957 4.76164 8.54675 5.05461C8.41004 5.3593 8.41785 5.83977 8.56629 6.14055C8.69129 6.39445 8.91394 6.6132 9.17566 6.7343C9.31629 6.7968 9.42957 6.81633 9.70691 6.81633C10.2303 6.81633 10.3241 6.75774 11.2694 5.82414C11.9061 5.19914 12.0975 5.03117 12.3046 4.92961C12.5663 4.8007 12.9999 4.68742 13.2421 4.68742C13.3163 4.68742 13.5038 4.71477 13.6522 4.74602C14.453 4.91399 15.0819 5.5468 15.2538 6.35539C15.3241 6.69133 15.3241 6.82805 15.2538 7.16789C15.1444 7.69524 15.0194 7.87102 14.1522 8.75383C13.2264 9.69524 13.1483 9.81633 13.1444 10.3124C13.1444 10.5702 13.1639 10.6445 13.2733 10.871C13.5116 11.3515 13.9296 11.5859 14.4882 11.5546C14.9608 11.5273 15.0546 11.4609 16.0546 10.4413C16.746 9.73821 16.9764 9.47649 17.1405 9.21477C17.9178 7.94914 18.0507 6.39445 17.5038 5.01945C17.2538 4.40227 16.8944 3.88274 16.3671 3.39055C15.371 2.45695 14.0585 2.03117 12.6561 2.19133Z" fill="url(#paint0_linear_972_29183)"/>
<path d="M10.758 7.63292C10.6682 7.66026 10.5198 7.73839 10.426 7.80479C10.3323 7.86729 9.69555 8.48448 9.01586 9.16807C7.58617 10.6017 7.55883 10.6407 7.56274 11.1915C7.56274 11.4532 7.58227 11.5431 7.66821 11.7267C7.96899 12.3478 8.7268 12.6173 9.35571 12.3321C9.55883 12.2384 9.76196 12.0509 10.9065 10.9064C12.4104 9.40245 12.4338 9.3712 12.4377 8.82823C12.4416 8.57042 12.426 8.50011 12.3127 8.27354C12.0862 7.81651 11.6955 7.57432 11.1799 7.58214C11.0354 7.58214 10.8479 7.60557 10.758 7.63292Z" fill="url(#paint1_linear_972_29183)"/>
<path d="M5.23819 8.49609C5.12101 8.53125 4.97257 8.58984 4.90616 8.63281C4.83976 8.67188 4.41398 9.08203 3.95694 9.53906C3.31241 10.1914 3.08194 10.4492 2.89444 10.7422C1.9296 12.2422 1.91398 14.1602 2.85929 15.6992C3.14054 16.1562 3.84366 16.8594 4.30069 17.1406C5.81241 18.0703 7.69523 18.0703 9.20304 17.1445C9.48429 16.9727 9.72648 16.7617 10.4569 16.0391C11.5077 15.0039 11.539 14.9531 11.5429 14.4141C11.5429 14.1289 11.5273 14.0508 11.4335 13.8594C11.3085 13.6055 11.0859 13.3867 10.8241 13.2656C10.6835 13.2031 10.5702 13.1836 10.2929 13.1836C9.76944 13.1836 9.69913 13.2305 8.74991 14.1602C7.87101 15.0195 7.69132 15.1445 7.16788 15.2539C6.82804 15.3242 6.69132 15.3242 6.35538 15.2539C5.54679 15.082 4.91788 14.4531 4.74601 13.6445C4.67569 13.3086 4.67569 13.1719 4.74601 12.832C4.85538 12.3047 4.97648 12.1328 5.86319 11.2305C6.58585 10.4961 6.67569 10.3867 6.75382 10.1758C6.93741 9.69141 6.8046 9.09375 6.44913 8.78125C6.12882 8.5 5.64054 8.38281 5.23819 8.49609Z" fill="url(#paint2_linear_972_29183)"/>
<defs>
<linearGradient id="paint0_linear_972_29183" x1="8.44934" y1="2.1583" x2="18.7415" y2="3.28467" gradientUnits="userSpaceOnUse">
<stop stop-color="#7260ED"/>
<stop offset="1" stop-color="#AA7CEE"/>
</linearGradient>
<linearGradient id="paint1_linear_972_29183" x1="7.5625" y1="7.58195" x2="12.9081" y2="8.16917" gradientUnits="userSpaceOnUse">
<stop stop-color="#7260ED"/>
<stop offset="1" stop-color="#AA7CEE"/>
</linearGradient>
<linearGradient id="paint2_linear_972_29183" x1="2.16043" y1="8.45329" x2="12.4476" y2="9.58028" gradientUnits="userSpaceOnUse">
<stop stop-color="#7260ED"/>
<stop offset="1" stop-color="#AA7CEE"/>
</linearGradient>
</defs>
</svg>
