<svg width="24" height="24" viewBox="0 0 24 24" fill="none" xmlns="http://www.w3.org/2000/svg">
<rect width="24" height="24" fill="#EEEEEE"/>
<g id="User LIst on select" clip-path="url(#clip0_801_3282)">
<rect width="1920" height="1080" transform="translate(-658 -172)" fill="white"/>
<g id="Actions">
<g id="Group 30748">
<rect id="Rectangle 458" x="-378" y="-24" width="1600" height="72" rx="16" fill="#F9F6FF"/>
<g id="Group 30613">
<g id="Frame 30975">
<rect x="-200.5" y="-11.5" width="531" height="47" rx="7.5" fill="white"/>
<g id="Group 30534">
<g id="delete 1 (traced)" clip-path="url(#clip1_801_3282)">
<path id="Vector" d="M10.4765 0.0613537C8.31087 0.342712 6.32806 1.17272 4.59368 2.51387C4.04525 2.9406 3.11243 3.8597 2.65775 4.42242C1.364 6.02617 0.506185 7.92065 0.14056 9.98395C0.0093099 10.7155 -0.0422526 12.474 0.0421224 13.2759C0.243685 15.1469 0.895247 16.9804 1.90775 18.5373C2.36712 19.2407 2.77025 19.7424 3.39837 20.3849C5.36243 22.4013 7.84212 23.6205 10.664 23.9487C11.2921 24.0238 12.8202 24.0097 13.4999 23.93C17.0062 23.4939 20.1374 21.5291 22.0921 18.5373C23.0765 17.032 23.7046 15.3016 23.9296 13.4963C24.0234 12.7366 24.0234 11.2594 23.9296 10.4951C23.4984 7.01562 21.539 3.87377 18.5859 1.93239C17.0437 0.9195 15.3281 0.29113 13.4999 0.0613537C12.7874 -0.0230541 11.1515 -0.0230541 10.4765 0.0613537Z" fill="#F0C965"/>
<g id="image 240 (traced)">
<g id="Black">
<path id="Vector_2" d="M15.6768 6.0115C15.3409 6.05319 15.0049 6.18561 14.7155 6.39161C14.5439 6.51423 14.2888 6.77908 14.2079 6.91642L14.1539 7.00961L14.0289 6.93113C13.6095 6.66137 13.0308 6.56328 12.5133 6.66873C11.7702 6.82323 11.1621 7.38972 10.9487 8.12543C10.8751 8.38293 10.858 8.83171 10.9144 9.10392C11.037 9.72191 11.4343 10.2418 12.0008 10.5361L12.1332 10.6048L9.08981 13.6481C5.78403 16.9539 5.9655 16.7577 6.02191 16.9784C6.04643 17.0667 6.12 17.1526 6.48295 17.518C7.12057 18.1531 7.11321 18.1531 7.70178 17.5621L8.09415 17.1697L8.48653 17.5621C8.9206 17.9962 8.97455 18.0281 9.16338 17.979C9.24431 17.9569 9.32524 17.8932 9.53369 17.6921C9.67838 17.5474 9.79854 17.4199 9.79854 17.4052C9.79854 17.3904 9.63178 17.2114 9.42824 17.0103C9.22469 16.8068 9.04322 16.613 9.0236 16.5763C8.89117 16.3237 9.16093 16.0171 9.42333 16.1275C9.47974 16.152 9.66366 16.3139 9.90154 16.5517L10.289 16.9343L10.5122 16.716C10.8555 16.3776 10.9242 16.2427 10.8531 16.049C10.8383 16.0122 10.652 15.8062 10.4411 15.5929L10.056 15.2078L11.7261 13.5378L13.3937 11.8702L13.4746 12.0247C13.5923 12.2478 13.7002 12.3876 13.9038 12.5765C14.1711 12.8241 14.4261 12.9639 14.8038 13.0669C15.0221 13.1282 15.5861 13.1282 15.8044 13.0669C16.0177 13.0081 16.2237 12.9247 16.388 12.8266C16.5695 12.7162 16.8638 12.4416 16.9987 12.2503C17.4597 11.6029 17.4965 10.7004 17.0919 10.0064C17.0453 9.92791 17.0085 9.8617 17.0085 9.85434C17.0085 9.84944 17.0551 9.81265 17.1139 9.77587C17.494 9.52327 17.8153 9.05732 17.9428 8.57421C18.0139 8.29709 18.0164 7.84095 17.9428 7.56874C17.7074 6.67854 16.957 6.06054 16.0521 6.00414C15.9368 5.99678 15.7676 5.99923 15.6768 6.0115ZM16.2188 7.4731C16.4567 7.59081 16.5916 7.80662 16.5916 8.07148C16.5916 8.78266 15.6303 8.99602 15.3262 8.3535C15.2084 8.10581 15.2698 7.77474 15.4659 7.58836C15.6646 7.40198 15.9785 7.35294 16.2188 7.4731ZM13.1656 8.06412C13.325 8.12052 13.4648 8.24559 13.5457 8.40009C13.5972 8.50064 13.6095 8.55704 13.6095 8.69683C13.6071 8.95923 13.4795 9.17259 13.2515 9.28785C12.9793 9.42518 12.6997 9.38104 12.4839 9.16768C12.2019 8.88321 12.2068 8.47121 12.4986 8.20881C12.6972 8.02979 12.9278 7.98074 13.1656 8.06412ZM15.6033 10.4576C15.9932 10.6563 16.0962 11.1516 15.8166 11.4778C15.5469 11.7917 15.1275 11.8089 14.8332 11.517C14.4654 11.1467 14.6248 10.568 15.1447 10.3988C15.2526 10.362 15.4708 10.3914 15.6033 10.4576Z" fill="white"/>
</g>
</g>
</g>
</g>
<rect x="-200.5" y="-11.5" width="531" height="47" rx="7.5" stroke="#E7E6F0"/>
</g>
</g>
</g>
</g>
</g>
<defs>
<clipPath id="clip0_801_3282">
<rect width="1920" height="1080" fill="white" transform="translate(-658 -172)"/>
</clipPath>
<clipPath id="clip1_801_3282">
<rect width="24" height="24" fill="white"/>
</clipPath>
</defs>
</svg>
