<svg width="24" height="24" viewBox="0 0 24 24" fill="none" xmlns="http://www.w3.org/2000/svg">
<g clip-path="url(#clip0_1075_11475)">
<path d="M11.4141 0.060936C10.9781 0.206249 10.7859 0.360937 9.77344 1.35938C8.22656 2.88281 8.17031 2.90625 6.07031 2.90625C4.99687 2.90625 4.65 2.92031 4.42969 2.97656C3.66562 3.17813 3.09844 3.77813 2.95312 4.54688C2.92969 4.68281 2.90625 5.38594 2.90625 6.1125C2.90625 8.16562 2.87812 8.23594 1.35469 9.77813C0.459375 10.6828 0.309375 10.8563 0.178125 11.1375C0.0328125 11.4422 0.0234375 11.4891 0.0234375 12C0.0234375 12.5109 0.0328125 12.5578 0.178125 12.8625C0.309375 13.1437 0.459375 13.3172 1.35 14.2219C2.87813 15.7734 2.90625 15.8344 2.90625 17.9344C2.90625 19.4109 2.93438 19.6312 3.17344 20.0719C3.31875 20.3391 3.70313 20.7188 3.975 20.8547C4.39219 21.0656 4.62656 21.0938 6.04688 21.0938C8.16562 21.0938 8.23125 21.1219 9.77813 22.65C10.6828 23.5406 10.8563 23.6906 11.1375 23.8219C11.4422 23.9672 11.4891 23.9766 12 23.9766C12.5109 23.9766 12.5578 23.9672 12.8625 23.8219C13.1437 23.6906 13.3172 23.5406 14.2219 22.65C15.7687 21.1219 15.8344 21.0938 17.9531 21.0938C19.3734 21.0938 19.6078 21.0656 20.025 20.8547C20.2969 20.7188 20.6813 20.3391 20.8266 20.0719C21.0656 19.6312 21.0938 19.4109 21.0938 17.9531C21.0938 15.8344 21.1219 15.7687 22.65 14.2219C23.5406 13.3172 23.6906 13.1437 23.8219 12.8625C23.9672 12.5578 23.9766 12.5109 23.9766 12C23.9766 11.4891 23.9672 11.4422 23.8219 11.1375C23.6906 10.8563 23.5406 10.6828 22.65 9.77813C21.1219 8.23125 21.0938 8.16562 21.0938 6.04688C21.0938 4.58906 21.0656 4.36875 20.8266 3.92812C20.6813 3.66094 20.2969 3.28125 20.025 3.14531C19.6078 2.93438 19.3734 2.90625 17.9531 2.90625C15.8344 2.90625 15.7687 2.87812 14.2219 1.35C13.3125 0.454687 13.1437 0.309374 12.8625 0.178123C12.5766 0.0421867 12.4875 0.0234375 12.0703 0.014061C11.775 0.00468636 11.5312 0.0234375 11.4141 0.060936Z" fill="#47D8A4"/>
<path d="M15.3422 7.64076C15.1828 7.72513 14.6906 8.28294 12.8812 10.4533L10.6172 13.1626L9.60936 12.1595C8.5453 11.1048 8.42342 11.0158 8.02967 11.0158C7.30311 11.0204 6.81561 11.7892 7.1203 12.4454C7.17655 12.5673 7.7203 13.1392 8.69999 14.1142C10.1906 15.5954 10.1953 15.6001 10.4531 15.6517C10.739 15.7079 10.9734 15.6704 11.2125 15.5298C11.3765 15.4361 16.4578 9.40326 16.6734 9.05169C16.9359 8.61576 16.8 8.01576 16.3687 7.71576C16.0969 7.52357 15.6375 7.49076 15.3422 7.64076Z" fill="white"/>
</g>
<defs>
<clipPath id="clip0_1075_11475">
<rect width="24" height="24" fill="white"/>
</clipPath>
</defs>
</svg>
