<svg width="24" height="24" viewBox="0 0 24 24" fill="none" xmlns="http://www.w3.org/2000/svg">
<g id="pin">
<g id="Black">
<path id="Vector" d="M10.7812 0.0281258C9.55781 0.173439 8.69062 0.384377 8.08593 0.675001C7.56562 0.928127 7.26093 1.19063 7.09687 1.52813C6.975 1.77656 6.97031 1.80938 6.99843 2.2875C7.06875 3.55313 7.64531 4.77656 8.57343 5.63438L8.91093 5.94844L8.70937 7.51406L8.50781 9.08438L8.29687 9.21563C7.57031 9.67031 6.55781 10.6078 6.00468 11.3438C5.61093 11.8688 5.23593 12.5156 5.10468 12.8906C5.02031 13.1297 4.99687 13.2984 4.99687 13.6875C4.99687 14.4609 5.19843 14.9625 5.7375 15.4969C6.01406 15.7734 6.14062 15.8531 6.49218 16.0031C7.70156 16.5234 8.92031 16.8141 10.3125 16.9266C10.6875 16.9594 11.0109 16.9969 11.0344 17.0203C11.0531 17.0391 11.1656 18.525 11.2781 20.325C11.3906 22.1859 11.5031 23.6531 11.5359 23.7234C11.6062 23.9016 11.7703 24 12 24C12.2297 24 12.3937 23.9016 12.4641 23.7234C12.4969 23.6531 12.6094 22.1859 12.7219 20.325C12.8344 18.525 12.9469 17.0391 12.9656 17.0203C12.9891 16.9969 13.3125 16.9594 13.6875 16.9266C15.0797 16.8141 16.2984 16.5234 17.5078 16.0031C17.8594 15.8531 17.9859 15.7734 18.2625 15.4969C18.8016 14.9625 19.0031 14.4609 19.0031 13.6875C19.0031 13.0922 18.9094 12.7922 18.5344 12.1547C17.9062 11.0813 16.95 10.0641 15.9234 9.37031L15.4875 9.075L15.2906 7.50938L15.0891 5.94844L15.4266 5.63438C16.3547 4.77656 16.9312 3.55313 17.0016 2.2875C17.0297 1.80938 17.025 1.77656 16.9031 1.52813C16.8328 1.38281 16.6781 1.18594 16.5562 1.07344C16.0875 0.665627 15.1078 0.304689 13.9219 0.117189C13.4484 0.0375023 11.2078 -0.0234356 10.7812 0.0281258Z" fill="#524587"/>
</g>
</g>
</svg>
