<svg width="16" height="16" viewBox="0 0 16 16" fill="none" xmlns="http://www.w3.org/2000/svg">
<path d="M8 16C6.90667 16 5.87333 15.7899 4.9 15.3696C3.92667 14.9499 3.0768 14.38 2.3504 13.66C1.62347 12.94 1.05013 12.0933 0.6304 11.12C0.210133 10.1467 0 9.10667 0 8C0 6.89333 0.210133 5.85333 0.6304 4.88C1.05013 3.90667 1.62347 3.06 2.3504 2.34C3.0768 1.62 3.92667 1.04987 4.9 0.6296C5.87333 0.209867 6.90667 0 8 0C9.12 0 10.1667 0.209867 11.14 0.6296C12.1133 1.04987 12.96 1.62 13.68 2.34C14.4 3.06 14.9667 3.90667 15.38 4.88C15.7933 5.85333 16 6.89333 16 8C16 9.10667 15.7933 10.1467 15.38 11.12C14.9667 12.0933 14.4 12.94 13.68 13.66C12.96 14.38 12.1133 14.9499 11.14 15.3696C10.1667 15.7899 9.12 16 8 16ZM8 14.4C9.78667 14.4 11.3 13.7768 12.54 12.5304C13.78 11.2835 14.4 9.77333 14.4 8C14.4 6.22667 13.78 4.71653 12.54 3.4696C11.3 2.2232 9.78667 1.6 8 1.6C6.25333 1.6 4.74987 2.2232 3.4896 3.4696C2.22987 4.71653 1.6 6.22667 1.6 8C1.6 9.77333 2.22987 11.2835 3.4896 12.5304C4.74987 13.7768 6.25333 14.4 8 14.4Z" fill="#FF5F5F"/>
<path d="M8.76438 3.20212L8.76658 3.03995H8.6044H7.39551H7.23332L7.23552 3.20212L7.32441 9.74435L7.32655 9.90217H7.4844H8.51551H8.67335L8.67549 9.74435L8.76438 3.20212ZM8.48227 12.4038L8.48325 12.4032C8.62666 12.3158 8.74163 12.1994 8.82619 12.0554C8.91539 11.9086 8.95995 11.7467 8.95995 11.5733C8.95995 11.311 8.86414 11.0823 8.67753 10.8957C8.49092 10.7091 8.26226 10.6133 7.99995 10.6133C7.73765 10.6133 7.50898 10.7091 7.32237 10.8957C7.13576 11.0823 7.03995 11.311 7.03995 11.5733C7.03995 11.8356 7.13576 12.0643 7.32237 12.2509C7.50898 12.4375 7.73765 12.5333 7.99995 12.5333C8.17494 12.5333 8.33709 12.4909 8.48227 12.4038Z" fill="#FF5F5F" stroke="#FF5F5F" stroke-width="0.32"/>
</svg>
