<svg width="24" height="24" viewBox="0 0 24 24" fill="none" xmlns="http://www.w3.org/2000/svg">
<path id="question 1 (Traced)" fill-rule="evenodd" clip-rule="evenodd" d="M10.5428 0.0297228C8.13778 0.197371 6.18497 0.655764 4.53671 1.43962C2.83286 2.24989 1.89705 3.15869 1.24024 4.64101C-0.391292 8.32304 -0.417345 15.4907 1.18712 19.2399C1.9331 20.9831 3.13314 22.0419 5.33715 22.9013C9.06197 24.3538 14.8636 24.3678 18.5731 22.9332C20.7197 22.103 21.9179 21.1189 22.6446 19.5888C24.1785 16.3596 24.453 10.2063 23.2498 6.0235C22.8414 4.60376 22.3301 3.6349 21.5985 2.8943C20.1674 1.44569 17.5955 0.454631 14.3835 0.114053C13.3918 0.00887903 11.4528 -0.0336511 10.5428 0.0297228ZM12.8941 5.71224C13.0339 5.74517 13.3861 5.88574 13.6767 6.02456C14.9838 6.64897 15.7924 8.01825 15.6841 9.42422C15.578 10.7996 14.7672 11.9847 13.5328 12.5686L13.1875 12.732L13.1679 13.4499C13.1495 14.123 13.1386 14.1823 12.9934 14.4018C12.9082 14.5305 12.7332 14.7056 12.6044 14.7908C12.4079 14.921 12.3106 14.9458 11.9972 14.9458C11.6839 14.9458 11.5866 14.921 11.3901 14.7908C11.2613 14.7056 11.0863 14.5305 11.0011 14.4018C10.8525 14.1773 10.8454 14.1343 10.8271 13.34C10.8159 12.8523 10.8347 12.3837 10.8729 12.1995C11.039 11.399 11.5866 10.8042 12.4552 10.481C13.594 10.0573 13.6966 8.50333 12.6221 7.95482C11.7425 7.50581 10.7404 8.06691 10.6205 9.07561C10.5311 9.82733 10.2547 10.1775 9.64102 10.3165C9.10127 10.4388 8.46254 10.0407 8.32183 9.49434C8.13026 8.75076 8.56624 7.54121 9.30301 6.77207C10.2194 5.81545 11.6014 5.40757 12.8941 5.71224ZM12.3538 16.2707C12.4779 16.3051 12.6708 16.4315 12.8064 16.5672C13.2227 16.9837 13.2837 17.5965 12.9544 18.0514C12.5091 18.6666 11.7085 18.7332 11.1751 18.1994C10.6967 17.7207 10.7 17.0556 11.1832 16.5721C11.5195 16.2356 11.887 16.1409 12.3538 16.2707Z" fill="#FF5F5F"/>
</svg>
