<svg width="24" height="24" viewBox="0 0 24 24" fill="none" xmlns="http://www.w3.org/2000/svg">
<rect width="24" height="24" fill="#EEEEEE"/>
<g clip-path="url(#clip0_801_3282)">
<rect width="1920" height="1080" transform="translate(-805 -306)" fill="white"/>
<rect x="-525" y="-24" width="1600" height="72" rx="16" fill="#F9F6FF"/>
<rect x="-367.5" y="-11.5" width="787" height="47" rx="7.5" fill="white"/>
<g clip-path="url(#clip1_801_3282)">
<path d="M10.4765 0.0609875C8.31087 0.342346 6.32806 1.17236 4.59368 2.5135C4.04525 2.94023 3.11243 3.85934 2.65775 4.42205C1.364 6.0258 0.506185 7.92029 0.14056 9.98359C0.0093099 10.7151 -0.0422526 12.4736 0.0421224 13.2755C0.243685 15.1465 0.895247 16.9801 1.90775 18.5369C2.36712 19.2403 2.77025 19.7421 3.39837 20.3845C5.36243 22.4009 7.84212 23.6201 10.664 23.9484C11.2921 24.0234 12.8202 24.0093 13.4999 23.9296C17.0062 23.4935 20.1374 21.5287 22.0921 18.5369C23.0765 17.0316 23.7046 15.3013 23.9296 13.4959C24.0234 12.7362 24.0234 11.2591 23.9296 10.4947C23.4984 7.01525 21.539 3.87341 18.5859 1.93203C17.0437 0.919134 15.3281 0.290764 13.4999 0.0609875C12.7874 -0.0234203 11.1515 -0.0234203 10.4765 0.0609875Z" fill="#459BFF"/>
<g clip-path="url(#clip2_801_3282)">
<path d="M11.7342 3.54997C11.4217 3.71247 11.2905 4.08122 11.4342 4.3906C11.4655 4.45935 11.6155 4.63435 11.7624 4.78122C11.9092 4.92497 12.0311 5.05622 12.0311 5.06872C12.0311 5.08435 11.8936 5.09372 11.7249 5.09372C10.5436 5.09372 9.128 5.54685 8.028 6.2781C7.15925 6.85622 6.37175 7.67185 5.84675 8.5406C5.253 9.52497 4.76237 11.0781 4.90612 11.5125C5.03425 11.9031 5.5405 12.0656 5.88112 11.825C6.053 11.7031 6.10612 11.5875 6.19987 11.1343C6.7405 8.4906 8.9655 6.54372 11.6374 6.3781C11.8624 6.3656 12.1655 6.35935 12.3092 6.36872L12.5717 6.38122L12.0217 6.93435C11.4436 7.50935 11.3749 7.60935 11.3749 7.84997C11.378 8.25935 11.753 8.54997 12.1655 8.4656C12.3249 8.43122 12.353 8.40622 13.3811 7.38122C14.1467 6.61872 14.4467 6.29997 14.4749 6.21872C14.5249 6.06872 14.5186 5.8156 14.4592 5.7031C14.3967 5.58122 12.4342 3.62497 12.303 3.5531C12.1749 3.48435 11.8624 3.48122 11.7342 3.54997Z" fill="white"/>
<path d="M15.8593 6.57494C15.7406 6.62806 15.5781 6.79994 15.5343 6.91556C15.5156 6.96556 15.5 7.08119 15.5 7.17806C15.5 7.40931 15.5906 7.55931 15.8531 7.77181C16.2531 8.09994 16.7375 8.65619 17.0406 9.14994C17.6468 10.1281 17.9406 11.1656 17.9406 12.2999C17.9375 13.4593 17.6562 14.4531 17.0406 15.4437C16.9468 15.5968 16.8656 15.7187 16.8593 15.7124C16.8531 15.7062 16.7718 15.3999 16.6718 15.0312C16.575 14.6624 16.4687 14.3031 16.4375 14.2312C16.3531 14.0374 16.1 13.8749 15.8781 13.8749C15.5906 13.8749 15.3187 14.0906 15.25 14.3718C15.2156 14.5187 15.2218 14.5593 15.325 14.9593C15.6468 16.2031 15.9656 17.3531 16.0125 17.4187C16.0875 17.5374 16.2531 17.6499 16.4093 17.6906C16.55 17.7281 16.5968 17.7187 17.9687 17.3499C19.4968 16.9374 19.5375 16.9218 19.6562 16.6874C19.7312 16.5437 19.7406 16.2656 19.675 16.1156C19.6218 15.9937 19.4531 15.8281 19.3343 15.7843C19.1593 15.7156 18.9437 15.7468 18.3093 15.9249C18.275 15.9343 18.325 15.8124 18.4531 15.5562C18.8375 14.7968 19.0812 13.9999 19.1875 13.1562C19.2343 12.7624 19.225 11.7812 19.1718 11.3531C19.0031 10.0562 18.4468 8.76556 17.6156 7.73119C17.3343 7.38744 16.5937 6.67806 16.4281 6.59681C16.2718 6.52181 16.0031 6.50931 15.8593 6.57494Z" fill="white"/>
<path d="M5.44375 13.2219C5.26875 13.2625 5.05 13.4687 5.00313 13.6406C4.60313 15.0906 4.3125 16.2531 4.3125 16.3969C4.3125 16.7031 4.4875 16.925 4.7875 17C5.06563 17.0719 5.375 16.9375 5.49688 16.6937C5.52813 16.6312 5.59375 16.4281 5.64062 16.2406C5.69063 16.0562 5.7375 15.9062 5.74688 15.9062C5.75625 15.9062 5.81875 15.9969 5.88125 16.1062C6.0375 16.3719 6.40625 16.8625 6.68125 17.1687C7.78437 18.3937 9.3875 19.225 11.0938 19.4562C11.5344 19.5125 12.4938 19.5125 12.9594 19.4531C13.3875 19.3969 13.8625 19.2875 14.2812 19.15C14.6469 19.0312 14.7719 18.9687 14.8813 18.8531C14.9938 18.7375 15.0312 18.625 15.0312 18.4187C15.0312 18.0531 14.7594 17.7812 14.3969 17.7812C14.35 17.7812 14.1906 17.825 14.0375 17.875C13.3313 18.1219 12.7594 18.2187 12.0156 18.2187C9.94063 18.2187 8.06562 17.1781 6.97187 15.4156C6.81562 15.1594 6.61563 14.7812 6.6375 14.7812C6.64375 14.7812 6.97187 14.8656 7.3625 14.9719C7.93125 15.125 8.10938 15.1594 8.24063 15.15C8.74062 15.1062 8.975 14.4937 8.64062 14.1C8.58125 14.0344 8.49375 13.9625 8.44688 13.9437C8.325 13.8937 5.82187 13.225 5.6875 13.2062C5.62813 13.2 5.51875 13.2062 5.44375 13.2219Z" fill="white"/>
</g>
</g>
<rect x="-367.5" y="-11.5" width="787" height="47" rx="7.5" stroke="#E7E6F0"/>
</g>
<defs>
<clipPath id="clip0_801_3282">
<rect width="1920" height="1080" fill="white" transform="translate(-805 -306)"/>
</clipPath>
<clipPath id="clip1_801_3282">
<rect width="24" height="24" fill="white"/>
</clipPath>
<clipPath id="clip2_801_3282">
<rect width="16" height="16" fill="white" transform="translate(4 3.5)"/>
</clipPath>
</defs>
</svg>
