<svg width="24" height="25" viewBox="0 0 24 25" fill="none" xmlns="http://www.w3.org/2000/svg">
<mask id="path-1-outside-1_972_29786" maskUnits="userSpaceOnUse" x="2.58488" y="3.01317" width="19.799" height="19.799" fill="black">
<rect fill="white" x="2.58488" y="3.01317" width="19.799" height="19.799"/>
<path d="M4.26722 12.7371C4.19436 12.9524 4.24901 13.1561 4.42289 13.33C4.49079 13.3979 4.56531 13.4492 4.63651 13.4741C4.71932 13.5072 5.53242 13.5155 8.31121 13.5155L11.8799 13.5171L11.8816 17.0991C11.8849 21.0801 11.8683 20.7953 12.1035 21.004C12.3386 21.2159 12.6301 21.2159 12.8653 21.004C13.1004 20.7953 13.0839 21.0801 13.0872 17.0991L13.0888 13.5171L16.6724 13.5138C20.6518 13.5121 20.367 13.5287 20.5757 13.2936C20.7876 13.0584 20.7876 12.7669 20.5757 12.5318C20.367 12.2966 20.6518 12.3132 16.6724 12.3115L13.0888 12.3082L13.0855 8.7246C13.0839 4.7452 13.1004 5.03003 12.8653 4.82137C12.6301 4.6094 12.3386 4.6094 12.1035 4.82137C11.8683 5.03003 11.8849 4.7452 11.8816 8.72626L11.8799 12.3082L8.31121 12.3099C5.53242 12.3099 4.71932 12.3182 4.63651 12.3513C4.47423 12.4109 4.32353 12.5715 4.26722 12.7371Z"/>
</mask>
<path d="M4.26722 12.7371C4.19436 12.9524 4.24901 13.1561 4.42289 13.33C4.49079 13.3979 4.56531 13.4492 4.63651 13.4741C4.71932 13.5072 5.53242 13.5155 8.31121 13.5155L11.8799 13.5171L11.8816 17.0991C11.8849 21.0801 11.8683 20.7953 12.1035 21.004C12.3386 21.2159 12.6301 21.2159 12.8653 21.004C13.1004 20.7953 13.0839 21.0801 13.0872 17.0991L13.0888 13.5171L16.6724 13.5138C20.6518 13.5121 20.367 13.5287 20.5757 13.2936C20.7876 13.0584 20.7876 12.7669 20.5757 12.5318C20.367 12.2966 20.6518 12.3132 16.6724 12.3115L13.0888 12.3082L13.0855 8.7246C13.0839 4.7452 13.1004 5.03003 12.8653 4.82137C12.6301 4.6094 12.3386 4.6094 12.1035 4.82137C11.8683 5.03003 11.8849 4.7452 11.8816 8.72626L11.8799 12.3082L8.31121 12.3099C5.53242 12.3099 4.71932 12.3182 4.63651 12.3513C4.47423 12.4109 4.32353 12.5715 4.26722 12.7371Z" fill="white"/>
<path d="M4.26722 12.7371C4.19436 12.9524 4.24901 13.1561 4.42289 13.33C4.49079 13.3979 4.56531 13.4492 4.63651 13.4741C4.71932 13.5072 5.53242 13.5155 8.31121 13.5155L11.8799 13.5171L11.8816 17.0991C11.8849 21.0801 11.8683 20.7953 12.1035 21.004C12.3386 21.2159 12.6301 21.2159 12.8653 21.004C13.1004 20.7953 13.0839 21.0801 13.0872 17.0991L13.0888 13.5171L16.6724 13.5138C20.6518 13.5121 20.367 13.5287 20.5757 13.2936C20.7876 13.0584 20.7876 12.7669 20.5757 12.5318C20.367 12.2966 20.6518 12.3132 16.6724 12.3115L13.0888 12.3082L13.0855 8.7246C13.0839 4.7452 13.1004 5.03003 12.8653 4.82137C12.6301 4.6094 12.3386 4.6094 12.1035 4.82137C11.8683 5.03003 11.8849 4.7452 11.8816 8.72626L11.8799 12.3082L8.31121 12.3099C5.53242 12.3099 4.71932 12.3182 4.63651 12.3513C4.47423 12.4109 4.32353 12.5715 4.26722 12.7371Z" stroke="white" stroke-width="0.3" mask="url(#path-1-outside-1_972_29786)"/>
</svg>
