<svg width="54" height="54" viewBox="0 0 54 54" fill="none" xmlns="http://www.w3.org/2000/svg">
<mask id="path-1-inside-1_972_38950" fill="white">
<path d="M18.2988 2.13047C10.473 3.28008 3.88125 4.28203 3.67031 4.33476C3.07969 4.49297 2.41523 5.05195 2.08828 5.68476L1.79297 6.24375V27V47.7562L2.08828 48.3152C2.41523 48.948 3.07969 49.507 3.67031 49.6652C4.29258 49.834 32.8113 54 33.2965 54C34.1508 54 34.2773 53.6625 34.2773 51.3633V49.5703L42.2191 49.5492C50.0133 49.5176 50.1609 49.5176 50.625 49.2961C51.2156 49.0219 51.7535 48.4945 52.0066 47.9355C52.1965 47.5348 52.207 46.6383 52.207 27C52.207 7.36172 52.1965 6.46523 52.0066 6.06445C51.7535 5.50547 51.2156 4.97812 50.625 4.70391C50.1609 4.48242 50.0133 4.48242 42.2191 4.45078L34.2773 4.42969V2.63672C34.2773 0.23203 34.1719 -0.0105478 33.1383 0.0105459C32.8113 0.0210928 26.1352 0.970312 18.2988 2.13047ZM32.3789 27.0105V52.0172L32.0414 51.9539C31.5668 51.8695 4.40859 47.8828 4.30313 47.8828C4.25039 47.8828 4.09219 47.7668 3.95508 47.6191L3.69141 47.366V27V6.63398L3.93398 6.39141C4.12383 6.20156 4.3875 6.11719 5.07305 6.01172C5.5582 5.94844 11.823 5.02031 18.9844 3.95508C26.1457 2.90039 32.0941 2.025 32.1996 2.01445C32.3684 2.00391 32.3789 3.25898 32.3789 27.0105ZM49.7391 6.43359C50.3402 6.66562 50.298 5.29453 50.298 27C50.298 48.7055 50.3402 47.3344 49.7391 47.5664C49.5492 47.6297 46.8598 47.6719 41.8605 47.6719H34.2773V45.457V43.2422H39.8355C45.2566 43.2422 45.4043 43.2422 45.8473 43.0207C46.1531 42.873 46.3957 42.6516 46.5645 42.3562C46.807 41.9344 46.8281 41.8078 46.8281 40.5C46.8281 39.1922 46.807 39.0656 46.5645 38.6437C46.3957 38.3484 46.1531 38.127 45.8473 37.9793C45.4043 37.7578 45.2566 37.7578 39.8355 37.7578H34.2773V36.0176V34.2773H39.6879C43.1262 34.2773 45.2355 34.2352 45.4887 34.1613C46.0266 34.0137 46.5855 33.4969 46.7332 33.0328C46.7965 32.8008 46.8281 32.073 46.807 31.2609C46.7754 29.932 46.7648 29.8687 46.4695 29.4891C45.9316 28.7824 46.0793 28.793 39.8672 28.793H34.2773V27V25.207H39.8672C46.0793 25.207 45.9316 25.2176 46.4695 24.5109C46.7648 24.1312 46.7754 24.068 46.807 22.7391C46.8281 21.927 46.7965 21.1992 46.7332 20.9672C46.5855 20.5031 46.0266 19.9863 45.4887 19.8387C45.2355 19.7648 43.1262 19.7227 39.6879 19.7227H34.2773V17.9824V16.2422H39.8355C45.2566 16.2422 45.4043 16.2422 45.8473 16.0207C46.1531 15.873 46.3957 15.6516 46.5645 15.3562C46.807 14.9344 46.8281 14.8078 46.8281 13.5C46.8281 12.1922 46.807 12.0656 46.5645 11.6437C46.3957 11.3484 46.1531 11.127 45.8473 10.9793C45.4043 10.7578 45.2566 10.7578 39.8355 10.7578H34.2773V8.54297V6.32812H41.8605C46.8598 6.32812 49.5492 6.37031 49.7391 6.43359ZM38.6016 13.5V14.3437H36.4395H34.2773V13.5V12.6562H36.4395H38.6016V13.5ZM44.9297 13.5V14.3437H42.7148H40.5V13.5V12.6562H42.7148H44.9297V13.5ZM38.6016 22.4648V23.3086H36.4395H34.2773V22.4648V21.6211H36.4395H38.6016V22.4648ZM44.9297 22.4648V23.3086H42.7148H40.5V22.4648V21.6211H42.7148H44.9297V22.4648ZM38.6016 31.5352V32.3789H36.4395H34.2773V31.5352V30.6914H36.4395H38.6016V31.5352ZM44.9297 31.5352V32.3789H42.7148H40.5V31.5352V30.6914H42.7148H44.9297V31.5352ZM38.6016 40.5V41.3437H36.4395H34.2773V40.5V39.6562H36.4395H38.6016V40.5ZM44.9297 40.5V41.3437H42.7148H40.5V40.5V39.6562H42.7148H44.9297V40.5Z"/>
</mask>
<path d="M18.2988 2.13047C10.473 3.28008 3.88125 4.28203 3.67031 4.33476C3.07969 4.49297 2.41523 5.05195 2.08828 5.68476L1.79297 6.24375V27V47.7562L2.08828 48.3152C2.41523 48.948 3.07969 49.507 3.67031 49.6652C4.29258 49.834 32.8113 54 33.2965 54C34.1508 54 34.2773 53.6625 34.2773 51.3633V49.5703L42.2191 49.5492C50.0133 49.5176 50.1609 49.5176 50.625 49.2961C51.2156 49.0219 51.7535 48.4945 52.0066 47.9355C52.1965 47.5348 52.207 46.6383 52.207 27C52.207 7.36172 52.1965 6.46523 52.0066 6.06445C51.7535 5.50547 51.2156 4.97812 50.625 4.70391C50.1609 4.48242 50.0133 4.48242 42.2191 4.45078L34.2773 4.42969V2.63672C34.2773 0.23203 34.1719 -0.0105478 33.1383 0.0105459C32.8113 0.0210928 26.1352 0.970312 18.2988 2.13047ZM32.3789 27.0105V52.0172L32.0414 51.9539C31.5668 51.8695 4.40859 47.8828 4.30313 47.8828C4.25039 47.8828 4.09219 47.7668 3.95508 47.6191L3.69141 47.366V27V6.63398L3.93398 6.39141C4.12383 6.20156 4.3875 6.11719 5.07305 6.01172C5.5582 5.94844 11.823 5.02031 18.9844 3.95508C26.1457 2.90039 32.0941 2.025 32.1996 2.01445C32.3684 2.00391 32.3789 3.25898 32.3789 27.0105ZM49.7391 6.43359C50.3402 6.66562 50.298 5.29453 50.298 27C50.298 48.7055 50.3402 47.3344 49.7391 47.5664C49.5492 47.6297 46.8598 47.6719 41.8605 47.6719H34.2773V45.457V43.2422H39.8355C45.2566 43.2422 45.4043 43.2422 45.8473 43.0207C46.1531 42.873 46.3957 42.6516 46.5645 42.3562C46.807 41.9344 46.8281 41.8078 46.8281 40.5C46.8281 39.1922 46.807 39.0656 46.5645 38.6437C46.3957 38.3484 46.1531 38.127 45.8473 37.9793C45.4043 37.7578 45.2566 37.7578 39.8355 37.7578H34.2773V36.0176V34.2773H39.6879C43.1262 34.2773 45.2355 34.2352 45.4887 34.1613C46.0266 34.0137 46.5855 33.4969 46.7332 33.0328C46.7965 32.8008 46.8281 32.073 46.807 31.2609C46.7754 29.932 46.7648 29.8687 46.4695 29.4891C45.9316 28.7824 46.0793 28.793 39.8672 28.793H34.2773V27V25.207H39.8672C46.0793 25.207 45.9316 25.2176 46.4695 24.5109C46.7648 24.1312 46.7754 24.068 46.807 22.7391C46.8281 21.927 46.7965 21.1992 46.7332 20.9672C46.5855 20.5031 46.0266 19.9863 45.4887 19.8387C45.2355 19.7648 43.1262 19.7227 39.6879 19.7227H34.2773V17.9824V16.2422H39.8355C45.2566 16.2422 45.4043 16.2422 45.8473 16.0207C46.1531 15.873 46.3957 15.6516 46.5645 15.3562C46.807 14.9344 46.8281 14.8078 46.8281 13.5C46.8281 12.1922 46.807 12.0656 46.5645 11.6437C46.3957 11.3484 46.1531 11.127 45.8473 10.9793C45.4043 10.7578 45.2566 10.7578 39.8355 10.7578H34.2773V8.54297V6.32812H41.8605C46.8598 6.32812 49.5492 6.37031 49.7391 6.43359ZM38.6016 13.5V14.3437H36.4395H34.2773V13.5V12.6562H36.4395H38.6016V13.5ZM44.9297 13.5V14.3437H42.7148H40.5V13.5V12.6562H42.7148H44.9297V13.5ZM38.6016 22.4648V23.3086H36.4395H34.2773V22.4648V21.6211H36.4395H38.6016V22.4648ZM44.9297 22.4648V23.3086H42.7148H40.5V22.4648V21.6211H42.7148H44.9297V22.4648ZM38.6016 31.5352V32.3789H36.4395H34.2773V31.5352V30.6914H36.4395H38.6016V31.5352ZM44.9297 31.5352V32.3789H42.7148H40.5V31.5352V30.6914H42.7148H44.9297V31.5352ZM38.6016 40.5V41.3437H36.4395H34.2773V40.5V39.6562H36.4395H38.6016V40.5ZM44.9297 40.5V41.3437H42.7148H40.5V40.5V39.6562H42.7148H44.9297V40.5Z" fill="url(#paint0_linear_972_38950)" stroke="white" stroke-width="0.4" mask="url(#path-1-inside-1_972_38950)"/>
<path d="M23.8782 18.0565C23.7516 18.1092 22.3067 19.7967 20.672 21.7901C19.0266 23.794 17.645 25.4076 17.6028 25.3971C17.5712 25.376 16.3794 23.9627 14.9766 22.2541C13.5634 20.5455 12.3399 19.0901 12.245 19.0162C11.9708 18.8053 11.3169 18.8475 11.0743 19.0901C10.8317 19.3326 10.7157 19.744 10.8001 20.0604C10.8317 20.1975 12.0868 21.8006 13.595 23.6252C15.1032 25.4498 16.3372 26.9686 16.3372 27.0002C16.3372 27.0319 15.1032 28.5506 13.595 30.3752C12.0868 32.1998 10.8317 33.8029 10.8001 33.9295C10.7157 34.2565 10.8317 34.6678 11.0743 34.9104C11.3169 35.1529 11.9708 35.1951 12.245 34.9842C12.3399 34.9104 13.5634 33.4549 14.9766 31.7463C16.3794 30.0377 17.5712 28.6244 17.6028 28.6033C17.645 28.5928 19.0266 30.217 20.672 32.2209C23.7727 35.9861 23.9942 36.1971 24.5743 36.0178C24.954 35.9018 25.2071 35.5326 25.2071 35.1108C25.2071 34.6467 25.3759 34.8787 21.6001 30.2908L18.879 27.0002L21.6001 23.699C25.3759 19.1217 25.2071 19.3537 25.2071 18.9002C25.1966 18.1514 24.5321 17.7295 23.8782 18.0565Z" fill="url(#paint1_linear_972_38950)"/>
<defs>
<linearGradient id="paint0_linear_972_38950" x1="1.79297" y1="0.00938074" x2="57.152" y2="5.67397" gradientUnits="userSpaceOnUse">
<stop stop-color="#7260ED"/>
<stop offset="1" stop-color="#AA7CEE"/>
</linearGradient>
<linearGradient id="paint1_linear_972_38950" x1="10.7727" y1="17.9445" x2="26.669" y2="19.3325" gradientUnits="userSpaceOnUse">
<stop stop-color="#7260ED"/>
<stop offset="1" stop-color="#AA7CEE"/>
</linearGradient>
</defs>
</svg>
