<svg width="24" height="24" viewBox="0 0 24 24" fill="none" xmlns="http://www.w3.org/2000/svg">
<path d="M4.63594 0.107863C3.81563 0.389113 3.20156 1.00786 2.95313 1.82349C2.85938 2.11411 2.85938 2.31099 2.85938 12C2.85938 21.6891 2.85938 21.886 2.95313 22.1766C3.20156 22.9922 3.81563 23.611 4.63594 23.8922L4.94531 23.9954H12H19.0547L19.3641 23.8922C20.1844 23.611 20.7984 22.9922 21.0469 22.1766C21.1406 21.886 21.1406 21.7032 21.1406 14.4563V7.0313H18.3656C16.8375 7.0313 15.4547 7.01255 15.2906 6.98911C15.1313 6.96567 14.8969 6.89536 14.775 6.83911C14.4609 6.68442 14.0953 6.29536 13.9594 5.96724L13.8516 5.69536L13.8375 2.84536L13.8234 5.02584e-05H9.38438L4.94531 0.00473776L4.63594 0.107863ZM17.3438 9.50161C17.5594 9.63286 17.6719 9.83442 17.6719 10.0782C17.6719 10.3219 17.5594 10.5235 17.3438 10.6547L17.1797 10.7579H11.8594C6.62344 10.7579 6.53438 10.7579 6.38438 10.6641C6.17344 10.5375 6.04688 10.3219 6.04688 10.0829C6.04688 9.74067 6.24375 9.50161 6.58594 9.41724C6.66094 9.39849 9.07969 9.38911 11.9531 9.38911L17.1797 9.39849L17.3438 9.50161ZM17.3438 13.2516C17.5594 13.3829 17.6719 13.5844 17.6719 13.8282C17.6719 14.0719 17.5594 14.2735 17.3438 14.4047L17.1797 14.5079H11.8594C6.62344 14.5079 6.53438 14.5079 6.38438 14.4141C6.17344 14.2875 6.04688 14.0719 6.04688 13.8329C6.04688 13.4907 6.24375 13.2516 6.58594 13.1672C6.66094 13.1485 9.07969 13.1391 11.9531 13.1391L17.1797 13.1485L17.3438 13.2516ZM10.4391 16.9969C10.8844 17.3297 10.8844 17.8266 10.4391 18.1594C10.3078 18.2532 10.2609 18.2579 8.42344 18.2579C6.62344 18.2579 6.53438 18.2532 6.38438 18.1641C6.17344 18.0375 6.04688 17.8219 6.04688 17.5829C6.04688 17.2407 6.23906 17.0016 6.58594 16.9172C6.66094 16.8985 7.53281 16.8844 8.51719 16.8891C10.2516 16.8985 10.3078 16.9032 10.4391 16.9969Z" fill="#524587"/>
<path d="M15.2344 2.90165C15.2344 5.05321 15.2437 5.53133 15.3 5.57352C15.3422 5.61102 16.1203 5.6204 18.1125 5.61571L20.8641 5.60165L20.6906 5.3579C20.6016 5.22665 19.4578 4.10633 18.1547 2.87352C15.9609 0.796958 15.3844 0.281333 15.2766 0.281333C15.2531 0.281333 15.2344 1.3829 15.2344 2.90165Z" fill="#524587"/>
</svg>
