<svg width="24" height="24" viewBox="0 0 24 24" fill="none" xmlns="http://www.w3.org/2000/svg">
<path d="M0.978975 2.78511C0.5946 2.92105 0.318038 3.16011 0.130538 3.51636L0.0227254 3.72729L0.00866286 10.4492C0.00397536 14.1476 0.00397536 17.1664 0.0180379 17.1523C0.0274129 17.1429 0.824288 15.4789 1.78523 13.4539C3.46335 9.93823 3.54773 9.76479 3.79616 9.51636C4.06335 9.24448 4.43366 9.03823 4.78523 8.95854C4.92116 8.92573 7.64929 8.90698 12.6274 8.90698H20.2587L20.2399 7.76792C20.2259 6.73667 20.2118 6.61479 20.1227 6.41792C19.9915 6.12261 19.7149 5.83198 19.4337 5.68198L19.1946 5.55542L14.5962 5.54136L9.99773 5.53198L9.21491 4.43511C8.34304 3.20698 8.17898 3.01948 7.84616 2.85542L7.61648 2.74292L4.3821 2.73355C1.82273 2.72417 1.11023 2.73355 0.978975 2.78511Z" fill="#524587"/>
<path d="M5.53594 10.2941C4.9875 10.4394 4.5 10.8378 4.2375 11.3488C4.16719 11.4894 3.1875 13.5425 2.05313 15.9097L0 20.2175L0.1125 20.4659C0.328125 20.9347 0.76875 21.2488 1.32188 21.3331C1.72031 21.3894 18.2484 21.3847 18.6938 21.3284C19.1531 21.2675 19.5141 21.0894 19.8281 20.7659C20.0672 20.5222 20.2266 20.2175 22.0312 16.5988L23.9766 12.6988V12.1738C23.9766 11.7003 23.9625 11.6206 23.85 11.3769C23.6953 11.0488 23.3297 10.6503 23.025 10.4863C22.5047 10.205 23.0109 10.2191 14.0156 10.2238C6.97969 10.2238 5.75156 10.2331 5.53594 10.2941Z" fill="#524587"/>
</svg>
