<svg width="24" height="24" viewBox="0 0 24 24" fill="none" xmlns="http://www.w3.org/2000/svg">
<g clip-path="url(#clip0_972_22535)">
<mask id="path-1-inside-1_972_22535" fill="white">
<path d="M10.4765 0.0613542C8.31087 0.342713 6.32806 1.17272 4.59368 2.51387C4.04525 2.9406 3.11243 3.8597 2.65775 4.42242C1.364 6.02617 0.506185 7.92065 0.14056 9.98395C0.0093099 10.7155 -0.0422526 12.474 0.0421224 13.2759C0.243685 15.1469 0.895247 16.9804 1.90775 18.5373C2.36712 19.2407 2.77025 19.7424 3.39837 20.3849C5.36243 22.4013 7.84212 23.6205 10.664 23.9487C11.2921 24.0238 12.8202 24.0097 13.4999 23.93C17.0062 23.4939 20.1374 21.5291 22.0921 18.5373C23.0765 17.032 23.7046 15.3016 23.9296 13.4963C24.0234 12.7366 24.0234 11.2594 23.9296 10.4951C23.4984 7.01561 21.539 3.87377 18.5859 1.93239C17.0437 0.919501 15.3281 0.291131 13.4999 0.0613542C12.7874 -0.0230535 11.1515 -0.0230535 10.4765 0.0613542Z"/>
</mask>
<path d="M10.4765 0.0613542C8.31087 0.342713 6.32806 1.17272 4.59368 2.51387C4.04525 2.9406 3.11243 3.8597 2.65775 4.42242C1.364 6.02617 0.506185 7.92065 0.14056 9.98395C0.0093099 10.7155 -0.0422526 12.474 0.0421224 13.2759C0.243685 15.1469 0.895247 16.9804 1.90775 18.5373C2.36712 19.2407 2.77025 19.7424 3.39837 20.3849C5.36243 22.4013 7.84212 23.6205 10.664 23.9487C11.2921 24.0238 12.8202 24.0097 13.4999 23.93C17.0062 23.4939 20.1374 21.5291 22.0921 18.5373C23.0765 17.032 23.7046 15.3016 23.9296 13.4963C24.0234 12.7366 24.0234 11.2594 23.9296 10.4951C23.4984 7.01561 21.539 3.87377 18.5859 1.93239C17.0437 0.919501 15.3281 0.291131 13.4999 0.0613542C12.7874 -0.0230535 11.1515 -0.0230535 10.4765 0.0613542Z" stroke="#524587" stroke-width="3.6" mask="url(#path-1-inside-1_972_22535)"/>
<path d="M6.1001 11.1769L9.30339 15.2016C9.51854 15.4719 9.91694 15.5051 10.1739 15.2742L17.6001 8.6001" stroke="#524587" stroke-width="1.8" stroke-linecap="round"/>
</g>
<defs>
<clipPath id="clip0_972_22535">
<rect width="24" height="24" fill="white"/>
</clipPath>
</defs>
</svg>
