<svg width="52" height="54" viewBox="0 0 52 54" fill="none" xmlns="http://www.w3.org/2000/svg">
<path d="M15.6114 0.0736427C15.4953 0.0947365 15.0524 0.231845 14.62 0.379501C12.3524 1.15997 10.6543 2.9213 9.85277 5.32598L9.59964 6.06427L9.568 14.1537L9.53636 22.2537H5.99261C2.60706 22.2537 2.41722 22.2643 1.9848 22.4752C1.44691 22.7389 0.972298 23.2768 0.803548 23.8252C0.645344 24.3631 0.634798 37.9475 0.803548 38.5275C0.940657 39.0233 1.43636 39.6033 1.99534 39.8986C2.40667 40.1201 2.55433 40.1307 5.98206 40.1623L9.53636 40.194L9.568 44.0647C9.61019 47.9037 9.61019 47.9459 9.87386 48.7475C10.7809 51.4053 12.9008 53.3354 15.5586 53.8943C15.991 53.9787 19.9778 53.9998 30.7461 53.9787L45.3535 53.9471L46.2606 53.6201C48.5282 52.808 50.2157 51.0572 51.0172 48.6736L51.2598 47.9354L51.2914 32.0096L51.3125 16.0943L43.2758 8.04708L35.2285 -0.00018692L25.5254 0.0103607C20.1887 0.0209076 15.7274 0.0420021 15.6114 0.0736427ZM33.9102 8.51114C33.9102 15.1557 33.9207 15.3561 34.1317 15.8201C34.3953 16.4002 34.7856 16.8221 35.334 17.1174C35.7559 17.3494 35.8192 17.3494 42.643 17.3811L49.5196 17.4127V32.3049C49.5196 45.2775 49.4985 47.2815 49.3614 47.8299C48.8446 49.8338 47.3575 51.3947 45.3535 52.0275L44.6153 52.2596H30.4297H16.2442L15.5059 52.0275C13.6707 51.4475 12.3524 50.2135 11.6668 48.41C11.4032 47.735 11.3926 47.6822 11.361 43.9592L11.3293 40.1834L25.4938 40.1623L39.6582 40.1307L40.0801 39.8986C40.3121 39.7826 40.6285 39.54 40.7868 39.3713C41.4196 38.7174 41.3985 38.9389 41.3985 31.2607C41.3985 26.2932 41.3668 24.11 41.2825 23.8252C41.1137 23.2768 40.6391 22.7389 40.1012 22.4752C39.6477 22.2537 39.6266 22.2537 25.4832 22.2537H11.3293L11.361 14.2592L11.3926 6.2752L11.6774 5.54747C12.4895 3.44864 14.2719 2.04591 16.4551 1.79278C16.8032 1.75059 20.8742 1.70841 25.5043 1.69786L33.9102 1.68731V8.51114ZM42.0313 9.3338L48.3067 15.6092H42.2633H36.22L35.9668 15.3455L35.7032 15.0924V9.07013C35.7032 5.76895 35.7137 3.05841 35.7348 3.05841C35.7453 3.05841 38.5825 5.88497 42.0313 9.3338ZM39.4367 24.2154C39.5844 24.3631 39.6055 25.1436 39.6055 31.2186V38.0635L39.3735 38.2217C39.1625 38.3693 37.2535 38.3904 21.043 38.3904C4.83245 38.3904 2.92347 38.3693 2.71253 38.2217L2.4805 38.0635V31.2186C2.4805 25.1436 2.50159 24.3631 2.64925 24.2154C2.79691 24.0678 4.61097 24.0467 21.043 24.0467C37.475 24.0467 39.2891 24.0678 39.4367 24.2154Z" fill="#524587"/>
</svg>
