<svg width="24" height="24" viewBox="0 0 24 24" fill="none" xmlns="http://www.w3.org/2000/svg">
<g id="image 178 (traced)">
<g id="Black">
<path id="Vector" d="M6.06262 3.06803C5.07092 3.32475 4.27263 4.12655 4.02294 5.12178C3.95261 5.39608 3.95261 5.5262 3.95261 12.0004C3.95261 18.4747 3.95261 18.6048 4.02294 18.8791C4.06162 19.0303 4.16712 19.3081 4.25504 19.491C4.39923 19.7794 4.46956 19.8708 4.77551 20.1768C5.07795 20.4792 5.17993 20.5566 5.46479 20.6972C6.07669 21.0032 6.08724 21.0032 8.21836 21.0032H10.0822L10.2334 20.9153C10.455 20.7851 10.564 20.5812 10.564 20.2998C10.564 20.0185 10.455 19.8145 10.2334 19.6844L10.0822 19.5965H8.46804C7.5748 19.5965 6.74486 19.5789 6.60771 19.5613C6.27363 19.5121 6.02746 19.389 5.79535 19.1604C5.56677 18.9283 5.44369 18.6822 5.39445 18.3481C5.34873 18.0105 5.34873 5.9904 5.39445 5.6528C5.44369 5.31871 5.56677 5.07254 5.79535 4.84044C6.02746 4.61186 6.27363 4.48877 6.60771 4.43954C6.9418 4.39382 15.2412 4.39382 15.5753 4.43954C16.05 4.50987 16.458 4.80527 16.669 5.23079L16.771 5.4418L16.7885 9.08158L16.8061 12.7214L16.887 12.8726C17.0066 13.0976 17.2352 13.2313 17.506 13.2313C17.7767 13.2313 17.9772 13.1363 18.1108 12.9429L18.2128 12.7987L18.2234 9.15543C18.2304 6.62341 18.2198 5.4418 18.1952 5.28706C18.0159 4.23909 17.1683 3.34233 16.1063 3.06803C15.832 2.99769 15.7335 2.99769 11.0774 3.00121C6.49869 3.00121 6.31583 3.00473 6.06262 3.06803Z" fill="url(#paint0_linear_1107_8964)"/>
<path id="Vector_2" d="M7.13511 7.27762C6.88191 7.41125 6.75531 7.62577 6.75531 7.92117C6.75531 8.18492 6.86081 8.38538 7.07181 8.52253L7.2371 8.62451H11.0703C14.8543 8.62451 14.9035 8.62451 15.0512 8.55418C15.1356 8.51198 15.2411 8.41703 15.2974 8.33614C15.3888 8.20602 15.3993 8.16031 15.3993 7.92117C15.3993 7.68907 15.3853 7.6328 15.3044 7.50972C15.2481 7.42532 15.1497 7.3374 15.0582 7.29168L14.9035 7.21783H11.0703C7.64503 7.22135 7.23006 7.22487 7.13511 7.27762Z" fill="url(#paint1_linear_1107_8964)"/>
<path id="Vector_3" d="M7.13514 10.0908C6.88194 10.2245 6.75534 10.439 6.75534 10.7344C6.75534 10.9982 6.86084 11.1986 7.07184 11.3358L7.23713 11.4377H9.31198H11.3833L11.5345 11.3498C11.7561 11.2197 11.8651 11.0157 11.8651 10.7344C11.8651 10.4531 11.7561 10.2491 11.5345 10.119L11.3833 10.0311H9.31198C7.49033 10.0346 7.22658 10.0416 7.13514 10.0908Z" fill="url(#paint2_linear_1107_8964)"/>
<path id="Vector_4" d="M14.4007 14.2547C13.6165 14.4235 12.8428 14.8244 12.0867 15.461C11.5416 15.9146 10.775 16.7481 10.4972 17.1877C10.4022 17.3354 10.3882 17.3916 10.3882 17.5921C10.3882 17.7925 10.4022 17.8488 10.4972 17.9965C10.7926 18.4607 11.626 19.3539 12.1852 19.8041C12.8287 20.3246 13.525 20.6973 14.2143 20.8872C14.5308 20.9751 14.6047 20.9822 15.2412 20.9822C15.8742 20.9822 15.9516 20.9751 16.2646 20.8872C16.9046 20.7114 17.5095 20.4054 18.1178 19.9518C18.7016 19.5122 19.6089 18.5662 19.9571 18.0352C20.0802 17.8453 20.0942 17.8066 20.0942 17.5921C20.0942 17.3776 20.0802 17.3389 19.9571 17.149C19.6089 16.618 18.7016 15.672 18.1178 15.2324C17.5024 14.7717 16.9046 14.4693 16.2681 14.2969C15.9762 14.2196 15.839 14.2055 15.3291 14.195C14.8297 14.1844 14.6785 14.195 14.4007 14.2547ZM16.0395 15.7388C16.4193 15.8724 16.8765 16.1221 17.2281 16.3859C17.5376 16.6215 18.2761 17.3283 18.3922 17.5042C18.4449 17.585 18.4449 17.5991 18.3922 17.68C18.2796 17.8523 17.5411 18.5627 17.2281 18.7983C16.8413 19.0902 16.2364 19.3961 15.8601 19.4911C15.4874 19.586 14.995 19.586 14.6223 19.4911C14.246 19.3961 13.6411 19.0902 13.2543 18.7983C12.9413 18.5627 12.2028 17.8523 12.0902 17.68C12.0375 17.5991 12.0375 17.585 12.0902 17.5042C12.2028 17.3318 12.9413 16.6215 13.2543 16.3859C13.6305 16.101 14.2389 15.788 14.6082 15.6931C14.995 15.5911 15.6843 15.6122 16.0395 15.7388Z" fill="url(#paint3_linear_1107_8964)"/>
<path id="Vector_5" d="M14.77 16.3402C14.4007 16.4949 14.1475 16.7552 14.0103 17.1244C13.947 17.2897 13.9365 17.3846 13.947 17.6449C13.9576 17.9192 13.9752 17.9965 14.0701 18.1935C14.2073 18.4713 14.4288 18.6858 14.7067 18.8159C14.8825 18.9003 14.9493 18.9109 15.2764 18.9109C15.6034 18.9109 15.6702 18.9003 15.8461 18.8159C16.1239 18.6858 16.3454 18.4713 16.4826 18.1935C16.5881 17.979 16.5951 17.9403 16.5951 17.5921C16.5951 17.244 16.5881 17.2053 16.4826 16.9908C16.3454 16.713 16.1239 16.4984 15.8461 16.3683C15.6808 16.291 15.5858 16.2734 15.3115 16.2628C15.0232 16.2558 14.9493 16.2663 14.77 16.3402Z" fill="url(#paint4_linear_1107_8964)"/>
</g>
</g>
<defs>
<linearGradient id="paint0_linear_1107_8964" x1="3.95261" y1="3.00004" x2="19.6709" y2="4.36562" gradientUnits="userSpaceOnUse">
<stop stop-color="#7260ED"/>
<stop offset="1" stop-color="#AA7CEE"/>
</linearGradient>
<linearGradient id="paint1_linear_1107_8964" x1="6.75531" y1="7.21783" x2="13.3543" y2="11.6615" gradientUnits="userSpaceOnUse">
<stop stop-color="#7260ED"/>
<stop offset="1" stop-color="#AA7CEE"/>
</linearGradient>
<linearGradient id="paint2_linear_1107_8964" x1="6.75534" y1="10.0311" x2="11.6495" y2="11.9793" gradientUnits="userSpaceOnUse">
<stop stop-color="#7260ED"/>
<stop offset="1" stop-color="#AA7CEE"/>
</linearGradient>
<linearGradient id="paint3_linear_1107_8964" x1="10.3882" y1="14.1914" x2="20.9" y2="15.8378" gradientUnits="userSpaceOnUse">
<stop stop-color="#7260ED"/>
<stop offset="1" stop-color="#AA7CEE"/>
</linearGradient>
<linearGradient id="paint4_linear_1107_8964" x1="13.9435" y1="16.261" x2="16.8507" y2="16.5798" gradientUnits="userSpaceOnUse">
<stop stop-color="#7260ED"/>
<stop offset="1" stop-color="#AA7CEE"/>
</linearGradient>
</defs>
</svg>
