<svg width="37" height="10" viewBox="0 0 37 10" fill="none" xmlns="http://www.w3.org/2000/svg">
<path d="M2.508 9H0.972V0.228H4.32C6.312 0.228 7.476 1.236 7.476 2.964C7.476 4.14 6.924 4.98 5.892 5.4L7.56 9H5.88L4.392 5.724H2.508V9ZM2.508 1.596V4.368H4.32C5.292 4.368 5.868 3.852 5.868 2.964C5.868 2.088 5.292 1.596 4.32 1.596H2.508ZM14.4591 9H9.01106V0.228H14.4591V1.644H10.5471V3.9H14.0511V5.256H10.5471V7.584H14.4591V9ZM15.6203 2.676C15.6203 1.14 16.8923 0.0719998 18.7403 0.0719998C20.5163 0.0719998 21.6443 1.056 21.6923 2.64H20.1563C20.1203 1.884 19.5803 1.44 18.7163 1.44C17.7683 1.44 17.1563 1.896 17.1563 2.628C17.1563 3.252 17.4923 3.6 18.2243 3.768L19.6043 4.068C21.1043 4.392 21.8363 5.16 21.8363 6.468C21.8363 8.1 20.5643 9.156 18.6323 9.156C16.7603 9.156 15.5363 8.16 15.5003 6.588H17.0363C17.0483 7.332 17.6483 7.776 18.6323 7.776C19.6523 7.776 20.3003 7.332 20.3003 6.6C20.3003 6.012 20.0003 5.664 19.2803 5.508L17.8883 5.196C16.4003 4.872 15.6203 4.02 15.6203 2.676ZM28.6739 9H23.2259V0.228H28.6739V1.644H24.7619V3.9H28.2659V5.256H24.7619V7.584H28.6739V9ZM29.5712 1.644V0.228H36.2432V1.644H33.6752V9H32.1392V1.644H29.5712Z" fill="url(#paint0_linear_1051_5136)"/>
<defs>
<linearGradient id="paint0_linear_1051_5136" x1="2.75671e-07" y1="13" x2="39.0721" y2="4.19879" gradientUnits="userSpaceOnUse">
<stop stop-color="#7260ED"/>
<stop offset="1" stop-color="#AA7CEE"/>
</linearGradient>
</defs>
</svg>
