<svg width="25" height="24" viewBox="0 0 25 24" fill="none" xmlns="http://www.w3.org/2000/svg">
<g clip-path="url(#clip0_972_10769)">
<mask id="path-1-inside-1_972_10769" fill="white">
<path d="M8.89053 1.48143C8.67959 1.57518 8.44053 1.80486 8.31396 2.03924L8.21084 2.22674L8.19678 6.54861L8.18271 10.8752H6.2749H4.36709L5.07959 10.158C5.46865 9.76893 5.82021 9.37986 5.85771 9.30486C6.12959 8.75643 5.88584 8.03924 5.34209 7.77674C5.04209 7.63143 4.5874 7.62674 4.32021 7.77205C4.04834 7.91268 0.663965 11.3205 0.570215 11.5408C0.481152 11.7658 0.481152 12.2346 0.570215 12.4596C0.663965 12.6799 4.04834 16.0877 4.32021 16.2283C4.5874 16.3736 5.04209 16.3689 5.34209 16.2236C5.88584 15.9611 6.12959 15.2439 5.85771 14.6955C5.82021 14.6205 5.46865 14.2314 5.07959 13.8377L4.36709 13.1252H6.2749H8.18271L8.19678 17.4471L8.21084 21.7736L8.31396 21.9658C8.44521 22.2096 8.73584 22.4721 8.96084 22.5471C9.05928 22.5799 9.2749 22.5939 9.45303 22.5846C9.83271 22.5658 10.0858 22.4205 10.3202 22.083L10.4608 21.8814L10.4749 12.1033C10.4843 5.53612 10.4749 2.26424 10.4421 2.15643C10.3765 1.92674 10.0858 1.59861 9.85615 1.49549C9.61709 1.38768 9.12021 1.38299 8.89053 1.48143Z"/>
</mask>
<path d="M8.89053 1.48143C8.67959 1.57518 8.44053 1.80486 8.31396 2.03924L8.21084 2.22674L8.19678 6.54861L8.18271 10.8752H6.2749H4.36709L5.07959 10.158C5.46865 9.76893 5.82021 9.37986 5.85771 9.30486C6.12959 8.75643 5.88584 8.03924 5.34209 7.77674C5.04209 7.63143 4.5874 7.62674 4.32021 7.77205C4.04834 7.91268 0.663965 11.3205 0.570215 11.5408C0.481152 11.7658 0.481152 12.2346 0.570215 12.4596C0.663965 12.6799 4.04834 16.0877 4.32021 16.2283C4.5874 16.3736 5.04209 16.3689 5.34209 16.2236C5.88584 15.9611 6.12959 15.2439 5.85771 14.6955C5.82021 14.6205 5.46865 14.2314 5.07959 13.8377L4.36709 13.1252H6.2749H8.18271L8.19678 17.4471L8.21084 21.7736L8.31396 21.9658C8.44521 22.2096 8.73584 22.4721 8.96084 22.5471C9.05928 22.5799 9.2749 22.5939 9.45303 22.5846C9.83271 22.5658 10.0858 22.4205 10.3202 22.083L10.4608 21.8814L10.4749 12.1033C10.4843 5.53612 10.4749 2.26424 10.4421 2.15643C10.3765 1.92674 10.0858 1.59861 9.85615 1.49549C9.61709 1.38768 9.12021 1.38299 8.89053 1.48143Z" fill="url(#paint0_linear_972_10769)" stroke="url(#paint1_linear_972_10769)" stroke-width="0.2" mask="url(#path-1-inside-1_972_10769)"/>
<mask id="path-2-inside-2_972_10769" fill="white">
<path d="M15.1343 1.50486C14.8952 1.62674 14.6234 1.92674 14.5577 2.15643C14.5249 2.26424 14.5156 5.53611 14.5249 12.1033L14.539 21.8814L14.6796 22.083C14.914 22.4205 15.1671 22.5658 15.5468 22.5846C15.7249 22.5939 15.9406 22.5799 16.039 22.5471C16.264 22.4721 16.5546 22.2096 16.6859 21.9658L16.789 21.7736L16.8031 17.4471L16.8171 13.1252H18.7249H20.6327L19.9202 13.8377C19.5312 14.2314 19.1796 14.6205 19.1421 14.6955C18.8702 15.2439 19.114 15.9611 19.6577 16.2236C19.9577 16.3689 20.4124 16.3736 20.6796 16.2283C20.9515 16.0877 24.3359 12.6799 24.4296 12.4596C24.4671 12.3611 24.4999 12.1549 24.4999 12.0002C24.4999 11.8455 24.4671 11.6392 24.4296 11.5408C24.3406 11.3299 20.9562 7.91268 20.7031 7.78143C20.0702 7.4533 19.2781 7.78611 19.0859 8.46111C18.9968 8.75643 19.0202 9.06111 19.1421 9.30486C19.1796 9.37986 19.5312 9.76893 19.9202 10.158L20.6327 10.8752H18.7249H16.8171L16.8031 6.54861L16.789 2.22674L16.6859 2.03924C16.5546 1.79549 16.3202 1.57049 16.0999 1.48142C15.8421 1.37361 15.3781 1.38299 15.1343 1.50486Z"/>
</mask>
<path d="M15.1343 1.50486C14.8952 1.62674 14.6234 1.92674 14.5577 2.15643C14.5249 2.26424 14.5156 5.53611 14.5249 12.1033L14.539 21.8814L14.6796 22.083C14.914 22.4205 15.1671 22.5658 15.5468 22.5846C15.7249 22.5939 15.9406 22.5799 16.039 22.5471C16.264 22.4721 16.5546 22.2096 16.6859 21.9658L16.789 21.7736L16.8031 17.4471L16.8171 13.1252H18.7249H20.6327L19.9202 13.8377C19.5312 14.2314 19.1796 14.6205 19.1421 14.6955C18.8702 15.2439 19.114 15.9611 19.6577 16.2236C19.9577 16.3689 20.4124 16.3736 20.6796 16.2283C20.9515 16.0877 24.3359 12.6799 24.4296 12.4596C24.4671 12.3611 24.4999 12.1549 24.4999 12.0002C24.4999 11.8455 24.4671 11.6392 24.4296 11.5408C24.3406 11.3299 20.9562 7.91268 20.7031 7.78143C20.0702 7.4533 19.2781 7.78611 19.0859 8.46111C18.9968 8.75643 19.0202 9.06111 19.1421 9.30486C19.1796 9.37986 19.5312 9.76893 19.9202 10.158L20.6327 10.8752H18.7249H16.8171L16.8031 6.54861L16.789 2.22674L16.6859 2.03924C16.5546 1.79549 16.3202 1.57049 16.0999 1.48142C15.8421 1.37361 15.3781 1.38299 15.1343 1.50486Z" fill="url(#paint2_linear_972_10769)" stroke="url(#paint3_linear_972_10769)" stroke-width="0.2" mask="url(#path-2-inside-2_972_10769)"/>
</g>
<defs>
<linearGradient id="paint0_linear_972_10769" x1="0.503418" y1="1.41095" x2="11.542" y2="1.98075" gradientUnits="userSpaceOnUse">
<stop stop-color="#7260ED"/>
<stop offset="1" stop-color="#AA7CEE"/>
</linearGradient>
<linearGradient id="paint1_linear_972_10769" x1="0.503418" y1="1.41095" x2="11.542" y2="1.98075" gradientUnits="userSpaceOnUse">
<stop stop-color="#7260ED"/>
<stop offset="1" stop-color="#AA7CEE"/>
</linearGradient>
<linearGradient id="paint2_linear_972_10769" x1="14.5215" y1="1.40657" x2="25.564" y2="1.97665" gradientUnits="userSpaceOnUse">
<stop stop-color="#7260ED"/>
<stop offset="1" stop-color="#AA7CEE"/>
</linearGradient>
<linearGradient id="paint3_linear_972_10769" x1="14.5215" y1="1.40657" x2="25.564" y2="1.97665" gradientUnits="userSpaceOnUse">
<stop stop-color="#7260ED"/>
<stop offset="1" stop-color="#AA7CEE"/>
</linearGradient>
<clipPath id="clip0_972_10769">
<rect width="24" height="24" fill="white" transform="translate(0.5)"/>
</clipPath>
</defs>
</svg>
