<svg width="54" height="54" viewBox="0 0 54 54" fill="none" xmlns="http://www.w3.org/2000/svg">
<path d="M3.61758 0.221483C2.8793 0.506249 2.07773 1.24453 1.71914 1.98281L1.42383 2.58398V27V51.416L1.71914 52.0172C2.08828 52.766 2.8793 53.4937 3.64922 53.7785C4.21875 54 4.40859 54 12.6035 54C20.8512 54 20.9883 54 21.1992 53.7891C21.484 53.5043 21.484 52.9137 21.1992 52.6289C20.9883 52.418 20.8406 52.418 13.057 52.418C7.98398 52.418 4.94648 52.3758 4.64063 52.302C4.03945 52.1648 3.5332 51.7852 3.26953 51.2578C3.05859 50.8465 3.05859 50.6039 3.05859 27C3.05859 3.54375 3.05859 3.15351 3.26953 2.75273C3.5543 2.1832 4.01836 1.83516 4.64063 1.69805C5.00977 1.61367 9.07031 1.58203 17.7188 1.58203H30.2695V6.46523C30.2695 12.034 30.2801 12.1184 31.0395 12.941C31.282 13.2152 31.725 13.5422 32.0098 13.6687L32.5371 13.9219H37.5785H42.6094V18.5098C42.6094 22.9605 42.6199 23.1082 42.8203 23.3086C43.1473 23.6355 43.8012 23.5934 44.0754 23.2453C44.2969 22.9711 44.2969 22.8656 44.2969 17.9613C44.2969 13.827 44.2758 12.9094 44.1492 12.6773C44.0648 12.5191 41.2066 9.6082 37.7895 6.19101L31.5879 -9.53674e-07L17.877 0.0105459C4.42969 0.0105459 4.15547 0.0105459 3.61758 0.221483ZM36.7031 7.54101L41.3965 12.2344H37.0934H32.8008L32.4 11.8758L32.0098 11.5172L31.9781 7.18242C31.9676 4.79883 31.9676 2.84766 31.9781 2.84766C31.9992 2.84766 34.1191 4.95703 36.7031 7.54101Z" fill="url(#paint0_linear_972_6718)"/>
<path d="M6.78166 7.22461C6.3176 7.55156 6.39143 8.39531 6.91877 8.63789C7.10861 8.72227 9.50275 8.75391 15.3352 8.75391C23.4246 8.75391 23.4985 8.75391 23.7727 8.53242C24.1313 8.24766 24.1629 7.6043 23.8149 7.27734C23.5828 7.06641 23.4879 7.06641 15.293 7.06641C8.15275 7.06641 6.98205 7.0875 6.78166 7.22461Z" fill="url(#paint1_linear_972_6718)"/>
<path d="M6.72894 12.5508C6.46526 12.825 6.42308 12.9305 6.47581 13.2152C6.50745 13.4051 6.64456 13.6371 6.76058 13.732C6.97151 13.9113 7.5305 13.9219 15.3035 13.9219C23.4879 13.9219 23.625 13.9219 23.836 13.7109C24.1629 13.384 24.1207 12.7301 23.7727 12.4559C23.4985 12.2344 23.4246 12.2344 15.2719 12.2344H7.04534L6.72894 12.5508Z" fill="url(#paint2_linear_972_6718)"/>
<path d="M25.5973 25.6711C24.9856 25.8926 24.3949 26.325 24.0469 26.8102C23.3824 27.7277 23.4035 27.1793 23.4352 40.0359C23.4668 51.0258 23.4774 51.7535 23.6567 52.1332C23.9414 52.7449 24.6692 53.4727 25.2598 53.7469L25.7871 54H38.032H50.277L50.9203 53.673C51.6586 53.3145 52.1332 52.7766 52.4285 51.9961C52.6184 51.4898 52.6289 51.0469 52.6289 42.7359C52.6289 33.2227 52.6395 33.3914 52.0278 32.2312C51.6375 31.5035 46.9547 26.768 46.1215 26.2617C44.8981 25.5129 45.1828 25.534 35.0684 25.534C27.7067 25.534 25.9242 25.5551 25.5973 25.6711ZM44.877 27.5062C45.6469 27.8648 50.161 32.3684 50.5828 33.2121L50.8887 33.8027L50.9203 42.4828C50.9414 50.3191 50.9309 51.1945 50.7727 51.5215C50.5195 52.0699 50.0238 52.323 49.0957 52.3863L48.3047 52.4496V48.2941C48.3047 44.4762 48.2836 44.107 48.1043 43.7062C47.8723 43.1895 47.2817 42.6832 46.7332 42.5145C46.1848 42.3562 29.8688 42.3457 29.2887 42.5145C29.0672 42.5777 28.6875 42.7992 28.4555 43.0102C27.675 43.7062 27.6856 43.643 27.6539 48.2941L27.6223 52.4496L26.8629 52.3863C26.0719 52.3125 25.766 52.1648 25.3758 51.6375C25.1543 51.3527 25.1543 51.3 25.1543 39.7617C25.1543 28.2129 25.1543 28.1707 25.3758 27.8754C25.4918 27.7172 25.7555 27.4957 25.9559 27.3902C26.2934 27.2215 26.8945 27.2109 35.332 27.232L44.3496 27.2637L44.877 27.5062ZM46.3852 44.2547L46.6172 44.4129V48.4207V52.418H37.9688H29.3098L29.3414 48.4734C29.3731 44.7715 29.3836 44.5184 29.5735 44.3074L29.7738 44.0859H37.9582C45.2039 44.0859 46.1742 44.107 46.3852 44.2547Z" fill="url(#paint3_linear_972_6718)"/>
<path d="M29.0566 29.6262C28.5188 29.8687 27.9914 30.4066 27.8227 30.8918C27.7277 31.1555 27.6855 31.9781 27.6855 33.5918C27.6855 35.7645 27.6961 35.9437 27.9176 36.334C28.1707 36.8191 28.4871 37.125 29.0039 37.3992C29.352 37.5891 29.7211 37.5996 35.543 37.5996C41.6602 37.5996 41.7129 37.5996 42.1348 37.3676C42.6199 37.1145 42.9258 36.798 43.2 36.2812C43.3793 35.9543 43.4004 35.659 43.4004 33.5918C43.4004 31.0289 43.3477 30.7336 42.7887 30.1641C42.0504 29.4047 42.3035 29.4258 35.543 29.4258C29.8898 29.4258 29.4469 29.4469 29.0566 29.6262ZM41.5547 31.398C41.7656 31.6723 41.7762 31.7777 41.7445 33.6129C41.7129 35.2898 41.6918 35.5641 41.523 35.7223C41.3438 35.9016 40.9641 35.9121 35.543 35.9121C30.1219 35.9121 29.7422 35.9016 29.5629 35.7223C29.3941 35.5535 29.373 35.3109 29.373 33.5496C29.373 31.7355 29.3941 31.5352 29.5734 31.3348C29.7738 31.1133 29.816 31.1133 35.5535 31.1133H41.3332L41.5547 31.398Z" fill="url(#paint4_linear_972_6718)"/>
<path d="M30.8286 45.8999C30.5333 46.037 30.3434 46.5116 30.4383 46.8702C30.586 47.4819 30.3118 47.4608 38.0215 47.4608H45.109L45.3305 47.2183C45.668 46.8597 45.6469 46.2796 45.2883 45.9948C45.0141 45.7733 44.9297 45.7733 38.0321 45.7839C33.3809 45.7839 30.9868 45.8261 30.8286 45.8999Z" fill="url(#paint5_linear_972_6718)"/>
<path d="M30.6598 49.4437C30.3434 49.7918 30.3223 50.2348 30.6176 50.5828L30.8813 50.8887H38.0004C44.8559 50.8887 45.1301 50.8781 45.341 50.6883C45.6364 50.4141 45.6469 49.7602 45.3516 49.4648C45.1407 49.2539 45.0035 49.2539 37.9899 49.2539C31.2082 49.2539 30.818 49.2645 30.6598 49.4437Z" fill="url(#paint6_linear_972_6718)"/>
<defs>
<linearGradient id="paint0_linear_972_6718" x1="1.42383" y1="4.02331e-07" x2="48.6377" y2="4.10777" gradientUnits="userSpaceOnUse">
<stop stop-color="#7260ED"/>
<stop offset="1" stop-color="#AA7CEE"/>
</linearGradient>
<linearGradient id="paint1_linear_972_6718" x1="6.47424" y1="7.06641" x2="14.9429" y2="16.7372" gradientUnits="userSpaceOnUse">
<stop stop-color="#7260ED"/>
<stop offset="1" stop-color="#AA7CEE"/>
</linearGradient>
<linearGradient id="paint2_linear_972_6718" x1="6.45599" y1="12.2344" x2="14.9235" y2="21.9137" gradientUnits="userSpaceOnUse">
<stop stop-color="#7260ED"/>
<stop offset="1" stop-color="#AA7CEE"/>
</linearGradient>
<linearGradient id="paint3_linear_972_6718" x1="23.4229" y1="25.5339" x2="55.4249" y2="29.132" gradientUnits="userSpaceOnUse">
<stop stop-color="#7260ED"/>
<stop offset="1" stop-color="#AA7CEE"/>
</linearGradient>
<linearGradient id="paint4_linear_972_6718" x1="27.6855" y1="29.4257" x2="44.3814" y2="32.9432" gradientUnits="userSpaceOnUse">
<stop stop-color="#7260ED"/>
<stop offset="1" stop-color="#AA7CEE"/>
</linearGradient>
<linearGradient id="paint5_linear_972_6718" x1="30.4137" y1="45.7805" x2="38.9209" y2="54.189" gradientUnits="userSpaceOnUse">
<stop stop-color="#7260ED"/>
<stop offset="1" stop-color="#AA7CEE"/>
</linearGradient>
<linearGradient id="paint6_linear_972_6718" x1="30.4087" y1="49.2539" x2="38.684" y2="57.663" gradientUnits="userSpaceOnUse">
<stop stop-color="#7260ED"/>
<stop offset="1" stop-color="#AA7CEE"/>
</linearGradient>
</defs>
</svg>
