<svg width="16" height="17" viewBox="0 0 16 17" fill="none" xmlns="http://www.w3.org/2000/svg">
<g clip-path="url(#clip0_972_29778)">
<path d="M7.96 13.0553C8.24 13.0553 8.4768 12.9608 8.6704 12.7718C8.86347 12.5834 8.96 12.3525 8.96 12.0792C8.96 11.8059 8.86347 11.5751 8.6704 11.3866C8.4768 11.1977 8.24 11.1032 7.96 11.1032C7.68 11.1032 7.4432 11.1977 7.2496 11.3866C7.05653 11.5751 6.96 11.8059 6.96 12.0792C6.96 12.3525 7.05653 12.5834 7.2496 12.7718C7.4432 12.9608 7.68 13.0553 7.96 13.0553ZM8.08 5.01273C8.45333 5.01273 8.75333 5.11346 8.98 5.31491C9.20667 5.51689 9.32 5.78055 9.32 6.10589C9.32 6.32712 9.24347 6.55148 9.0904 6.77896C8.9368 7.00697 8.72 7.2446 8.44 7.49186C8.04 7.83022 7.74667 8.15556 7.56 8.46789C7.37333 8.78022 7.28 9.09256 7.28 9.40489C7.28 9.58708 7.35013 9.73986 7.4904 9.86323C7.63013 9.98712 7.79333 10.0491 7.98 10.0491C8.16667 10.0491 8.33333 9.984 8.48 9.85386C8.62667 9.72373 8.72 9.56105 8.76 9.36585C8.8 9.14461 8.89013 8.93977 9.0304 8.75133C9.17013 8.56237 9.4 8.31824 9.72 8.01892C10.1333 7.64152 10.4235 7.29665 10.5904 6.98432C10.7568 6.67199 10.84 6.32712 10.84 5.94972C10.84 5.28602 10.5835 4.74256 10.0704 4.31936C9.5568 3.89667 8.89333 3.68532 8.08 3.68532C7.52 3.68532 7.02347 3.78943 6.5904 3.99765C6.1568 4.20588 5.82 4.52471 5.58 4.95417C5.48667 5.12335 5.45333 5.28914 5.48 5.45156C5.50667 5.61449 5.6 5.74801 5.76 5.85212C5.93333 5.95623 6.12347 5.98877 6.3304 5.94972C6.5368 5.91068 6.70667 5.80007 6.84 5.61787C6.98667 5.42267 7.16347 5.27301 7.3704 5.1689C7.5768 5.06479 7.81333 5.01273 8.08 5.01273ZM8 16.1786C6.90667 16.1786 5.87333 15.9735 4.9 15.5633C3.92667 15.1536 3.0768 14.5974 2.3504 13.8946C1.62347 13.1919 1.05013 12.3655 0.6304 11.4155C0.210133 10.4655 0 9.45044 0 8.37029C0 7.29015 0.210133 6.27507 0.6304 5.32506C1.05013 4.37505 1.62347 3.54868 2.3504 2.84593C3.0768 2.14319 3.92667 1.58672 4.9 1.17652C5.87333 0.766849 6.90667 0.562012 8 0.562012C9.12 0.562012 10.1667 0.766849 11.14 1.17652C12.1133 1.58672 12.96 2.14319 13.68 2.84593C14.4 3.54868 14.9667 4.37505 15.38 5.32506C15.7933 6.27507 16 7.29015 16 8.37029C16 9.45044 15.7933 10.4655 15.38 11.4155C14.9667 12.3655 14.4 13.1919 13.68 13.8946C12.96 14.5974 12.1133 15.1536 11.14 15.5633C10.1667 15.9735 9.12 16.1786 8 16.1786ZM8 14.6169C9.78667 14.6169 11.3 14.0086 12.54 12.7921C13.78 11.5751 14.4 10.1011 14.4 8.37029C14.4 6.63946 13.78 5.16551 12.54 3.94846C11.3 2.73193 9.78667 2.12367 8 2.12367C6.25333 2.12367 4.74987 2.73193 3.4896 3.94846C2.22987 5.16551 1.6 6.63946 1.6 8.37029C1.6 10.1011 2.22987 11.5751 3.4896 12.7921C4.74987 14.0086 6.25333 14.6169 8 14.6169Z" fill="url(#paint0_linear_972_29778)"/>
</g>
<defs>
<linearGradient id="paint0_linear_972_29778" x1="1.19209e-07" y1="16.1786" x2="17.5323" y2="14.2101" gradientUnits="userSpaceOnUse">
<stop stop-color="#7260ED"/>
<stop offset="1" stop-color="#AA7CEE"/>
</linearGradient>
<clipPath id="clip0_972_29778">
<rect width="16" height="15.6166" fill="white" transform="translate(0 0.562012)"/>
</clipPath>
</defs>
</svg>
