<svg width="24" height="24" viewBox="0 0 24 24" fill="none" xmlns="http://www.w3.org/2000/svg">
<mask id="path-1-inside-1_1044_3935" fill="white">
<path d="M10.0375 5.94687L8.09375 7.89062L8.54688 8.34375L9 8.79687L10.1875 7.60937L11.375 6.42187V11.2906V16.1562H12H12.625V11.2906V6.42187L13.8125 7.60937L15 8.79687L15.4531 8.34375L15.9063 7.89062L13.9625 5.94687C12.8906 4.875 12.0094 4 12 4C11.9906 4 11.1094 4.875 10.0375 5.94687Z"/>
</mask>
<path d="M10.0375 5.94687L8.09375 7.89062L8.54688 8.34375L9 8.79687L10.1875 7.60937L11.375 6.42187V11.2906V16.1562H12H12.625V11.2906V6.42187L13.8125 7.60937L15 8.79687L15.4531 8.34375L15.9063 7.89062L13.9625 5.94687C12.8906 4.875 12.0094 4 12 4C11.9906 4 11.1094 4.875 10.0375 5.94687Z" fill="white" stroke="white" stroke-width="0.4" mask="url(#path-1-inside-1_1044_3935)"/>
<mask id="path-2-inside-2_1044_3935" fill="white">
<path d="M4 16.0844C4 18.6437 3.99688 18.5687 4.19063 18.9625C4.40313 19.3937 4.82188 19.7562 5.28438 19.9094L5.51563 19.9844H12H18.4844L18.7156 19.9094C19.1781 19.7562 19.5969 19.3937 19.8094 18.9625C20.0031 18.5687 20 18.6437 20 16.0844V13.75H19.375H18.7531L18.7438 15.9906C18.7344 18.5031 18.7469 18.3594 18.5031 18.5687C18.4313 18.6312 18.3281 18.6875 18.275 18.7C18.15 18.725 5.85 18.725 5.725 18.7C5.67188 18.6875 5.56875 18.6312 5.49688 18.5687C5.25313 18.3594 5.26563 18.5031 5.25625 15.9906L5.24688 13.75H4.625H4V16.0844Z"/>
</mask>
<path d="M4 16.0844C4 18.6437 3.99688 18.5687 4.19063 18.9625C4.40313 19.3937 4.82188 19.7562 5.28438 19.9094L5.51563 19.9844H12H18.4844L18.7156 19.9094C19.1781 19.7562 19.5969 19.3937 19.8094 18.9625C20.0031 18.5687 20 18.6437 20 16.0844V13.75H19.375H18.7531L18.7438 15.9906C18.7344 18.5031 18.7469 18.3594 18.5031 18.5687C18.4313 18.6312 18.3281 18.6875 18.275 18.7C18.15 18.725 5.85 18.725 5.725 18.7C5.67188 18.6875 5.56875 18.6312 5.49688 18.5687C5.25313 18.3594 5.26563 18.5031 5.25625 15.9906L5.24688 13.75H4.625H4V16.0844Z" fill="white" stroke="white" stroke-width="0.4" mask="url(#path-2-inside-2_1044_3935)"/>
</svg>
